<?xml version="1.0" encoding="utf-8"?>
<!-- Generator: Adobe Illustrator 19.1.1, SVG Export Plug-In . SVG Version: 6.00 Build 0)  -->
<svg version="1.1" xmlns="http://www.w3.org/2000/svg" xmlns:xlink="http://www.w3.org/1999/xlink" x="0px" y="0px"
	 viewBox="0 0 100 100" style="enable-background:new 0 0 100 100;" xml:space="preserve">
<style type="text/css">
	.st0{display:none;}
	.st1{display:inline;fill:#2E3191;stroke:#822A85;stroke-width:3;stroke-linecap:round;stroke-miterlimit:10;}
	.st2{display:inline;fill:#BD2137;}
	.st3{display:inline;}
	.st4{fill:#FFFFFF;}
	.st5{clip-path:url(#SVGID_2_);fill:#FFFFFF;}
	.st6{display:inline;fill:none;stroke:#AC57A1;stroke-width:0.1;stroke-miterlimit:10;stroke-dasharray:1,0.3;}
	.st7{fill:none;stroke:#FFFFFF;stroke-miterlimit:10;}
	.st8{fill:#803193;}
	.st9{fill:none;stroke:#803193;stroke-miterlimit:10;}
	.st10{fill:none;stroke:#FFFFFF;stroke-width:6;stroke-miterlimit:10;}
	.st11{fill:#FFFFFF;stroke:#FFFFFF;stroke-miterlimit:10;}
</style>
<g id="Layer_3" class="st0">
	<rect x="-49.9" y="-72.1" class="st1" width="742.5" height="674"/>
</g>
<g id="Layer_2" class="st0">
	<rect x="-486.1" y="58.7" class="st2" width="295" height="150"/>
	<g class="st3">
		<polygon class="st4" points="-312.6,98.4 -330.3,105.4 -330.3,152.4 -312.6,152.4 		"/>
		<polygon class="st4" points="-331.8,152.4 -349.5,152.4 -349.5,113 -331.8,106 		"/>
		<polygon class="st4" points="-368.7,120.6 -368.7,152.4 -351,152.4 -351,113.6 		"/>
		<g>
			<defs>
				<rect id="SVGID_1_" x="-368.7" y="98.4" width="60.3" height="70.7"/>
			</defs>
			<clipPath id="SVGID_2_">
				<use xlink:href="#SVGID_1_"  style="overflow:visible;"/>
			</clipPath>
			<path class="st5" d="M-360.8,169.1h-2.9l-1.2-7.8l-0.6,7.8h-3.2l1.1-12.9h4.5l0.7,4.3c0.1,0.4,0.1,0.7,0.2,1.2
				c0,0.4,0.1,0.9,0.1,1.4c0.1-0.8,0.2-1.6,0.3-2.2l0.9-4.7h4.3l0.9,12.9h-3.1l-0.4-7.8L-360.8,169.1z"/>
			<path class="st5" d="M-345.4,169.1h-3.6l-0.3-1.6h-2.3l-0.3,1.6h-3.6l3.1-12.9h4.3L-345.4,169.1z M-349.7,164.7l-0.2-1.5
				c0,0,0-0.1,0-0.2c0-0.1-0.1-0.6-0.2-1.5c0-0.1,0-0.2,0-0.4c0-0.2,0-0.4-0.1-0.6l-0.1-1.2c0,0.1,0,0.2,0,0.4c0,0.1,0,0.3-0.1,0.5
				c0,0.3-0.1,0.6-0.1,0.7c0,0.1,0,0.2,0,0.2l-0.2,1.6l-0.4,2H-349.7z"/>
			<path class="st5" d="M-335.9,169.1h-3.8l-1.7-4.6c0-0.1,0-0.2-0.1-0.3c0-0.1-0.1-0.3-0.2-0.5l0,0.9v4.5h-3.5v-12.9h3.6
				c1.6,0,2.7,0.3,3.5,0.9c1,0.8,1.5,1.9,1.5,3.4c0,1.6-0.7,2.6-2,3.2L-335.9,169.1z M-341.6,161.9h0.2c0.4,0,0.7-0.2,1-0.5
				c0.3-0.3,0.4-0.7,0.4-1.2c0-1-0.5-1.4-1.5-1.4h-0.1V161.9z"/>
			<polygon class="st5" points="-326.2,169.1 -329.9,169.1 -332.2,163.1 -332.2,169.1 -335.6,169.1 -335.6,156.2 -332.2,156.2 
				-332.2,161.7 -330.3,156.2 -326.7,156.2 -329.3,162.4 			"/>
			<polygon class="st5" points="-325.8,169.1 -325.8,156.2 -319.5,156.2 -319.5,159.2 -322.5,159.2 -322.5,160.9 -319.9,160.9 
				-319.9,164 -322.5,164 -322.5,166.1 -319.5,166.1 -319.5,169.1 			"/>
			<polygon class="st5" points="-312.6,169.1 -318.7,169.1 -318.7,156.2 -315.4,156.2 -315.4,166.1 -312.6,166.1 			"/>
			<path class="st5" d="M-314.5,158.7c0,1.7,1.4,3,3,3c1.6,0,3-1.3,3-3c0-1.7-1.4-3-3-3C-313.1,155.7-314.5,156.9-314.5,158.7
				 M-313.9,158.7c0-1.4,1.1-2.5,2.4-2.5c1.4,0,2.4,1.1,2.4,2.5c0,1.4-1.1,2.5-2.4,2.5C-312.8,161.2-313.9,160.1-313.9,158.7
				 M-312.1,158.9h0.6l0.9,1.5h0.6l-1-1.5c0.5-0.1,0.9-0.3,0.9-1c0-0.7-0.4-1-1.2-1h-1.3v3.5h0.5V158.9z M-312.1,158.4v-1.1h0.7
				c0.4,0,0.7,0.1,0.7,0.5c0,0.5-0.4,0.6-0.8,0.6H-312.1z"/>
		</g>
	</g>
	<rect x="10" y="10" class="st6" width="80" height="80"/>
	<polygon class="st6" points="0,50.1 50,0 100,50 50,100 	"/>
	<line class="st6" x1="100.1" y1="0" x2="0" y2="100.1"/>
	<line class="st6" x1="100.1" y1="100.1" x2="-0.1" y2="0"/>
	<line class="st6" x1="-0.1" y1="50" x2="100" y2="50"/>
	<line class="st6" x1="50" y1="-0.1" x2="50" y2="100.1"/>
	<rect x="147.6" y="10" class="st6" width="80" height="80"/>
	<polygon class="st6" points="137.6,50.1 187.7,0 237.7,50 187.6,100 	"/>
	<line class="st6" x1="237.7" y1="0" x2="137.6" y2="100.1"/>
	<line class="st6" x1="237.7" y1="100.1" x2="137.6" y2="0"/>
	<line class="st6" x1="137.6" y1="50" x2="237.7" y2="50"/>
	<line class="st6" x1="187.6" y1="-0.1" x2="187.6" y2="100.1"/>
	<rect x="293.1" y="10" class="st6" width="80" height="80"/>
	<polygon class="st6" points="283,50.1 333.1,0 383.1,50 333.1,100 	"/>
	<line class="st6" x1="383.1" y1="0" x2="283" y2="100.1"/>
	<line class="st6" x1="383.1" y1="100.1" x2="283" y2="0"/>
	<line class="st6" x1="283" y1="50" x2="383.1" y2="50"/>
	<line class="st6" x1="333.1" y1="-0.1" x2="333.1" y2="100.1"/>
	<rect x="293.1" y="158.1" class="st6" width="80" height="80"/>
	<polygon class="st6" points="283,198.2 333.1,148.1 383.1,198.1 333.1,248.1 	"/>
	<line class="st6" x1="383.1" y1="148.1" x2="283" y2="248.2"/>
	<line class="st6" x1="383.1" y1="248.2" x2="283" y2="148.1"/>
	<line class="st6" x1="283" y1="198.1" x2="383.1" y2="198.1"/>
	<line class="st6" x1="333.1" y1="148" x2="333.1" y2="248.2"/>
	<rect x="147.6" y="158.1" class="st6" width="80" height="80"/>
	<polygon class="st6" points="137.6,198.2 187.7,148.1 237.7,198.1 187.6,248.1 	"/>
	<line class="st6" x1="237.7" y1="148.1" x2="137.6" y2="248.2"/>
	<line class="st6" x1="237.7" y1="248.2" x2="137.6" y2="148.1"/>
	<line class="st6" x1="137.6" y1="198.1" x2="237.7" y2="198.1"/>
	<line class="st6" x1="187.6" y1="148" x2="187.6" y2="248.2"/>
	<rect x="15.2" y="158.1" class="st6" width="80" height="80"/>
	<polygon class="st6" points="5.2,198.2 55.2,148.1 105.3,198.1 55.2,248.1 	"/>
	<line class="st6" x1="105.3" y1="148.1" x2="5.2" y2="248.2"/>
	<line class="st6" x1="105.3" y1="248.2" x2="5.1" y2="148.1"/>
	<line class="st6" x1="5.1" y1="198.1" x2="105.3" y2="198.1"/>
	<line class="st6" x1="55.2" y1="148" x2="55.2" y2="248.2"/>
	<rect x="15.2" y="296" class="st6" width="80" height="80"/>
	<polygon class="st6" points="5.2,336 55.2,286 105.3,336 55.2,386 	"/>
	<line class="st6" x1="105.3" y1="285.9" x2="5.2" y2="386.1"/>
	<line class="st6" x1="105.3" y1="386.1" x2="5.1" y2="286"/>
	<line class="st6" x1="5.1" y1="336" x2="105.3" y2="336"/>
	<line class="st6" x1="55.2" y1="285.9" x2="55.2" y2="386.1"/>
	<rect x="150.9" y="296" class="st6" width="80" height="80"/>
	<polygon class="st6" points="140.9,336 191,286 241,336 190.9,386 	"/>
	<line class="st6" x1="241" y1="285.9" x2="140.9" y2="386.1"/>
	<line class="st6" x1="241" y1="386.1" x2="140.9" y2="286"/>
	<line class="st6" x1="140.9" y1="336" x2="241" y2="336"/>
	<line class="st6" x1="190.9" y1="285.9" x2="190.9" y2="386.1"/>
	<rect x="297.9" y="296" class="st6" width="80" height="80"/>
	<polygon class="st6" points="287.8,336 337.9,286 387.9,336 337.9,386 	"/>
	<line class="st6" x1="387.9" y1="285.9" x2="287.8" y2="386.1"/>
	<line class="st6" x1="387.9" y1="386.1" x2="287.8" y2="286"/>
	<line class="st6" x1="287.8" y1="336" x2="387.9" y2="336"/>
	<line class="st6" x1="337.9" y1="285.9" x2="337.9" y2="386.1"/>
</g>
<g id="Layer_6">
	<g>
		<path class="st7" d="M49.4,208.6l21.8,5.4l3.1-12.8l-21.8-5.4L49.4,208.6z M71.7,211.8l20.2,5l2.1-8.5l-20.2-5L71.7,211.8z"/>
		<rect x="64.9" y="216.1" class="st4" width="12" height="2.3"/>
		<polygon class="st4" points="99.1,212.6 98.4,215.4 92.5,214 93.2,211.2 		"/>
		<polygon class="st4" points="49.2,193.2 52.9,194.1 49,210.3 45.3,209.4 		"/>
		<g>
			<path class="st7" d="M71,224l-17,17.1 M71,224l17,17.1 M71,218.6v22.6"/>
		</g>
	</g>
	<g>
		<polygon class="st4" points="38.3,190.8 36.9,192.1 35.5,190.8 33.5,190.8 33.5,188.9 32.2,187.6 33.5,186.2 33.5,184.3 
			35.5,184.3 36.9,182.9 38.3,184.3 40.3,184.3 40.3,186.2 41.6,187.6 40.3,188.9 40.3,190.8 		"/>
		<polygon class="st7" points="21.8,181.8 20.5,183.1 19.2,181.8 17.3,181.8 17.3,180 16,178.7 17.3,177.4 17.3,175.6 19.2,175.6 
			20.5,174.3 21.8,175.6 23.7,175.6 23.7,177.4 25,178.7 23.7,180 23.7,181.8 		"/>
		<polygon class="st7" points="38.2,166.5 36.9,167.8 35.6,166.5 33.7,166.5 33.7,164.8 32.4,163.5 33.7,162.2 33.7,160.3 
			35.6,160.3 36.9,159 38.2,160.3 40.1,160.3 40.1,162.2 41.4,163.5 40.1,164.8 40.1,166.5 		"/>
		<polygon class="st4" points="17.3,162 16,163.4 14.6,162 12.6,162 12.6,160.2 11.2,158.9 12.6,157.5 12.6,155.6 14.6,155.6 
			16,154.2 17.3,155.6 19.3,155.6 19.3,157.5 20.7,158.9 19.3,160.2 19.3,162 		"/>
	</g>
	<g>
		<path class="st7" d="M209.4,20.2l8-8 M216.3,49h11.4 M159.2,12.2l8,8 M187.7,17.9V6.6 M147.2,49h11.4 M177.3,88.1h20.7
			 M177.3,85.5h20.7 M177.3,82.9h20.7"/>
		<polygon class="st4" points="208,49.5 197.8,26.9 177.4,26.9 167.3,49.5 177.4,72 177.4,72 177.4,80.3 198.1,80.3 198.1,71.4 		
			"/>
		<g>
			<polygon class="st8" points="184.3,51.9 181.3,54.8 184.3,57.6 187.2,54.8 190.2,57.6 193.2,54.8 190.2,51.9 187.2,49 			"/>
		</g>
		<polyline class="st9" points="187.7,79.4 187.7,74.2 191.3,70.7 187.8,67.3 191.6,63.7 187.4,59.6 187.4,53.6 		"/>
	</g>
	<g>
		<g>
			<polyline class="st7" points="326.3,51.1 338.6,63.4 338.6,80.8 326.3,93 309,93 296.7,80.8 296.7,63.4 309,51.1 			"/>
			<line class="st7" x1="317.6" y1="43" x2="317.6" y2="48.9"/>
			<rect x="313.3" y="38.9" class="st4" width="8.7" height="5.4"/>
			<g>
				<polyline class="st4" points="319.2,69 321.4,71.2 321.4,74.4 319.2,76.6 316.1,76.6 313.9,74.4 313.9,71.2 316.1,69 				"/>
				<line class="st7" x1="317.6" y1="73.5" x2="329.4" y2="61.8"/>
			</g>
			
				<rect x="329.3" y="54.4" transform="matrix(0.7071 0.7071 -0.7071 0.7071 137.8851 -220.1624)" class="st4" width="10.8" height="3.9"/>
			
				<rect x="295.6" y="53.6" transform="matrix(-0.7071 0.7071 -0.7071 -0.7071 553.1409 -118.0202)" class="st4" width="10.8" height="3.9"/>
		</g>
		<path class="st7" d="M369.3,17.4l-5.5,5.5l-7.3,7.3l-8.1,2l-25.5-5v-4.4h14.8l-5.4-5.4l-14.8,2.9l-4.9,4.9l-6.1,0.1
			c-0.4-1.3-0.5-1.6-0.8-3l7.8-7.8l19.1-4.6l16.6,4.3l5-0.9l5.5-5.5"/>
	</g>
	<g>
		<g>
			<rect x="162.4" y="198.3" class="st7" width="50.9" height="31.1"/>
			<rect x="155.6" y="198.3" class="st4" width="6.5" height="4.9"/>
			<rect x="213.3" y="198.3" class="st4" width="6.5" height="4.9"/>
			<polyline class="st4" points="214.1,198.3 214.1,192.2 202.7,185.5 187.9,185.5 173.1,185.5 161.7,192.2 161.7,198.3 			"/>
			<polygon class="st4" points="191,181.3 190,185.5 185.7,185.5 184.8,181.3 			"/>
		</g>
		<g>
			<polyline class="st7" points="152.9,236.4 159.9,240.5 166.8,236.4 173.8,240.5 180.7,236.4 187.7,240.5 194.6,236.4 
				201.6,240.5 208.6,236.4 215.5,240.5 222.5,236.4 			"/>
		</g>
		<polyline class="st7" points="189.8,162.1 185.2,166.8 189.7,171.3 189.7,178 		"/>
		<polyline class="st7" points="182.2,158.4 177.6,163 182.1,167.6 182.1,174.3 		"/>
	</g>
	<g>
		<polygon class="st7" points="311.2,214.8 311.2,214.8 302.6,214.8 297.9,225.7 299.3,226.4 303.5,216.9 303.6,216.9 303.6,227.1 
			303.6,227.5 303.6,237.5 306.3,237.5 306.3,227.5 307.7,227.5 307.7,237.5 310.4,237.5 310.4,227.5 310.4,227.1 310.4,216.9 
			310.4,216.9 314.6,226.4 316,225.7 311.2,214.8 		"/>
		<polygon class="st7" points="328.4,214.8 328.4,214.8 319.3,214.8 319.3,214.8 319.2,214.8 314.4,225.7 315.9,226.4 320,216.9 
			320.6,216.9 318.3,227.5 320.6,227.5 320.6,237.5 323.2,237.5 323.2,227.5 323.7,227.5 323.9,227.5 324.4,227.5 324.4,237.5 
			327,237.5 327,227.5 329.3,227.5 327,216.9 327.5,216.9 331.7,226.4 333.2,225.7 328.4,214.8 		"/>
		<polygon class="st7" points="305.8,208.7 304.2,210.3 304.2,212.6 305.8,214.2 308,214.2 309.7,212.6 309.7,210.3 308.1,208.7 		
			"/>
		<polygon class="st7" points="345,214.8 345,214.8 336.4,214.8 331.6,225.7 333.1,226.4 337.2,216.9 337.4,216.9 337.4,227.1 
			337.4,227.5 337.4,237.5 340.1,237.5 340.1,227.5 341.5,227.5 341.5,237.5 344.1,237.5 344.1,227.5 344.1,227.1 344.1,216.9 
			344.1,216.9 348.3,226.4 349.8,225.7 345,214.8 		"/>
		<polygon class="st7" points="339.6,208.7 338,210.3 337.9,212.6 339.5,214.2 341.8,214.2 343.4,212.6 343.5,210.3 341.9,208.7 		
			"/>
		<polygon class="st7" points="322.8,208.7 321.1,210.3 321.1,212.6 322.7,214.2 325,214.2 326.6,212.6 326.7,210.3 325.1,208.7 		
			"/>
		<polygon class="st7" points="362.4,214.8 362.4,214.8 353.3,214.8 353.3,214.8 353.2,214.8 348.4,225.7 349.9,226.4 354.1,216.9 
			354.6,216.9 352.3,227.5 354.6,227.5 354.6,237.5 357.3,237.5 357.3,227.5 357.7,227.5 357.9,227.5 358.4,227.5 358.4,237.5 
			361,237.5 361,227.5 363.3,227.5 361,216.9 361.5,216.9 365.7,226.4 367.2,225.7 362.4,214.8 		"/>
		<polygon class="st7" points="356.8,208.7 355.1,210.3 355.1,212.6 356.7,214.2 359,214.2 360.6,212.6 360.7,210.3 359.1,208.7 		
			"/>
	</g>
	<g>
		<g>
			<polygon class="st7" points="362.9,164.1 356.6,157.8 352.1,157.8 339.4,181.1 340.9,182.6 342.2,183.9 344.1,185.8 367.4,173.1 
				367.4,168.6 363.9,165.1 			"/>
			<polygon class="st4" points="347.9,169.4 342.8,178.6 344,179.8 345,180.8 346.6,182.4 365.2,172.2 365.2,168.7 			"/>
			
				<rect x="334.3" y="184.1" transform="matrix(-0.7071 -0.7071 0.7071 -0.7071 448.0937 557.1489)" class="st4" width="10.4" height="3.4"/>
		</g>
		<polygon class="st7" points="339.2,188.7 339.8,188.2 340.6,188.2 341.2,188.7 341.2,189.5 340.6,190.1 339.8,190.1 339.2,189.5 
					"/>
		<polygon class="st7" points="335.7,191.8 336.2,191.2 337,191.2 337.6,191.8 337.6,192.5 337,193.1 336.2,193.1 335.7,192.5 		"/>
		<polygon class="st7" points="331,196.3 331.5,195.7 332.3,195.7 332.9,196.3 332.9,197.1 332.3,197.6 331.5,197.6 331,197.1 		"/>
		<polygon class="st7" points="336.6,197.2 337.2,196.7 338,196.7 338.5,197.2 338.5,198 338,198.6 337.2,198.6 336.6,198 		"/>
		<polygon class="st7" points="327.9,198.2 328.4,197.6 329.2,197.6 329.8,198.2 329.8,199 329.2,199.5 328.4,199.5 327.9,199 		"/>
		<polygon class="st7" points="334.7,187.8 335.3,187.2 336.1,187.2 336.6,187.8 336.6,188.6 336.1,189.1 335.3,189.1 334.7,188.6 
					"/>
		<polygon class="st7" points="330.6,191.2 331.2,190.6 332,190.6 332.5,191.2 332.5,192 332,192.6 331.2,192.6 330.6,192 		"/>
	</g>
	<g>
		<polyline class="st7" points="227.9,350.9 227.9,340.9 211.6,324.7 191.6,322.3 171.6,324.7 155.3,340.9 155.3,350.9 		"/>
		<polygon class="st4" points="194.8,312.6 193.8,316.9 189.4,316.9 188.4,312.6 		"/>
		<rect x="147.1" y="350.9" class="st4" width="88.3" height="5.2"/>
		<line class="st7" x1="191.6" y1="322.3" x2="191.6" y2="314.7"/>
	</g>
	<g>
		<path class="st7" d="M341.3,371.3l25.8-28.9v-18.7c0,0-9.9-9.9-13.6-13.6l-15.1,13.6L323.3,310l-13.6,13.6v18.7l25.8,28.9H341.3z"
			/>
	</g>
	<g>
		<g>
			<g>
				<path class="st4" d="M10.3,77.6h12.6c0.1,0,0.1,0,0.2,0.1l9.2,9.2c0.1,0.1,0.4,0,0.4-0.2v-8.9c0-0.1,0.1-0.2,0.2-0.2h5
					c0.1,0,0.2-0.1,0.2-0.2v-27c0-0.1-0.1-0.2-0.2-0.2H10.3c-0.1,0-0.2,0.1-0.2,0.2v27C10,77.5,10.1,77.6,10.3,77.6z"/>
			</g>
			<g>
				<g>
					<path class="st8" d="M23.4,67.6c-0.1,0-0.2-0.1-0.1-0.3c0.3-1.3,0.5-2.1,1.6-3.1c1.2-1,2.1-1.3,2.1-3.4c0-1.7-0.4-2.3-2.5-2.3
						c-0.9,0-1.9,0.2-2.9,0.5c-0.1,0-0.3,0-0.3-0.2l-0.1-1.1c0-0.1,0.1-0.2,0.2-0.2c1-0.2,2.1-0.5,3.2-0.5c3.1,0,4.2,1.1,4.2,3.8
						c0,3.1-1.4,3.4-2.8,4.8c-0.6,0.6-0.9,1.2-1.2,2.3c0,0.1-0.2,0.2-0.3,0.2L23.4,67.6z M24.5,70.1c0.5,0.1,0.5,0.4,0.5,1.1
						c0,0.8-0.7,1.4-1.4,1.2c-0.5-0.1-0.5-0.4-0.5-1.1C23.1,70.6,23.8,69.9,24.5,70.1z"/>
				</g>
			</g>
		</g>
		<g>
			<polyline class="st7" points="59.7,18.1 90,34.4 86.1,44.7 82.1,55 59.5,49.6 48.7,47 			"/>
			<polyline class="st10" points="64.6,20.7 65.9,17.2 72.1,16.7 78.4,19.1 80.6,23.9 78.6,29 			"/>
			<polygon class="st7" points="74,26 53.2,48.1 82.1,55 90,34.4 			"/>
			<line class="st7" x1="58.6" y1="49.4" x2="60.2" y2="45.2"/>
			<line class="st7" x1="64.4" y1="51.3" x2="66" y2="47.1"/>
			<line class="st7" x1="70.5" y1="52.2" x2="71.7" y2="49.3"/>
			<line class="st7" x1="76.1" y1="54" x2="77.1" y2="51.4"/>
		</g>
		<g>
			<polygon class="st7" points="34,31.4 36,29.2 39,29.1 41.2,31.1 41.4,34.1 39.3,36.4 36.3,36.5 34.1,34.4 			"/>
			<polygon class="st7" points="44.8,36.4 45.8,35.2 47.4,35.2 48.6,36.2 48.6,37.8 47.6,38.9 46,39 44.8,37.9 			"/>
			<polygon class="st7" points="32.6,42.3 33.6,41.1 35.2,41.1 36.3,42.1 36.4,43.7 35.4,44.8 33.8,44.9 32.6,43.9 			"/>
		</g>
	</g>
	
		<rect x="62.6" y="353.7" transform="matrix(0.9583 -0.2859 0.2859 0.9583 -98.0772 38.1695)" class="st4" width="38.1" height="2.6"/>
	<g>
		
			<rect x="7.4" y="322.4" transform="matrix(-0.6144 -0.789 0.789 -0.6144 -207.4967 547.5112)" class="st4" width="45.4" height="4.2"/>
		<polygon class="st11" points="38.8,331.5 45.5,333.3 50.2,339.4 50.3,346.3 45.7,349.9 39.1,348.1 34.3,342 34.2,335.1 		"/>
	</g>
	<polygon class="st7" points="63.3,359.3 63.3,365.7 53,376 38,376 36.2,376 22.8,376 12.5,365.7 12.5,359.3 	"/>
</g>
</svg>
