<?xml version="1.0" encoding="utf-8"?>
<!-- Generator: Adobe Illustrator 19.1.1, SVG Export Plug-In . SVG Version: 6.00 Build 0)  -->
<svg version="1.1" xmlns="http://www.w3.org/2000/svg" xmlns:xlink="http://www.w3.org/1999/xlink" x="0px" y="0px"
	 viewBox="0 0 100 100" style="enable-background:new 0 0 100 100;" xml:space="preserve">
<style type="text/css">
	.st0{display:none;}
	.st1{display:inline;fill:#2E3191;stroke:#822A85;stroke-width:3;stroke-linecap:round;stroke-miterlimit:10;}
	.st2{display:inline;fill:#BD2137;}
	.st3{display:inline;}
	.st4{fill:#FFFFFF;}
	.st5{clip-path:url(#SVGID_2_);fill:#FFFFFF;}
	.st6{display:inline;fill:none;stroke:#AC57A1;stroke-width:0.1;stroke-miterlimit:10;stroke-dasharray:1,0.3;}
	.st7{fill:none;stroke:#FFFFFF;stroke-miterlimit:10;}
	.st8{fill:#803193;}
	.st9{fill:none;stroke:#803193;stroke-miterlimit:10;}
	.st10{fill:none;stroke:#FFFFFF;stroke-width:6;stroke-miterlimit:10;}
	.st11{fill:#FFFFFF;stroke:#FFFFFF;stroke-miterlimit:10;}
</style>
<g id="Layer_3" class="st0">
	<rect x="-187.5" y="-72.1" class="st1" width="742.5" height="674"/>
</g>
<g id="Layer_2" class="st0">
	<rect x="-623.7" y="58.7" class="st2" width="295" height="150"/>
	<g class="st3">
		<polygon class="st4" points="-450.2,98.4 -467.9,105.4 -467.9,152.4 -450.2,152.4 		"/>
		<polygon class="st4" points="-469.4,152.4 -487.1,152.4 -487.1,113 -469.4,106 		"/>
		<polygon class="st4" points="-506.4,120.6 -506.4,152.4 -488.7,152.4 -488.7,113.6 		"/>
		<g>
			<defs>
				<rect id="SVGID_1_" x="-506.4" y="98.4" width="60.3" height="70.7"/>
			</defs>
			<clipPath id="SVGID_2_">
				<use xlink:href="#SVGID_1_"  style="overflow:visible;"/>
			</clipPath>
			<path class="st5" d="M-498.4,169.1h-2.9l-1.2-7.8l-0.6,7.8h-3.2l1.1-12.9h4.5l0.7,4.3c0.1,0.4,0.1,0.7,0.2,1.2
				c0,0.4,0.1,0.9,0.1,1.4c0.1-0.8,0.2-1.6,0.3-2.2l0.9-4.7h4.3l0.9,12.9h-3.1l-0.4-7.8L-498.4,169.1z"/>
			<path class="st5" d="M-483,169.1h-3.6l-0.3-1.6h-2.3l-0.3,1.6h-3.6l3.1-12.9h4.3L-483,169.1z M-487.3,164.7l-0.2-1.5
				c0,0,0-0.1,0-0.2c0-0.1-0.1-0.6-0.2-1.5c0-0.1,0-0.2,0-0.4c0-0.2,0-0.4-0.1-0.6l-0.1-1.2c0,0.1,0,0.2,0,0.4c0,0.1,0,0.3-0.1,0.5
				c0,0.3-0.1,0.6-0.1,0.7c0,0.1,0,0.2,0,0.2l-0.2,1.6l-0.4,2H-487.3z"/>
			<path class="st5" d="M-473.5,169.1h-3.8l-1.7-4.6c0-0.1,0-0.2-0.1-0.3c0-0.1-0.1-0.3-0.2-0.5l0,0.9v4.5h-3.5v-12.9h3.6
				c1.6,0,2.7,0.3,3.5,0.9c1,0.8,1.5,1.9,1.5,3.4c0,1.6-0.7,2.6-2,3.2L-473.5,169.1z M-479.2,161.9h0.2c0.4,0,0.7-0.2,1-0.5
				c0.3-0.3,0.4-0.7,0.4-1.2c0-1-0.5-1.4-1.5-1.4h-0.1V161.9z"/>
			<polygon class="st5" points="-463.8,169.1 -467.6,169.1 -469.9,163.1 -469.8,169.1 -473.3,169.1 -473.3,156.2 -469.8,156.2 
				-469.9,161.7 -468,156.2 -464.3,156.2 -466.9,162.4 			"/>
			<polygon class="st5" points="-463.5,169.1 -463.5,156.2 -457.1,156.2 -457.1,159.2 -460.1,159.2 -460.1,160.9 -457.5,160.9 
				-457.5,164 -460.1,164 -460.1,166.1 -457.1,166.1 -457.1,169.1 			"/>
			<polygon class="st5" points="-450.2,169.1 -456.4,169.1 -456.4,156.2 -453,156.2 -453,166.1 -450.2,166.1 			"/>
			<path class="st5" d="M-452.1,158.7c0,1.7,1.4,3,3,3c1.6,0,3-1.3,3-3c0-1.7-1.4-3-3-3C-450.7,155.7-452.1,156.9-452.1,158.7
				 M-451.5,158.7c0-1.4,1.1-2.5,2.4-2.5c1.4,0,2.4,1.1,2.4,2.5c0,1.4-1.1,2.5-2.4,2.5C-450.5,161.2-451.5,160.1-451.5,158.7
				 M-449.7,158.9h0.6l0.9,1.5h0.6l-1-1.5c0.5-0.1,0.9-0.3,0.9-1c0-0.7-0.4-1-1.2-1h-1.3v3.5h0.5V158.9z M-449.7,158.4v-1.1h0.7
				c0.4,0,0.7,0.1,0.7,0.5c0,0.5-0.4,0.6-0.8,0.6H-449.7z"/>
		</g>
	</g>
	<rect x="-127.6" y="10" class="st6" width="80" height="80"/>
	<polygon class="st6" points="-137.7,50.1 -87.6,0 -37.6,50 -87.7,100 	"/>
	<line class="st6" x1="-37.6" y1="0" x2="-137.7" y2="100.1"/>
	<line class="st6" x1="-37.6" y1="100.1" x2="-137.7" y2="0"/>
	<line class="st6" x1="-137.7" y1="50" x2="-37.6" y2="50"/>
	<line class="st6" x1="-87.6" y1="-0.1" x2="-87.6" y2="100.1"/>
	<rect x="10" y="10" class="st6" width="80" height="80"/>
	<polygon class="st6" points="0,50.1 50,0 100,50 50,100 	"/>
	<line class="st6" x1="100.1" y1="0" x2="0" y2="100.1"/>
	<line class="st6" x1="100.1" y1="100.1" x2="-0.1" y2="0"/>
	<line class="st6" x1="-0.1" y1="50" x2="100" y2="50"/>
	<line class="st6" x1="50" y1="-0.1" x2="50" y2="100.1"/>
	<rect x="155.5" y="10" class="st6" width="80" height="80"/>
	<polygon class="st6" points="145.4,50.1 195.5,0 245.5,50 195.4,100 	"/>
	<line class="st6" x1="245.5" y1="0" x2="145.4" y2="100.1"/>
	<line class="st6" x1="245.5" y1="100.1" x2="145.4" y2="0"/>
	<line class="st6" x1="145.4" y1="50" x2="245.5" y2="50"/>
	<line class="st6" x1="195.5" y1="-0.1" x2="195.5" y2="100.1"/>
	<rect x="155.5" y="158.1" class="st6" width="80" height="80"/>
	<polygon class="st6" points="145.4,198.2 195.5,148.1 245.5,198.1 195.4,248.1 	"/>
	<line class="st6" x1="245.5" y1="148.1" x2="145.4" y2="248.2"/>
	<line class="st6" x1="245.5" y1="248.2" x2="145.4" y2="148.1"/>
	<line class="st6" x1="145.4" y1="198.1" x2="245.5" y2="198.1"/>
	<line class="st6" x1="195.5" y1="148" x2="195.5" y2="248.2"/>
	<rect x="10" y="158.1" class="st6" width="80" height="80"/>
	<polygon class="st6" points="0,198.2 50,148.1 100,198.1 50,248.1 	"/>
	<line class="st6" x1="100.1" y1="148.1" x2="0" y2="248.2"/>
	<line class="st6" x1="100.1" y1="248.2" x2="-0.1" y2="148.1"/>
	<line class="st6" x1="-0.1" y1="198.1" x2="100" y2="198.1"/>
	<line class="st6" x1="50" y1="148" x2="50" y2="248.2"/>
	<rect x="-122.4" y="158.1" class="st6" width="80" height="80"/>
	<polygon class="st6" points="-132.5,198.2 -82.4,148.1 -32.4,198.1 -82.4,248.1 	"/>
	<line class="st6" x1="-32.4" y1="148.1" x2="-132.5" y2="248.2"/>
	<line class="st6" x1="-32.4" y1="248.2" x2="-132.5" y2="148.1"/>
	<line class="st6" x1="-132.5" y1="198.1" x2="-32.4" y2="198.1"/>
	<line class="st6" x1="-82.4" y1="148" x2="-82.4" y2="248.2"/>
	<rect x="-122.4" y="296" class="st6" width="80" height="80"/>
	<polygon class="st6" points="-132.5,336 -82.4,286 -32.4,336 -82.4,386 	"/>
	<line class="st6" x1="-32.4" y1="285.9" x2="-132.5" y2="386.1"/>
	<line class="st6" x1="-32.4" y1="386.1" x2="-132.5" y2="286"/>
	<line class="st6" x1="-132.5" y1="336" x2="-32.4" y2="336"/>
	<line class="st6" x1="-82.4" y1="285.9" x2="-82.4" y2="386.1"/>
	<rect x="13.3" y="296" class="st6" width="80" height="80"/>
	<polygon class="st6" points="3.3,336 53.3,286 103.4,336 53.3,386 	"/>
	<line class="st6" x1="103.4" y1="285.9" x2="3.3" y2="386.1"/>
	<line class="st6" x1="103.4" y1="386.1" x2="3.3" y2="286"/>
	<line class="st6" x1="3.3" y1="336" x2="103.4" y2="336"/>
	<line class="st6" x1="53.3" y1="285.9" x2="53.3" y2="386.1"/>
	<rect x="160.2" y="296" class="st6" width="80" height="80"/>
	<polygon class="st6" points="150.2,336 200.3,286 250.3,336 200.2,386 	"/>
	<line class="st6" x1="250.3" y1="285.9" x2="150.2" y2="386.1"/>
	<line class="st6" x1="250.3" y1="386.1" x2="150.2" y2="286"/>
	<line class="st6" x1="150.2" y1="336" x2="250.3" y2="336"/>
	<line class="st6" x1="200.2" y1="285.9" x2="200.2" y2="386.1"/>
</g>
<g id="Layer_6">
	<g>
		<path class="st7" d="M-88.3,208.6l21.8,5.4l3.1-12.8l-21.8-5.4L-88.3,208.6z M-66,211.8l20.2,5l2.1-8.5l-20.2-5L-66,211.8z"/>
		<rect x="-72.7" y="216.1" class="st4" width="12" height="2.3"/>
		<polygon class="st4" points="-38.5,212.6 -39.2,215.4 -45.1,214 -44.5,211.2 		"/>
		<polygon class="st4" points="-88.4,193.2 -84.7,194.1 -88.6,210.3 -92.3,209.4 		"/>
		<g>
			<path class="st7" d="M-66.7,224l-17,17.1 M-66.7,224l17,17.1 M-66.7,218.6v22.6"/>
		</g>
	</g>
	<g>
		<polygon class="st4" points="-99.4,190.8 -100.7,192.1 -102.1,190.8 -104.1,190.8 -104.1,188.9 -105.5,187.6 -104.1,186.2 
			-104.1,184.3 -102.1,184.3 -100.7,182.9 -99.4,184.3 -97.4,184.3 -97.4,186.2 -96,187.6 -97.4,188.9 -97.4,190.8 		"/>
		<polygon class="st7" points="-115.9,181.8 -117.2,183.1 -118.5,181.8 -120.4,181.8 -120.4,180 -121.7,178.7 -120.4,177.4 
			-120.4,175.6 -118.5,175.6 -117.2,174.3 -115.9,175.6 -114,175.6 -114,177.4 -112.7,178.7 -114,180 -114,181.8 		"/>
		<polygon class="st7" points="-99.4,166.5 -100.7,167.8 -102,166.5 -103.9,166.5 -103.9,164.8 -105.2,163.5 -103.9,162.2 
			-103.9,160.3 -102,160.3 -100.7,159 -99.4,160.3 -97.5,160.3 -97.5,162.2 -96.2,163.5 -97.5,164.8 -97.5,166.5 		"/>
		<polygon class="st4" points="-120.3,162 -121.7,163.4 -123,162 -125,162 -125,160.2 -126.4,158.9 -125,157.5 -125,155.6 
			-123,155.6 -121.7,154.2 -120.3,155.6 -118.3,155.6 -118.3,157.5 -116.9,158.9 -118.3,160.2 -118.3,162 		"/>
	</g>
	<g>
		<path class="st7" d="M71.8,20.2l8-8 M78.6,49H90 M21.6,12.2l8,8 M50.1,17.9V6.6 M9.6,49H21 M39.7,88.1h20.7 M39.7,85.5h20.7
			 M39.7,82.9h20.7"/>
		<polygon class="st4" points="70.3,49.5 60.1,26.9 39.8,26.9 29.6,49.5 39.8,72 39.8,72 39.8,80.3 60.4,80.3 60.4,71.4 		"/>
		<g>
			<polygon class="st8" points="46.6,51.9 43.6,54.8 46.6,57.6 49.6,54.8 52.6,57.6 55.6,54.8 52.6,51.9 49.6,49 			"/>
		</g>
		<polyline class="st9" points="50.1,79.4 50.1,74.2 53.6,70.7 50.2,67.3 53.9,63.7 49.8,59.6 49.8,53.6 		"/>
	</g>
	<g>
		<g>
			<polyline class="st7" points="188.7,51.1 201,63.4 201,80.8 188.7,93 171.3,93 159,80.8 159,63.4 171.3,51.1 			"/>
			<line class="st7" x1="180" y1="43" x2="180" y2="48.9"/>
			<rect x="175.7" y="38.9" class="st4" width="8.7" height="5.4"/>
			<g>
				<polyline class="st4" points="181.6,69 183.8,71.2 183.8,74.4 181.6,76.6 178.4,76.6 176.2,74.4 176.2,71.2 178.4,69 				"/>
				<line class="st7" x1="180" y1="73.5" x2="191.8" y2="61.8"/>
			</g>
			
				<rect x="191.7" y="54.4" transform="matrix(0.7071 0.7071 -0.7071 0.7071 97.5748 -122.8416)" class="st4" width="10.8" height="3.9"/>
			
				<rect x="158" y="53.6" transform="matrix(-0.7071 0.7071 -0.7071 -0.7071 318.1792 -20.7)" class="st4" width="10.8" height="3.9"/>
		</g>
		<path class="st7" d="M231.7,17.4l-5.5,5.5l-7.3,7.3l-8.1,2l-25.5-5v-4.4h14.8l-5.4-5.4l-14.8,2.9l-4.9,4.9l-6.1,0.1
			c-0.4-1.3-0.5-1.6-0.8-3l7.8-7.8L195,9.9l16.6,4.3l5-0.9l5.5-5.5"/>
	</g>
	<g>
		<g>
			<rect x="24.8" y="198.3" class="st7" width="50.9" height="31.1"/>
			<rect x="18" y="198.3" class="st4" width="6.5" height="4.9"/>
			<rect x="75.7" y="198.3" class="st4" width="6.5" height="4.9"/>
			<polyline class="st4" points="76.4,198.3 76.4,192.2 65,185.5 50.3,185.5 35.5,185.5 24.1,192.2 24.1,198.3 			"/>
			<polygon class="st4" points="53.4,181.3 52.4,185.5 48.1,185.5 47.1,181.3 			"/>
		</g>
		<g>
			<polyline class="st7" points="15.3,236.4 22.2,240.5 29.2,236.4 36.1,240.5 43.1,236.4 50.1,240.5 57,236.4 64,240.5 70.9,236.4 
				77.9,240.5 84.8,236.4 			"/>
		</g>
		<polyline class="st7" points="52.2,162.1 47.6,166.8 52.1,171.3 52.1,178 		"/>
		<polyline class="st7" points="44.6,158.4 39.9,163 44.5,167.6 44.5,174.3 		"/>
	</g>
	<g>
		<polygon class="st7" points="173.6,214.8 173.6,214.8 165,214.8 160.2,225.7 161.7,226.4 165.8,216.9 166,216.9 166,227.1 
			166,227.5 166,237.5 168.7,237.5 168.7,227.5 170.1,227.5 170.1,237.5 172.7,237.5 172.7,227.5 172.7,227.1 172.7,216.9 
			172.7,216.9 176.9,226.4 178.4,225.7 173.6,214.8 		"/>
		<polygon class="st7" points="190.7,214.8 190.7,214.8 181.6,214.8 181.6,214.8 181.6,214.8 176.8,225.7 178.2,226.4 182.4,216.9 
			183,216.9 180.7,227.5 182.9,227.5 182.9,237.5 185.6,237.5 185.6,227.5 186.1,227.5 186.3,227.5 186.7,227.5 186.7,237.5 
			189.4,237.5 189.4,227.5 191.7,227.5 189.4,216.9 189.9,216.9 194.1,226.4 195.5,225.7 190.7,214.8 		"/>
		<polygon class="st7" points="168.2,208.7 166.6,210.3 166.5,212.6 168.1,214.2 170.4,214.2 172,212.6 172.1,210.3 170.5,208.7 		
			"/>
		<polygon class="st7" points="207.3,214.8 207.3,214.8 198.8,214.8 194,225.7 195.4,226.4 199.6,216.9 199.8,216.9 199.8,227.1 
			199.8,227.5 199.8,237.5 202.4,237.5 202.4,227.5 203.8,227.5 203.8,237.5 206.5,237.5 206.5,227.5 206.5,227.1 206.5,216.9 
			206.5,216.9 210.7,226.4 212.1,225.7 207.3,214.8 		"/>
		<polygon class="st7" points="202,208.7 200.3,210.3 200.3,212.6 201.9,214.2 204.2,214.2 205.8,212.6 205.8,210.3 204.2,208.7 		
			"/>
		<polygon class="st7" points="185.1,208.7 183.5,210.3 183.5,212.6 185.1,214.2 187.4,214.2 189,212.6 189,210.3 187.4,208.7 		"/>
		<polygon class="st7" points="224.7,214.8 224.7,214.8 215.6,214.8 215.6,214.8 215.6,214.8 210.8,225.7 212.2,226.4 216.4,216.9 
			217,216.9 214.7,227.5 216.9,227.5 216.9,237.5 219.6,237.5 219.6,227.5 220.1,227.5 220.3,227.5 220.7,227.5 220.7,237.5 
			223.4,237.5 223.4,227.5 225.7,227.5 223.4,216.9 223.9,216.9 228.1,226.4 229.5,225.7 224.7,214.8 		"/>
		<polygon class="st7" points="219.1,208.7 217.5,210.3 217.5,212.6 219.1,214.2 221.4,214.2 223,212.6 223,210.3 221.4,208.7 		"/>
	</g>
	<g>
		<g>
			<polygon class="st7" points="225.2,164.1 218.9,157.8 214.5,157.8 201.8,181.1 203.2,182.6 204.5,183.9 206.5,185.8 229.8,173.1 
				229.8,168.6 226.2,165.1 			"/>
			<polygon class="st4" points="210.2,169.4 205.2,178.6 206.4,179.8 207.4,180.8 208.9,182.4 227.6,172.2 227.6,168.7 			"/>
			
				<rect x="196.6" y="184.1" transform="matrix(-0.7071 -0.7071 0.7071 -0.7071 213.1349 459.8258)" class="st4" width="10.4" height="3.4"/>
		</g>
		<polygon class="st7" points="201.6,188.7 202.2,188.2 203,188.2 203.5,188.7 203.5,189.5 203,190.1 202.2,190.1 201.6,189.5 		"/>
		<polygon class="st7" points="198,191.8 198.6,191.2 199.4,191.2 200,191.8 200,192.5 199.4,193.1 198.6,193.1 198,192.5 		"/>
		<polygon class="st7" points="193.4,196.3 193.9,195.7 194.7,195.7 195.3,196.3 195.3,197.1 194.7,197.6 193.9,197.6 193.4,197.1 
					"/>
		<polygon class="st7" points="199,197.2 199.6,196.7 200.3,196.7 200.9,197.2 200.9,198 200.3,198.6 199.6,198.6 199,198 		"/>
		<polygon class="st7" points="190.2,198.2 190.8,197.6 191.6,197.6 192.1,198.2 192.1,199 191.6,199.5 190.8,199.5 190.2,199 		"/>
		<polygon class="st7" points="197.1,187.8 197.6,187.2 198.4,187.2 199,187.8 199,188.6 198.4,189.1 197.6,189.1 197.1,188.6 		"/>
		<polygon class="st7" points="193,191.2 193.5,190.6 194.3,190.6 194.9,191.2 194.9,192 194.3,192.6 193.5,192.6 193,192 		"/>
	</g>
	<g>
		<polyline class="st7" points="90.2,350.9 90.2,340.9 74,324.7 54,322.3 33.9,324.7 17.7,340.9 17.7,350.9 		"/>
		<polygon class="st4" points="57.1,312.6 56.1,316.9 51.8,316.9 50.8,312.6 		"/>
		<rect x="9.5" y="350.9" class="st4" width="88.3" height="5.2"/>
		<line class="st7" x1="54" y1="322.3" x2="54" y2="314.7"/>
	</g>
	<g>
		<path class="st7" d="M203.6,371.3l25.8-28.9v-18.7c0,0-9.9-9.9-13.6-13.6l-15.1,13.6L185.7,310l-13.6,13.6v18.7l25.8,28.9H203.6z"
			/>
	</g>
	<g>
		<g>
			<g>
				<path class="st4" d="M-127.4,77.6h12.6c0.1,0,0.1,0,0.2,0.1l9.2,9.2c0.1,0.1,0.4,0,0.4-0.2v-8.9c0-0.1,0.1-0.2,0.2-0.2h5
					c0.1,0,0.2-0.1,0.2-0.2v-27c0-0.1-0.1-0.2-0.2-0.2h-27.6c-0.1,0-0.2,0.1-0.2,0.2v27C-127.6,77.5-127.5,77.6-127.4,77.6z"/>
			</g>
			<g>
				<g>
					<path class="st8" d="M-114.3,67.6c-0.1,0-0.2-0.1-0.1-0.3c0.3-1.3,0.5-2.1,1.6-3.1c1.2-1,2.1-1.3,2.1-3.4
						c0-1.7-0.4-2.3-2.5-2.3c-0.9,0-1.9,0.2-2.9,0.5c-0.1,0-0.3,0-0.3-0.2l-0.1-1.1c0-0.1,0.1-0.2,0.2-0.2c1-0.2,2.1-0.5,3.2-0.5
						c3.1,0,4.2,1.1,4.2,3.8c0,3.1-1.4,3.4-2.8,4.8c-0.6,0.6-0.9,1.2-1.2,2.3c0,0.1-0.2,0.2-0.3,0.2L-114.3,67.6z M-113.1,70.1
						c0.5,0.1,0.5,0.4,0.5,1.1c0,0.8-0.7,1.4-1.4,1.2c-0.5-0.1-0.5-0.4-0.5-1.1C-114.5,70.6-113.9,69.9-113.1,70.1z"/>
				</g>
			</g>
		</g>
		<g>
			<polyline class="st7" points="-77.9,18.1 -47.6,34.4 -51.6,44.7 -55.5,55 -78.2,49.6 -88.9,47 			"/>
			<polyline class="st10" points="-73.1,20.7 -71.7,17.2 -65.6,16.7 -59.2,19.1 -57.1,23.9 -59,29 			"/>
			<polygon class="st7" points="-63.7,26 -84.5,48.1 -55.5,55 -47.6,34.4 			"/>
			<line class="st7" x1="-79" y1="49.4" x2="-77.4" y2="45.2"/>
			<line class="st7" x1="-73.2" y1="51.3" x2="-71.6" y2="47.1"/>
			<line class="st7" x1="-67.1" y1="52.2" x2="-66" y2="49.3"/>
			<line class="st7" x1="-61.5" y1="54" x2="-60.5" y2="51.4"/>
		</g>
		<g>
			<polygon class="st7" points="-103.6,31.4 -101.6,29.2 -98.6,29.1 -96.4,31.1 -96.3,34.1 -98.3,36.4 -101.3,36.5 -103.5,34.4 			
				"/>
			<polygon class="st7" points="-92.9,36.4 -91.8,35.2 -90.2,35.2 -89.1,36.2 -89,37.8 -90.1,38.9 -91.6,39 -92.8,37.9 			"/>
			<polygon class="st7" points="-105.1,42.3 -104,41.1 -102.4,41.1 -101.3,42.1 -101.2,43.7 -102.3,44.8 -103.8,44.9 -105,43.9 			
				"/>
		</g>
	</g>
	
		<rect x="-75" y="353.7" transform="matrix(0.9583 -0.2859 0.2859 0.9583 -103.8208 -1.1761)" class="st4" width="38.1" height="2.6"/>
	<g>
		
			<rect x="-130.3" y="322.4" transform="matrix(-0.6144 -0.789 0.789 -0.6144 -429.6906 438.9135)" class="st4" width="45.4" height="4.2"/>
		<polygon class="st11" points="-98.8,331.5 -92.2,333.3 -87.4,339.4 -87.3,346.3 -91.9,349.9 -98.5,348.1 -103.3,342 -103.4,335.1 
					"/>
	</g>
	<polygon class="st7" points="-74.3,359.3 -74.3,365.7 -84.6,376 -99.6,376 -101.4,376 -114.8,376 -125.1,365.7 -125.1,359.3 	"/>
</g>
</svg>
