<?xml version="1.0" encoding="utf-8"?>
<!-- Generator: Adobe Illustrator 19.1.1, SVG Export Plug-In . SVG Version: 6.00 Build 0)  -->
<svg version="1.1" xmlns="http://www.w3.org/2000/svg" xmlns:xlink="http://www.w3.org/1999/xlink" x="0px" y="0px"
	 viewBox="0 0 100 100" style="enable-background:new 0 0 100 100;" xml:space="preserve">
<style type="text/css">
	.st0{display:none;}
	.st1{display:inline;fill:#2E3191;stroke:#822A85;stroke-width:3;stroke-linecap:round;stroke-miterlimit:10;}
	.st2{display:inline;fill:#BD2137;}
	.st3{display:inline;}
	.st4{fill:#FFFFFF;}
	.st5{clip-path:url(#SVGID_2_);fill:#FFFFFF;}
	.st6{display:inline;fill:none;stroke:#AC57A1;stroke-width:0.1;stroke-miterlimit:10;stroke-dasharray:1,0.3;}
	.st7{fill:none;stroke:#FFFFFF;stroke-miterlimit:10;}
	.st8{fill:#803193;}
	.st9{fill:none;stroke:#803193;stroke-miterlimit:10;}
	.st10{fill:none;stroke:#FFFFFF;stroke-width:6;stroke-miterlimit:10;}
	.st11{fill:#FFFFFF;stroke:#FFFFFF;stroke-miterlimit:10;}
</style>
<g id="Layer_3" class="st0">
	<rect x="-332.9" y="-72.1" class="st1" width="742.5" height="674"/>
</g>
<g id="Layer_2" class="st0">
	<rect x="-769.2" y="58.7" class="st2" width="295" height="150"/>
	<g class="st3">
		<polygon class="st4" points="-595.7,98.4 -613.4,105.4 -613.4,152.4 -595.7,152.4 		"/>
		<polygon class="st4" points="-614.9,152.4 -632.6,152.4 -632.6,113 -614.9,106 		"/>
		<polygon class="st4" points="-651.8,120.6 -651.8,152.4 -634.1,152.4 -634.1,113.6 		"/>
		<g>
			<defs>
				<rect id="SVGID_1_" x="-651.8" y="98.4" width="60.3" height="70.7"/>
			</defs>
			<clipPath id="SVGID_2_">
				<use xlink:href="#SVGID_1_"  style="overflow:visible;"/>
			</clipPath>
			<path class="st5" d="M-643.9,169.1h-2.9l-1.2-7.8l-0.6,7.8h-3.2l1.1-12.9h4.5l0.7,4.3c0.1,0.4,0.1,0.7,0.2,1.2
				c0,0.4,0.1,0.9,0.1,1.4c0.1-0.8,0.2-1.6,0.3-2.2l0.9-4.7h4.3l0.9,12.9h-3.1l-0.4-7.8L-643.9,169.1z"/>
			<path class="st5" d="M-628.5,169.1h-3.6l-0.3-1.6h-2.3l-0.3,1.6h-3.6l3.1-12.9h4.3L-628.5,169.1z M-632.8,164.7l-0.2-1.5
				c0,0,0-0.1,0-0.2c0-0.1-0.1-0.6-0.2-1.5c0-0.1,0-0.2,0-0.4c0-0.2,0-0.4-0.1-0.6l-0.1-1.2c0,0.1,0,0.2,0,0.4c0,0.1,0,0.3-0.1,0.5
				c0,0.3-0.1,0.6-0.1,0.7c0,0.1,0,0.2,0,0.2l-0.2,1.6l-0.4,2H-632.8z"/>
			<path class="st5" d="M-619,169.1h-3.8l-1.7-4.6c0-0.1,0-0.2-0.1-0.3c0-0.1-0.1-0.3-0.2-0.5l0,0.9v4.5h-3.5v-12.9h3.6
				c1.6,0,2.7,0.3,3.5,0.9c1,0.8,1.5,1.9,1.5,3.4c0,1.6-0.7,2.6-2,3.2L-619,169.1z M-624.7,161.9h0.2c0.4,0,0.7-0.2,1-0.5
				c0.3-0.3,0.4-0.7,0.4-1.2c0-1-0.5-1.4-1.5-1.4h-0.1V161.9z"/>
			<polygon class="st5" points="-609.3,169.1 -613,169.1 -615.3,163.1 -615.2,169.1 -618.7,169.1 -618.7,156.2 -615.2,156.2 
				-615.3,161.7 -613.4,156.2 -609.7,156.2 -612.4,162.4 			"/>
			<polygon class="st5" points="-608.9,169.1 -608.9,156.2 -602.6,156.2 -602.6,159.2 -605.6,159.2 -605.6,160.9 -603,160.9 
				-603,164 -605.6,164 -605.6,166.1 -602.6,166.1 -602.6,169.1 			"/>
			<polygon class="st5" points="-595.7,169.1 -601.8,169.1 -601.8,156.2 -598.5,156.2 -598.5,166.1 -595.7,166.1 			"/>
			<path class="st5" d="M-597.6,158.7c0,1.7,1.4,3,3,3c1.6,0,3-1.3,3-3c0-1.7-1.4-3-3-3C-596.2,155.7-597.6,156.9-597.6,158.7
				 M-597,158.7c0-1.4,1.1-2.5,2.4-2.5c1.4,0,2.4,1.1,2.4,2.5c0,1.4-1.1,2.5-2.4,2.5C-595.9,161.2-597,160.1-597,158.7
				 M-595.2,158.9h0.6l0.9,1.5h0.6l-1-1.5c0.5-0.1,0.9-0.3,0.9-1c0-0.7-0.4-1-1.2-1h-1.3v3.5h0.5V158.9z M-595.2,158.4v-1.1h0.7
				c0.4,0,0.7,0.1,0.7,0.5c0,0.5-0.4,0.6-0.8,0.6H-595.2z"/>
		</g>
	</g>
	<rect x="-273.1" y="10" class="st6" width="80" height="80"/>
	<polygon class="st6" points="-283.1,50.1 -233.1,0 -183,50 -233.1,100 	"/>
	<line class="st6" x1="-183" y1="0" x2="-283.1" y2="100.1"/>
	<line class="st6" x1="-183" y1="100.1" x2="-283.1" y2="0"/>
	<line class="st6" x1="-283.1" y1="50" x2="-183" y2="50"/>
	<line class="st6" x1="-233.1" y1="-0.1" x2="-233.1" y2="100.1"/>
	<rect x="-135.5" y="10" class="st6" width="80" height="80"/>
	<polygon class="st6" points="-145.5,50.1 -95.4,0 -45.4,50 -95.5,100 	"/>
	<line class="st6" x1="-45.4" y1="0" x2="-145.5" y2="100.1"/>
	<line class="st6" x1="-45.4" y1="100.1" x2="-145.5" y2="0"/>
	<line class="st6" x1="-145.5" y1="50" x2="-45.4" y2="50"/>
	<line class="st6" x1="-95.5" y1="-0.1" x2="-95.5" y2="100.1"/>
	<rect x="10" y="10" class="st6" width="80" height="80"/>
	<polygon class="st6" points="0,50.1 50,0 100,50 50,100 	"/>
	<line class="st6" x1="100.1" y1="0" x2="0" y2="100.1"/>
	<line class="st6" x1="100.1" y1="100.1" x2="-0.1" y2="0"/>
	<line class="st6" x1="-0.1" y1="50" x2="100" y2="50"/>
	<line class="st6" x1="50" y1="-0.1" x2="50" y2="100.1"/>
	<rect x="10" y="158.1" class="st6" width="80" height="80"/>
	<polygon class="st6" points="0,198.2 50,148.1 100,198.1 50,248.1 	"/>
	<line class="st6" x1="100.1" y1="148.1" x2="0" y2="248.2"/>
	<line class="st6" x1="100.1" y1="248.2" x2="-0.1" y2="148.1"/>
	<line class="st6" x1="-0.1" y1="198.1" x2="100" y2="198.1"/>
	<line class="st6" x1="50" y1="148" x2="50" y2="248.2"/>
	<rect x="-135.5" y="158.1" class="st6" width="80" height="80"/>
	<polygon class="st6" points="-145.5,198.2 -95.4,148.1 -45.4,198.1 -95.5,248.1 	"/>
	<line class="st6" x1="-45.4" y1="148.1" x2="-145.5" y2="248.2"/>
	<line class="st6" x1="-45.4" y1="248.2" x2="-145.5" y2="148.1"/>
	<line class="st6" x1="-145.5" y1="198.1" x2="-45.4" y2="198.1"/>
	<line class="st6" x1="-95.5" y1="148" x2="-95.5" y2="248.2"/>
	<rect x="-267.9" y="158.1" class="st6" width="80" height="80"/>
	<polygon class="st6" points="-277.9,198.2 -227.9,148.1 -177.8,198.1 -227.9,248.1 	"/>
	<line class="st6" x1="-177.8" y1="148.1" x2="-277.9" y2="248.2"/>
	<line class="st6" x1="-177.8" y1="248.2" x2="-277.9" y2="148.1"/>
	<line class="st6" x1="-277.9" y1="198.1" x2="-177.8" y2="198.1"/>
	<line class="st6" x1="-227.9" y1="148" x2="-227.9" y2="248.2"/>
	<rect x="-267.9" y="296" class="st6" width="80" height="80"/>
	<polygon class="st6" points="-277.9,336 -227.9,286 -177.8,336 -227.9,386 	"/>
	<line class="st6" x1="-177.8" y1="285.9" x2="-277.9" y2="386.1"/>
	<line class="st6" x1="-177.8" y1="386.1" x2="-277.9" y2="286"/>
	<line class="st6" x1="-277.9" y1="336" x2="-177.8" y2="336"/>
	<line class="st6" x1="-227.9" y1="285.9" x2="-227.9" y2="386.1"/>
	<rect x="-132.1" y="296" class="st6" width="80" height="80"/>
	<polygon class="st6" points="-142.2,336 -92.1,286 -42.1,336 -92.2,386 	"/>
	<line class="st6" x1="-42.1" y1="285.9" x2="-142.2" y2="386.1"/>
	<line class="st6" x1="-42.1" y1="386.1" x2="-142.2" y2="286"/>
	<line class="st6" x1="-142.2" y1="336" x2="-42.1" y2="336"/>
	<line class="st6" x1="-92.1" y1="285.9" x2="-92.1" y2="386.1"/>
	<rect x="14.8" y="296" class="st6" width="80" height="80"/>
	<polygon class="st6" points="4.7,336 54.8,286 104.8,336 54.8,386 	"/>
	<line class="st6" x1="104.9" y1="285.9" x2="4.7" y2="386.1"/>
	<line class="st6" x1="104.9" y1="386.1" x2="4.7" y2="286"/>
	<line class="st6" x1="4.7" y1="336" x2="104.8" y2="336"/>
	<line class="st6" x1="54.8" y1="285.9" x2="54.8" y2="386.1"/>
</g>
<g id="Layer_6">
	<g>
		<path class="st7" d="M-233.7,208.6l21.8,5.4l3.1-12.8l-21.8-5.4L-233.7,208.6z M-211.4,211.8l20.2,5l2.1-8.5l-20.2-5L-211.4,211.8
			z"/>
		<rect x="-218.2" y="216.1" class="st4" width="12" height="2.3"/>
		<polygon class="st4" points="-184,212.6 -184.7,215.4 -190.6,214 -189.9,211.2 		"/>
		<polygon class="st4" points="-233.9,193.2 -230.2,194.1 -234.1,210.3 -237.8,209.4 		"/>
		<g>
			<path class="st7" d="M-212.1,224l-17,17.1 M-212.1,224l17,17.1 M-212.1,218.6v22.6"/>
		</g>
	</g>
	<g>
		<polygon class="st4" points="-244.8,190.8 -246.2,192.1 -247.6,190.8 -249.5,190.8 -249.5,188.9 -250.9,187.6 -249.5,186.2 
			-249.5,184.3 -247.6,184.3 -246.2,182.9 -244.8,184.3 -242.8,184.3 -242.8,186.2 -241.5,187.6 -242.8,188.9 -242.8,190.8 		"/>
		<polygon class="st7" points="-261.3,181.8 -262.6,183.1 -263.9,181.8 -265.8,181.8 -265.8,180 -267.1,178.7 -265.8,177.4 
			-265.8,175.6 -263.9,175.6 -262.6,174.3 -261.3,175.6 -259.4,175.6 -259.4,177.4 -258.1,178.7 -259.4,180 -259.4,181.8 		"/>
		<polygon class="st7" points="-244.9,166.5 -246.2,167.8 -247.5,166.5 -249.4,166.5 -249.4,164.8 -250.7,163.5 -249.4,162.2 
			-249.4,160.3 -247.5,160.3 -246.2,159 -244.9,160.3 -243,160.3 -243,162.2 -241.7,163.5 -243,164.8 -243,166.5 		"/>
		<polygon class="st4" points="-265.8,162 -267.1,163.4 -268.5,162 -270.5,162 -270.5,160.2 -271.8,158.9 -270.5,157.5 
			-270.5,155.6 -268.5,155.6 -267.1,154.2 -265.8,155.6 -263.8,155.6 -263.8,157.5 -262.4,158.9 -263.8,160.2 -263.8,162 		"/>
	</g>
	<g>
		<path class="st7" d="M-73.7,20.2l8-8 M-66.8,49h11.4 M-123.9,12.2l8,8 M-95.4,17.9V6.6 M-135.9,49h11.4 M-105.8,88.1H-85
			 M-105.8,85.5H-85 M-105.8,82.9H-85"/>
		<polygon class="st4" points="-75.1,49.5 -85.3,26.9 -105.7,26.9 -115.8,49.5 -105.7,72 -105.6,72 -105.6,80.3 -85,80.3 -85,71.4 
					"/>
		<g>
			<polygon class="st8" points="-98.8,51.9 -101.8,54.8 -98.8,57.6 -95.8,54.8 -92.8,57.6 -89.9,54.8 -92.8,51.9 -95.8,49 			"/>
		</g>
		<polyline class="st9" points="-95.4,79.4 -95.4,74.2 -91.8,70.7 -95.3,67.3 -91.5,63.7 -95.7,59.6 -95.7,53.6 		"/>
	</g>
	<g>
		<g>
			<polyline class="st7" points="43.2,51.1 55.5,63.4 55.5,80.8 43.2,93 25.9,93 13.6,80.8 13.6,63.4 25.9,51.1 			"/>
			<line class="st7" x1="34.6" y1="43" x2="34.6" y2="48.9"/>
			<rect x="30.2" y="38.9" class="st4" width="8.7" height="5.4"/>
			<g>
				<polyline class="st4" points="36.1,69 38.3,71.2 38.3,74.4 36.1,76.6 33,76.6 30.8,74.4 30.8,71.2 33,69 				"/>
				<line class="st7" x1="34.6" y1="73.5" x2="46.3" y2="61.8"/>
			</g>
			
				<rect x="46.2" y="54.4" transform="matrix(0.7071 0.7071 -0.7071 0.7071 54.9746 -19.9922)" class="st4" width="10.8" height="3.9"/>
			
				<rect x="12.5" y="53.6" transform="matrix(-0.7071 0.7071 -0.7071 -0.7071 69.8698 82.1488)" class="st4" width="10.8" height="3.9"/>
		</g>
		<path class="st7" d="M86.2,17.4l-5.5,5.5l-7.3,7.3l-8.1,2l-25.5-5v-4.4h14.8l-5.4-5.4l-14.8,2.9l-4.9,4.9l-6.1,0.1
			c-0.4-1.3-0.5-1.6-0.8-3l7.8-7.8l19.1-4.6l16.6,4.3l5-0.9l5.5-5.5"/>
	</g>
	<g>
		<g>
			<rect x="-120.7" y="198.3" class="st7" width="50.9" height="31.1"/>
			<rect x="-127.4" y="198.3" class="st4" width="6.5" height="4.9"/>
			<rect x="-69.8" y="198.3" class="st4" width="6.5" height="4.9"/>
			<polyline class="st4" points="-69,198.3 -69,192.2 -80.4,185.5 -95.2,185.5 -110,185.5 -121.4,192.2 -121.4,198.3 			"/>
			<polygon class="st4" points="-92.1,181.3 -93,185.5 -97.4,185.5 -98.3,181.3 			"/>
		</g>
		<g>
			<polyline class="st7" points="-130.2,236.4 -123.2,240.5 -116.3,236.4 -109.3,240.5 -102.4,236.4 -95.4,240.5 -88.4,236.4 
				-81.5,240.5 -74.5,236.4 -67.6,240.5 -60.6,236.4 			"/>
		</g>
		<polyline class="st7" points="-93.2,162.1 -97.9,166.8 -93.3,171.3 -93.3,178 		"/>
		<polyline class="st7" points="-100.9,158.4 -105.5,163 -101,167.6 -101,174.3 		"/>
	</g>
	<g>
		<polygon class="st7" points="28.1,214.8 28.1,214.8 19.6,214.8 14.8,225.7 16.2,226.4 20.4,216.9 20.5,216.9 20.5,227.1 
			20.5,227.5 20.5,237.5 23.2,237.5 23.2,227.5 24.6,227.5 24.6,237.5 27.3,237.5 27.3,227.5 27.3,227.1 27.3,216.9 27.3,216.9 
			31.5,226.4 32.9,225.7 28.1,214.8 		"/>
		<polygon class="st7" points="45.3,214.8 45.3,214.8 36.2,214.8 36.2,214.8 36.1,214.8 31.3,225.7 32.8,226.4 37,216.9 37.5,216.9 
			35.2,227.5 37.5,227.5 37.5,237.5 40.2,237.5 40.2,227.5 40.6,227.5 40.8,227.5 41.3,227.5 41.3,237.5 44,237.5 44,227.5 
			46.2,227.5 43.9,216.9 44.4,216.9 48.6,226.4 50.1,225.7 45.3,214.8 		"/>
		<polygon class="st7" points="22.7,208.7 21.1,210.3 21.1,212.6 22.7,214.2 24.9,214.2 26.6,212.6 26.6,210.3 25,208.7 		"/>
		<polygon class="st7" points="61.9,214.8 61.9,214.8 53.3,214.8 48.5,225.7 50,226.4 54.2,216.9 54.3,216.9 54.3,227.1 54.3,227.5 
			54.3,237.5 57,237.5 57,227.5 58.4,227.5 58.4,237.5 61,237.5 61,227.5 61,227.1 61,216.9 61.1,216.9 65.2,226.4 66.7,225.7 
			61.9,214.8 		"/>
		<polygon class="st7" points="56.5,208.7 54.9,210.3 54.8,212.6 56.4,214.2 58.7,214.2 60.4,212.6 60.4,210.3 58.8,208.7 		"/>
		<polygon class="st7" points="39.7,208.7 38,210.3 38,212.6 39.6,214.2 41.9,214.2 43.5,212.6 43.6,210.3 42,208.7 		"/>
		<polygon class="st7" points="79.3,214.8 79.3,214.8 70.2,214.8 70.2,214.8 70.1,214.8 65.3,225.7 66.8,226.4 71,216.9 71.5,216.9 
			69.2,227.5 71.5,227.5 71.5,237.5 74.2,237.5 74.2,227.5 74.6,227.5 74.8,227.5 75.3,227.5 75.3,237.5 78,237.5 78,227.5 
			80.2,227.5 77.9,216.9 78.5,216.9 82.6,226.4 84.1,225.7 79.3,214.8 		"/>
		<polygon class="st7" points="73.7,208.7 72.1,210.3 72,212.6 73.6,214.2 75.9,214.2 77.5,212.6 77.6,210.3 76,208.7 		"/>
	</g>
	<g>
		<g>
			<polygon class="st7" points="79.8,164.1 73.5,157.8 69,157.8 56.3,181.1 57.8,182.6 59.1,183.9 61,185.8 84.3,173.1 84.3,168.6 
				80.8,165.1 			"/>
			<polygon class="st4" points="64.8,169.4 59.7,178.6 60.9,179.8 61.9,180.8 63.5,182.4 82.1,172.2 82.1,168.7 			"/>
			
				<rect x="51.2" y="184.1" transform="matrix(-0.7071 -0.7071 0.7071 -0.7071 -35.1715 356.9739)" class="st4" width="10.4" height="3.4"/>
		</g>
		<polygon class="st7" points="56.2,188.7 56.7,188.2 57.5,188.2 58.1,188.7 58.1,189.5 57.5,190.1 56.7,190.1 56.2,189.5 		"/>
		<polygon class="st7" points="52.6,191.8 53.1,191.2 53.9,191.2 54.5,191.8 54.5,192.5 53.9,193.1 53.1,193.1 52.6,192.5 		"/>
		<polygon class="st7" points="47.9,196.3 48.5,195.7 49.2,195.7 49.8,196.3 49.8,197.1 49.2,197.6 48.5,197.6 47.9,197.1 		"/>
		<polygon class="st7" points="53.5,197.2 54.1,196.7 54.9,196.7 55.5,197.2 55.5,198 54.9,198.6 54.1,198.6 53.5,198 		"/>
		<polygon class="st7" points="44.8,198.2 45.3,197.6 46.1,197.6 46.7,198.2 46.7,199 46.1,199.5 45.3,199.5 44.8,199 		"/>
		<polygon class="st7" points="51.6,187.8 52.2,187.2 53,187.2 53.5,187.8 53.5,188.6 53,189.1 52.2,189.1 51.6,188.6 		"/>
		<polygon class="st7" points="47.5,191.2 48.1,190.6 48.9,190.6 49.4,191.2 49.4,192 48.9,192.6 48.1,192.6 47.5,192 		"/>
	</g>
	<g>
		<polyline class="st7" points="-55.2,350.9 -55.2,340.9 -71.5,324.7 -91.5,322.3 -111.5,324.7 -127.7,340.9 -127.7,350.9 		"/>
		<polygon class="st4" points="-88.3,312.6 -89.3,316.9 -93.7,316.9 -94.7,312.6 		"/>
		<rect x="-136" y="350.9" class="st4" width="88.3" height="5.2"/>
		<line class="st7" x1="-91.5" y1="322.3" x2="-91.5" y2="314.7"/>
	</g>
	<g>
		<path class="st7" d="M58.2,371.3L84,342.4v-18.7c0,0-9.9-9.9-13.6-13.6l-15.1,13.6L40.3,310l-13.6,13.6v18.7l25.8,28.9H58.2z"/>
	</g>
	<g>
		<g>
			<g>
				<path class="st4" d="M-272.8,77.6h12.6c0.1,0,0.1,0,0.2,0.1l9.2,9.2c0.1,0.1,0.4,0,0.4-0.2v-8.9c0-0.1,0.1-0.2,0.2-0.2h5
					c0.1,0,0.2-0.1,0.2-0.2v-27c0-0.1-0.1-0.2-0.2-0.2h-27.6c-0.1,0-0.2,0.1-0.2,0.2v27C-273.1,77.5-273,77.6-272.8,77.6z"/>
			</g>
			<g>
				<g>
					<path class="st8" d="M-259.7,67.6c-0.1,0-0.2-0.1-0.1-0.3c0.3-1.3,0.5-2.1,1.6-3.1c1.2-1,2.1-1.3,2.1-3.4
						c0-1.7-0.4-2.3-2.5-2.3c-0.9,0-1.9,0.2-2.9,0.5c-0.1,0-0.3,0-0.3-0.2l-0.1-1.1c0-0.1,0.1-0.2,0.2-0.2c1-0.2,2.1-0.5,3.2-0.5
						c3.1,0,4.2,1.1,4.2,3.8c0,3.1-1.4,3.4-2.8,4.8c-0.6,0.6-0.9,1.2-1.2,2.3c0,0.1-0.2,0.2-0.3,0.2L-259.7,67.6z M-258.6,70.1
						c0.5,0.1,0.5,0.4,0.5,1.1c0,0.8-0.7,1.4-1.4,1.2c-0.5-0.1-0.5-0.4-0.5-1.1C-260,70.6-259.3,69.9-258.6,70.1z"/>
				</g>
			</g>
		</g>
		<g>
			<polyline class="st7" points="-223.3,18.1 -193.1,34.4 -197,44.7 -201,55 -223.6,49.6 -234.4,47 			"/>
			<polyline class="st10" points="-218.5,20.7 -217.2,17.2 -211,16.7 -204.7,19.1 -202.5,23.9 -204.5,29 			"/>
			<polygon class="st7" points="-209.1,26 -229.9,48.1 -201,55 -193.1,34.4 			"/>
			<line class="st7" x1="-224.5" y1="49.4" x2="-222.9" y2="45.2"/>
			<line class="st7" x1="-218.7" y1="51.3" x2="-217.1" y2="47.1"/>
			<line class="st7" x1="-212.6" y1="52.2" x2="-211.4" y2="49.3"/>
			<line class="st7" x1="-207" y1="54" x2="-206" y2="51.4"/>
		</g>
		<g>
			<polygon class="st7" points="-249.1,31.4 -247.1,29.2 -244.1,29.1 -241.8,31.1 -241.7,34.1 -243.7,36.4 -246.7,36.5 -249,34.4 
							"/>
			<polygon class="st7" points="-238.3,36.4 -237.3,35.2 -235.7,35.2 -234.5,36.2 -234.5,37.8 -235.5,38.9 -237.1,39 -238.2,37.9 
							"/>
			<polygon class="st7" points="-250.5,42.3 -249.5,41.1 -247.9,41.1 -246.7,42.1 -246.7,43.7 -247.7,44.8 -249.3,44.9 -250.4,43.9 
							"/>
		</g>
	</g>
	
		<rect x="-220.5" y="353.7" transform="matrix(0.9583 -0.2859 0.2859 0.9583 -109.8908 -42.757)" class="st4" width="38.1" height="2.6"/>
	<g>
		
			<rect x="-275.7" y="322.4" transform="matrix(-0.6144 -0.789 0.789 -0.6144 -664.507 324.1464)" class="st4" width="45.4" height="4.2"/>
		<polygon class="st11" points="-244.2,331.5 -237.6,333.3 -232.8,339.4 -232.7,346.3 -237.4,349.9 -244,348.1 -248.8,342 
			-248.9,335.1 		"/>
	</g>
	<polygon class="st7" points="-219.8,359.3 -219.8,365.7 -230,376 -245.1,376 -246.9,376 -260.3,376 -270.6,365.7 -270.6,359.3 	"/>
</g>
</svg>
