<?xml version="1.0" encoding="utf-8"?>
<!-- Generator: Adobe Illustrator 19.1.1, SVG Export Plug-In . SVG Version: 6.00 Build 0)  -->
<svg version="1.1" xmlns="http://www.w3.org/2000/svg" xmlns:xlink="http://www.w3.org/1999/xlink" x="0px" y="0px"
	 viewBox="0 0 100 100" style="enable-background:new 0 0 100 100;" xml:space="preserve">
<style type="text/css">
	.st0{display:none;}
	.st1{display:inline;fill:#2E3191;stroke:#822A85;stroke-width:3;stroke-linecap:round;stroke-miterlimit:10;}
	.st2{display:inline;fill:#BD2137;}
	.st3{display:inline;}
	.st4{fill:#FFFFFF;}
	.st5{clip-path:url(#SVGID_2_);fill:#FFFFFF;}
	.st6{display:inline;fill:none;stroke:#AC57A1;stroke-width:0.1;stroke-miterlimit:10;stroke-dasharray:1,0.3;}
	.st7{fill:none;stroke:#FFFFFF;stroke-miterlimit:10;}
	.st8{fill:#803193;}
	.st9{fill:none;stroke:#803193;stroke-miterlimit:10;}
	.st10{fill:none;stroke:#FFFFFF;stroke-width:6;stroke-miterlimit:10;}
	.st11{fill:#FFFFFF;stroke:#FFFFFF;stroke-miterlimit:10;}
</style>
<g id="Layer_3" class="st0">
	<rect x="-55.1" y="-220.2" class="st1" width="742.5" height="674"/>
</g>
<g id="Layer_2" class="st0">
	<rect x="-491.3" y="-89.4" class="st2" width="295" height="150"/>
	<g class="st3">
		<polygon class="st4" points="-317.8,-49.7 -335.5,-42.7 -335.5,4.3 -317.8,4.3 		"/>
		<polygon class="st4" points="-337,4.3 -354.7,4.3 -354.7,-35.1 -337,-42.1 		"/>
		<polygon class="st4" points="-373.9,-27.5 -373.9,4.3 -356.2,4.3 -356.2,-34.5 		"/>
		<g>
			<defs>
				<rect id="SVGID_1_" x="-373.9" y="-49.7" width="60.3" height="70.7"/>
			</defs>
			<clipPath id="SVGID_2_">
				<use xlink:href="#SVGID_1_"  style="overflow:visible;"/>
			</clipPath>
			<path class="st5" d="M-366,21h-2.9l-1.2-7.8l-0.6,7.8h-3.2l1.1-12.9h4.5l0.7,4.3c0.1,0.4,0.1,0.7,0.2,1.2c0,0.4,0.1,0.9,0.1,1.4
				c0.1-0.8,0.2-1.6,0.3-2.2l0.9-4.7h4.3L-361,21h-3.1l-0.4-7.8L-366,21z"/>
			<path class="st5" d="M-350.6,21h-3.6l-0.3-1.6h-2.3l-0.3,1.6h-3.6l3.1-12.9h4.3L-350.6,21z M-354.9,16.6l-0.2-1.5
				c0,0,0-0.1,0-0.2c0-0.1-0.1-0.6-0.2-1.5c0-0.1,0-0.2,0-0.4c0-0.2,0-0.4-0.1-0.6l-0.1-1.2c0,0.1,0,0.2,0,0.4c0,0.1,0,0.3-0.1,0.5
				c0,0.3-0.1,0.6-0.1,0.7c0,0.1,0,0.2,0,0.2l-0.2,1.6l-0.4,2H-354.9z"/>
			<path class="st5" d="M-341.1,21h-3.8l-1.7-4.6c0-0.1,0-0.2-0.1-0.3c0-0.1-0.1-0.3-0.2-0.5l0,0.9V21h-3.5V8.1h3.6
				c1.6,0,2.7,0.3,3.5,0.9c1,0.8,1.5,1.9,1.5,3.4c0,1.6-0.7,2.6-2,3.2L-341.1,21z M-346.8,13.8h0.2c0.4,0,0.7-0.2,1-0.5
				c0.3-0.3,0.4-0.7,0.4-1.2c0-1-0.5-1.4-1.5-1.4h-0.1V13.8z"/>
			<polygon class="st5" points="-331.4,21 -335.1,21 -337.5,15 -337.4,21 -340.8,21 -340.8,8.1 -337.4,8.1 -337.5,13.6 -335.5,8.1 
				-331.9,8.1 -334.5,14.3 			"/>
			<polygon class="st5" points="-331.1,21 -331.1,8.1 -324.7,8.1 -324.7,11.1 -327.7,11.1 -327.7,12.8 -325.1,12.8 -325.1,15.9 
				-327.7,15.9 -327.7,18 -324.7,18 -324.7,21 			"/>
			<polygon class="st5" points="-317.8,21 -323.9,21 -323.9,8.1 -320.6,8.1 -320.6,18 -317.8,18 			"/>
			<path class="st5" d="M-319.7,10.5c0,1.7,1.4,3,3,3c1.6,0,3-1.3,3-3c0-1.7-1.4-3-3-3C-318.3,7.6-319.7,8.8-319.7,10.5
				 M-319.1,10.5c0-1.4,1.1-2.5,2.4-2.5c1.4,0,2.4,1.1,2.4,2.5c0,1.4-1.1,2.5-2.4,2.5C-318,13.1-319.1,12-319.1,10.5 M-317.3,10.8
				h0.6l0.9,1.5h0.6l-1-1.5c0.5-0.1,0.9-0.3,0.9-1c0-0.7-0.4-1-1.2-1h-1.3v3.5h0.5V10.8z M-317.3,10.3V9.3h0.7
				c0.4,0,0.7,0.1,0.7,0.5c0,0.5-0.4,0.6-0.8,0.6H-317.3z"/>
		</g>
	</g>
	<rect x="4.8" y="-138.1" class="st6" width="80" height="80"/>
	<polygon class="st6" points="-5.3,-98 44.8,-148.1 94.8,-98.1 44.8,-48.1 	"/>
	<line class="st6" x1="94.9" y1="-148.1" x2="-5.3" y2="-48"/>
	<line class="st6" x1="94.9" y1="-48" x2="-5.3" y2="-148.1"/>
	<line class="st6" x1="-5.3" y1="-98.1" x2="94.8" y2="-98.1"/>
	<line class="st6" x1="44.8" y1="-148.2" x2="44.8" y2="-48"/>
	<rect x="142.4" y="-138.1" class="st6" width="80" height="80"/>
	<polygon class="st6" points="132.4,-98 182.4,-148.1 232.5,-98.1 182.4,-48.1 	"/>
	<line class="st6" x1="232.5" y1="-148.1" x2="132.4" y2="-48"/>
	<line class="st6" x1="232.5" y1="-48" x2="132.4" y2="-148.1"/>
	<line class="st6" x1="132.4" y1="-98.1" x2="232.5" y2="-98.1"/>
	<line class="st6" x1="182.4" y1="-148.2" x2="182.4" y2="-48"/>
	<rect x="287.9" y="-138.1" class="st6" width="80" height="80"/>
	<polygon class="st6" points="277.8,-98 327.9,-148.1 377.9,-98.1 327.9,-48.1 	"/>
	<line class="st6" x1="377.9" y1="-148.1" x2="277.8" y2="-48"/>
	<line class="st6" x1="377.9" y1="-48" x2="277.8" y2="-148.1"/>
	<line class="st6" x1="277.8" y1="-98.1" x2="377.9" y2="-98.1"/>
	<line class="st6" x1="327.9" y1="-148.2" x2="327.9" y2="-48"/>
	<rect x="287.9" y="10" class="st6" width="80" height="80"/>
	<polygon class="st6" points="277.8,50.1 327.9,0 377.9,50 327.9,100 	"/>
	<line class="st6" x1="377.9" y1="0" x2="277.8" y2="100.1"/>
	<line class="st6" x1="377.9" y1="100.1" x2="277.8" y2="0"/>
	<line class="st6" x1="277.8" y1="50" x2="377.9" y2="50"/>
	<line class="st6" x1="327.9" y1="-0.1" x2="327.9" y2="100.1"/>
	<rect x="142.4" y="10" class="st6" width="80" height="80"/>
	<polygon class="st6" points="132.4,50.1 182.4,0 232.5,50 182.4,100 	"/>
	<line class="st6" x1="232.5" y1="0" x2="132.4" y2="100.1"/>
	<line class="st6" x1="232.5" y1="100.1" x2="132.4" y2="0"/>
	<line class="st6" x1="132.4" y1="50" x2="232.5" y2="50"/>
	<line class="st6" x1="182.4" y1="-0.1" x2="182.4" y2="100.1"/>
	<rect x="10" y="10" class="st6" width="80" height="80"/>
	<polygon class="st6" points="0,50.1 50,0 100,50 50,100 	"/>
	<line class="st6" x1="100.1" y1="0" x2="0" y2="100.1"/>
	<line class="st6" x1="100.1" y1="100.1" x2="-0.1" y2="0"/>
	<line class="st6" x1="-0.1" y1="50" x2="100" y2="50"/>
	<line class="st6" x1="50" y1="-0.1" x2="50" y2="100.1"/>
	<rect x="10" y="147.9" class="st6" width="80" height="80"/>
	<polygon class="st6" points="0,187.9 50,137.9 100,187.9 50,237.9 	"/>
	<line class="st6" x1="100.1" y1="137.8" x2="0" y2="238"/>
	<line class="st6" x1="100.1" y1="238" x2="-0.1" y2="137.9"/>
	<line class="st6" x1="-0.1" y1="187.9" x2="100" y2="187.9"/>
	<line class="st6" x1="50" y1="137.8" x2="50" y2="238"/>
	<rect x="145.7" y="147.9" class="st6" width="80" height="80"/>
	<polygon class="st6" points="135.7,187.9 185.8,137.9 235.8,187.9 185.7,237.9 	"/>
	<line class="st6" x1="235.8" y1="137.8" x2="135.7" y2="238"/>
	<line class="st6" x1="235.8" y1="238" x2="135.7" y2="137.9"/>
	<line class="st6" x1="135.7" y1="187.9" x2="235.8" y2="187.9"/>
	<line class="st6" x1="185.7" y1="137.8" x2="185.7" y2="238"/>
	<rect x="292.7" y="147.9" class="st6" width="80" height="80"/>
	<polygon class="st6" points="282.6,187.9 332.7,137.9 382.7,187.9 332.7,237.9 	"/>
	<line class="st6" x1="382.7" y1="137.8" x2="282.6" y2="238"/>
	<line class="st6" x1="382.7" y1="238" x2="282.6" y2="137.9"/>
	<line class="st6" x1="282.6" y1="187.9" x2="382.7" y2="187.9"/>
	<line class="st6" x1="332.7" y1="137.8" x2="332.7" y2="238"/>
</g>
<g id="Layer_6">
	<g>
		<path class="st7" d="M44.2,60.5l21.8,5.4L69,53.1l-21.8-5.4L44.2,60.5z M66.4,63.7l20.2,5l2.1-8.5l-20.2-5L66.4,63.7z"/>
		<rect x="59.7" y="68" class="st4" width="12" height="2.3"/>
		<polygon class="st4" points="93.9,64.5 93.2,67.3 87.3,65.9 88,63.1 		"/>
		<polygon class="st4" points="44,45.1 47.7,46 43.8,62.2 40.1,61.3 		"/>
		<g>
			<path class="st7" d="M65.7,75.9L48.8,93 M65.7,75.9l17,17.1 M65.7,70.5V93"/>
		</g>
	</g>
	<g>
		<polygon class="st4" points="33.1,42.7 31.7,44 30.3,42.7 28.3,42.7 28.3,40.8 27,39.5 28.3,38.1 28.3,36.2 30.3,36.2 31.7,34.8 
			33.1,36.2 35,36.2 35,38.1 36.4,39.5 35,40.8 35,42.7 		"/>
		<polygon class="st7" points="16.6,33.7 15.3,35 14,33.7 12.1,33.7 12.1,31.9 10.8,30.6 12.1,29.3 12.1,27.5 14,27.5 15.3,26.2 
			16.6,27.5 18.5,27.5 18.5,29.3 19.8,30.6 18.5,31.9 18.5,33.7 		"/>
		<polygon class="st7" points="33,18.4 31.7,19.7 30.4,18.4 28.5,18.4 28.5,16.7 27.2,15.4 28.5,14.1 28.5,12.2 30.4,12.2 
			31.7,10.9 33,12.2 34.9,12.2 34.9,14.1 36.2,15.4 34.9,16.7 34.9,18.4 		"/>
		<polygon class="st4" points="12.1,13.9 10.8,15.3 9.4,13.9 7.4,13.9 7.4,12.1 6,10.8 7.4,9.4 7.4,7.5 9.4,7.5 10.8,6.1 12.1,7.5 
			14.1,7.5 14.1,9.4 15.5,10.8 14.1,12.1 14.1,13.9 		"/>
	</g>
	<g>
		<path class="st7" d="M204.2-127.9l8-8 M211-99.1h11.4 M154-135.9l8,8 M182.5-130.2v-11.3 M142-99.1h11.4 M172.1-60h20.7
			 M172.1-62.6h20.7 M172.1-65.2h20.7"/>
		<polygon class="st4" points="202.7,-98.6 192.6,-121.2 172.2,-121.2 162.1,-98.6 172.2,-76.1 172.2,-76.1 172.2,-67.8 
			192.9,-67.8 192.9,-76.7 		"/>
		<g>
			<polygon class="st8" points="179,-96.2 176.1,-93.3 179,-90.5 182,-93.3 185,-90.5 188,-93.3 185,-96.2 182,-99.1 			"/>
		</g>
		<polyline class="st9" points="182.5,-68.7 182.5,-73.9 186,-77.4 182.6,-80.8 186.3,-84.4 182.2,-88.6 182.2,-94.5 		"/>
	</g>
	<g>
		<g>
			<polyline class="st7" points="321.1,-97 333.4,-84.7 333.4,-67.3 321.1,-55.1 303.8,-55.1 291.5,-67.3 291.5,-84.7 303.8,-97 			
				"/>
			<line class="st7" x1="312.4" y1="-105.1" x2="312.4" y2="-99.2"/>
			<rect x="308.1" y="-109.2" class="st4" width="8.7" height="5.4"/>
			<g>
				<polyline class="st4" points="314,-79.1 316.2,-76.9 316.2,-73.7 314,-71.5 310.9,-71.5 308.7,-73.7 308.7,-76.9 310.9,-79.1 
									"/>
				<line class="st7" x1="312.4" y1="-74.6" x2="324.2" y2="-86.3"/>
			</g>
			
				<rect x="324.1" y="-93.7" transform="matrix(0.7071 0.7071 -0.7071 0.7071 31.6398 -259.8558)" class="st4" width="10.8" height="3.9"/>
			
				<rect x="290.4" y="-94.5" transform="matrix(-0.7071 0.7071 -0.7071 -0.7071 439.5324 -367.1648)" class="st4" width="10.8" height="3.9"/>
		</g>
		<path class="st7" d="M364.1-130.7l-5.5,5.5l-7.3,7.3l-8.1,2l-25.5-5v-4.4h14.8l-5.4-5.4l-14.8,2.9l-4.9,4.9l-6.1,0.1
			c-0.4-1.3-0.5-1.6-0.8-3l7.8-7.8l19.1-4.6l16.6,4.3l5-0.9l5.5-5.5"/>
	</g>
	<g>
		<g>
			<rect x="157.2" y="50.2" class="st7" width="50.9" height="31.1"/>
			<rect x="150.4" y="50.2" class="st4" width="6.5" height="4.9"/>
			<rect x="208.1" y="50.2" class="st4" width="6.5" height="4.9"/>
			<polyline class="st4" points="208.9,50.2 208.9,44.1 197.5,37.4 182.7,37.4 167.9,37.4 156.5,44.1 156.5,50.2 			"/>
			<polygon class="st4" points="185.8,33.2 184.8,37.4 180.5,37.4 179.5,33.2 			"/>
		</g>
		<g>
			<polyline class="st7" points="147.7,88.3 154.7,92.4 161.6,88.3 168.6,92.4 175.5,88.3 182.5,92.4 189.4,88.3 196.4,92.4 
				203.3,88.3 210.3,92.4 217.3,88.3 			"/>
		</g>
		<polyline class="st7" points="184.6,14 180,18.7 184.5,23.2 184.5,29.9 		"/>
		<polyline class="st7" points="177,10.3 172.4,14.9 176.9,19.5 176.9,26.2 		"/>
	</g>
	<g>
		<polygon class="st7" points="306,66.7 306,66.7 297.4,66.7 292.6,77.6 294.1,78.2 298.3,68.8 298.4,68.8 298.4,79 298.4,79.4 
			298.4,89.4 301.1,89.4 301.1,79.4 302.5,79.4 302.5,89.4 305.1,89.4 305.1,79.4 305.1,79 305.1,68.8 305.2,68.8 309.3,78.2 
			310.8,77.6 306,66.7 		"/>
		<polygon class="st7" points="323.2,66.7 323.2,66.7 314.1,66.7 314.1,66.7 314,66.7 309.2,77.6 310.7,78.3 314.8,68.8 315.4,68.8 
			313.1,79.4 315.4,79.4 315.4,89.4 318,89.4 318,79.4 318.5,79.4 318.7,79.4 319.2,79.4 319.2,89.4 321.8,89.4 321.8,79.4 
			324.1,79.4 321.8,68.8 322.3,68.8 326.5,78.3 328,77.6 323.2,66.7 		"/>
		<polygon class="st7" points="300.6,60.6 299,62.2 298.9,64.5 300.5,66.1 302.8,66.1 304.5,64.5 304.5,62.2 302.9,60.6 		"/>
		<polygon class="st7" points="339.8,66.7 339.8,66.7 331.2,66.7 326.4,77.6 327.9,78.2 332,68.8 332.2,68.8 332.2,79 332.2,79.4 
			332.2,89.4 334.9,89.4 334.9,79.4 336.2,79.4 336.2,89.4 338.9,89.4 338.9,79.4 338.9,79 338.9,68.8 338.9,68.8 343.1,78.2 
			344.6,77.6 339.8,66.7 		"/>
		<polygon class="st7" points="334.4,60.6 332.7,62.2 332.7,64.5 334.3,66.1 336.6,66.1 338.2,64.5 338.3,62.2 336.7,60.6 		"/>
		<polygon class="st7" points="317.6,60.6 315.9,62.2 315.9,64.5 317.5,66.1 319.8,66.1 321.4,64.5 321.5,62.2 319.9,60.6 		"/>
		<polygon class="st7" points="357.2,66.7 357.2,66.7 348.1,66.7 348.1,66.7 348,66.7 343.2,77.6 344.7,78.3 348.8,68.8 349.4,68.8 
			347.1,79.4 349.4,79.4 349.4,89.4 352,89.4 352,79.4 352.5,79.4 352.7,79.4 353.2,79.4 353.2,89.4 355.8,89.4 355.8,79.4 
			358.1,79.4 355.8,68.8 356.3,68.8 360.5,78.3 362,77.6 357.2,66.7 		"/>
		<polygon class="st7" points="351.6,60.6 349.9,62.2 349.9,64.5 351.5,66.1 353.8,66.1 355.4,64.5 355.5,62.2 353.9,60.6 		"/>
	</g>
	<g>
		<g>
			<polygon class="st7" points="357.7,16 351.4,9.7 346.9,9.7 334.2,33 335.7,34.5 337,35.8 338.9,37.7 362.2,25 362.2,20.5 
				358.7,17 			"/>
			<polygon class="st4" points="342.7,21.3 337.6,30.5 338.8,31.7 339.8,32.7 341.4,34.3 360,24.1 360,20.6 			"/>
			
				<rect x="329" y="36" transform="matrix(-0.7071 -0.7071 0.7071 -0.7071 543.9278 300.6439)" class="st4" width="10.4" height="3.4"/>
		</g>
		<polygon class="st7" points="334,40.6 334.6,40.1 335.4,40.1 336,40.6 336,41.4 335.4,42 334.6,42 334,41.4 		"/>
		<polygon class="st7" points="330.5,43.7 331,43.1 331.8,43.1 332.4,43.7 332.4,44.4 331.8,45 331,45 330.5,44.4 		"/>
		<polygon class="st7" points="325.8,48.2 326.3,47.6 327.1,47.6 327.7,48.2 327.7,49 327.1,49.5 326.3,49.5 325.8,49 		"/>
		<polygon class="st7" points="331.4,49.1 332,48.6 332.8,48.6 333.3,49.1 333.3,49.9 332.8,50.5 332,50.5 331.4,49.9 		"/>
		<polygon class="st7" points="322.7,50.1 323.2,49.5 324,49.5 324.6,50.1 324.6,50.9 324,51.4 323.2,51.4 322.7,50.9 		"/>
		<polygon class="st7" points="329.5,39.7 330.1,39.1 330.9,39.1 331.4,39.7 331.4,40.5 330.9,41 330.1,41 329.5,40.5 		"/>
		<polygon class="st7" points="325.4,43.1 326,42.5 326.8,42.5 327.3,43.1 327.3,43.9 326.8,44.5 326,44.5 325.4,43.9 		"/>
	</g>
	<g>
		<polyline class="st7" points="222.7,202.8 222.7,192.8 206.4,176.6 186.4,174.2 166.4,176.6 150.1,192.8 150.1,202.8 		"/>
		<polygon class="st4" points="189.6,164.5 188.6,168.8 184.2,168.8 183.2,164.5 		"/>
		<rect x="141.9" y="202.8" class="st4" width="88.3" height="5.2"/>
		<line class="st7" x1="186.4" y1="174.2" x2="186.4" y2="166.6"/>
	</g>
	<g>
		<path class="st7" d="M336.1,223.2l25.8-28.9v-18.7c0,0-9.9-9.9-13.6-13.6l-15.1,13.6l-15.1-13.6l-13.6,13.6v18.7l25.8,28.9H336.1z
			"/>
	</g>
	<g>
		<g>
			<g>
				<path class="st4" d="M5-70.5h12.6c0.1,0,0.1,0,0.2,0.1l9.2,9.2c0.1,0.1,0.4,0,0.4-0.2v-8.9c0-0.1,0.1-0.2,0.2-0.2h5
					c0.1,0,0.2-0.1,0.2-0.2v-27c0-0.1-0.1-0.2-0.2-0.2H5c-0.1,0-0.2,0.1-0.2,0.2v27C4.8-70.6,4.9-70.5,5-70.5z"/>
			</g>
			<g>
				<g>
					<path class="st8" d="M18.2-80.5c-0.1,0-0.2-0.1-0.1-0.3c0.3-1.3,0.5-2.1,1.6-3.1c1.2-1,2.1-1.3,2.1-3.4c0-1.7-0.4-2.3-2.5-2.3
						c-0.9,0-1.9,0.2-2.9,0.5c-0.1,0-0.3,0-0.3-0.2L16-90.5c0-0.1,0.1-0.2,0.2-0.2c1-0.2,2.1-0.5,3.2-0.5c3.1,0,4.2,1.1,4.2,3.8
						c0,3.1-1.4,3.4-2.8,4.8c-0.6,0.6-0.9,1.2-1.2,2.3c0,0.1-0.2,0.2-0.3,0.2L18.2-80.5z M19.3-78c0.5,0.1,0.5,0.4,0.5,1.1
						c0,0.8-0.7,1.4-1.4,1.2c-0.5-0.1-0.5-0.4-0.5-1.1C17.9-77.5,18.6-78.2,19.3-78z"/>
				</g>
			</g>
		</g>
		<g>
			<polyline class="st7" points="54.5,-130 84.8,-113.7 80.8,-103.4 76.9,-93.1 54.2,-98.5 43.5,-101.1 			"/>
			<polyline class="st10" points="59.4,-127.4 60.7,-130.9 66.9,-131.4 73.2,-129 75.3,-124.2 73.4,-119.1 			"/>
			<polygon class="st7" points="68.8,-122.1 48,-100 76.9,-93.1 84.8,-113.7 			"/>
			<line class="st7" x1="53.4" y1="-98.7" x2="55" y2="-102.9"/>
			<line class="st7" x1="59.2" y1="-96.8" x2="60.8" y2="-101"/>
			<line class="st7" x1="65.3" y1="-95.9" x2="66.5" y2="-98.8"/>
			<line class="st7" x1="70.9" y1="-94.1" x2="71.9" y2="-96.7"/>
		</g>
		<g>
			<polygon class="st7" points="28.8,-116.7 30.8,-118.9 33.8,-119 36,-117 36.2,-114 34.1,-111.7 31.1,-111.6 28.9,-113.7 			"/>
			<polygon class="st7" points="39.6,-111.7 40.6,-112.9 42.2,-112.9 43.3,-111.9 43.4,-110.3 42.4,-109.2 40.8,-109.1 39.6,-110.2 
							"/>
			<polygon class="st7" points="27.4,-105.8 28.4,-107 30,-107 31.1,-106 31.2,-104.4 30.2,-103.3 28.6,-103.2 27.4,-104.2 			"/>
		</g>
	</g>
	
		<rect x="57.4" y="205.6" transform="matrix(0.9583 -0.2859 0.2859 0.9583 -55.9572 30.5007)" class="st4" width="38.1" height="2.6"/>
	<g>
		
			<rect x="2.1" y="174.3" transform="matrix(-0.6144 -0.789 0.789 -0.6144 -99.0478 304.3151)" class="st4" width="45.4" height="4.2"/>
		<polygon class="st11" points="33.6,183.4 40.3,185.2 45,191.3 45.1,198.2 40.5,201.8 33.9,200 29.1,193.9 29,187 		"/>
	</g>
	<polygon class="st7" points="58.1,211.2 58.1,217.6 47.8,227.9 32.8,227.9 31,227.9 17.6,227.9 7.3,217.6 7.3,211.2 	"/>
</g>
</svg>
