<?xml version="1.0" encoding="utf-8"?>
<!-- Generator: Adobe Illustrator 19.1.1, SVG Export Plug-In . SVG Version: 6.00 Build 0)  -->
<svg version="1.1" xmlns="http://www.w3.org/2000/svg" xmlns:xlink="http://www.w3.org/1999/xlink" x="0px" y="0px"
	 viewBox="0 0 100 100" style="enable-background:new 0 0 100 100;" xml:space="preserve">
<style type="text/css">
	.st0{display:none;}
	.st1{display:inline;fill:#2E3191;stroke:#822A85;stroke-width:3;stroke-linecap:round;stroke-miterlimit:10;}
	.st2{display:inline;fill:#BD2137;}
	.st3{display:inline;}
	.st4{fill:#FFFFFF;}
	.st5{clip-path:url(#SVGID_2_);fill:#FFFFFF;}
	.st6{display:inline;fill:none;stroke:#AC57A1;stroke-width:0.1;stroke-miterlimit:10;stroke-dasharray:1,0.3;}
	.st7{fill:none;stroke:#FFFFFF;stroke-miterlimit:10;}
	.st8{fill:#803193;}
	.st9{fill:none;stroke:#803193;stroke-miterlimit:10;}
	.st10{fill:none;stroke:#FFFFFF;stroke-width:6;stroke-miterlimit:10;}
	.st11{fill:#FFFFFF;stroke:#FFFFFF;stroke-miterlimit:10;}
</style>
<g id="Layer_3" class="st0">
	<rect x="-187.5" y="-220.2" class="st1" width="742.5" height="674"/>
</g>
<g id="Layer_2" class="st0">
	<rect x="-623.7" y="-89.4" class="st2" width="295" height="150"/>
	<g class="st3">
		<polygon class="st4" points="-450.2,-49.7 -467.9,-42.7 -467.9,4.3 -450.2,4.3 		"/>
		<polygon class="st4" points="-469.4,4.3 -487.1,4.3 -487.1,-35.1 -469.4,-42.1 		"/>
		<polygon class="st4" points="-506.4,-27.5 -506.4,4.3 -488.7,4.3 -488.7,-34.5 		"/>
		<g>
			<defs>
				<rect id="SVGID_1_" x="-506.4" y="-49.7" width="60.3" height="70.7"/>
			</defs>
			<clipPath id="SVGID_2_">
				<use xlink:href="#SVGID_1_"  style="overflow:visible;"/>
			</clipPath>
			<path class="st5" d="M-498.4,21h-2.9l-1.2-7.8l-0.6,7.8h-3.2l1.1-12.9h4.5l0.7,4.3c0.1,0.4,0.1,0.7,0.2,1.2
				c0,0.4,0.1,0.9,0.1,1.4c0.1-0.8,0.2-1.6,0.3-2.2l0.9-4.7h4.3l0.9,12.9h-3.1l-0.4-7.8L-498.4,21z"/>
			<path class="st5" d="M-483,21h-3.6l-0.3-1.6h-2.3l-0.3,1.6h-3.6l3.1-12.9h4.3L-483,21z M-487.3,16.6l-0.2-1.5c0,0,0-0.1,0-0.2
				c0-0.1-0.1-0.6-0.2-1.5c0-0.1,0-0.2,0-0.4c0-0.2,0-0.4-0.1-0.6l-0.1-1.2c0,0.1,0,0.2,0,0.4c0,0.1,0,0.3-0.1,0.5
				c0,0.3-0.1,0.6-0.1,0.7c0,0.1,0,0.2,0,0.2l-0.2,1.6l-0.4,2H-487.3z"/>
			<path class="st5" d="M-473.5,21h-3.8l-1.7-4.6c0-0.1,0-0.2-0.1-0.3c0-0.1-0.1-0.3-0.2-0.5l0,0.9V21h-3.5V8.1h3.6
				c1.6,0,2.7,0.3,3.5,0.9c1,0.8,1.5,1.9,1.5,3.4c0,1.6-0.7,2.6-2,3.2L-473.5,21z M-479.2,13.8h0.2c0.4,0,0.7-0.2,1-0.5
				c0.3-0.3,0.4-0.7,0.4-1.2c0-1-0.5-1.4-1.5-1.4h-0.1V13.8z"/>
			<polygon class="st5" points="-463.8,21 -467.6,21 -469.9,15 -469.8,21 -473.3,21 -473.3,8.1 -469.8,8.1 -469.9,13.6 -468,8.1 
				-464.3,8.1 -466.9,14.3 			"/>
			<polygon class="st5" points="-463.5,21 -463.5,8.1 -457.1,8.1 -457.1,11.1 -460.1,11.1 -460.1,12.8 -457.5,12.8 -457.5,15.9 
				-460.1,15.9 -460.1,18 -457.1,18 -457.1,21 			"/>
			<polygon class="st5" points="-450.2,21 -456.4,21 -456.4,8.1 -453,8.1 -453,18 -450.2,18 			"/>
			<path class="st5" d="M-452.1,10.5c0,1.7,1.4,3,3,3c1.6,0,3-1.3,3-3c0-1.7-1.4-3-3-3C-450.7,7.6-452.1,8.8-452.1,10.5
				 M-451.5,10.5c0-1.4,1.1-2.5,2.4-2.5c1.4,0,2.4,1.1,2.4,2.5c0,1.4-1.1,2.5-2.4,2.5C-450.5,13.1-451.5,12-451.5,10.5 M-449.7,10.8
				h0.6l0.9,1.5h0.6l-1-1.5c0.5-0.1,0.9-0.3,0.9-1c0-0.7-0.4-1-1.2-1h-1.3v3.5h0.5V10.8z M-449.7,10.3V9.3h0.7
				c0.4,0,0.7,0.1,0.7,0.5c0,0.5-0.4,0.6-0.8,0.6H-449.7z"/>
		</g>
	</g>
	<rect x="-127.6" y="-138.1" class="st6" width="80" height="80"/>
	<polygon class="st6" points="-137.7,-98 -87.6,-148.1 -37.6,-98.1 -87.7,-48.1 	"/>
	<line class="st6" x1="-37.6" y1="-148.1" x2="-137.7" y2="-48"/>
	<line class="st6" x1="-37.6" y1="-48" x2="-137.7" y2="-148.1"/>
	<line class="st6" x1="-137.7" y1="-98.1" x2="-37.6" y2="-98.1"/>
	<line class="st6" x1="-87.6" y1="-148.2" x2="-87.6" y2="-48"/>
	<rect x="10" y="-138.1" class="st6" width="80" height="80"/>
	<polygon class="st6" points="0,-98 50,-148.1 100,-98.1 50,-48.1 	"/>
	<line class="st6" x1="100.1" y1="-148.1" x2="0" y2="-48"/>
	<line class="st6" x1="100.1" y1="-48" x2="-0.1" y2="-148.1"/>
	<line class="st6" x1="-0.1" y1="-98.1" x2="100" y2="-98.1"/>
	<line class="st6" x1="50" y1="-148.2" x2="50" y2="-48"/>
	<rect x="155.5" y="-138.1" class="st6" width="80" height="80"/>
	<polygon class="st6" points="145.4,-98 195.5,-148.1 245.5,-98.1 195.4,-48.1 	"/>
	<line class="st6" x1="245.5" y1="-148.1" x2="145.4" y2="-48"/>
	<line class="st6" x1="245.5" y1="-48" x2="145.4" y2="-148.1"/>
	<line class="st6" x1="145.4" y1="-98.1" x2="245.5" y2="-98.1"/>
	<line class="st6" x1="195.5" y1="-148.2" x2="195.5" y2="-48"/>
	<rect x="155.5" y="10" class="st6" width="80" height="80"/>
	<polygon class="st6" points="145.4,50.1 195.5,0 245.5,50 195.4,100 	"/>
	<line class="st6" x1="245.5" y1="0" x2="145.4" y2="100.1"/>
	<line class="st6" x1="245.5" y1="100.1" x2="145.4" y2="0"/>
	<line class="st6" x1="145.4" y1="50" x2="245.5" y2="50"/>
	<line class="st6" x1="195.5" y1="-0.1" x2="195.5" y2="100.1"/>
	<rect x="10" y="10" class="st6" width="80" height="80"/>
	<polygon class="st6" points="0,50.1 50,0 100,50 50,100 	"/>
	<line class="st6" x1="100.1" y1="0" x2="0" y2="100.1"/>
	<line class="st6" x1="100.1" y1="100.1" x2="-0.1" y2="0"/>
	<line class="st6" x1="-0.1" y1="50" x2="100" y2="50"/>
	<line class="st6" x1="50" y1="-0.1" x2="50" y2="100.1"/>
	<rect x="-122.4" y="10" class="st6" width="80" height="80"/>
	<polygon class="st6" points="-132.5,50.1 -82.4,0 -32.4,50 -82.4,100 	"/>
	<line class="st6" x1="-32.4" y1="0" x2="-132.5" y2="100.1"/>
	<line class="st6" x1="-32.4" y1="100.1" x2="-132.5" y2="0"/>
	<line class="st6" x1="-132.5" y1="50" x2="-32.4" y2="50"/>
	<line class="st6" x1="-82.4" y1="-0.1" x2="-82.4" y2="100.1"/>
	<rect x="-122.4" y="147.9" class="st6" width="80" height="80"/>
	<polygon class="st6" points="-132.5,187.9 -82.4,137.9 -32.4,187.9 -82.4,237.9 	"/>
	<line class="st6" x1="-32.4" y1="137.8" x2="-132.5" y2="238"/>
	<line class="st6" x1="-32.4" y1="238" x2="-132.5" y2="137.9"/>
	<line class="st6" x1="-132.5" y1="187.9" x2="-32.4" y2="187.9"/>
	<line class="st6" x1="-82.4" y1="137.8" x2="-82.4" y2="238"/>
	<rect x="13.3" y="147.9" class="st6" width="80" height="80"/>
	<polygon class="st6" points="3.3,187.9 53.3,137.9 103.4,187.9 53.3,237.9 	"/>
	<line class="st6" x1="103.4" y1="137.8" x2="3.3" y2="238"/>
	<line class="st6" x1="103.4" y1="238" x2="3.3" y2="137.9"/>
	<line class="st6" x1="3.3" y1="187.9" x2="103.4" y2="187.9"/>
	<line class="st6" x1="53.3" y1="137.8" x2="53.3" y2="238"/>
	<rect x="160.2" y="147.9" class="st6" width="80" height="80"/>
	<polygon class="st6" points="150.2,187.9 200.3,137.9 250.3,187.9 200.2,237.9 	"/>
	<line class="st6" x1="250.3" y1="137.8" x2="150.2" y2="238"/>
	<line class="st6" x1="250.3" y1="238" x2="150.2" y2="137.9"/>
	<line class="st6" x1="150.2" y1="187.9" x2="250.3" y2="187.9"/>
	<line class="st6" x1="200.2" y1="137.8" x2="200.2" y2="238"/>
</g>
<g id="Layer_6">
	<g>
		<path class="st7" d="M-88.3,60.5l21.8,5.4l3.1-12.8l-21.8-5.4L-88.3,60.5z M-66,63.7l20.2,5l2.1-8.5l-20.2-5L-66,63.7z"/>
		<rect x="-72.7" y="68" class="st4" width="12" height="2.3"/>
		<polygon class="st4" points="-38.5,64.5 -39.2,67.3 -45.1,65.9 -44.5,63.1 		"/>
		<polygon class="st4" points="-88.4,45.1 -84.7,46 -88.6,62.2 -92.3,61.3 		"/>
		<g>
			<path class="st7" d="M-66.7,75.9l-17,17.1 M-66.7,75.9l17,17.1 M-66.7,70.5V93"/>
		</g>
	</g>
	<g>
		<polygon class="st4" points="-99.4,42.7 -100.7,44 -102.1,42.7 -104.1,42.7 -104.1,40.8 -105.5,39.5 -104.1,38.1 -104.1,36.2 
			-102.1,36.2 -100.7,34.8 -99.4,36.2 -97.4,36.2 -97.4,38.1 -96,39.5 -97.4,40.8 -97.4,42.7 		"/>
		<polygon class="st7" points="-115.9,33.7 -117.2,35 -118.5,33.7 -120.4,33.7 -120.4,31.9 -121.7,30.6 -120.4,29.3 -120.4,27.5 
			-118.5,27.5 -117.2,26.2 -115.9,27.5 -114,27.5 -114,29.3 -112.7,30.6 -114,31.9 -114,33.7 		"/>
		<polygon class="st7" points="-99.4,18.4 -100.7,19.7 -102,18.4 -103.9,18.4 -103.9,16.7 -105.2,15.4 -103.9,14.1 -103.9,12.2 
			-102,12.2 -100.7,10.9 -99.4,12.2 -97.5,12.2 -97.5,14.1 -96.2,15.4 -97.5,16.7 -97.5,18.4 		"/>
		<polygon class="st4" points="-120.3,13.9 -121.7,15.3 -123,13.9 -125,13.9 -125,12.1 -126.4,10.8 -125,9.4 -125,7.5 -123,7.5 
			-121.7,6.1 -120.3,7.5 -118.3,7.5 -118.3,9.4 -116.9,10.8 -118.3,12.1 -118.3,13.9 		"/>
	</g>
	<g>
		<path class="st7" d="M71.8-127.9l8-8 M78.6-99.1H90 M21.6-135.9l8,8 M50.1-130.2v-11.3 M9.6-99.1H21 M39.7-60h20.7 M39.7-62.6
			h20.7 M39.7-65.2h20.7"/>
		<polygon class="st4" points="70.3,-98.6 60.1,-121.2 39.8,-121.2 29.6,-98.6 39.8,-76.1 39.8,-76.1 39.8,-67.8 60.4,-67.8 
			60.4,-76.7 		"/>
		<g>
			<polygon class="st8" points="46.6,-96.2 43.6,-93.3 46.6,-90.5 49.6,-93.3 52.6,-90.5 55.6,-93.3 52.6,-96.2 49.6,-99.1 			"/>
		</g>
		<polyline class="st9" points="50.1,-68.7 50.1,-73.9 53.6,-77.4 50.2,-80.8 53.9,-84.4 49.8,-88.6 49.8,-94.5 		"/>
	</g>
	<g>
		<g>
			<polyline class="st7" points="188.7,-97 201,-84.7 201,-67.3 188.7,-55.1 171.3,-55.1 159,-67.3 159,-84.7 171.3,-97 			"/>
			<line class="st7" x1="180" y1="-105.1" x2="180" y2="-99.2"/>
			<rect x="175.7" y="-109.2" class="st4" width="8.7" height="5.4"/>
			<g>
				<polyline class="st4" points="181.6,-79.1 183.8,-76.9 183.8,-73.7 181.6,-71.5 178.4,-71.5 176.2,-73.7 176.2,-76.9 
					178.4,-79.1 				"/>
				<line class="st7" x1="180" y1="-74.6" x2="191.8" y2="-86.3"/>
			</g>
			
				<rect x="191.7" y="-93.7" transform="matrix(0.7071 0.7071 -0.7071 0.7071 -7.1455 -166.2167)" class="st4" width="10.8" height="3.9"/>
			
				<rect x="158" y="-94.5" transform="matrix(-0.7071 0.7071 -0.7071 -0.7071 213.4595 -273.5263)" class="st4" width="10.8" height="3.9"/>
		</g>
		<path class="st7" d="M231.7-130.7l-5.5,5.5l-7.3,7.3l-8.1,2l-25.5-5v-4.4h14.8l-5.4-5.4l-14.8,2.9l-4.9,4.9l-6.1,0.1
			c-0.4-1.3-0.5-1.6-0.8-3l7.8-7.8l19.1-4.6l16.6,4.3l5-0.9l5.5-5.5"/>
	</g>
	<g>
		<g>
			<rect x="24.8" y="50.2" class="st7" width="50.9" height="31.1"/>
			<rect x="18" y="50.2" class="st4" width="6.5" height="4.9"/>
			<rect x="75.7" y="50.2" class="st4" width="6.5" height="4.9"/>
			<polyline class="st4" points="76.4,50.2 76.4,44.1 65,37.4 50.3,37.4 35.5,37.4 24.1,44.1 24.1,50.2 			"/>
			<polygon class="st4" points="53.4,33.2 52.4,37.4 48.1,37.4 47.1,33.2 			"/>
		</g>
		<g>
			<polyline class="st7" points="15.3,88.3 22.2,92.4 29.2,88.3 36.1,92.4 43.1,88.3 50.1,92.4 57,88.3 64,92.4 70.9,88.3 
				77.9,92.4 84.8,88.3 			"/>
		</g>
		<polyline class="st7" points="52.2,14 47.6,18.7 52.1,23.2 52.1,29.9 		"/>
		<polyline class="st7" points="44.6,10.3 39.9,14.9 44.5,19.5 44.5,26.2 		"/>
	</g>
	<g>
		<polygon class="st7" points="173.6,66.7 173.6,66.7 165,66.7 160.2,77.6 161.7,78.2 165.8,68.8 166,68.8 166,79 166,79.4 
			166,89.4 168.7,89.4 168.7,79.4 170.1,79.4 170.1,89.4 172.7,89.4 172.7,79.4 172.7,79 172.7,68.8 172.7,68.8 176.9,78.2 
			178.4,77.6 173.6,66.7 		"/>
		<polygon class="st7" points="190.7,66.7 190.7,66.7 181.6,66.7 181.6,66.7 181.6,66.7 176.8,77.6 178.2,78.3 182.4,68.8 183,68.8 
			180.7,79.4 182.9,79.4 182.9,89.4 185.6,89.4 185.6,79.4 186.1,79.4 186.3,79.4 186.7,79.4 186.7,89.4 189.4,89.4 189.4,79.4 
			191.7,79.4 189.4,68.8 189.9,68.8 194.1,78.3 195.5,77.6 190.7,66.7 		"/>
		<polygon class="st7" points="168.2,60.6 166.6,62.2 166.5,64.5 168.1,66.1 170.4,66.1 172,64.5 172.1,62.2 170.5,60.6 		"/>
		<polygon class="st7" points="207.3,66.7 207.3,66.7 198.8,66.7 194,77.6 195.4,78.2 199.6,68.8 199.8,68.8 199.8,79 199.8,79.4 
			199.8,89.4 202.4,89.4 202.4,79.4 203.8,79.4 203.8,89.4 206.5,89.4 206.5,79.4 206.5,79 206.5,68.8 206.5,68.8 210.7,78.2 
			212.1,77.6 207.3,66.7 		"/>
		<polygon class="st7" points="202,60.6 200.3,62.2 200.3,64.5 201.9,66.1 204.2,66.1 205.8,64.5 205.8,62.2 204.2,60.6 		"/>
		<polygon class="st7" points="185.1,60.6 183.5,62.2 183.5,64.5 185.1,66.1 187.4,66.1 189,64.5 189,62.2 187.4,60.6 		"/>
		<polygon class="st7" points="224.7,66.7 224.7,66.7 215.6,66.7 215.6,66.7 215.6,66.7 210.8,77.6 212.2,78.3 216.4,68.8 217,68.8 
			214.7,79.4 216.9,79.4 216.9,89.4 219.6,89.4 219.6,79.4 220.1,79.4 220.3,79.4 220.7,79.4 220.7,89.4 223.4,89.4 223.4,79.4 
			225.7,79.4 223.4,68.8 223.9,68.8 228.1,78.3 229.5,77.6 224.7,66.7 		"/>
		<polygon class="st7" points="219.1,60.6 217.5,62.2 217.5,64.5 219.1,66.1 221.4,66.1 223,64.5 223,62.2 221.4,60.6 		"/>
	</g>
	<g>
		<g>
			<polygon class="st7" points="225.2,16 218.9,9.7 214.5,9.7 201.8,33 203.2,34.5 204.5,35.8 206.5,37.7 229.8,25 229.8,20.5 
				226.2,17 			"/>
			<polygon class="st4" points="210.2,21.3 205.2,30.5 206.4,31.7 207.4,32.7 208.9,34.3 227.6,24.1 227.6,20.6 			"/>
			
				<rect x="196.6" y="36" transform="matrix(-0.7071 -0.7071 0.7071 -0.7071 317.8578 207.0026)" class="st4" width="10.4" height="3.4"/>
		</g>
		<polygon class="st7" points="201.6,40.6 202.2,40.1 203,40.1 203.5,40.6 203.5,41.4 203,42 202.2,42 201.6,41.4 		"/>
		<polygon class="st7" points="198,43.7 198.6,43.1 199.4,43.1 200,43.7 200,44.4 199.4,45 198.6,45 198,44.4 		"/>
		<polygon class="st7" points="193.4,48.2 193.9,47.6 194.7,47.6 195.3,48.2 195.3,49 194.7,49.5 193.9,49.5 193.4,49 		"/>
		<polygon class="st7" points="199,49.1 199.6,48.6 200.3,48.6 200.9,49.1 200.9,49.9 200.3,50.5 199.6,50.5 199,49.9 		"/>
		<polygon class="st7" points="190.2,50.1 190.8,49.5 191.6,49.5 192.1,50.1 192.1,50.9 191.6,51.4 190.8,51.4 190.2,50.9 		"/>
		<polygon class="st7" points="197.1,39.7 197.6,39.1 198.4,39.1 199,39.7 199,40.5 198.4,41 197.6,41 197.1,40.5 		"/>
		<polygon class="st7" points="193,43.1 193.5,42.5 194.3,42.5 194.9,43.1 194.9,43.9 194.3,44.5 193.5,44.5 193,43.9 		"/>
	</g>
	<g>
		<polyline class="st7" points="90.2,202.8 90.2,192.8 74,176.6 54,174.2 33.9,176.6 17.7,192.8 17.7,202.8 		"/>
		<polygon class="st4" points="57.1,164.5 56.1,168.8 51.8,168.8 50.8,164.5 		"/>
		<rect x="9.5" y="202.8" class="st4" width="88.3" height="5.2"/>
		<line class="st7" x1="54" y1="174.2" x2="54" y2="166.6"/>
	</g>
	<g>
		<path class="st7" d="M203.6,223.2l25.8-28.9v-18.7c0,0-9.9-9.9-13.6-13.6l-15.1,13.6l-15.1-13.6l-13.6,13.6v18.7l25.8,28.9H203.6z
			"/>
	</g>
	<g>
		<g>
			<g>
				<path class="st4" d="M-127.4-70.5h12.6c0.1,0,0.1,0,0.2,0.1l9.2,9.2c0.1,0.1,0.4,0,0.4-0.2v-8.9c0-0.1,0.1-0.2,0.2-0.2h5
					c0.1,0,0.2-0.1,0.2-0.2v-27c0-0.1-0.1-0.2-0.2-0.2h-27.6c-0.1,0-0.2,0.1-0.2,0.2v27C-127.6-70.6-127.5-70.5-127.4-70.5z"/>
			</g>
			<g>
				<g>
					<path class="st8" d="M-114.3-80.5c-0.1,0-0.2-0.1-0.1-0.3c0.3-1.3,0.5-2.1,1.6-3.1c1.2-1,2.1-1.3,2.1-3.4
						c0-1.7-0.4-2.3-2.5-2.3c-0.9,0-1.9,0.2-2.9,0.5c-0.1,0-0.3,0-0.3-0.2l-0.1-1.1c0-0.1,0.1-0.2,0.2-0.2c1-0.2,2.1-0.5,3.2-0.5
						c3.1,0,4.2,1.1,4.2,3.8c0,3.1-1.4,3.4-2.8,4.8c-0.6,0.6-0.9,1.2-1.2,2.3c0,0.1-0.2,0.2-0.3,0.2L-114.3-80.5z M-113.1-78
						c0.5,0.1,0.5,0.4,0.5,1.1c0,0.8-0.7,1.4-1.4,1.2c-0.5-0.1-0.5-0.4-0.5-1.1C-114.5-77.5-113.9-78.2-113.1-78z"/>
				</g>
			</g>
		</g>
		<g>
			<polyline class="st7" points="-77.9,-130 -47.6,-113.7 -51.6,-103.4 -55.5,-93.1 -78.2,-98.5 -88.9,-101.1 			"/>
			<polyline class="st10" points="-73.1,-127.4 -71.7,-130.9 -65.6,-131.4 -59.2,-129 -57.1,-124.2 -59,-119.1 			"/>
			<polygon class="st7" points="-63.7,-122.1 -84.5,-100 -55.5,-93.1 -47.6,-113.7 			"/>
			<line class="st7" x1="-79" y1="-98.7" x2="-77.4" y2="-102.9"/>
			<line class="st7" x1="-73.2" y1="-96.8" x2="-71.6" y2="-101"/>
			<line class="st7" x1="-67.1" y1="-95.9" x2="-66" y2="-98.8"/>
			<line class="st7" x1="-61.5" y1="-94.1" x2="-60.5" y2="-96.7"/>
		</g>
		<g>
			<polygon class="st7" points="-103.6,-116.7 -101.6,-118.9 -98.6,-119 -96.4,-117 -96.3,-114 -98.3,-111.7 -101.3,-111.6 
				-103.5,-113.7 			"/>
			<polygon class="st7" points="-92.9,-111.7 -91.8,-112.9 -90.2,-112.9 -89.1,-111.9 -89,-110.3 -90.1,-109.2 -91.6,-109.1 
				-92.8,-110.2 			"/>
			<polygon class="st7" points="-105.1,-105.8 -104,-107 -102.4,-107 -101.3,-106 -101.2,-104.4 -102.3,-103.3 -103.8,-103.2 
				-105,-104.2 			"/>
		</g>
	</g>
	
		<rect x="-75" y="205.6" transform="matrix(0.9583 -0.2859 0.2859 0.9583 -61.4836 -7.3565)" class="st4" width="38.1" height="2.6"/>
	<g>
		
			<rect x="-130.3" y="174.3" transform="matrix(-0.6144 -0.789 0.789 -0.6144 -312.8359 199.8257)" class="st4" width="45.4" height="4.2"/>
		<polygon class="st11" points="-98.8,183.4 -92.2,185.2 -87.4,191.3 -87.3,198.2 -91.9,201.8 -98.5,200 -103.3,193.9 -103.4,187 		
			"/>
	</g>
	<polygon class="st7" points="-74.3,211.2 -74.3,217.6 -84.6,227.9 -99.6,227.9 -101.4,227.9 -114.8,227.9 -125.1,217.6 
		-125.1,211.2 	"/>
</g>
</svg>
