<?xml version="1.0" encoding="utf-8"?>
<!-- Generator: Adobe Illustrator 19.1.1, SVG Export Plug-In . SVG Version: 6.00 Build 0)  -->
<svg version="1.1" xmlns="http://www.w3.org/2000/svg" xmlns:xlink="http://www.w3.org/1999/xlink" x="0px" y="0px"
	 viewBox="0 0 100 100" style="enable-background:new 0 0 100 100;" xml:space="preserve">
<style type="text/css">
	.st0{display:none;}
	.st1{display:inline;fill:#2E3191;stroke:#822A85;stroke-width:3;stroke-linecap:round;stroke-miterlimit:10;}
	.st2{display:inline;fill:#BD2137;}
	.st3{display:inline;}
	.st4{fill:#FFFFFF;}
	.st5{clip-path:url(#SVGID_2_);fill:#FFFFFF;}
	.st6{display:inline;fill:none;stroke:#AC57A1;stroke-width:0.1;stroke-miterlimit:10;stroke-dasharray:1,0.3;}
	.st7{fill:none;stroke:#FFFFFF;stroke-miterlimit:10;}
	.st8{fill:#803193;}
	.st9{fill:none;stroke:#803193;stroke-miterlimit:10;}
	.st10{fill:none;stroke:#FFFFFF;stroke-width:6;stroke-miterlimit:10;}
	.st11{fill:#FFFFFF;stroke:#FFFFFF;stroke-miterlimit:10;}
</style>
<g id="Layer_3" class="st0">
	<rect x="-332.9" y="-220.2" class="st1" width="742.5" height="674"/>
</g>
<g id="Layer_2" class="st0">
	<rect x="-769.2" y="-89.4" class="st2" width="295" height="150"/>
	<g class="st3">
		<polygon class="st4" points="-595.7,-49.7 -613.4,-42.7 -613.4,4.3 -595.7,4.3 		"/>
		<polygon class="st4" points="-614.9,4.3 -632.6,4.3 -632.6,-35.1 -614.9,-42.1 		"/>
		<polygon class="st4" points="-651.8,-27.5 -651.8,4.3 -634.1,4.3 -634.1,-34.5 		"/>
		<g>
			<defs>
				<rect id="SVGID_1_" x="-651.8" y="-49.7" width="60.3" height="70.7"/>
			</defs>
			<clipPath id="SVGID_2_">
				<use xlink:href="#SVGID_1_"  style="overflow:visible;"/>
			</clipPath>
			<path class="st5" d="M-643.9,21h-2.9l-1.2-7.8l-0.6,7.8h-3.2l1.1-12.9h4.5l0.7,4.3c0.1,0.4,0.1,0.7,0.2,1.2
				c0,0.4,0.1,0.9,0.1,1.4c0.1-0.8,0.2-1.6,0.3-2.2l0.9-4.7h4.3l0.9,12.9h-3.1l-0.4-7.8L-643.9,21z"/>
			<path class="st5" d="M-628.5,21h-3.6l-0.3-1.6h-2.3L-635,21h-3.6l3.1-12.9h4.3L-628.5,21z M-632.8,16.6l-0.2-1.5c0,0,0-0.1,0-0.2
				c0-0.1-0.1-0.6-0.2-1.5c0-0.1,0-0.2,0-0.4c0-0.2,0-0.4-0.1-0.6l-0.1-1.2c0,0.1,0,0.2,0,0.4c0,0.1,0,0.3-0.1,0.5
				c0,0.3-0.1,0.6-0.1,0.7c0,0.1,0,0.2,0,0.2l-0.2,1.6l-0.4,2H-632.8z"/>
			<path class="st5" d="M-619,21h-3.8l-1.7-4.6c0-0.1,0-0.2-0.1-0.3c0-0.1-0.1-0.3-0.2-0.5l0,0.9V21h-3.5V8.1h3.6
				c1.6,0,2.7,0.3,3.5,0.9c1,0.8,1.5,1.9,1.5,3.4c0,1.6-0.7,2.6-2,3.2L-619,21z M-624.7,13.8h0.2c0.4,0,0.7-0.2,1-0.5
				c0.3-0.3,0.4-0.7,0.4-1.2c0-1-0.5-1.4-1.5-1.4h-0.1V13.8z"/>
			<polygon class="st5" points="-609.3,21 -613,21 -615.3,15 -615.2,21 -618.7,21 -618.7,8.1 -615.2,8.1 -615.3,13.6 -613.4,8.1 
				-609.7,8.1 -612.4,14.3 			"/>
			<polygon class="st5" points="-608.9,21 -608.9,8.1 -602.6,8.1 -602.6,11.1 -605.6,11.1 -605.6,12.8 -603,12.8 -603,15.9 
				-605.6,15.9 -605.6,18 -602.6,18 -602.6,21 			"/>
			<polygon class="st5" points="-595.7,21 -601.8,21 -601.8,8.1 -598.5,8.1 -598.5,18 -595.7,18 			"/>
			<path class="st5" d="M-597.6,10.5c0,1.7,1.4,3,3,3c1.6,0,3-1.3,3-3c0-1.7-1.4-3-3-3C-596.2,7.6-597.6,8.8-597.6,10.5 M-597,10.5
				c0-1.4,1.1-2.5,2.4-2.5c1.4,0,2.4,1.1,2.4,2.5c0,1.4-1.1,2.5-2.4,2.5C-595.9,13.1-597,12-597,10.5 M-595.2,10.8h0.6l0.9,1.5h0.6
				l-1-1.5c0.5-0.1,0.9-0.3,0.9-1c0-0.7-0.4-1-1.2-1h-1.3v3.5h0.5V10.8z M-595.2,10.3V9.3h0.7c0.4,0,0.7,0.1,0.7,0.5
				c0,0.5-0.4,0.6-0.8,0.6H-595.2z"/>
		</g>
	</g>
	<rect x="-273.1" y="-138.1" class="st6" width="80" height="80"/>
	<polygon class="st6" points="-283.1,-98 -233.1,-148.1 -183,-98.1 -233.1,-48.1 	"/>
	<line class="st6" x1="-183" y1="-148.1" x2="-283.1" y2="-48"/>
	<line class="st6" x1="-183" y1="-48" x2="-283.1" y2="-148.1"/>
	<line class="st6" x1="-283.1" y1="-98.1" x2="-183" y2="-98.1"/>
	<line class="st6" x1="-233.1" y1="-148.2" x2="-233.1" y2="-48"/>
	<rect x="-135.5" y="-138.1" class="st6" width="80" height="80"/>
	<polygon class="st6" points="-145.5,-98 -95.4,-148.1 -45.4,-98.1 -95.5,-48.1 	"/>
	<line class="st6" x1="-45.4" y1="-148.1" x2="-145.5" y2="-48"/>
	<line class="st6" x1="-45.4" y1="-48" x2="-145.5" y2="-148.1"/>
	<line class="st6" x1="-145.5" y1="-98.1" x2="-45.4" y2="-98.1"/>
	<line class="st6" x1="-95.5" y1="-148.2" x2="-95.5" y2="-48"/>
	<rect x="10" y="-138.1" class="st6" width="80" height="80"/>
	<polygon class="st6" points="0,-98 50,-148.1 100,-98.1 50,-48.1 	"/>
	<line class="st6" x1="100.1" y1="-148.1" x2="0" y2="-48"/>
	<line class="st6" x1="100.1" y1="-48" x2="-0.1" y2="-148.1"/>
	<line class="st6" x1="-0.1" y1="-98.1" x2="100" y2="-98.1"/>
	<line class="st6" x1="50" y1="-148.2" x2="50" y2="-48"/>
	<rect x="10" y="10" class="st6" width="80" height="80"/>
	<polygon class="st6" points="0,50.1 50,0 100,50 50,100 	"/>
	<line class="st6" x1="100.1" y1="0" x2="0" y2="100.1"/>
	<line class="st6" x1="100.1" y1="100.1" x2="-0.1" y2="0"/>
	<line class="st6" x1="-0.1" y1="50" x2="100" y2="50"/>
	<line class="st6" x1="50" y1="-0.1" x2="50" y2="100.1"/>
	<rect x="-135.5" y="10" class="st6" width="80" height="80"/>
	<polygon class="st6" points="-145.5,50.1 -95.4,0 -45.4,50 -95.5,100 	"/>
	<line class="st6" x1="-45.4" y1="0" x2="-145.5" y2="100.1"/>
	<line class="st6" x1="-45.4" y1="100.1" x2="-145.5" y2="0"/>
	<line class="st6" x1="-145.5" y1="50" x2="-45.4" y2="50"/>
	<line class="st6" x1="-95.5" y1="-0.1" x2="-95.5" y2="100.1"/>
	<rect x="-267.9" y="10" class="st6" width="80" height="80"/>
	<polygon class="st6" points="-277.9,50.1 -227.9,0 -177.8,50 -227.9,100 	"/>
	<line class="st6" x1="-177.8" y1="0" x2="-277.9" y2="100.1"/>
	<line class="st6" x1="-177.8" y1="100.1" x2="-277.9" y2="0"/>
	<line class="st6" x1="-277.9" y1="50" x2="-177.8" y2="50"/>
	<line class="st6" x1="-227.9" y1="-0.1" x2="-227.9" y2="100.1"/>
	<rect x="-267.9" y="147.9" class="st6" width="80" height="80"/>
	<polygon class="st6" points="-277.9,187.9 -227.9,137.9 -177.8,187.9 -227.9,237.9 	"/>
	<line class="st6" x1="-177.8" y1="137.8" x2="-277.9" y2="238"/>
	<line class="st6" x1="-177.8" y1="238" x2="-277.9" y2="137.9"/>
	<line class="st6" x1="-277.9" y1="187.9" x2="-177.8" y2="187.9"/>
	<line class="st6" x1="-227.9" y1="137.8" x2="-227.9" y2="238"/>
	<rect x="-132.1" y="147.9" class="st6" width="80" height="80"/>
	<polygon class="st6" points="-142.2,187.9 -92.1,137.9 -42.1,187.9 -92.2,237.9 	"/>
	<line class="st6" x1="-42.1" y1="137.8" x2="-142.2" y2="238"/>
	<line class="st6" x1="-42.1" y1="238" x2="-142.2" y2="137.9"/>
	<line class="st6" x1="-142.2" y1="187.9" x2="-42.1" y2="187.9"/>
	<line class="st6" x1="-92.1" y1="137.8" x2="-92.1" y2="238"/>
	<rect x="14.8" y="147.9" class="st6" width="80" height="80"/>
	<polygon class="st6" points="4.7,187.9 54.8,137.9 104.8,187.9 54.8,237.9 	"/>
	<line class="st6" x1="104.9" y1="137.8" x2="4.7" y2="238"/>
	<line class="st6" x1="104.9" y1="238" x2="4.7" y2="137.9"/>
	<line class="st6" x1="4.7" y1="187.9" x2="104.8" y2="187.9"/>
	<line class="st6" x1="54.8" y1="137.8" x2="54.8" y2="238"/>
</g>
<g id="Layer_6">
	<g>
		<path class="st7" d="M-233.7,60.5l21.8,5.4l3.1-12.8l-21.8-5.4L-233.7,60.5z M-211.4,63.7l20.2,5l2.1-8.5l-20.2-5L-211.4,63.7z"/>
		<rect x="-218.2" y="68" class="st4" width="12" height="2.3"/>
		<polygon class="st4" points="-184,64.5 -184.7,67.3 -190.6,65.9 -189.9,63.1 		"/>
		<polygon class="st4" points="-233.9,45.1 -230.2,46 -234.1,62.2 -237.8,61.3 		"/>
		<g>
			<path class="st7" d="M-212.1,75.9l-17,17.1 M-212.1,75.9l17,17.1 M-212.1,70.5V93"/>
		</g>
	</g>
	<g>
		<polygon class="st4" points="-244.8,42.7 -246.2,44 -247.6,42.7 -249.5,42.7 -249.5,40.8 -250.9,39.5 -249.5,38.1 -249.5,36.2 
			-247.6,36.2 -246.2,34.8 -244.8,36.2 -242.8,36.2 -242.8,38.1 -241.5,39.5 -242.8,40.8 -242.8,42.7 		"/>
		<polygon class="st7" points="-261.3,33.7 -262.6,35 -263.9,33.7 -265.8,33.7 -265.8,31.9 -267.1,30.6 -265.8,29.3 -265.8,27.5 
			-263.9,27.5 -262.6,26.2 -261.3,27.5 -259.4,27.5 -259.4,29.3 -258.1,30.6 -259.4,31.9 -259.4,33.7 		"/>
		<polygon class="st7" points="-244.9,18.4 -246.2,19.7 -247.5,18.4 -249.4,18.4 -249.4,16.7 -250.7,15.4 -249.4,14.1 -249.4,12.2 
			-247.5,12.2 -246.2,10.9 -244.9,12.2 -243,12.2 -243,14.1 -241.7,15.4 -243,16.7 -243,18.4 		"/>
		<polygon class="st4" points="-265.8,13.9 -267.1,15.3 -268.5,13.9 -270.5,13.9 -270.5,12.1 -271.8,10.8 -270.5,9.4 -270.5,7.5 
			-268.5,7.5 -267.1,6.1 -265.8,7.5 -263.8,7.5 -263.8,9.4 -262.4,10.8 -263.8,12.1 -263.8,13.9 		"/>
	</g>
	<g>
		<path class="st7" d="M-73.7-127.9l8-8 M-66.8-99.1h11.4 M-123.9-135.9l8,8 M-95.4-130.2v-11.3 M-135.9-99.1h11.4 M-105.8-60H-85
			 M-105.8-62.6H-85 M-105.8-65.2H-85"/>
		<polygon class="st4" points="-75.1,-98.6 -85.3,-121.2 -105.7,-121.2 -115.8,-98.6 -105.7,-76.1 -105.6,-76.1 -105.6,-67.8 
			-85,-67.8 -85,-76.7 		"/>
		<g>
			<polygon class="st8" points="-98.8,-96.2 -101.8,-93.3 -98.8,-90.5 -95.8,-93.3 -92.8,-90.5 -89.9,-93.3 -92.8,-96.2 
				-95.8,-99.1 			"/>
		</g>
		<polyline class="st9" points="-95.4,-68.7 -95.4,-73.9 -91.8,-77.4 -95.3,-80.8 -91.5,-84.4 -95.7,-88.6 -95.7,-94.5 		"/>
	</g>
	<g>
		<g>
			<polyline class="st7" points="43.2,-97 55.5,-84.7 55.5,-67.3 43.2,-55.1 25.9,-55.1 13.6,-67.3 13.6,-84.7 25.9,-97 			"/>
			<line class="st7" x1="34.6" y1="-105.1" x2="34.6" y2="-99.2"/>
			<rect x="30.2" y="-109.2" class="st4" width="8.7" height="5.4"/>
			<g>
				<polyline class="st4" points="36.1,-79.1 38.3,-76.9 38.3,-73.7 36.1,-71.5 33,-71.5 30.8,-73.7 30.8,-76.9 33,-79.1 				"/>
				<line class="st7" x1="34.6" y1="-74.6" x2="46.3" y2="-86.3"/>
			</g>
			
				<rect x="46.2" y="-93.7" transform="matrix(0.7071 0.7071 -0.7071 0.7071 -49.7457 -63.3673)" class="st4" width="10.8" height="3.9"/>
			
				<rect x="12.5" y="-94.5" transform="matrix(-0.7071 0.7071 -0.7071 -0.7071 -34.8499 -170.6775)" class="st4" width="10.8" height="3.9"/>
		</g>
		<path class="st7" d="M86.2-130.7l-5.5,5.5l-7.3,7.3l-8.1,2l-25.5-5v-4.4h14.8l-5.4-5.4l-14.8,2.9l-4.9,4.9l-6.1,0.1
			c-0.4-1.3-0.5-1.6-0.8-3l7.8-7.8l19.1-4.6l16.6,4.3l5-0.9l5.5-5.5"/>
	</g>
	<g>
		<g>
			<rect x="-120.7" y="50.2" class="st7" width="50.9" height="31.1"/>
			<rect x="-127.4" y="50.2" class="st4" width="6.5" height="4.9"/>
			<rect x="-69.8" y="50.2" class="st4" width="6.5" height="4.9"/>
			<polyline class="st4" points="-69,50.2 -69,44.1 -80.4,37.4 -95.2,37.4 -110,37.4 -121.4,44.1 -121.4,50.2 			"/>
			<polygon class="st4" points="-92.1,33.2 -93,37.4 -97.4,37.4 -98.3,33.2 			"/>
		</g>
		<g>
			<polyline class="st7" points="-130.2,88.3 -123.2,92.4 -116.3,88.3 -109.3,92.4 -102.4,88.3 -95.4,92.4 -88.4,88.3 -81.5,92.4 
				-74.5,88.3 -67.6,92.4 -60.6,88.3 			"/>
		</g>
		<polyline class="st7" points="-93.2,14 -97.9,18.7 -93.3,23.2 -93.3,29.9 		"/>
		<polyline class="st7" points="-100.9,10.3 -105.5,14.9 -101,19.5 -101,26.2 		"/>
	</g>
	<g>
		<polygon class="st7" points="28.1,66.7 28.1,66.7 19.6,66.7 14.8,77.6 16.2,78.2 20.4,68.8 20.5,68.8 20.5,79 20.5,79.4 
			20.5,89.4 23.2,89.4 23.2,79.4 24.6,79.4 24.6,89.4 27.3,89.4 27.3,79.4 27.3,79 27.3,68.8 27.3,68.8 31.5,78.2 32.9,77.6 
			28.1,66.7 		"/>
		<polygon class="st7" points="45.3,66.7 45.3,66.7 36.2,66.7 36.2,66.7 36.1,66.7 31.3,77.6 32.8,78.3 37,68.8 37.5,68.8 
			35.2,79.4 37.5,79.4 37.5,89.4 40.2,89.4 40.2,79.4 40.6,79.4 40.8,79.4 41.3,79.4 41.3,89.4 44,89.4 44,79.4 46.2,79.4 
			43.9,68.8 44.4,68.8 48.6,78.3 50.1,77.6 45.3,66.7 		"/>
		<polygon class="st7" points="22.7,60.6 21.1,62.2 21.1,64.5 22.7,66.1 24.9,66.1 26.6,64.5 26.6,62.2 25,60.6 		"/>
		<polygon class="st7" points="61.9,66.7 61.9,66.7 53.3,66.7 48.5,77.6 50,78.2 54.2,68.8 54.3,68.8 54.3,79 54.3,79.4 54.3,89.4 
			57,89.4 57,79.4 58.4,79.4 58.4,89.4 61,89.4 61,79.4 61,79 61,68.8 61.1,68.8 65.2,78.2 66.7,77.6 61.9,66.7 		"/>
		<polygon class="st7" points="56.5,60.6 54.9,62.2 54.8,64.5 56.4,66.1 58.7,66.1 60.4,64.5 60.4,62.2 58.8,60.6 		"/>
		<polygon class="st7" points="39.7,60.6 38,62.2 38,64.5 39.6,66.1 41.9,66.1 43.5,64.5 43.6,62.2 42,60.6 		"/>
		<polygon class="st7" points="79.3,66.7 79.3,66.7 70.2,66.7 70.2,66.7 70.1,66.7 65.3,77.6 66.8,78.3 71,68.8 71.5,68.8 
			69.2,79.4 71.5,79.4 71.5,89.4 74.2,89.4 74.2,79.4 74.6,79.4 74.8,79.4 75.3,79.4 75.3,89.4 78,89.4 78,79.4 80.2,79.4 
			77.9,68.8 78.5,68.8 82.6,78.3 84.1,77.6 79.3,66.7 		"/>
		<polygon class="st7" points="73.7,60.6 72.1,62.2 72,64.5 73.6,66.1 75.9,66.1 77.5,64.5 77.6,62.2 76,60.6 		"/>
	</g>
	<g>
		<g>
			<polygon class="st7" points="79.8,16 73.5,9.7 69,9.7 56.3,33 57.8,34.5 59.1,35.8 61,37.7 84.3,25 84.3,20.5 80.8,17 			"/>
			<polygon class="st4" points="64.8,21.3 59.7,30.5 60.9,31.7 61.9,32.7 63.5,34.3 82.1,24.1 82.1,20.6 			"/>
			
				<rect x="51.2" y="36" transform="matrix(-0.7071 -0.7071 0.7071 -0.7071 69.5513 104.1507)" class="st4" width="10.4" height="3.4"/>
		</g>
		<polygon class="st7" points="56.2,40.6 56.7,40.1 57.5,40.1 58.1,40.6 58.1,41.4 57.5,42 56.7,42 56.2,41.4 		"/>
		<polygon class="st7" points="52.6,43.7 53.1,43.1 53.9,43.1 54.5,43.7 54.5,44.4 53.9,45 53.1,45 52.6,44.4 		"/>
		<polygon class="st7" points="47.9,48.2 48.5,47.6 49.2,47.6 49.8,48.2 49.8,49 49.2,49.5 48.5,49.5 47.9,49 		"/>
		<polygon class="st7" points="53.5,49.1 54.1,48.6 54.9,48.6 55.5,49.1 55.5,49.9 54.9,50.5 54.1,50.5 53.5,49.9 		"/>
		<polygon class="st7" points="44.8,50.1 45.3,49.5 46.1,49.5 46.7,50.1 46.7,50.9 46.1,51.4 45.3,51.4 44.8,50.9 		"/>
		<polygon class="st7" points="51.6,39.7 52.2,39.1 53,39.1 53.5,39.7 53.5,40.5 53,41 52.2,41 51.6,40.5 		"/>
		<polygon class="st7" points="47.5,43.1 48.1,42.5 48.9,42.5 49.4,43.1 49.4,43.9 48.9,44.5 48.1,44.5 47.5,43.9 		"/>
	</g>
	<g>
		<polyline class="st7" points="-55.2,202.8 -55.2,192.8 -71.5,176.6 -91.5,174.2 -111.5,176.6 -127.7,192.8 -127.7,202.8 		"/>
		<polygon class="st4" points="-88.3,164.5 -89.3,168.8 -93.7,168.8 -94.7,164.5 		"/>
		<rect x="-136" y="202.8" class="st4" width="88.3" height="5.2"/>
		<line class="st7" x1="-91.5" y1="174.2" x2="-91.5" y2="166.6"/>
	</g>
	<g>
		<path class="st7" d="M58.2,223.2L84,194.3v-18.7c0,0-9.9-9.9-13.6-13.6l-15.1,13.6l-15.1-13.6l-13.6,13.6v18.7l25.8,28.9H58.2z"/>
	</g>
	<g>
		<g>
			<g>
				<path class="st4" d="M-272.8-70.5h12.6c0.1,0,0.1,0,0.2,0.1l9.2,9.2c0.1,0.1,0.4,0,0.4-0.2v-8.9c0-0.1,0.1-0.2,0.2-0.2h5
					c0.1,0,0.2-0.1,0.2-0.2v-27c0-0.1-0.1-0.2-0.2-0.2h-27.6c-0.1,0-0.2,0.1-0.2,0.2v27C-273.1-70.6-273-70.5-272.8-70.5z"/>
			</g>
			<g>
				<g>
					<path class="st8" d="M-259.7-80.5c-0.1,0-0.2-0.1-0.1-0.3c0.3-1.3,0.5-2.1,1.6-3.1c1.2-1,2.1-1.3,2.1-3.4
						c0-1.7-0.4-2.3-2.5-2.3c-0.9,0-1.9,0.2-2.9,0.5c-0.1,0-0.3,0-0.3-0.2l-0.1-1.1c0-0.1,0.1-0.2,0.2-0.2c1-0.2,2.1-0.5,3.2-0.5
						c3.1,0,4.2,1.1,4.2,3.8c0,3.1-1.4,3.4-2.8,4.8c-0.6,0.6-0.9,1.2-1.2,2.3c0,0.1-0.2,0.2-0.3,0.2L-259.7-80.5z M-258.6-78
						c0.5,0.1,0.5,0.4,0.5,1.1c0,0.8-0.7,1.4-1.4,1.2c-0.5-0.1-0.5-0.4-0.5-1.1C-260-77.5-259.3-78.2-258.6-78z"/>
				</g>
			</g>
		</g>
		<g>
			<polyline class="st7" points="-223.3,-130 -193.1,-113.7 -197,-103.4 -201,-93.1 -223.6,-98.5 -234.4,-101.1 			"/>
			<polyline class="st10" points="-218.5,-127.4 -217.2,-130.9 -211,-131.4 -204.7,-129 -202.5,-124.2 -204.5,-119.1 			"/>
			<polygon class="st7" points="-209.1,-122.1 -229.9,-100 -201,-93.1 -193.1,-113.7 			"/>
			<line class="st7" x1="-224.5" y1="-98.7" x2="-222.9" y2="-102.9"/>
			<line class="st7" x1="-218.7" y1="-96.8" x2="-217.1" y2="-101"/>
			<line class="st7" x1="-212.6" y1="-95.9" x2="-211.4" y2="-98.8"/>
			<line class="st7" x1="-207" y1="-94.1" x2="-206" y2="-96.7"/>
		</g>
		<g>
			<polygon class="st7" points="-249.1,-116.7 -247.1,-118.9 -244.1,-119 -241.8,-117 -241.7,-114 -243.7,-111.7 -246.7,-111.6 
				-249,-113.7 			"/>
			<polygon class="st7" points="-238.3,-111.7 -237.3,-112.9 -235.7,-112.9 -234.5,-111.9 -234.5,-110.3 -235.5,-109.2 
				-237.1,-109.1 -238.2,-110.2 			"/>
			<polygon class="st7" points="-250.5,-105.8 -249.5,-107 -247.9,-107 -246.7,-106 -246.7,-104.4 -247.7,-103.3 -249.3,-103.2 
				-250.4,-104.2 			"/>
		</g>
	</g>
	
		<rect x="-220.5" y="205.6" transform="matrix(0.9583 -0.2859 0.2859 0.9583 -67.5536 -48.9373)" class="st4" width="38.1" height="2.6"/>
	<g>
		
			<rect x="-275.7" y="174.3" transform="matrix(-0.6144 -0.789 0.789 -0.6144 -547.6523 85.0586)" class="st4" width="45.4" height="4.2"/>
		<polygon class="st11" points="-244.2,183.4 -237.6,185.2 -232.8,191.3 -232.7,198.2 -237.4,201.8 -244,200 -248.8,193.9 
			-248.9,187 		"/>
	</g>
	<polygon class="st7" points="-219.8,211.2 -219.8,217.6 -230,227.9 -245.1,227.9 -246.9,227.9 -260.3,227.9 -270.6,217.6 
		-270.6,211.2 	"/>
</g>
</svg>
