<?xml version="1.0" encoding="utf-8"?>
<!-- Generator: Adobe Illustrator 19.1.1, SVG Export Plug-In . SVG Version: 6.00 Build 0)  -->
<svg version="1.1" xmlns="http://www.w3.org/2000/svg" xmlns:xlink="http://www.w3.org/1999/xlink" x="0px" y="0px"
	 viewBox="0 0 100 100" style="enable-background:new 0 0 100 100;" xml:space="preserve">
<style type="text/css">
	.st0{display:none;}
	.st1{display:inline;fill:#2E3191;stroke:#822A85;stroke-width:3;stroke-linecap:round;stroke-miterlimit:10;}
	.st2{display:inline;fill:#BD2137;}
	.st3{display:inline;}
	.st4{fill:#FFFFFF;}
	.st5{clip-path:url(#SVGID_2_);fill:#FFFFFF;}
	.st6{display:inline;fill:none;stroke:#AC57A1;stroke-width:0.1;stroke-miterlimit:10;stroke-dasharray:1,0.3;}
	.st7{fill:none;stroke:#FFFFFF;stroke-miterlimit:10;}
	.st8{fill:#803193;}
	.st9{fill:none;stroke:#803193;stroke-miterlimit:10;}
	.st10{fill:none;stroke:#FFFFFF;stroke-width:6;stroke-miterlimit:10;}
	.st11{fill:#FFFFFF;stroke:#FFFFFF;stroke-miterlimit:10;}
</style>
<g id="Layer_3" class="st0">
	<rect x="-55.1" y="-358" class="st1" width="742.5" height="674"/>
</g>
<g id="Layer_2" class="st0">
	<rect x="-491.3" y="-227.2" class="st2" width="295" height="150"/>
	<g class="st3">
		<polygon class="st4" points="-317.8,-187.6 -335.5,-180.6 -335.5,-133.6 -317.8,-133.6 		"/>
		<polygon class="st4" points="-337,-133.6 -354.7,-133.6 -354.7,-173 -337,-180 		"/>
		<polygon class="st4" points="-373.9,-165.4 -373.9,-133.6 -356.2,-133.6 -356.2,-172.4 		"/>
		<g>
			<defs>
				<rect id="SVGID_1_" x="-373.9" y="-187.6" width="60.3" height="70.7"/>
			</defs>
			<clipPath id="SVGID_2_">
				<use xlink:href="#SVGID_1_"  style="overflow:visible;"/>
			</clipPath>
			<path class="st5" d="M-366-116.9h-2.9l-1.2-7.8l-0.6,7.8h-3.2l1.1-12.9h4.5l0.7,4.3c0.1,0.4,0.1,0.7,0.2,1.2
				c0,0.4,0.1,0.9,0.1,1.4c0.1-0.8,0.2-1.6,0.3-2.2l0.9-4.7h4.3l0.9,12.9h-3.1l-0.4-7.8L-366-116.9z"/>
			<path class="st5" d="M-350.6-116.9h-3.6l-0.3-1.6h-2.3l-0.3,1.6h-3.6l3.1-12.9h4.3L-350.6-116.9z M-354.9-121.3l-0.2-1.5
				c0,0,0-0.1,0-0.2c0-0.1-0.1-0.6-0.2-1.5c0-0.1,0-0.2,0-0.4c0-0.2,0-0.4-0.1-0.6l-0.1-1.2c0,0.1,0,0.2,0,0.4c0,0.1,0,0.3-0.1,0.5
				c0,0.3-0.1,0.6-0.1,0.7c0,0.1,0,0.2,0,0.2l-0.2,1.6l-0.4,2H-354.9z"/>
			<path class="st5" d="M-341.1-116.9h-3.8l-1.7-4.6c0-0.1,0-0.2-0.1-0.3c0-0.1-0.1-0.3-0.2-0.5l0,0.9v4.5h-3.5v-12.9h3.6
				c1.6,0,2.7,0.3,3.5,0.9c1,0.8,1.5,1.9,1.5,3.4c0,1.6-0.7,2.6-2,3.2L-341.1-116.9z M-346.8-124h0.2c0.4,0,0.7-0.2,1-0.5
				c0.3-0.3,0.4-0.7,0.4-1.2c0-1-0.5-1.4-1.5-1.4h-0.1V-124z"/>
			<polygon class="st5" points="-331.4,-116.9 -335.1,-116.9 -337.5,-122.8 -337.4,-116.9 -340.8,-116.9 -340.8,-129.8 
				-337.4,-129.8 -337.5,-124.3 -335.5,-129.8 -331.9,-129.8 -334.5,-123.6 			"/>
			<polygon class="st5" points="-331.1,-116.9 -331.1,-129.8 -324.7,-129.8 -324.7,-126.8 -327.7,-126.8 -327.7,-125 -325.1,-125 
				-325.1,-122 -327.7,-122 -327.7,-119.9 -324.7,-119.9 -324.7,-116.9 			"/>
			<polygon class="st5" points="-317.8,-116.9 -323.9,-116.9 -323.9,-129.8 -320.6,-129.8 -320.6,-119.9 -317.8,-119.9 			"/>
			<path class="st5" d="M-319.7-127.3c0,1.7,1.4,3,3,3c1.6,0,3-1.3,3-3c0-1.7-1.4-3-3-3C-318.3-130.3-319.7-129-319.7-127.3
				 M-319.1-127.3c0-1.4,1.1-2.5,2.4-2.5c1.4,0,2.4,1.1,2.4,2.5c0,1.4-1.1,2.5-2.4,2.5C-318-124.8-319.1-125.9-319.1-127.3
				 M-317.3-127.1h0.6l0.9,1.5h0.6l-1-1.5c0.5-0.1,0.9-0.3,0.9-1c0-0.7-0.4-1-1.2-1h-1.3v3.5h0.5V-127.1z M-317.3-127.5v-1.1h0.7
				c0.4,0,0.7,0.1,0.7,0.5c0,0.5-0.4,0.6-0.8,0.6H-317.3z"/>
		</g>
	</g>
	<rect x="4.8" y="-275.9" class="st6" width="80" height="80"/>
	<polygon class="st6" points="-5.3,-235.9 44.8,-285.9 94.8,-235.9 44.8,-185.9 	"/>
	<line class="st6" x1="94.9" y1="-286" x2="-5.3" y2="-185.9"/>
	<line class="st6" x1="94.9" y1="-185.9" x2="-5.3" y2="-285.9"/>
	<line class="st6" x1="-5.3" y1="-235.9" x2="94.8" y2="-235.9"/>
	<line class="st6" x1="44.8" y1="-286.1" x2="44.8" y2="-185.9"/>
	<rect x="142.4" y="-275.9" class="st6" width="80" height="80"/>
	<polygon class="st6" points="132.4,-235.9 182.4,-285.9 232.5,-235.9 182.4,-185.9 	"/>
	<line class="st6" x1="232.5" y1="-286" x2="132.4" y2="-185.9"/>
	<line class="st6" x1="232.5" y1="-185.9" x2="132.4" y2="-285.9"/>
	<line class="st6" x1="132.4" y1="-235.9" x2="232.5" y2="-235.9"/>
	<line class="st6" x1="182.4" y1="-286.1" x2="182.4" y2="-185.9"/>
	<rect x="287.9" y="-275.9" class="st6" width="80" height="80"/>
	<polygon class="st6" points="277.8,-235.9 327.9,-285.9 377.9,-235.9 327.9,-185.9 	"/>
	<line class="st6" x1="377.9" y1="-286" x2="277.8" y2="-185.9"/>
	<line class="st6" x1="377.9" y1="-185.9" x2="277.8" y2="-285.9"/>
	<line class="st6" x1="277.8" y1="-235.9" x2="377.9" y2="-235.9"/>
	<line class="st6" x1="327.9" y1="-286.1" x2="327.9" y2="-185.9"/>
	<rect x="287.9" y="-127.8" class="st6" width="80" height="80"/>
	<polygon class="st6" points="277.8,-87.8 327.9,-137.8 377.9,-87.8 327.9,-37.8 	"/>
	<line class="st6" x1="377.9" y1="-137.9" x2="277.8" y2="-37.8"/>
	<line class="st6" x1="377.9" y1="-37.8" x2="277.8" y2="-137.8"/>
	<line class="st6" x1="277.8" y1="-87.8" x2="377.9" y2="-87.8"/>
	<line class="st6" x1="327.9" y1="-138" x2="327.9" y2="-37.8"/>
	<rect x="142.4" y="-127.8" class="st6" width="80" height="80"/>
	<polygon class="st6" points="132.4,-87.8 182.4,-137.8 232.5,-87.8 182.4,-37.8 	"/>
	<line class="st6" x1="232.5" y1="-137.9" x2="132.4" y2="-37.8"/>
	<line class="st6" x1="232.5" y1="-37.8" x2="132.4" y2="-137.8"/>
	<line class="st6" x1="132.4" y1="-87.8" x2="232.5" y2="-87.8"/>
	<line class="st6" x1="182.4" y1="-138" x2="182.4" y2="-37.8"/>
	<rect x="10" y="-127.8" class="st6" width="80" height="80"/>
	<polygon class="st6" points="0,-87.8 50,-137.8 100,-87.8 50,-37.8 	"/>
	<line class="st6" x1="100.1" y1="-137.9" x2="0" y2="-37.8"/>
	<line class="st6" x1="100.1" y1="-37.8" x2="-0.1" y2="-137.8"/>
	<line class="st6" x1="-0.1" y1="-87.8" x2="100" y2="-87.8"/>
	<line class="st6" x1="50" y1="-138" x2="50" y2="-37.8"/>
	<rect x="10" y="10" class="st6" width="80" height="80"/>
	<polygon class="st6" points="0,50.1 50,0 100,50 50,100 	"/>
	<line class="st6" x1="100.1" y1="0" x2="0" y2="100.1"/>
	<line class="st6" x1="100.1" y1="100.1" x2="-0.1" y2="0"/>
	<line class="st6" x1="-0.1" y1="50" x2="100" y2="50"/>
	<line class="st6" x1="50" y1="-0.1" x2="50" y2="100.1"/>
	<rect x="145.7" y="10" class="st6" width="80" height="80"/>
	<polygon class="st6" points="135.7,50.1 185.8,0 235.8,50 185.7,100 	"/>
	<line class="st6" x1="235.8" y1="0" x2="135.7" y2="100.1"/>
	<line class="st6" x1="235.8" y1="100.1" x2="135.7" y2="0"/>
	<line class="st6" x1="135.7" y1="50" x2="235.8" y2="50"/>
	<line class="st6" x1="185.7" y1="-0.1" x2="185.7" y2="100.1"/>
	<rect x="292.7" y="10" class="st6" width="80" height="80"/>
	<polygon class="st6" points="282.6,50.1 332.7,0 382.7,50 332.7,100 	"/>
	<line class="st6" x1="382.7" y1="0" x2="282.6" y2="100.1"/>
	<line class="st6" x1="382.7" y1="100.1" x2="282.6" y2="0"/>
	<line class="st6" x1="282.6" y1="50" x2="382.7" y2="50"/>
	<line class="st6" x1="332.7" y1="-0.1" x2="332.7" y2="100.1"/>
</g>
<g id="Layer_6">
	<g>
		<path class="st7" d="M44.2-77.4L65.9-72L69-84.8l-21.8-5.4L44.2-77.4z M66.4-74.1l20.2,5l2.1-8.5l-20.2-5L66.4-74.1z"/>
		<rect x="59.7" y="-69.9" class="st4" width="12" height="2.3"/>
		<polygon class="st4" points="93.9,-73.3 93.2,-70.5 87.3,-72 88,-74.8 		"/>
		<polygon class="st4" points="44,-92.7 47.7,-91.8 43.8,-75.6 40.1,-76.5 		"/>
		<g>
			<path class="st7" d="M65.7-62l-17,17.1 M65.7-62l17,17.1 M65.7-67.4v22.6"/>
		</g>
	</g>
	<g>
		<polygon class="st4" points="33.1,-95.2 31.7,-93.8 30.3,-95.2 28.3,-95.2 28.3,-97 27,-98.4 28.3,-99.8 28.3,-101.7 30.3,-101.7 
			31.7,-103 33.1,-101.7 35,-101.7 35,-99.8 36.4,-98.4 35,-97 35,-95.2 		"/>
		<polygon class="st7" points="16.6,-104.2 15.3,-102.9 14,-104.2 12.1,-104.2 12.1,-105.9 10.8,-107.2 12.1,-108.5 12.1,-110.3 
			14,-110.3 15.3,-111.6 16.6,-110.3 18.5,-110.3 18.5,-108.5 19.8,-107.2 18.5,-105.9 18.5,-104.2 		"/>
		<polygon class="st7" points="33,-119.5 31.7,-118.2 30.4,-119.5 28.5,-119.5 28.5,-121.2 27.2,-122.5 28.5,-123.8 28.5,-125.6 
			30.4,-125.6 31.7,-126.9 33,-125.6 34.9,-125.6 34.9,-123.8 36.2,-122.5 34.9,-121.2 34.9,-119.5 		"/>
		<polygon class="st4" points="12.1,-123.9 10.8,-122.5 9.4,-123.9 7.4,-123.9 7.4,-125.7 6,-127.1 7.4,-128.5 7.4,-130.4 
			9.4,-130.4 10.8,-131.7 12.1,-130.4 14.1,-130.4 14.1,-128.5 15.5,-127.1 14.1,-125.7 14.1,-123.9 		"/>
	</g>
	<g>
		<path class="st7" d="M204.2-265.8l8-8 M211-236.9h11.4 M154-273.7l8,8 M182.5-268.1v-11.3 M142-236.9h11.4 M172.1-197.8h20.7
			 M172.1-200.5h20.7 M172.1-203.1h20.7"/>
		<polygon class="st4" points="202.7,-236.5 192.6,-259 172.2,-259 162.1,-236.5 172.2,-213.9 172.2,-213.9 172.2,-205.7 
			192.9,-205.7 192.9,-214.6 		"/>
		<g>
			<polygon class="st8" points="179,-234.1 176.1,-231.2 179,-228.4 182,-231.2 185,-228.4 188,-231.2 185,-234.1 182,-236.9 			"/>
		</g>
		<polyline class="st9" points="182.5,-206.6 182.5,-211.7 186,-215.2 182.6,-218.6 186.3,-222.3 182.2,-226.4 182.2,-232.4 		"/>
	</g>
	<g>
		<g>
			<polyline class="st7" points="321.1,-234.9 333.4,-222.6 333.4,-205.2 321.1,-192.9 303.8,-192.9 291.5,-205.2 291.5,-222.6 
				303.8,-234.9 			"/>
			<line class="st7" x1="312.4" y1="-242.9" x2="312.4" y2="-237.1"/>
			<rect x="308.1" y="-247.1" class="st4" width="8.7" height="5.4"/>
			<g>
				<polyline class="st4" points="314,-216.9 316.2,-214.7 316.2,-211.6 314,-209.4 310.9,-209.4 308.7,-211.6 308.7,-214.7 
					310.9,-216.9 				"/>
				<line class="st7" x1="312.4" y1="-212.4" x2="324.2" y2="-224.2"/>
			</g>
			
				<rect x="324.1" y="-231.5" transform="matrix(0.7071 0.7071 -0.7071 0.7071 -65.8369 -300.2306)" class="st4" width="10.8" height="3.9"/>
			
				<rect x="290.4" y="-232.4" transform="matrix(-0.7071 0.7071 -0.7071 -0.7071 342.0562 -602.5029)" class="st4" width="10.8" height="3.9"/>
		</g>
		<path class="st7" d="M364.1-268.5l-5.5,5.5l-7.3,7.3l-8.1,2l-25.5-5v-4.4h14.8l-5.4-5.4l-14.8,2.9l-4.9,4.9l-6.1,0.1
			c-0.4-1.3-0.5-1.6-0.8-3l7.8-7.8l19.1-4.6l16.6,4.3l5-0.9l5.5-5.5"/>
	</g>
	<g>
		<g>
			<rect x="157.2" y="-87.7" class="st7" width="50.9" height="31.1"/>
			<rect x="150.4" y="-87.7" class="st4" width="6.5" height="4.9"/>
			<rect x="208.1" y="-87.7" class="st4" width="6.5" height="4.9"/>
			<polyline class="st4" points="208.9,-87.7 208.9,-93.8 197.5,-100.4 182.7,-100.4 167.9,-100.4 156.5,-93.8 156.5,-87.7 			"/>
			<polygon class="st4" points="185.8,-104.7 184.8,-100.4 180.5,-100.4 179.5,-104.7 			"/>
		</g>
		<g>
			<polyline class="st7" points="147.7,-49.5 154.7,-45.5 161.6,-49.5 168.6,-45.5 175.5,-49.5 182.5,-45.5 189.4,-49.5 
				196.4,-45.5 203.3,-49.5 210.3,-45.5 217.3,-49.5 			"/>
		</g>
		<polyline class="st7" points="184.6,-123.8 180,-119.2 184.5,-114.6 184.5,-108 		"/>
		<polyline class="st7" points="177,-127.6 172.4,-122.9 176.9,-118.4 176.9,-111.7 		"/>
	</g>
	<g>
		<polygon class="st7" points="306,-71.1 306,-71.1 297.4,-71.1 292.6,-60.2 294.1,-59.6 298.3,-69.1 298.4,-69.1 298.4,-58.8 
			298.4,-58.5 298.4,-48.5 301.1,-48.5 301.1,-58.5 302.5,-58.5 302.5,-48.5 305.1,-48.5 305.1,-58.5 305.1,-58.8 305.1,-69.1 
			305.2,-69.1 309.3,-59.6 310.8,-60.2 306,-71.1 		"/>
		<polygon class="st7" points="323.2,-71.1 323.2,-71.1 314.1,-71.1 314.1,-71.1 314,-71.1 309.2,-60.2 310.7,-59.6 314.8,-69.1 
			315.4,-69.1 313.1,-58.5 315.4,-58.5 315.4,-48.5 318,-48.5 318,-58.5 318.5,-58.5 318.7,-58.5 319.2,-58.5 319.2,-48.5 
			321.8,-48.5 321.8,-58.5 324.1,-58.5 321.8,-69.1 322.3,-69.1 326.5,-59.6 328,-60.2 323.2,-71.1 		"/>
		<polygon class="st7" points="300.6,-77.3 299,-75.7 298.9,-73.4 300.5,-71.8 302.8,-71.7 304.5,-73.3 304.5,-75.6 302.9,-77.3 		
			"/>
		<polygon class="st7" points="339.8,-71.1 339.8,-71.1 331.2,-71.1 326.4,-60.2 327.9,-59.6 332,-69.1 332.2,-69.1 332.2,-58.8 
			332.2,-58.5 332.2,-48.5 334.9,-48.5 334.9,-58.5 336.2,-58.5 336.2,-48.5 338.9,-48.5 338.9,-58.5 338.9,-58.8 338.9,-69.1 
			338.9,-69.1 343.1,-59.6 344.6,-60.2 339.8,-71.1 		"/>
		<polygon class="st7" points="334.4,-77.3 332.7,-75.7 332.7,-73.4 334.3,-71.8 336.6,-71.7 338.2,-73.3 338.3,-75.6 336.7,-77.3 
					"/>
		<polygon class="st7" points="317.6,-77.3 315.9,-75.7 315.9,-73.4 317.5,-71.8 319.8,-71.7 321.4,-73.3 321.5,-75.6 319.9,-77.3 
					"/>
		<polygon class="st7" points="357.2,-71.1 357.2,-71.1 348.1,-71.1 348.1,-71.1 348,-71.1 343.2,-60.2 344.7,-59.6 348.8,-69.1 
			349.4,-69.1 347.1,-58.5 349.4,-58.5 349.4,-48.5 352,-48.5 352,-58.5 352.5,-58.5 352.7,-58.5 353.2,-58.5 353.2,-48.5 
			355.8,-48.5 355.8,-58.5 358.1,-58.5 355.8,-69.1 356.3,-69.1 360.5,-59.6 362,-60.2 357.2,-71.1 		"/>
		<polygon class="st7" points="351.6,-77.3 349.9,-75.7 349.9,-73.4 351.5,-71.8 353.8,-71.7 355.4,-73.3 355.5,-75.6 353.9,-77.3 
					"/>
	</g>
	<g>
		<g>
			<polygon class="st7" points="357.7,-121.9 351.4,-128.1 346.9,-128.1 334.2,-104.9 335.7,-103.4 337,-102.1 338.9,-100.2 
				362.2,-112.9 362.2,-117.3 358.7,-120.8 			"/>
			<polygon class="st4" points="342.7,-116.6 337.6,-107.3 338.8,-106.1 339.8,-105.1 341.4,-103.6 360,-113.7 360,-117.3 			"/>
			
				<rect x="329" y="-101.9" transform="matrix(-0.7071 -0.7071 0.7071 -0.7071 641.4068 65.3087)" class="st4" width="10.4" height="3.4"/>
		</g>
		<polygon class="st7" points="334,-97.2 334.6,-97.8 335.4,-97.8 336,-97.2 336,-96.4 335.4,-95.9 334.6,-95.9 334,-96.4 		"/>
		<polygon class="st7" points="330.5,-94.2 331,-94.8 331.8,-94.8 332.4,-94.2 332.4,-93.4 331.8,-92.9 331,-92.9 330.5,-93.4 		"/>
		<polygon class="st7" points="325.8,-89.7 326.3,-90.3 327.1,-90.3 327.7,-89.7 327.7,-88.9 327.1,-88.3 326.3,-88.3 325.8,-88.9 
					"/>
		<polygon class="st7" points="331.4,-88.7 332,-89.3 332.8,-89.3 333.3,-88.7 333.3,-87.9 332.8,-87.4 332,-87.4 331.4,-87.9 		"/>
		<polygon class="st7" points="322.7,-87.8 323.2,-88.3 324,-88.3 324.6,-87.8 324.6,-87 324,-86.4 323.2,-86.4 322.7,-87 		"/>
		<polygon class="st7" points="329.5,-98.2 330.1,-98.7 330.9,-98.7 331.4,-98.2 331.4,-97.4 330.9,-96.8 330.1,-96.8 329.5,-97.4 
					"/>
		<polygon class="st7" points="325.4,-94.8 326,-95.3 326.8,-95.3 327.3,-94.8 327.3,-94 326.8,-93.4 326,-93.4 325.4,-94 		"/>
	</g>
	<g>
		<polyline class="st7" points="222.7,65 222.7,54.9 206.4,38.7 186.4,36.3 166.4,38.7 150.1,54.9 150.1,65 		"/>
		<polygon class="st4" points="189.6,26.6 188.6,30.9 184.2,30.9 183.2,26.6 		"/>
		<rect x="141.9" y="65" class="st4" width="88.3" height="5.2"/>
		<line class="st7" x1="186.4" y1="36.3" x2="186.4" y2="28.8"/>
	</g>
	<g>
		<path class="st7" d="M336.1,85.3l25.8-28.9V37.7c0,0-9.9-9.9-13.6-13.6l-15.1,13.6l-15.1-13.6l-13.6,13.6v18.7l25.8,28.9H336.1z"
			/>
	</g>
	<g>
		<g>
			<g>
				<path class="st4" d="M5-208.4h12.6c0.1,0,0.1,0,0.2,0.1l9.2,9.2c0.1,0.1,0.4,0,0.4-0.2v-8.9c0-0.1,0.1-0.2,0.2-0.2h5
					c0.1,0,0.2-0.1,0.2-0.2v-27c0-0.1-0.1-0.2-0.2-0.2H5c-0.1,0-0.2,0.1-0.2,0.2v27C4.8-208.5,4.9-208.4,5-208.4z"/>
			</g>
			<g>
				<g>
					<path class="st8" d="M18.2-218.4c-0.1,0-0.2-0.1-0.1-0.3c0.3-1.3,0.5-2.1,1.6-3.1c1.2-1,2.1-1.3,2.1-3.4c0-1.7-0.4-2.3-2.5-2.3
						c-0.9,0-1.9,0.2-2.9,0.5c-0.1,0-0.3,0-0.3-0.2l-0.1-1.1c0-0.1,0.1-0.2,0.2-0.2c1-0.2,2.1-0.5,3.2-0.5c3.1,0,4.2,1.1,4.2,3.8
						c0,3.1-1.4,3.4-2.8,4.8c-0.6,0.6-0.9,1.2-1.2,2.3c0,0.1-0.2,0.2-0.3,0.2L18.2-218.4z M19.3-215.9c0.5,0.1,0.5,0.4,0.5,1.1
						c0,0.8-0.7,1.4-1.4,1.2c-0.5-0.1-0.5-0.4-0.5-1.1C17.9-215.4,18.6-216,19.3-215.9z"/>
				</g>
			</g>
		</g>
		<g>
			<polyline class="st7" points="54.5,-267.8 84.8,-251.6 80.8,-241.3 76.9,-230.9 54.2,-236.4 43.5,-238.9 			"/>
			<polyline class="st10" points="59.4,-265.3 60.7,-268.7 66.9,-269.3 73.2,-266.8 75.3,-262 73.4,-257 			"/>
			<polygon class="st7" points="68.8,-259.9 48,-237.9 76.9,-230.9 84.8,-251.6 			"/>
			<line class="st7" x1="53.4" y1="-236.6" x2="55" y2="-240.8"/>
			<line class="st7" x1="59.2" y1="-234.6" x2="60.8" y2="-238.8"/>
			<line class="st7" x1="65.3" y1="-233.7" x2="66.5" y2="-236.7"/>
			<line class="st7" x1="70.9" y1="-232" x2="71.9" y2="-234.6"/>
		</g>
		<g>
			<polygon class="st7" points="28.8,-254.5 30.8,-256.7 33.8,-256.9 36,-254.8 36.2,-251.8 34.1,-249.6 31.1,-249.5 28.9,-251.5 
							"/>
			<polygon class="st7" points="39.6,-249.6 40.6,-250.7 42.2,-250.8 43.3,-249.7 43.4,-248.2 42.4,-247 40.8,-247 39.6,-248 			"/>
			<polygon class="st7" points="27.4,-243.7 28.4,-244.8 30,-244.9 31.1,-243.8 31.2,-242.3 30.2,-241.1 28.6,-241 27.4,-242.1 			
				"/>
		</g>
	</g>
	
		<rect x="57.4" y="67.7" transform="matrix(0.9583 -0.2859 0.2859 0.9583 -16.5485 24.7478)" class="st4" width="38.1" height="2.6"/>
	<g>
		<rect x="2.1" y="36.4" transform="matrix(-0.6144 -0.789 0.789 -0.6144 9.7239 81.7652)" class="st4" width="45.4" height="4.2"/>
		<polygon class="st11" points="33.6,45.6 40.3,47.3 45,53.5 45.1,60.3 40.5,63.9 33.9,62.1 29.1,56 29,49.1 		"/>
	</g>
	<polygon class="st7" points="58.1,73.3 58.1,79.7 47.8,90 32.8,90 31,90 17.6,90 7.3,79.7 7.3,73.3 	"/>
</g>
</svg>
