<?xml version="1.0" encoding="utf-8"?>
<!-- Generator: Adobe Illustrator 19.1.1, SVG Export Plug-In . SVG Version: 6.00 Build 0)  -->
<svg version="1.1" xmlns="http://www.w3.org/2000/svg" xmlns:xlink="http://www.w3.org/1999/xlink" x="0px" y="0px"
	 viewBox="0 0 100 100" style="enable-background:new 0 0 100 100;" xml:space="preserve">
<style type="text/css">
	.st0{display:none;}
	.st1{display:inline;fill:#2E3191;stroke:#822A85;stroke-width:3;stroke-linecap:round;stroke-miterlimit:10;}
	.st2{display:inline;fill:#BD2137;}
	.st3{display:inline;}
	.st4{fill:#FFFFFF;}
	.st5{clip-path:url(#SVGID_2_);fill:#FFFFFF;}
	.st6{display:inline;fill:none;stroke:#AC57A1;stroke-width:0.1;stroke-miterlimit:10;stroke-dasharray:1,0.3;}
	.st7{fill:none;stroke:#FFFFFF;stroke-miterlimit:10;}
	.st8{fill:#803193;}
	.st9{fill:none;stroke:#803193;stroke-miterlimit:10;}
	.st10{fill:none;stroke:#FFFFFF;stroke-width:6;stroke-miterlimit:10;}
	.st11{fill:#FFFFFF;stroke:#FFFFFF;stroke-miterlimit:10;}
</style>
<g id="Layer_3" class="st0">
	<rect x="-190.8" y="-358" class="st1" width="742.5" height="674"/>
</g>
<g id="Layer_2" class="st0">
	<rect x="-627" y="-227.2" class="st2" width="295" height="150"/>
	<g class="st3">
		<polygon class="st4" points="-453.5,-187.6 -471.2,-180.6 -471.2,-133.6 -453.5,-133.6 		"/>
		<polygon class="st4" points="-472.8,-133.6 -490.5,-133.6 -490.5,-173 -472.8,-180 		"/>
		<polygon class="st4" points="-509.7,-165.4 -509.7,-133.6 -492,-133.6 -492,-172.4 		"/>
		<g>
			<defs>
				<rect id="SVGID_1_" x="-509.7" y="-187.6" width="60.3" height="70.7"/>
			</defs>
			<clipPath id="SVGID_2_">
				<use xlink:href="#SVGID_1_"  style="overflow:visible;"/>
			</clipPath>
			<path class="st5" d="M-501.7-116.9h-2.9l-1.2-7.8l-0.6,7.8h-3.2l1.1-12.9h4.5l0.7,4.3c0.1,0.4,0.1,0.7,0.2,1.2
				c0,0.4,0.1,0.9,0.1,1.4c0.1-0.8,0.2-1.6,0.3-2.2l0.9-4.7h4.3l0.9,12.9h-3.1l-0.4-7.8L-501.7-116.9z"/>
			<path class="st5" d="M-486.3-116.9h-3.6l-0.3-1.6h-2.3l-0.3,1.6h-3.6l3.1-12.9h4.3L-486.3-116.9z M-490.6-121.3l-0.2-1.5
				c0,0,0-0.1,0-0.2c0-0.1-0.1-0.6-0.2-1.5c0-0.1,0-0.2,0-0.4c0-0.2,0-0.4-0.1-0.6l-0.1-1.2c0,0.1,0,0.2,0,0.4c0,0.1,0,0.3-0.1,0.5
				c0,0.3-0.1,0.6-0.1,0.7c0,0.1,0,0.2,0,0.2l-0.2,1.6l-0.4,2H-490.6z"/>
			<path class="st5" d="M-476.8-116.9h-3.8l-1.7-4.6c0-0.1,0-0.2-0.1-0.3c0-0.1-0.1-0.3-0.2-0.5l0,0.9v4.5h-3.5v-12.9h3.6
				c1.6,0,2.7,0.3,3.5,0.9c1,0.8,1.5,1.9,1.5,3.4c0,1.6-0.7,2.6-2,3.2L-476.8-116.9z M-482.5-124h0.2c0.4,0,0.7-0.2,1-0.5
				c0.3-0.3,0.4-0.7,0.4-1.2c0-1-0.5-1.4-1.5-1.4h-0.1V-124z"/>
			<polygon class="st5" points="-467.1,-116.9 -470.9,-116.9 -473.2,-122.8 -473.1,-116.9 -476.6,-116.9 -476.6,-129.8 
				-473.1,-129.8 -473.2,-124.3 -471.3,-129.8 -467.6,-129.8 -470.2,-123.6 			"/>
			<polygon class="st5" points="-466.8,-116.9 -466.8,-129.8 -460.4,-129.8 -460.4,-126.8 -463.5,-126.8 -463.5,-125 -460.8,-125 
				-460.8,-122 -463.5,-122 -463.5,-119.9 -460.4,-119.9 -460.4,-116.9 			"/>
			<polygon class="st5" points="-453.5,-116.9 -459.7,-116.9 -459.7,-129.8 -456.3,-129.8 -456.3,-119.9 -453.5,-119.9 			"/>
			<path class="st5" d="M-455.4-127.3c0,1.7,1.4,3,3,3c1.6,0,3-1.3,3-3c0-1.7-1.4-3-3-3C-454.1-130.3-455.4-129-455.4-127.3
				 M-454.8-127.3c0-1.4,1.1-2.5,2.4-2.5c1.4,0,2.4,1.1,2.4,2.5c0,1.4-1.1,2.5-2.4,2.5C-453.8-124.8-454.8-125.9-454.8-127.3
				 M-453-127.1h0.6l0.9,1.5h0.6l-1-1.5c0.5-0.1,0.9-0.3,0.9-1c0-0.7-0.4-1-1.2-1h-1.3v3.5h0.5V-127.1z M-453-127.5v-1.1h0.7
				c0.4,0,0.7,0.1,0.7,0.5c0,0.5-0.4,0.6-0.8,0.6H-453z"/>
		</g>
	</g>
	<rect x="-130.9" y="-275.9" class="st6" width="80" height="80"/>
	<polygon class="st6" points="-141,-235.9 -90.9,-285.9 -40.9,-235.9 -91,-185.9 	"/>
	<line class="st6" x1="-40.9" y1="-286" x2="-141" y2="-185.9"/>
	<line class="st6" x1="-40.9" y1="-185.9" x2="-141" y2="-285.9"/>
	<line class="st6" x1="-141" y1="-235.9" x2="-40.9" y2="-235.9"/>
	<line class="st6" x1="-90.9" y1="-286.1" x2="-90.9" y2="-185.9"/>
	<rect x="6.7" y="-275.9" class="st6" width="80" height="80"/>
	<polygon class="st6" points="-3.4,-235.9 46.7,-285.9 96.7,-235.9 46.7,-185.9 	"/>
	<line class="st6" x1="96.7" y1="-286" x2="-3.4" y2="-185.9"/>
	<line class="st6" x1="96.7" y1="-185.9" x2="-3.4" y2="-285.9"/>
	<line class="st6" x1="-3.4" y1="-235.9" x2="96.7" y2="-235.9"/>
	<line class="st6" x1="46.7" y1="-286.1" x2="46.7" y2="-185.9"/>
	<rect x="152.1" y="-275.9" class="st6" width="80" height="80"/>
	<polygon class="st6" points="142.1,-235.9 192.2,-285.9 242.2,-235.9 192.1,-185.9 	"/>
	<line class="st6" x1="242.2" y1="-286" x2="142.1" y2="-185.9"/>
	<line class="st6" x1="242.2" y1="-185.9" x2="142.1" y2="-285.9"/>
	<line class="st6" x1="142.1" y1="-235.9" x2="242.2" y2="-235.9"/>
	<line class="st6" x1="192.1" y1="-286.1" x2="192.1" y2="-185.9"/>
	<rect x="152.1" y="-127.8" class="st6" width="80" height="80"/>
	<polygon class="st6" points="142.1,-87.8 192.2,-137.8 242.2,-87.8 192.1,-37.8 	"/>
	<line class="st6" x1="242.2" y1="-137.9" x2="142.1" y2="-37.8"/>
	<line class="st6" x1="242.2" y1="-37.8" x2="142.1" y2="-137.8"/>
	<line class="st6" x1="142.1" y1="-87.8" x2="242.2" y2="-87.8"/>
	<line class="st6" x1="192.1" y1="-138" x2="192.1" y2="-37.8"/>
	<rect x="6.7" y="-127.8" class="st6" width="80" height="80"/>
	<polygon class="st6" points="-3.4,-87.8 46.7,-137.8 96.7,-87.8 46.7,-37.8 	"/>
	<line class="st6" x1="96.7" y1="-137.9" x2="-3.4" y2="-37.8"/>
	<line class="st6" x1="96.7" y1="-37.8" x2="-3.4" y2="-137.8"/>
	<line class="st6" x1="-3.4" y1="-87.8" x2="96.7" y2="-87.8"/>
	<line class="st6" x1="46.7" y1="-138" x2="46.7" y2="-37.8"/>
	<rect x="-125.7" y="-127.8" class="st6" width="80" height="80"/>
	<polygon class="st6" points="-135.8,-87.8 -85.7,-137.8 -35.7,-87.8 -85.8,-37.8 	"/>
	<line class="st6" x1="-35.7" y1="-137.9" x2="-135.8" y2="-37.8"/>
	<line class="st6" x1="-35.7" y1="-37.8" x2="-135.8" y2="-137.8"/>
	<line class="st6" x1="-135.8" y1="-87.8" x2="-35.7" y2="-87.8"/>
	<line class="st6" x1="-85.7" y1="-138" x2="-85.7" y2="-37.8"/>
	<rect x="-125.7" y="10" class="st6" width="80" height="80"/>
	<polygon class="st6" points="-135.8,50.1 -85.7,0 -35.7,50 -85.8,100 	"/>
	<line class="st6" x1="-35.7" y1="0" x2="-135.8" y2="100.1"/>
	<line class="st6" x1="-35.7" y1="100.1" x2="-135.8" y2="0"/>
	<line class="st6" x1="-135.8" y1="50" x2="-35.7" y2="50"/>
	<line class="st6" x1="-85.7" y1="-0.1" x2="-85.7" y2="100.1"/>
	<rect x="10" y="10" class="st6" width="80" height="80"/>
	<polygon class="st6" points="0,50.1 50,0 100,50 50,100 	"/>
	<line class="st6" x1="100.1" y1="0" x2="0" y2="100.1"/>
	<line class="st6" x1="100.1" y1="100.1" x2="-0.1" y2="0"/>
	<line class="st6" x1="-0.1" y1="50" x2="100" y2="50"/>
	<line class="st6" x1="50" y1="-0.1" x2="50" y2="100.1"/>
	<rect x="156.9" y="10" class="st6" width="80" height="80"/>
	<polygon class="st6" points="146.9,50.1 197,0 247,50 196.9,100 	"/>
	<line class="st6" x1="247" y1="0" x2="146.9" y2="100.1"/>
	<line class="st6" x1="247" y1="100.1" x2="146.9" y2="0"/>
	<line class="st6" x1="146.9" y1="50" x2="247" y2="50"/>
	<line class="st6" x1="196.9" y1="-0.1" x2="196.9" y2="100.1"/>
</g>
<g id="Layer_6">
	<g>
		<path class="st7" d="M-91.6-77.4l21.8,5.4l3.1-12.8l-21.8-5.4L-91.6-77.4z M-69.3-74.1l20.2,5l2.1-8.5l-20.2-5L-69.3-74.1z"/>
		<rect x="-76" y="-69.9" class="st4" width="12" height="2.3"/>
		<polygon class="st4" points="-41.8,-73.3 -42.5,-70.5 -48.4,-72 -47.8,-74.8 		"/>
		<polygon class="st4" points="-91.7,-92.7 -88,-91.8 -92,-75.6 -95.6,-76.5 		"/>
		<g>
			<path class="st7" d="M-70-62l-17,17.1 M-70-62l17,17.1 M-70-67.4v22.6"/>
		</g>
	</g>
	<g>
		<polygon class="st4" points="-102.7,-95.2 -104.1,-93.8 -105.4,-95.2 -107.4,-95.2 -107.4,-97 -108.8,-98.4 -107.4,-99.8 
			-107.4,-101.7 -105.4,-101.7 -104.1,-103 -102.7,-101.7 -100.7,-101.7 -100.7,-99.8 -99.3,-98.4 -100.7,-97 -100.7,-95.2 		"/>
		<polygon class="st7" points="-119.2,-104.2 -120.5,-102.9 -121.8,-104.2 -123.7,-104.2 -123.7,-105.9 -125,-107.2 -123.7,-108.5 
			-123.7,-110.3 -121.8,-110.3 -120.5,-111.6 -119.2,-110.3 -117.3,-110.3 -117.3,-108.5 -116,-107.2 -117.3,-105.9 -117.3,-104.2 
					"/>
		<polygon class="st7" points="-102.7,-119.5 -104.1,-118.2 -105.4,-119.5 -107.2,-119.5 -107.2,-121.2 -108.5,-122.5 
			-107.2,-123.8 -107.2,-125.6 -105.4,-125.6 -104.1,-126.9 -102.7,-125.6 -100.9,-125.6 -100.9,-123.8 -99.5,-122.5 -100.9,-121.2 
			-100.9,-119.5 		"/>
		<polygon class="st4" points="-123.6,-123.9 -125,-122.5 -126.3,-123.9 -128.3,-123.9 -128.3,-125.7 -129.7,-127.1 -128.3,-128.5 
			-128.3,-130.4 -126.3,-130.4 -125,-131.7 -123.6,-130.4 -121.6,-130.4 -121.6,-128.5 -120.2,-127.1 -121.6,-125.7 -121.6,-123.9 
					"/>
	</g>
	<g>
		<path class="st7" d="M68.5-265.8l8-8 M75.3-236.9h11.4 M18.3-273.7l8,8 M46.8-268.1v-11.3 M6.3-236.9h11.4 M36.4-197.8h20.7
			 M36.4-200.5h20.7 M36.4-203.1h20.7"/>
		<polygon class="st4" points="67,-236.5 56.8,-259 36.5,-259 26.3,-236.5 36.5,-213.9 36.5,-213.9 36.5,-205.7 57.1,-205.7 
			57.1,-214.6 		"/>
		<g>
			<polygon class="st8" points="43.3,-234.1 40.3,-231.2 43.3,-228.4 46.3,-231.2 49.3,-228.4 52.3,-231.2 49.3,-234.1 46.3,-236.9 
							"/>
		</g>
		<polyline class="st9" points="46.8,-206.6 46.8,-211.7 50.3,-215.2 46.9,-218.6 50.6,-222.3 46.5,-226.4 46.5,-232.4 		"/>
	</g>
	<g>
		<g>
			<polyline class="st7" points="185.4,-234.9 197.7,-222.6 197.7,-205.2 185.4,-192.9 168,-192.9 155.7,-205.2 155.7,-222.6 
				168,-234.9 			"/>
			<line class="st7" x1="176.7" y1="-242.9" x2="176.7" y2="-237.1"/>
			<rect x="172.3" y="-247.1" class="st4" width="8.7" height="5.4"/>
			<g>
				<polyline class="st4" points="178.3,-216.9 180.5,-214.7 180.5,-211.6 178.3,-209.4 175.1,-209.4 172.9,-211.6 172.9,-214.7 
					175.1,-216.9 				"/>
				<line class="st7" x1="176.7" y1="-212.4" x2="188.5" y2="-224.2"/>
			</g>
			
				<rect x="188.4" y="-231.5" transform="matrix(0.7071 0.7071 -0.7071 0.7071 -105.5913 -204.2518)" class="st4" width="10.8" height="3.9"/>
			
				<rect x="154.7" y="-232.4" transform="matrix(-0.7071 0.7071 -0.7071 -0.7071 110.3344 -506.5247)" class="st4" width="10.8" height="3.9"/>
		</g>
		<path class="st7" d="M228.4-268.5l-5.5,5.5l-7.3,7.3l-8.1,2l-25.5-5v-4.4h14.8l-5.4-5.4l-14.8,2.9l-4.9,4.9l-6.1,0.1
			c-0.4-1.3-0.5-1.6-0.8-3l7.8-7.8l19.1-4.6l16.6,4.3l5-0.9l5.5-5.5"/>
	</g>
	<g>
		<g>
			<rect x="21.5" y="-87.7" class="st7" width="50.9" height="31.1"/>
			<rect x="14.7" y="-87.7" class="st4" width="6.5" height="4.9"/>
			<rect x="72.4" y="-87.7" class="st4" width="6.5" height="4.9"/>
			<polyline class="st4" points="73.1,-87.7 73.1,-93.8 61.7,-100.4 46.9,-100.4 32.2,-100.4 20.7,-93.8 20.7,-87.7 			"/>
			<polygon class="st4" points="50.1,-104.7 49.1,-100.4 44.8,-100.4 43.8,-104.7 			"/>
		</g>
		<g>
			<polyline class="st7" points="12,-49.5 18.9,-45.5 25.9,-49.5 32.8,-45.5 39.8,-49.5 46.7,-45.5 53.7,-49.5 60.7,-45.5 
				67.6,-49.5 74.6,-45.5 81.5,-49.5 			"/>
		</g>
		<polyline class="st7" points="48.9,-123.8 44.2,-119.2 48.8,-114.6 48.8,-108 		"/>
		<polyline class="st7" points="41.3,-127.6 36.6,-122.9 41.2,-118.4 41.2,-111.7 		"/>
	</g>
	<g>
		<polygon class="st7" points="170.3,-71.1 170.3,-71.1 161.7,-71.1 156.9,-60.2 158.4,-59.6 162.5,-69.1 162.7,-69.1 162.7,-58.8 
			162.7,-58.5 162.7,-48.5 165.4,-48.5 165.4,-58.5 166.7,-58.5 166.7,-48.5 169.4,-48.5 169.4,-58.5 169.4,-58.8 169.4,-69.1 
			169.4,-69.1 173.6,-59.6 175.1,-60.2 170.3,-71.1 		"/>
		<polygon class="st7" points="187.4,-71.1 187.4,-71.1 178.3,-71.1 178.3,-71.1 178.3,-71.1 173.5,-60.2 174.9,-59.6 179.1,-69.1 
			179.7,-69.1 177.3,-58.5 179.6,-58.5 179.6,-48.5 182.3,-48.5 182.3,-58.5 182.8,-58.5 183,-58.5 183.4,-58.5 183.4,-48.5 
			186.1,-48.5 186.1,-58.5 188.4,-58.5 186.1,-69.1 186.6,-69.1 190.8,-59.6 192.2,-60.2 187.4,-71.1 		"/>
		<polygon class="st7" points="164.9,-77.3 163.2,-75.7 163.2,-73.4 164.8,-71.8 167.1,-71.7 168.7,-73.3 168.8,-75.6 167.2,-77.3 
					"/>
		<polygon class="st7" points="204,-71.1 204,-71.1 195.5,-71.1 190.7,-60.2 192.1,-59.6 196.3,-69.1 196.4,-69.1 196.4,-58.8 
			196.4,-58.5 196.4,-48.5 199.1,-48.5 199.1,-58.5 200.5,-58.5 200.5,-48.5 203.2,-48.5 203.2,-58.5 203.2,-58.8 203.2,-69.1 
			203.2,-69.1 207.4,-59.6 208.8,-60.2 204,-71.1 		"/>
		<polygon class="st7" points="198.6,-77.3 197,-75.7 197,-73.4 198.6,-71.8 200.9,-71.7 202.5,-73.3 202.5,-75.6 200.9,-77.3 		"/>
		<polygon class="st7" points="181.8,-77.3 180.2,-75.7 180.2,-73.4 181.8,-71.8 184,-71.7 185.7,-73.3 185.7,-75.6 184.1,-77.3 		
			"/>
		<polygon class="st7" points="221.4,-71.1 221.4,-71.1 212.3,-71.1 212.3,-71.1 212.3,-71.1 207.5,-60.2 208.9,-59.6 213.1,-69.1 
			213.7,-69.1 211.4,-58.5 213.6,-58.5 213.6,-48.5 216.3,-48.5 216.3,-58.5 216.8,-58.5 217,-58.5 217.4,-58.5 217.4,-48.5 
			220.1,-48.5 220.1,-58.5 222.4,-58.5 220.1,-69.1 220.6,-69.1 224.8,-59.6 226.2,-60.2 221.4,-71.1 		"/>
		<polygon class="st7" points="215.8,-77.3 214.2,-75.7 214.2,-73.4 215.8,-71.8 218.1,-71.7 219.7,-73.3 219.7,-75.6 218.1,-77.3 
					"/>
	</g>
	<g>
		<g>
			<polygon class="st7" points="221.9,-121.9 215.6,-128.1 211.2,-128.1 198.5,-104.9 199.9,-103.4 201.2,-102.1 203.2,-100.2 
				226.4,-112.9 226.4,-117.3 222.9,-120.8 			"/>
			<polygon class="st4" points="206.9,-116.6 201.9,-107.3 203,-106.1 204.1,-105.1 205.6,-103.6 224.3,-113.7 224.3,-117.3 			"/>
			
				<rect x="193.3" y="-101.9" transform="matrix(-0.7071 -0.7071 0.7071 -0.7071 409.6879 -30.6725)" class="st4" width="10.4" height="3.4"/>
		</g>
		<polygon class="st7" points="198.3,-97.2 198.9,-97.8 199.7,-97.8 200.2,-97.2 200.2,-96.4 199.7,-95.9 198.9,-95.9 198.3,-96.4 
					"/>
		<polygon class="st7" points="194.7,-94.2 195.3,-94.8 196.1,-94.8 196.6,-94.2 196.6,-93.4 196.1,-92.9 195.3,-92.9 194.7,-93.4 
					"/>
		<polygon class="st7" points="190,-89.7 190.6,-90.3 191.4,-90.3 192,-89.7 192,-88.9 191.4,-88.3 190.6,-88.3 190,-88.9 		"/>
		<polygon class="st7" points="195.7,-88.7 196.2,-89.3 197,-89.3 197.6,-88.7 197.6,-87.9 197,-87.4 196.2,-87.4 195.7,-87.9 		"/>
		<polygon class="st7" points="186.9,-87.8 187.5,-88.3 188.3,-88.3 188.8,-87.8 188.8,-87 188.3,-86.4 187.5,-86.4 186.9,-87 		"/>
		<polygon class="st7" points="193.8,-98.2 194.3,-98.7 195.1,-98.7 195.7,-98.2 195.7,-97.4 195.1,-96.8 194.3,-96.8 193.8,-97.4 
					"/>
		<polygon class="st7" points="189.7,-94.8 190.2,-95.3 191,-95.3 191.6,-94.8 191.6,-94 191,-93.4 190.2,-93.4 189.7,-94 		"/>
	</g>
	<g>
		<polyline class="st7" points="86.9,65 86.9,54.9 70.7,38.7 50.7,36.3 30.6,38.7 14.4,54.9 14.4,65 		"/>
		<polygon class="st4" points="53.8,26.6 52.8,30.9 48.5,30.9 47.5,26.6 		"/>
		<rect x="6.1" y="65" class="st4" width="88.3" height="5.2"/>
		<line class="st7" x1="50.7" y1="36.3" x2="50.7" y2="28.8"/>
	</g>
	<g>
		<path class="st7" d="M200.3,85.3l25.8-28.9V37.7c0,0-9.9-9.9-13.6-13.6l-15.1,13.6l-15.1-13.6l-13.6,13.6v18.7l25.8,28.9H200.3z"
			/>
	</g>
	<g>
		<g>
			<g>
				<path class="st4" d="M-130.7-208.4h12.6c0.1,0,0.1,0,0.2,0.1l9.2,9.2c0.1,0.1,0.4,0,0.4-0.2v-8.9c0-0.1,0.1-0.2,0.2-0.2h5
					c0.1,0,0.2-0.1,0.2-0.2v-27c0-0.1-0.1-0.2-0.2-0.2h-27.6c-0.1,0-0.2,0.1-0.2,0.2v27C-130.9-208.5-130.8-208.4-130.7-208.4z"/>
			</g>
			<g>
				<g>
					<path class="st8" d="M-117.6-218.4c-0.1,0-0.2-0.1-0.1-0.3c0.3-1.3,0.5-2.1,1.6-3.1c1.2-1,2.1-1.3,2.1-3.4
						c0-1.7-0.4-2.3-2.5-2.3c-0.9,0-1.9,0.2-2.9,0.5c-0.1,0-0.3,0-0.3-0.2l-0.1-1.1c0-0.1,0.1-0.2,0.2-0.2c1-0.2,2.1-0.5,3.2-0.5
						c3.1,0,4.2,1.1,4.2,3.8c0,3.1-1.4,3.4-2.8,4.8c-0.6,0.6-0.9,1.2-1.2,2.3c0,0.1-0.2,0.2-0.3,0.2L-117.6-218.4z M-116.4-215.9
						c0.5,0.1,0.5,0.4,0.5,1.1c0,0.8-0.7,1.4-1.4,1.2c-0.5-0.1-0.5-0.4-0.5-1.1C-117.9-215.4-117.2-216-116.4-215.9z"/>
				</g>
			</g>
		</g>
		<g>
			<polyline class="st7" points="-81.2,-267.8 -51,-251.6 -54.9,-241.3 -58.8,-230.9 -81.5,-236.4 -92.2,-238.9 			"/>
			<polyline class="st10" points="-76.4,-265.3 -75,-268.7 -68.9,-269.3 -62.5,-266.8 -60.4,-262 -62.3,-257 			"/>
			<polygon class="st7" points="-67,-259.9 -87.8,-237.9 -58.8,-230.9 -51,-251.6 			"/>
			<line class="st7" x1="-82.3" y1="-236.6" x2="-80.7" y2="-240.8"/>
			<line class="st7" x1="-76.5" y1="-234.6" x2="-74.9" y2="-238.8"/>
			<line class="st7" x1="-70.4" y1="-233.7" x2="-69.3" y2="-236.7"/>
			<line class="st7" x1="-64.8" y1="-232" x2="-63.8" y2="-234.6"/>
		</g>
		<g>
			<polygon class="st7" points="-107,-254.5 -104.9,-256.7 -101.9,-256.9 -99.7,-254.8 -99.6,-251.8 -101.6,-249.6 -104.6,-249.5 
				-106.8,-251.5 			"/>
			<polygon class="st7" points="-96.2,-249.6 -95.1,-250.7 -93.5,-250.8 -92.4,-249.7 -92.3,-248.2 -93.4,-247 -94.9,-247 
				-96.1,-248 			"/>
			<polygon class="st7" points="-108.4,-243.7 -107.3,-244.8 -105.7,-244.9 -104.6,-243.8 -104.5,-242.3 -105.6,-241.1 -107.1,-241 
				-108.3,-242.1 			"/>
		</g>
	</g>
	
		<rect x="-78.3" y="67.7" transform="matrix(0.9583 -0.2859 0.2859 0.9583 -22.213 -14.0553)" class="st4" width="38.1" height="2.6"/>
	<g>
		
			<rect x="-133.6" y="36.4" transform="matrix(-0.6144 -0.789 0.789 -0.6144 -209.4061 -25.3351)" class="st4" width="45.4" height="4.2"/>
		<polygon class="st11" points="-102.1,45.6 -95.5,47.3 -90.7,53.5 -90.6,60.3 -95.2,63.9 -101.8,62.1 -106.6,56 -106.7,49.1 		"/>
	</g>
	<polygon class="st7" points="-77.6,73.3 -77.6,79.7 -87.9,90 -103,90 -104.7,90 -118.1,90 -128.4,79.7 -128.4,73.3 	"/>
</g>
</svg>
