<?xml version="1.0" encoding="utf-8"?>
<!-- Generator: Adobe Illustrator 19.1.1, SVG Export Plug-In . SVG Version: 6.00 Build 0)  -->
<svg version="1.1" xmlns="http://www.w3.org/2000/svg" xmlns:xlink="http://www.w3.org/1999/xlink" x="0px" y="0px"
	 viewBox="0 0 100 100" style="enable-background:new 0 0 100 100;" xml:space="preserve">
<style type="text/css">
	.st0{display:none;}
	.st1{display:inline;fill:#2E3191;stroke:#822A85;stroke-width:3;stroke-linecap:round;stroke-miterlimit:10;}
	.st2{display:inline;fill:#BD2137;}
	.st3{display:inline;}
	.st4{fill:#FFFFFF;}
	.st5{clip-path:url(#SVGID_2_);fill:#FFFFFF;}
	.st6{display:inline;fill:none;stroke:#AC57A1;stroke-width:0.1;stroke-miterlimit:10;stroke-dasharray:1,0.3;}
	.st7{fill:none;stroke:#FFFFFF;stroke-miterlimit:10;}
	.st8{fill:#803193;}
	.st9{fill:none;stroke:#803193;stroke-miterlimit:10;}
	.st10{fill:none;stroke:#FFFFFF;stroke-width:6;stroke-miterlimit:10;}
	.st11{fill:#FFFFFF;stroke:#FFFFFF;stroke-miterlimit:10;}
</style>
<g id="Layer_3" class="st0">
	<rect x="-337.7" y="-358" class="st1" width="742.5" height="674"/>
</g>
<g id="Layer_2" class="st0">
	<rect x="-774" y="-227.2" class="st2" width="295" height="150"/>
	<g class="st3">
		<polygon class="st4" points="-600.5,-187.6 -618.2,-180.6 -618.2,-133.6 -600.5,-133.6 		"/>
		<polygon class="st4" points="-619.7,-133.6 -637.4,-133.6 -637.4,-173 -619.7,-180 		"/>
		<polygon class="st4" points="-656.6,-165.4 -656.6,-133.6 -638.9,-133.6 -638.9,-172.4 		"/>
		<g>
			<defs>
				<rect id="SVGID_1_" x="-656.6" y="-187.6" width="60.3" height="70.7"/>
			</defs>
			<clipPath id="SVGID_2_">
				<use xlink:href="#SVGID_1_"  style="overflow:visible;"/>
			</clipPath>
			<path class="st5" d="M-648.7-116.9h-2.9l-1.2-7.8l-0.6,7.8h-3.2l1.1-12.9h4.5l0.7,4.3c0.1,0.4,0.1,0.7,0.2,1.2
				c0,0.4,0.1,0.9,0.1,1.4c0.1-0.8,0.2-1.6,0.3-2.2l0.9-4.7h4.3l0.9,12.9h-3.1l-0.4-7.8L-648.7-116.9z"/>
			<path class="st5" d="M-633.3-116.9h-3.6l-0.3-1.6h-2.3l-0.3,1.6h-3.6l3.1-12.9h4.3L-633.3-116.9z M-637.5-121.3l-0.2-1.5
				c0,0,0-0.1,0-0.2c0-0.1-0.1-0.6-0.2-1.5c0-0.1,0-0.2,0-0.4c0-0.2,0-0.4-0.1-0.6l-0.1-1.2c0,0.1,0,0.2,0,0.4c0,0.1,0,0.3-0.1,0.5
				c0,0.3-0.1,0.6-0.1,0.7c0,0.1,0,0.2,0,0.2l-0.2,1.6l-0.4,2H-637.5z"/>
			<path class="st5" d="M-623.8-116.9h-3.8l-1.7-4.6c0-0.1,0-0.2-0.1-0.3c0-0.1-0.1-0.3-0.2-0.5l0,0.9v4.5h-3.5v-12.9h3.6
				c1.6,0,2.7,0.3,3.5,0.9c1,0.8,1.5,1.9,1.5,3.4c0,1.6-0.7,2.6-2,3.2L-623.8-116.9z M-629.5-124h0.2c0.4,0,0.7-0.2,1-0.5
				c0.3-0.3,0.4-0.7,0.4-1.2c0-1-0.5-1.4-1.5-1.4h-0.1V-124z"/>
			<polygon class="st5" points="-614.1,-116.9 -617.8,-116.9 -620.1,-122.8 -620,-116.9 -623.5,-116.9 -623.5,-129.8 -620,-129.8 
				-620.1,-124.3 -618.2,-129.8 -614.5,-129.8 -617.2,-123.6 			"/>
			<polygon class="st5" points="-613.7,-116.9 -613.7,-129.8 -607.4,-129.8 -607.4,-126.8 -610.4,-126.8 -610.4,-125 -607.8,-125 
				-607.8,-122 -610.4,-122 -610.4,-119.9 -607.4,-119.9 -607.4,-116.9 			"/>
			<polygon class="st5" points="-600.5,-116.9 -606.6,-116.9 -606.6,-129.8 -603.3,-129.8 -603.3,-119.9 -600.5,-119.9 			"/>
			<path class="st5" d="M-602.4-127.3c0,1.7,1.4,3,3,3c1.6,0,3-1.3,3-3c0-1.7-1.4-3-3-3C-601-130.3-602.4-129-602.4-127.3
				 M-601.8-127.3c0-1.4,1.1-2.5,2.4-2.5c1.4,0,2.4,1.1,2.4,2.5c0,1.4-1.1,2.5-2.4,2.5C-600.7-124.8-601.8-125.9-601.8-127.3
				 M-600-127.1h0.6l0.9,1.5h0.6l-1-1.5c0.5-0.1,0.9-0.3,0.9-1c0-0.7-0.4-1-1.2-1h-1.3v3.5h0.5V-127.1z M-600-127.5v-1.1h0.7
				c0.4,0,0.7,0.1,0.7,0.5c0,0.5-0.4,0.6-0.8,0.6H-600z"/>
		</g>
	</g>
	<rect x="-277.9" y="-275.9" class="st6" width="80" height="80"/>
	<polygon class="st6" points="-287.9,-235.9 -237.9,-285.9 -187.8,-235.9 -237.9,-185.9 	"/>
	<line class="st6" x1="-187.8" y1="-286" x2="-287.9" y2="-185.9"/>
	<line class="st6" x1="-187.8" y1="-185.9" x2="-287.9" y2="-285.9"/>
	<line class="st6" x1="-287.9" y1="-235.9" x2="-187.8" y2="-235.9"/>
	<line class="st6" x1="-237.9" y1="-286.1" x2="-237.9" y2="-185.9"/>
	<rect x="-140.2" y="-275.9" class="st6" width="80" height="80"/>
	<polygon class="st6" points="-150.3,-235.9 -100.2,-285.9 -50.2,-235.9 -100.3,-185.9 	"/>
	<line class="st6" x1="-50.2" y1="-286" x2="-150.3" y2="-185.9"/>
	<line class="st6" x1="-50.2" y1="-185.9" x2="-150.3" y2="-285.9"/>
	<line class="st6" x1="-150.3" y1="-235.9" x2="-50.2" y2="-235.9"/>
	<line class="st6" x1="-100.2" y1="-286.1" x2="-100.2" y2="-185.9"/>
	<rect x="5.2" y="-275.9" class="st6" width="80" height="80"/>
	<polygon class="st6" points="-4.8,-235.9 45.2,-285.9 95.3,-235.9 45.2,-185.9 	"/>
	<line class="st6" x1="95.3" y1="-286" x2="-4.8" y2="-185.9"/>
	<line class="st6" x1="95.3" y1="-185.9" x2="-4.9" y2="-285.9"/>
	<line class="st6" x1="-4.9" y1="-235.9" x2="95.3" y2="-235.9"/>
	<line class="st6" x1="45.2" y1="-286.1" x2="45.2" y2="-185.9"/>
	<rect x="5.2" y="-127.8" class="st6" width="80" height="80"/>
	<polygon class="st6" points="-4.8,-87.8 45.2,-137.8 95.3,-87.8 45.2,-37.8 	"/>
	<line class="st6" x1="95.3" y1="-137.9" x2="-4.8" y2="-37.8"/>
	<line class="st6" x1="95.3" y1="-37.8" x2="-4.9" y2="-137.8"/>
	<line class="st6" x1="-4.9" y1="-87.8" x2="95.3" y2="-87.8"/>
	<line class="st6" x1="45.2" y1="-138" x2="45.2" y2="-37.8"/>
	<rect x="-140.2" y="-127.8" class="st6" width="80" height="80"/>
	<polygon class="st6" points="-150.3,-87.8 -100.2,-137.8 -50.2,-87.8 -100.3,-37.8 	"/>
	<line class="st6" x1="-50.2" y1="-137.9" x2="-150.3" y2="-37.8"/>
	<line class="st6" x1="-50.2" y1="-37.8" x2="-150.3" y2="-137.8"/>
	<line class="st6" x1="-150.3" y1="-87.8" x2="-50.2" y2="-87.8"/>
	<line class="st6" x1="-100.2" y1="-138" x2="-100.2" y2="-37.8"/>
	<rect x="-272.7" y="-127.8" class="st6" width="80" height="80"/>
	<polygon class="st6" points="-282.7,-87.8 -232.7,-137.8 -182.6,-87.8 -232.7,-37.8 	"/>
	<line class="st6" x1="-182.6" y1="-137.9" x2="-282.7" y2="-37.8"/>
	<line class="st6" x1="-182.6" y1="-37.8" x2="-282.7" y2="-137.8"/>
	<line class="st6" x1="-282.7" y1="-87.8" x2="-182.6" y2="-87.8"/>
	<line class="st6" x1="-232.7" y1="-138" x2="-232.7" y2="-37.8"/>
	<rect x="-272.7" y="10" class="st6" width="80" height="80"/>
	<polygon class="st6" points="-282.7,50.1 -232.7,0 -182.6,50 -232.7,100 	"/>
	<line class="st6" x1="-182.6" y1="0" x2="-282.7" y2="100.1"/>
	<line class="st6" x1="-182.6" y1="100.1" x2="-282.7" y2="0"/>
	<line class="st6" x1="-282.7" y1="50" x2="-182.6" y2="50"/>
	<line class="st6" x1="-232.7" y1="-0.1" x2="-232.7" y2="100.1"/>
	<rect x="-136.9" y="10" class="st6" width="80" height="80"/>
	<polygon class="st6" points="-147,50.1 -96.9,0 -46.9,50 -97,100 	"/>
	<line class="st6" x1="-46.9" y1="0" x2="-147" y2="100.1"/>
	<line class="st6" x1="-46.9" y1="100.1" x2="-147" y2="0"/>
	<line class="st6" x1="-147" y1="50" x2="-46.9" y2="50"/>
	<line class="st6" x1="-96.9" y1="-0.1" x2="-96.9" y2="100.1"/>
	<rect x="10" y="10" class="st6" width="80" height="80"/>
	<polygon class="st6" points="0,50.1 50,0 100,50 50,100 	"/>
	<line class="st6" x1="100.1" y1="0" x2="0" y2="100.1"/>
	<line class="st6" x1="100.1" y1="100.1" x2="-0.1" y2="0"/>
	<line class="st6" x1="-0.1" y1="50" x2="100" y2="50"/>
	<line class="st6" x1="50" y1="-0.1" x2="50" y2="100.1"/>
</g>
<g id="Layer_6">
	<g>
		<path class="st7" d="M-238.5-77.4l21.8,5.4l3.1-12.8l-21.8-5.4L-238.5-77.4z M-216.2-74.1l20.2,5l2.1-8.5l-20.2-5L-216.2-74.1z"/>
		<rect x="-223" y="-69.9" class="st4" width="12" height="2.3"/>
		<polygon class="st4" points="-188.8,-73.3 -189.5,-70.5 -195.4,-72 -194.7,-74.8 		"/>
		<polygon class="st4" points="-238.6,-92.7 -235,-91.8 -238.9,-75.6 -242.6,-76.5 		"/>
		<g>
			<path class="st7" d="M-216.9-62l-17,17.1 M-216.9-62l17,17.1 M-216.9-67.4v22.6"/>
		</g>
	</g>
	<g>
		<polygon class="st4" points="-249.6,-95.2 -251,-93.8 -252.4,-95.2 -254.3,-95.2 -254.3,-97 -255.7,-98.4 -254.3,-99.8 
			-254.3,-101.7 -252.4,-101.7 -251,-103 -249.6,-101.7 -247.6,-101.7 -247.6,-99.8 -246.3,-98.4 -247.6,-97 -247.6,-95.2 		"/>
		<polygon class="st7" points="-266.1,-104.2 -267.4,-102.9 -268.7,-104.2 -270.6,-104.2 -270.6,-105.9 -271.9,-107.2 
			-270.6,-108.5 -270.6,-110.3 -268.7,-110.3 -267.4,-111.6 -266.1,-110.3 -264.2,-110.3 -264.2,-108.5 -262.9,-107.2 
			-264.2,-105.9 -264.2,-104.2 		"/>
		<polygon class="st7" points="-249.7,-119.5 -251,-118.2 -252.3,-119.5 -254.2,-119.5 -254.2,-121.2 -255.5,-122.5 -254.2,-123.8 
			-254.2,-125.6 -252.3,-125.6 -251,-126.9 -249.7,-125.6 -247.8,-125.6 -247.8,-123.8 -246.5,-122.5 -247.8,-121.2 -247.8,-119.5 
					"/>
		<polygon class="st4" points="-270.5,-123.9 -271.9,-122.5 -273.3,-123.9 -275.3,-123.9 -275.3,-125.7 -276.6,-127.1 
			-275.3,-128.5 -275.3,-130.4 -273.3,-130.4 -271.9,-131.7 -270.5,-130.4 -268.6,-130.4 -268.6,-128.5 -267.2,-127.1 
			-268.6,-125.7 -268.6,-123.9 		"/>
	</g>
	<g>
		<path class="st7" d="M-78.5-265.8l8-8 M-71.6-236.9h11.4 M-128.7-273.7l8,8 M-100.2-268.1v-11.3 M-140.7-236.9h11.4 M-110.6-197.8
			h20.7 M-110.6-200.5h20.7 M-110.6-203.1h20.7"/>
		<polygon class="st4" points="-79.9,-236.5 -90.1,-259 -110.5,-259 -120.6,-236.5 -110.5,-213.9 -110.4,-213.9 -110.4,-205.7 
			-89.8,-205.7 -89.8,-214.6 		"/>
		<g>
			<polygon class="st8" points="-103.6,-234.1 -106.6,-231.2 -103.6,-228.4 -100.6,-231.2 -97.6,-228.4 -94.6,-231.2 -97.6,-234.1 
				-100.6,-236.9 			"/>
		</g>
		<polyline class="st9" points="-100.2,-206.6 -100.2,-211.7 -96.6,-215.2 -100.1,-218.6 -96.3,-222.3 -100.5,-226.4 -100.5,-232.4 
					"/>
	</g>
	<g>
		<g>
			<polyline class="st7" points="38.4,-234.9 50.7,-222.6 50.7,-205.2 38.4,-192.9 21.1,-192.9 8.8,-205.2 8.8,-222.6 21.1,-234.9 
							"/>
			<line class="st7" x1="29.8" y1="-242.9" x2="29.8" y2="-237.1"/>
			<rect x="25.4" y="-247.1" class="st4" width="8.7" height="5.4"/>
			<g>
				<polyline class="st4" points="31.3,-216.9 33.5,-214.7 33.5,-211.6 31.3,-209.4 28.2,-209.4 26,-211.6 26,-214.7 28.2,-216.9 
									"/>
				<line class="st7" x1="29.8" y1="-212.4" x2="41.5" y2="-224.2"/>
			</g>
			
				<rect x="41.4" y="-231.5" transform="matrix(0.7071 0.7071 -0.7071 0.7071 -148.6262 -100.3529)" class="st4" width="10.8" height="3.9"/>
			
				<rect x="7.7" y="-232.4" transform="matrix(-0.7071 0.7071 -0.7071 -0.7071 -140.5087 -402.6263)" class="st4" width="10.8" height="3.9"/>
		</g>
		<path class="st7" d="M81.5-268.5l-5.5,5.5l-7.3,7.3l-8.1,2l-25.5-5v-4.4h14.8l-5.4-5.4l-14.8,2.9l-4.9,4.9l-6.1,0.1
			c-0.4-1.3-0.5-1.6-0.8-3l7.8-7.8l19.1-4.6l16.6,4.3l5-0.9l5.5-5.5"/>
	</g>
	<g>
		<g>
			<rect x="-125.5" y="-87.7" class="st7" width="50.9" height="31.1"/>
			<rect x="-132.2" y="-87.7" class="st4" width="6.5" height="4.9"/>
			<rect x="-74.6" y="-87.7" class="st4" width="6.5" height="4.9"/>
			<polyline class="st4" points="-73.8,-87.7 -73.8,-93.8 -85.2,-100.4 -100,-100.4 -114.8,-100.4 -126.2,-93.8 -126.2,-87.7 			"/>
			<polygon class="st4" points="-96.9,-104.7 -97.8,-100.4 -102.2,-100.4 -103.1,-104.7 			"/>
		</g>
		<g>
			<polyline class="st7" points="-135,-49.5 -128,-45.5 -121.1,-49.5 -114.1,-45.5 -107.1,-49.5 -100.2,-45.5 -93.2,-49.5 
				-86.3,-45.5 -79.3,-49.5 -72.4,-45.5 -65.4,-49.5 			"/>
		</g>
		<polyline class="st7" points="-98,-123.8 -102.7,-119.2 -98.1,-114.6 -98.1,-108 		"/>
		<polyline class="st7" points="-105.7,-127.6 -110.3,-122.9 -105.8,-118.4 -105.8,-111.7 		"/>
	</g>
	<g>
		<polygon class="st7" points="23.3,-71.1 23.3,-71.1 14.8,-71.1 10,-60.2 11.4,-59.6 15.6,-69.1 15.7,-69.1 15.7,-58.8 15.7,-58.5 
			15.7,-48.5 18.4,-48.5 18.4,-58.5 19.8,-58.5 19.8,-48.5 22.5,-48.5 22.5,-58.5 22.5,-58.8 22.5,-69.1 22.5,-69.1 26.7,-59.6 
			28.1,-60.2 23.3,-71.1 		"/>
		<polygon class="st7" points="40.5,-71.1 40.5,-71.1 31.4,-71.1 31.4,-71.1 31.3,-71.1 26.5,-60.2 28,-59.6 32.2,-69.1 32.7,-69.1 
			30.4,-58.5 32.7,-58.5 32.7,-48.5 35.4,-48.5 35.4,-58.5 35.8,-58.5 36,-58.5 36.5,-58.5 36.5,-48.5 39.2,-48.5 39.2,-58.5 
			41.4,-58.5 39.1,-69.1 39.7,-69.1 43.8,-59.6 45.3,-60.2 40.5,-71.1 		"/>
		<polygon class="st7" points="17.9,-77.3 16.3,-75.7 16.3,-73.4 17.9,-71.8 20.2,-71.7 21.8,-73.3 21.8,-75.6 20.2,-77.3 		"/>
		<polygon class="st7" points="57.1,-71.1 57.1,-71.1 48.5,-71.1 43.7,-60.2 45.2,-59.6 49.4,-69.1 49.5,-69.1 49.5,-58.8 
			49.5,-58.5 49.5,-48.5 52.2,-48.5 52.2,-58.5 53.6,-58.5 53.6,-48.5 56.2,-48.5 56.2,-58.5 56.2,-58.8 56.2,-69.1 56.3,-69.1 
			60.4,-59.6 61.9,-60.2 57.1,-71.1 		"/>
		<polygon class="st7" points="51.7,-77.3 50.1,-75.7 50,-73.4 51.6,-71.8 53.9,-71.7 55.6,-73.3 55.6,-75.6 54,-77.3 		"/>
		<polygon class="st7" points="34.9,-77.3 33.3,-75.7 33.2,-73.4 34.8,-71.8 37.1,-71.7 38.7,-73.3 38.8,-75.6 37.2,-77.3 		"/>
		<polygon class="st7" points="74.5,-71.1 74.5,-71.1 65.4,-71.1 65.4,-71.1 65.3,-71.1 60.5,-60.2 62,-59.6 66.2,-69.1 66.7,-69.1 
			64.4,-58.5 66.7,-58.5 66.7,-48.5 69.4,-48.5 69.4,-58.5 69.8,-58.5 70,-58.5 70.5,-58.5 70.5,-48.5 73.2,-48.5 73.2,-58.5 
			75.4,-58.5 73.1,-69.1 73.7,-69.1 77.8,-59.6 79.3,-60.2 74.5,-71.1 		"/>
		<polygon class="st7" points="68.9,-77.3 67.3,-75.7 67.2,-73.4 68.8,-71.8 71.1,-71.7 72.8,-73.3 72.8,-75.6 71.2,-77.3 		"/>
	</g>
	<g>
		<g>
			<polygon class="st7" points="75,-121.9 68.7,-128.1 64.2,-128.1 51.5,-104.9 53,-103.4 54.3,-102.1 56.2,-100.2 79.5,-112.9 
				79.5,-117.3 76,-120.8 			"/>
			<polygon class="st4" points="60,-116.6 54.9,-107.3 56.1,-106.1 57.1,-105.1 58.7,-103.6 77.3,-113.7 77.3,-117.3 			"/>
			
				<rect x="46.4" y="-101.9" transform="matrix(-0.7071 -0.7071 0.7071 -0.7071 158.8478 -134.5738)" class="st4" width="10.4" height="3.4"/>
		</g>
		<polygon class="st7" points="51.4,-97.2 51.9,-97.8 52.7,-97.8 53.3,-97.2 53.3,-96.4 52.7,-95.9 51.9,-95.9 51.4,-96.4 		"/>
		<polygon class="st7" points="47.8,-94.2 48.4,-94.8 49.1,-94.8 49.7,-94.2 49.7,-93.4 49.1,-92.9 48.4,-92.9 47.8,-93.4 		"/>
		<polygon class="st7" points="43.1,-89.7 43.7,-90.3 44.5,-90.3 45,-89.7 45,-88.9 44.5,-88.3 43.7,-88.3 43.1,-88.9 		"/>
		<polygon class="st7" points="48.7,-88.7 49.3,-89.3 50.1,-89.3 50.7,-88.7 50.7,-87.9 50.1,-87.4 49.3,-87.4 48.7,-87.9 		"/>
		<polygon class="st7" points="40,-87.8 40.5,-88.3 41.3,-88.3 41.9,-87.8 41.9,-87 41.3,-86.4 40.5,-86.4 40,-87 		"/>
		<polygon class="st7" points="46.8,-98.2 47.4,-98.7 48.2,-98.7 48.7,-98.2 48.7,-97.4 48.2,-96.8 47.4,-96.8 46.8,-97.4 		"/>
		<polygon class="st7" points="42.7,-94.8 43.3,-95.3 44.1,-95.3 44.6,-94.8 44.6,-94 44.1,-93.4 43.3,-93.4 42.7,-94 		"/>
	</g>
	<g>
		<polyline class="st7" points="-60,65 -60,54.9 -76.2,38.7 -96.3,36.3 -116.3,38.7 -132.5,54.9 -132.5,65 		"/>
		<polygon class="st4" points="-93.1,26.6 -94.1,30.9 -98.5,30.9 -99.4,26.6 		"/>
		<rect x="-140.8" y="65" class="st4" width="88.3" height="5.2"/>
		<line class="st7" x1="-96.3" y1="36.3" x2="-96.3" y2="28.8"/>
	</g>
	<g>
		<path class="st7" d="M53.4,85.3l25.8-28.9V37.7c0,0-9.9-9.9-13.6-13.6L50.5,37.7L35.5,24.1L21.8,37.7v18.7l25.8,28.9H53.4z"/>
	</g>
	<g>
		<g>
			<g>
				<path class="st4" d="M-277.6-208.4h12.6c0.1,0,0.1,0,0.2,0.1l9.2,9.2c0.1,0.1,0.4,0,0.4-0.2v-8.9c0-0.1,0.1-0.2,0.2-0.2h5
					c0.1,0,0.2-0.1,0.2-0.2v-27c0-0.1-0.1-0.2-0.2-0.2h-27.6c-0.1,0-0.2,0.1-0.2,0.2v27C-277.9-208.5-277.8-208.4-277.6-208.4z"/>
			</g>
			<g>
				<g>
					<path class="st8" d="M-264.5-218.4c-0.1,0-0.2-0.1-0.1-0.3c0.3-1.3,0.5-2.1,1.6-3.1c1.2-1,2.1-1.3,2.1-3.4
						c0-1.7-0.4-2.3-2.5-2.3c-0.9,0-1.9,0.2-2.9,0.5c-0.1,0-0.3,0-0.3-0.2l-0.1-1.1c0-0.1,0.1-0.2,0.2-0.2c1-0.2,2.1-0.5,3.2-0.5
						c3.1,0,4.2,1.1,4.2,3.8c0,3.1-1.4,3.4-2.8,4.8c-0.6,0.6-0.9,1.2-1.2,2.3c0,0.1-0.2,0.2-0.3,0.2L-264.5-218.4z M-263.4-215.9
						c0.5,0.1,0.5,0.4,0.5,1.1c0,0.8-0.7,1.4-1.4,1.2c-0.5-0.1-0.5-0.4-0.5-1.1C-264.8-215.4-264.1-216-263.4-215.9z"/>
				</g>
			</g>
		</g>
		<g>
			<polyline class="st7" points="-228.1,-267.8 -197.9,-251.6 -201.8,-241.3 -205.8,-230.9 -228.4,-236.4 -239.2,-238.9 			"/>
			<polyline class="st10" points="-223.3,-265.3 -222,-268.7 -215.8,-269.3 -209.5,-266.8 -207.3,-262 -209.3,-257 			"/>
			<polygon class="st7" points="-213.9,-259.9 -234.7,-237.9 -205.8,-230.9 -197.9,-251.6 			"/>
			<line class="st7" x1="-229.3" y1="-236.6" x2="-227.7" y2="-240.8"/>
			<line class="st7" x1="-223.4" y1="-234.6" x2="-221.8" y2="-238.8"/>
			<line class="st7" x1="-217.3" y1="-233.7" x2="-216.2" y2="-236.7"/>
			<line class="st7" x1="-211.8" y1="-232" x2="-210.8" y2="-234.6"/>
		</g>
		<g>
			<polygon class="st7" points="-253.9,-254.5 -251.9,-256.7 -248.9,-256.9 -246.6,-254.8 -246.5,-251.8 -248.5,-249.6 
				-251.5,-249.5 -253.8,-251.5 			"/>
			<polygon class="st7" points="-243.1,-249.6 -242,-250.7 -240.5,-250.8 -239.3,-249.7 -239.3,-248.2 -240.3,-247 -241.9,-247 
				-243,-248 			"/>
			<polygon class="st7" points="-255.3,-243.7 -254.3,-244.8 -252.7,-244.9 -251.5,-243.8 -251.5,-242.3 -252.5,-241.1 -254.1,-241 
				-255.2,-242.1 			"/>
		</g>
	</g>
	
		<rect x="-225.3" y="67.7" transform="matrix(0.9583 -0.2859 0.2859 0.9583 -28.3449 -56.0605)" class="st4" width="38.1" height="2.6"/>
	<g>
		
			<rect x="-280.5" y="36.4" transform="matrix(-0.6144 -0.789 0.789 -0.6144 -446.6186 -141.2733)" class="st4" width="45.4" height="4.2"/>
		<polygon class="st11" points="-249,45.6 -242.4,47.3 -237.6,53.5 -237.5,60.3 -242.2,63.9 -248.8,62.1 -253.5,56 -253.7,49.1 		
			"/>
	</g>
	<polygon class="st7" points="-224.6,73.3 -224.6,79.7 -234.8,90 -249.9,90 -251.7,90 -265.1,90 -275.3,79.7 -275.3,73.3 	"/>
</g>
</svg>
