<?xml version="1.0" encoding="utf-8"?>
<!-- Generator: Adobe Illustrator 19.1.1, SVG Export Plug-In . SVG Version: 6.00 Build 0)  -->
<svg version="1.1" xmlns="http://www.w3.org/2000/svg" xmlns:xlink="http://www.w3.org/1999/xlink" x="0px" y="0px"
	 viewBox="0 0 394.1 88.1" style="enable-background:new 0 0 394.1 88.1;" xml:space="preserve">
<style type="text/css">
	.st0{display:none;}
	.st1{display:inline;fill:none;stroke:#AC57A1;stroke-width:0.1;stroke-miterlimit:10;stroke-dasharray:1,0.3;}
	.st2{fill:none;stroke:#9C9B9B;stroke-miterlimit:10;}
	.st3{fill:#803193;}
	.st4{fill:#7AB800;}
	.st5{fill:#009AA6;}
	.st6{fill:none;stroke:#66C2CA;stroke-miterlimit:10;}
	.st7{fill:#66C2CA;}
	.st8{fill:none;stroke:#FFFFFF;stroke-width:2;stroke-miterlimit:10;}
	.st9{fill:#FFFFFF;}
	.st10{fill:none;stroke:#AFD466;stroke-miterlimit:10;}
	.st11{fill:#AFD466;}
	.st12{fill:none;stroke:#B383BE;stroke-miterlimit:10;}
	.st13{fill:#B383BE;}
	.st14{fill:#616365;}
	.st15{fill:none;stroke:#FFFFFF;stroke-width:4;}
	.st16{clip-path:url(#SVGID_2_);}
	.st17{fill:none;stroke:#803094;stroke-width:2;stroke-miterlimit:10;}
	.st18{fill:#803094;}
	.st19{fill:none;stroke:#803094;stroke-miterlimit:10;}
	.st20{fill:#66666A;}
	.st21{fill:#BC2036;}
	.st22{fill:#549800;}
</style>
<g id="Layer_2" class="st0">
</g>
<g id="Layer_1">
	<g>
		<polygon class="st9" points="3.4,65.4 37.9,86.2 72.3,65.6 37.9,48.2 		"/>
		<g>
			<polygon class="st9" points="72.3,65.6 37.9,48.2 3.4,65.5 37.9,86.2 			"/>
		</g>
		<polygon class="st9" points="40.4,44.5 72.4,60.5 72.4,22.1 40.4,2.9 		"/>
		<g>
			<polygon class="st9" points="72.4,22.1 40.4,2.9 40.4,44.5 72.4,60.5 			"/>
		</g>
		<polygon class="st9" points="3.3,22.5 35.3,3.5 35.3,44.7 3.3,60.5 		"/>
		<g>
			<polygon class="st9" points="3.3,22.5 35.3,3.5 35.3,44.7 3.3,60.5 			"/>
			<path class="st9" d="M116.4,28.3l-4.3-10.4l-4.5,10.4H116.4z M117,29.7h-10l-1.7,4c-0.4,1-0.6,1.7-0.6,2.2c0,0.4,0.2,0.7,0.6,1
				c0.4,0.3,1.2,0.5,2.4,0.6v0.7h-8.1v-0.7c1.1-0.2,1.8-0.4,2.1-0.7c0.6-0.6,1.4-1.8,2.1-3.7l9-21.1h0.7l8.9,21.4
				c0.7,1.7,1.4,2.8,2,3.3c0.6,0.5,1.4,0.8,2.5,0.9v0.7h-10.1v-0.7c1,0,1.7-0.2,2.1-0.5c0.4-0.3,0.5-0.6,0.5-1.1
				c0-0.6-0.3-1.4-0.8-2.6L117,29.7z"/>
			<path class="st9" d="M116.4,28.3l-4.3-10.4l-4.5,10.4H116.4z M117,29.7h-10l-1.7,4c-0.4,1-0.6,1.7-0.6,2.2c0,0.4,0.2,0.7,0.6,1
				c0.4,0.3,1.2,0.5,2.4,0.6v0.7h-8.1v-0.7c1.1-0.2,1.8-0.4,2.1-0.7c0.6-0.6,1.4-1.8,2.1-3.7l9-21.1h0.7l8.9,21.4
				c0.7,1.7,1.4,2.8,2,3.3c0.6,0.5,1.4,0.8,2.5,0.9v0.7h-10.1v-0.7c1,0,1.7-0.2,2.1-0.5c0.4-0.3,0.5-0.6,0.5-1.1
				c0-0.6-0.3-1.4-0.8-2.6L117,29.7z"/>
			<path class="st9" d="M137.9,36.4c1.5,0.3,2.9,0.5,4.4,0.5c2.3,0,4-0.5,5.3-1.5c1.2-1,1.8-2.3,1.8-3.8c0-1-0.3-2-0.8-2.9
				c-0.6-0.9-1.5-1.6-2.7-2.2c-1.2-0.5-2.7-0.8-4.5-0.8c-0.8,0-1.5,0-2,0c-0.6,0-1,0.1-1.3,0.1V36.4z M137.9,24.1
				c0.5,0.1,1,0.2,1.6,0.2c0.6,0,1.3,0.1,2,0.1c1.8,0,3.2-0.2,4.2-0.6c0.9-0.4,1.6-1,2.1-1.8c0.5-0.8,0.8-1.7,0.8-2.7
				c0-1.5-0.6-2.8-1.8-3.8c-1.2-1.1-3-1.6-5.4-1.6c-1.3,0-2.4,0.1-3.4,0.4V24.1z M147.8,25.1c1.8,0.4,3.1,1,4,1.8
				c1.2,1.2,1.8,2.6,1.8,4.3c0,1.3-0.4,2.5-1.2,3.7c-0.8,1.2-1.9,2-3.3,2.6c-1.4,0.5-3.5,0.8-6.4,0.8h-12.1v-0.7h1
				c1.1,0,1.8-0.3,2.3-1c0.3-0.4,0.4-1.4,0.4-2.8V17.1c0-1.6-0.2-2.6-0.5-3c-0.5-0.6-1.2-0.8-2.2-0.8h-1v-0.7h11.1
				c2.1,0,3.7,0.2,5,0.5c1.9,0.5,3.3,1.3,4.3,2.4c1,1.2,1.5,2.5,1.5,4c0,1.3-0.4,2.4-1.2,3.5C150.5,23.9,149.3,24.6,147.8,25.1"/>
			<path class="st9" d="M137.9,36.4c1.5,0.3,2.9,0.5,4.4,0.5c2.3,0,4-0.5,5.3-1.5c1.2-1,1.8-2.3,1.8-3.8c0-1-0.3-2-0.8-2.9
				c-0.6-0.9-1.5-1.6-2.7-2.2c-1.2-0.5-2.7-0.8-4.5-0.8c-0.8,0-1.5,0-2,0c-0.6,0-1,0.1-1.3,0.1V36.4z M137.9,24.1
				c0.5,0.1,1,0.2,1.6,0.2c0.6,0,1.3,0.1,2,0.1c1.8,0,3.2-0.2,4.2-0.6c0.9-0.4,1.6-1,2.1-1.8c0.5-0.8,0.8-1.7,0.8-2.7
				c0-1.5-0.6-2.8-1.8-3.8c-1.2-1.1-3-1.6-5.4-1.6c-1.3,0-2.4,0.1-3.4,0.4V24.1z M147.8,25.1c1.8,0.4,3.1,1,4,1.8
				c1.2,1.2,1.8,2.6,1.8,4.3c0,1.3-0.4,2.5-1.2,3.7c-0.8,1.2-1.9,2-3.3,2.6c-1.4,0.5-3.5,0.8-6.4,0.8h-12.1v-0.7h1
				c1.1,0,1.8-0.3,2.3-1c0.3-0.4,0.4-1.4,0.4-2.8V17.1c0-1.6-0.2-2.6-0.5-3c-0.5-0.6-1.2-0.8-2.2-0.8h-1v-0.7h11.1
				c2.1,0,3.7,0.2,5,0.5c1.9,0.5,3.3,1.3,4.3,2.4c1,1.2,1.5,2.5,1.5,4c0,1.3-0.4,2.4-1.2,3.5C150.5,23.9,149.3,24.6,147.8,25.1z"/>
			<path class="st9" d="M166.4,36.4c1.5,0.3,2.9,0.5,4.4,0.5c2.3,0,4-0.5,5.3-1.5c1.2-1,1.8-2.3,1.8-3.8c0-1-0.3-2-0.8-2.9
				c-0.6-0.9-1.5-1.6-2.7-2.2c-1.2-0.5-2.7-0.8-4.5-0.8c-0.8,0-1.5,0-2,0c-0.6,0-1,0.1-1.3,0.1V36.4z M166.4,24.1
				c0.5,0.1,1,0.2,1.6,0.2c0.6,0,1.3,0.1,2,0.1c1.8,0,3.2-0.2,4.2-0.6c0.9-0.4,1.6-1,2.1-1.8c0.5-0.8,0.8-1.7,0.8-2.7
				c0-1.5-0.6-2.8-1.8-3.8s-3-1.6-5.4-1.6c-1.3,0-2.4,0.1-3.4,0.4V24.1z M176.3,25.1c1.8,0.4,3.1,1,4,1.8c1.2,1.2,1.8,2.6,1.8,4.3
				c0,1.3-0.4,2.5-1.2,3.7c-0.8,1.2-1.9,2-3.3,2.6c-1.4,0.5-3.5,0.8-6.4,0.8h-12.1v-0.7h1c1.1,0,1.8-0.3,2.3-1
				c0.3-0.4,0.4-1.4,0.4-2.8V17.1c0-1.6-0.2-2.6-0.5-3c-0.5-0.6-1.2-0.8-2.2-0.8h-1v-0.7h11.1c2.1,0,3.7,0.2,5,0.5
				c1.9,0.5,3.3,1.3,4.3,2.4c1,1.2,1.5,2.5,1.5,4c0,1.3-0.4,2.4-1.2,3.5C179,23.9,177.9,24.6,176.3,25.1"/>
			<path class="st9" d="M166.4,36.4c1.5,0.3,2.9,0.5,4.4,0.5c2.3,0,4-0.5,5.3-1.5c1.2-1,1.8-2.3,1.8-3.8c0-1-0.3-2-0.8-2.9
				c-0.6-0.9-1.5-1.6-2.7-2.2c-1.2-0.5-2.7-0.8-4.5-0.8c-0.8,0-1.5,0-2,0c-0.6,0-1,0.1-1.3,0.1V36.4z M166.4,24.1
				c0.5,0.1,1,0.2,1.6,0.2c0.6,0,1.3,0.1,2,0.1c1.8,0,3.2-0.2,4.2-0.6c0.9-0.4,1.6-1,2.1-1.8c0.5-0.8,0.8-1.7,0.8-2.7
				c0-1.5-0.6-2.8-1.8-3.8s-3-1.6-5.4-1.6c-1.3,0-2.4,0.1-3.4,0.4V24.1z M176.3,25.1c1.8,0.4,3.1,1,4,1.8c1.2,1.2,1.8,2.6,1.8,4.3
				c0,1.3-0.4,2.5-1.2,3.7c-0.8,1.2-1.9,2-3.3,2.6c-1.4,0.5-3.5,0.8-6.4,0.8h-12.1v-0.7h1c1.1,0,1.8-0.3,2.3-1
				c0.3-0.4,0.4-1.4,0.4-2.8V17.1c0-1.6-0.2-2.6-0.5-3c-0.5-0.6-1.2-0.8-2.2-0.8h-1v-0.7h11.1c2.1,0,3.7,0.2,5,0.5
				c1.9,0.5,3.3,1.3,4.3,2.4c1,1.2,1.5,2.5,1.5,4c0,1.3-0.4,2.4-1.2,3.5C179,23.9,177.9,24.6,176.3,25.1z"/>
			<path class="st9" d="M195.1,14v10.2h5.6c1.5,0,2.5-0.2,2.9-0.7c0.7-0.6,1-1.6,1.1-3.1h0.7v8.9h-0.7c-0.2-1.2-0.4-2-0.5-2.4
				c-0.2-0.4-0.6-0.8-1.1-1s-1.3-0.4-2.4-0.4h-5.6V34c0,1.1,0,1.8,0.2,2.1c0.1,0.2,0.3,0.4,0.5,0.6c0.3,0.1,0.7,0.2,1.4,0.2h4.3
				c1.5,0,2.5-0.1,3.2-0.3c0.7-0.2,1.3-0.6,1.9-1.2c0.8-0.8,1.6-2,2.4-3.6h0.8l-2.2,6.4h-19.8v-0.7h0.9c0.6,0,1.2-0.1,1.7-0.4
				c0.4-0.2,0.7-0.5,0.8-0.9c0.1-0.4,0.2-1.2,0.2-2.5V17c0-1.6-0.2-2.6-0.5-3c-0.5-0.5-1.2-0.8-2.3-0.8h-0.9v-0.7h19.8l0.3,5.6h-0.7
				c-0.3-1.4-0.6-2.3-0.9-2.8c-0.3-0.5-0.8-0.9-1.4-1.2c-0.5-0.2-1.4-0.3-2.7-0.3H195.1z"/>
			<path class="st9" d="M195.1,14v10.2h5.6c1.5,0,2.5-0.2,2.9-0.7c0.7-0.6,1-1.6,1.1-3.1h0.7v8.9h-0.7c-0.2-1.2-0.4-2-0.5-2.4
				c-0.2-0.4-0.6-0.8-1.1-1s-1.3-0.4-2.4-0.4h-5.6V34c0,1.1,0,1.8,0.2,2.1c0.1,0.2,0.3,0.4,0.5,0.6c0.3,0.1,0.7,0.2,1.4,0.2h4.3
				c1.5,0,2.5-0.1,3.2-0.3c0.7-0.2,1.3-0.6,1.9-1.2c0.8-0.8,1.6-2,2.4-3.6h0.8l-2.2,6.4h-19.8v-0.7h0.9c0.6,0,1.2-0.1,1.7-0.4
				c0.4-0.2,0.7-0.5,0.8-0.9c0.1-0.4,0.2-1.2,0.2-2.5V17c0-1.6-0.2-2.6-0.5-3c-0.5-0.5-1.2-0.8-2.3-0.8h-0.9v-0.7h19.8l0.3,5.6h-0.7
				c-0.3-1.4-0.6-2.3-0.9-2.8c-0.3-0.5-0.8-0.9-1.4-1.2c-0.5-0.2-1.4-0.3-2.7-0.3H195.1z"/>
			<path class="st9" d="M231.9,12.6h9v0.7h-0.5c-0.3,0-0.8,0.1-1.4,0.4c-0.6,0.3-1.2,0.7-1.7,1.3c-0.5,0.5-1.2,1.4-1.9,2.7l-6.2,9.7
				v6.5c0,1.6,0.2,2.6,0.5,3c0.5,0.5,1.2,0.8,2.3,0.8h0.8v0.7h-11v-0.7h0.9c1.1,0,1.9-0.3,2.3-1c0.3-0.4,0.4-1.3,0.4-2.8v-6l-7-10.8
				c-0.8-1.3-1.4-2-1.7-2.4c-0.3-0.3-0.9-0.7-1.8-1.1c-0.3-0.1-0.6-0.2-1.1-0.2v-0.7h10.9v0.7h-0.6c-0.6,0-1.1,0.1-1.6,0.4
				c-0.5,0.3-0.7,0.7-0.7,1.3c0,0.5,0.4,1.3,1.2,2.5l5.3,8.3l5.1-7.9c0.8-1.2,1.1-2.1,1.1-2.7c0-0.4-0.1-0.7-0.3-1
				c-0.2-0.3-0.4-0.5-0.8-0.7c-0.3-0.2-0.9-0.2-1.5-0.2V12.6z"/>
			<path class="st9" d="M231.9,12.6h9v0.7h-0.5c-0.3,0-0.8,0.1-1.4,0.4c-0.6,0.3-1.2,0.7-1.7,1.3c-0.5,0.5-1.2,1.4-1.9,2.7l-6.2,9.7
				v6.5c0,1.6,0.2,2.6,0.5,3c0.5,0.5,1.2,0.8,2.3,0.8h0.8v0.7h-11v-0.7h0.9c1.1,0,1.9-0.3,2.3-1c0.3-0.4,0.4-1.3,0.4-2.8v-6l-7-10.8
				c-0.8-1.3-1.4-2-1.7-2.4c-0.3-0.3-0.9-0.7-1.8-1.1c-0.3-0.1-0.6-0.2-1.1-0.2v-0.7h10.9v0.7h-0.6c-0.6,0-1.1,0.1-1.6,0.4
				c-0.5,0.3-0.7,0.7-0.7,1.3c0,0.5,0.4,1.3,1.2,2.5l5.3,8.3l5.1-7.9c0.8-1.2,1.1-2.1,1.1-2.7c0-0.4-0.1-0.7-0.3-1
				c-0.2-0.3-0.4-0.5-0.8-0.7c-0.3-0.2-0.9-0.2-1.5-0.2V12.6z"/>
			<path class="st9" d="M277.2,31.2l0.6,0.1l-2.2,7h-19.9v-0.7h1c1.1,0,1.8-0.3,2.3-1.1c0.3-0.4,0.4-1.3,0.4-2.8V17.1
				c0-1.6-0.2-2.6-0.5-3c-0.5-0.6-1.2-0.8-2.2-0.8h-1v-0.7h11.6v0.7c-1.4,0-2.3,0.1-2.9,0.4c-0.5,0.3-0.9,0.6-1.1,1
				c-0.2,0.4-0.3,1.4-0.3,2.9v16.2c0,1,0.1,1.8,0.3,2.2c0.2,0.3,0.4,0.5,0.7,0.6c0.3,0.1,1.3,0.2,3,0.2h1.9c2,0,3.3-0.1,4.1-0.4
				c0.8-0.3,1.5-0.8,2.2-1.5C275.9,33.9,276.6,32.8,277.2,31.2"/>
			<path class="st9" d="M277.2,31.2l0.6,0.1l-2.2,7h-19.9v-0.7h1c1.1,0,1.8-0.3,2.3-1.1c0.3-0.4,0.4-1.3,0.4-2.8V17.1
				c0-1.6-0.2-2.6-0.5-3c-0.5-0.6-1.2-0.8-2.2-0.8h-1v-0.7h11.6v0.7c-1.4,0-2.3,0.1-2.9,0.4c-0.5,0.3-0.9,0.6-1.1,1
				c-0.2,0.4-0.3,1.4-0.3,2.9v16.2c0,1,0.1,1.8,0.3,2.2c0.2,0.3,0.4,0.5,0.7,0.6c0.3,0.1,1.3,0.2,3,0.2h1.9c2,0,3.3-0.1,4.1-0.4
				c0.8-0.3,1.5-0.8,2.2-1.5C275.9,33.9,276.6,32.8,277.2,31.2z"/>
			<path class="st9" d="M289.5,14v10.2h5.6c1.5,0,2.5-0.2,2.9-0.7c0.7-0.6,1-1.6,1.1-3.1h0.7v8.9h-0.7c-0.2-1.2-0.4-2-0.5-2.4
				c-0.2-0.4-0.6-0.8-1.1-1c-0.5-0.3-1.3-0.4-2.4-0.4h-5.6V34c0,1.1,0,1.8,0.2,2.1c0.1,0.2,0.3,0.4,0.5,0.6c0.3,0.1,0.7,0.2,1.4,0.2
				h4.4c1.4,0,2.5-0.1,3.2-0.3c0.7-0.2,1.3-0.6,1.9-1.2c0.8-0.8,1.6-2,2.4-3.6h0.8l-2.2,6.4h-19.8v-0.7h0.9c0.6,0,1.2-0.1,1.7-0.4
				c0.4-0.2,0.7-0.5,0.8-0.9c0.1-0.4,0.2-1.2,0.2-2.5V17c0-1.6-0.2-2.6-0.5-3c-0.5-0.5-1.2-0.8-2.3-0.8h-0.9v-0.7H302l0.3,5.6h-0.7
				c-0.3-1.4-0.6-2.3-0.9-2.8c-0.3-0.5-0.8-0.9-1.4-1.2c-0.5-0.2-1.4-0.3-2.7-0.3H289.5z"/>
			<path class="st9" d="M289.5,14v10.2h5.6c1.5,0,2.5-0.2,2.9-0.7c0.7-0.6,1-1.6,1.1-3.1h0.7v8.9h-0.7c-0.2-1.2-0.4-2-0.5-2.4
				c-0.2-0.4-0.6-0.8-1.1-1c-0.5-0.3-1.3-0.4-2.4-0.4h-5.6V34c0,1.1,0,1.8,0.2,2.1c0.1,0.2,0.3,0.4,0.5,0.6c0.3,0.1,0.7,0.2,1.4,0.2
				h4.4c1.4,0,2.5-0.1,3.2-0.3c0.7-0.2,1.3-0.6,1.9-1.2c0.8-0.8,1.6-2,2.4-3.6h0.8l-2.2,6.4h-19.8v-0.7h0.9c0.6,0,1.2-0.1,1.7-0.4
				c0.4-0.2,0.7-0.5,0.8-0.9c0.1-0.4,0.2-1.2,0.2-2.5V17c0-1.6-0.2-2.6-0.5-3c-0.5-0.5-1.2-0.8-2.3-0.8h-0.9v-0.7H302l0.3,5.6h-0.7
				c-0.3-1.4-0.6-2.3-0.9-2.8c-0.3-0.5-0.8-0.9-1.4-1.2c-0.5-0.2-1.4-0.3-2.7-0.3H289.5z"/>
			<path class="st9" d="M331.6,12l0.7,8.1h-0.7c-0.7-2-1.5-3.5-2.6-4.5c-1.5-1.5-3.5-2.2-5.9-2.2c-3.3,0-5.8,1.3-7.5,3.9
				c-1.4,2.2-2.1,4.8-2.1,7.8c0,2.4,0.5,4.7,1.4,6.7c0.9,2,2.2,3.5,3.7,4.4c1.5,0.9,3.1,1.4,4.7,1.4c0.9,0,1.9-0.1,2.7-0.4
				c0.9-0.2,1.7-0.6,2.6-1.1v-7.4c0-1.3-0.1-2.1-0.3-2.5c-0.2-0.4-0.5-0.7-0.9-0.9c-0.4-0.2-1.1-0.3-2.2-0.3v-0.7h9.9v0.7h-0.5
				c-1,0-1.7,0.3-2,1c-0.3,0.5-0.4,1.4-0.4,2.8v7.9c-1.5,0.8-2.9,1.4-4.3,1.7c-1.4,0.4-3,0.5-4.7,0.5c-5,0-8.7-1.6-11.3-4.8
				c-1.9-2.4-2.9-5.1-2.9-8.3c0-2.3,0.5-4.4,1.6-6.5c1.3-2.5,3.1-4.4,5.3-5.7c1.9-1.1,4.1-1.6,6.7-1.6c0.9,0,1.8,0.1,2.5,0.2
				c0.8,0.2,1.8,0.5,3.2,1c0.7,0.3,1.2,0.4,1.4,0.4s0.4-0.1,0.6-0.3c0.2-0.2,0.3-0.7,0.3-1.3H331.6z"/>
			<path class="st9" d="M331.6,12l0.7,8.1h-0.7c-0.7-2-1.5-3.5-2.6-4.5c-1.5-1.5-3.5-2.2-5.9-2.2c-3.3,0-5.8,1.3-7.5,3.9
				c-1.4,2.2-2.1,4.8-2.1,7.8c0,2.4,0.5,4.7,1.4,6.7c0.9,2,2.2,3.5,3.7,4.4c1.5,0.9,3.1,1.4,4.7,1.4c0.9,0,1.9-0.1,2.7-0.4
				c0.9-0.2,1.7-0.6,2.6-1.1v-7.4c0-1.3-0.1-2.1-0.3-2.5c-0.2-0.4-0.5-0.7-0.9-0.9c-0.4-0.2-1.1-0.3-2.2-0.3v-0.7h9.9v0.7h-0.5
				c-1,0-1.7,0.3-2,1c-0.3,0.5-0.4,1.4-0.4,2.8v7.9c-1.5,0.8-2.9,1.4-4.3,1.7c-1.4,0.4-3,0.5-4.7,0.5c-5,0-8.7-1.6-11.3-4.8
				c-1.9-2.4-2.9-5.1-2.9-8.3c0-2.3,0.5-4.4,1.6-6.5c1.3-2.5,3.1-4.4,5.3-5.7c1.9-1.1,4.1-1.6,6.7-1.6c0.9,0,1.8,0.1,2.5,0.2
				c0.8,0.2,1.8,0.5,3.2,1c0.7,0.3,1.2,0.4,1.4,0.4s0.4-0.1,0.6-0.3c0.2-0.2,0.3-0.7,0.3-1.3H331.6z"/>
			<path class="st9" d="M355.7,28.3l-4.3-10.4l-4.5,10.4H355.7z M356.2,29.7h-10l-1.7,4c-0.4,1-0.6,1.7-0.6,2.2c0,0.4,0.2,0.7,0.6,1
				c0.4,0.3,1.2,0.5,2.4,0.6v0.7h-8.1v-0.7c1.1-0.2,1.8-0.4,2.1-0.7c0.6-0.6,1.4-1.8,2.1-3.7l9-21.1h0.7l8.9,21.4
				c0.7,1.7,1.4,2.8,2,3.3c0.6,0.5,1.4,0.8,2.5,0.9v0.7h-10.1v-0.7c1,0,1.7-0.2,2.1-0.5c0.4-0.3,0.5-0.6,0.5-1.1
				c0-0.6-0.3-1.4-0.8-2.6L356.2,29.7z"/>
			<path class="st9" d="M355.7,28.3l-4.3-10.4l-4.5,10.4H355.7z M356.2,29.7h-10l-1.7,4c-0.4,1-0.6,1.7-0.6,2.2c0,0.4,0.2,0.7,0.6,1
				c0.4,0.3,1.2,0.5,2.4,0.6v0.7h-8.1v-0.7c1.1-0.2,1.8-0.4,2.1-0.7c0.6-0.6,1.4-1.8,2.1-3.7l9-21.1h0.7l8.9,21.4
				c0.7,1.7,1.4,2.8,2,3.3c0.6,0.5,1.4,0.8,2.5,0.9v0.7h-10.1v-0.7c1,0,1.7-0.2,2.1-0.5c0.4-0.3,0.5-0.6,0.5-1.1
				c0-0.6-0.3-1.4-0.8-2.6L356.2,29.7z"/>
			<path class="st9" d="M391.4,31.2l0.6,0.1l-2.2,7h-19.9v-0.7h1c1.1,0,1.8-0.3,2.3-1.1c0.3-0.4,0.4-1.3,0.4-2.8V17.1
				c0-1.6-0.2-2.6-0.5-3c-0.5-0.6-1.2-0.8-2.2-0.8h-1v-0.7h11.6v0.7c-1.4,0-2.3,0.1-2.9,0.4c-0.5,0.3-0.9,0.6-1.1,1
				c-0.2,0.4-0.3,1.4-0.3,2.9v16.2c0,1,0.1,1.8,0.3,2.2c0.2,0.3,0.4,0.5,0.7,0.6c0.3,0.1,1.3,0.2,3,0.2h1.9c2,0,3.3-0.1,4.1-0.4
				c0.8-0.3,1.5-0.8,2.2-1.5C390,33.9,390.7,32.8,391.4,31.2"/>
			<path class="st9" d="M391.4,31.2l0.6,0.1l-2.2,7h-19.9v-0.7h1c1.1,0,1.8-0.3,2.3-1.1c0.3-0.4,0.4-1.3,0.4-2.8V17.1
				c0-1.6-0.2-2.6-0.5-3c-0.5-0.6-1.2-0.8-2.2-0.8h-1v-0.7h11.6v0.7c-1.4,0-2.3,0.1-2.9,0.4c-0.5,0.3-0.9,0.6-1.1,1
				c-0.2,0.4-0.3,1.4-0.3,2.9v16.2c0,1,0.1,1.8,0.3,2.2c0.2,0.3,0.4,0.5,0.7,0.6c0.3,0.1,1.3,0.2,3,0.2h1.9c2,0,3.3-0.1,4.1-0.4
				c0.8-0.3,1.5-0.8,2.2-1.5C390,33.9,390.7,32.8,391.4,31.2z"/>
			<path class="st9" d="M107.2,63.9c0.7,0.1,1.3,0.2,1.8,0.3c0.5,0.1,1,0.1,1.3,0.1c1.3,0,2.4-0.5,3.4-1.5c1-1,1.4-2.3,1.4-3.9
				c0-1.1-0.2-2.1-0.7-3.1c-0.5-1-1.1-1.7-1.9-2.1c-0.8-0.5-1.8-0.7-2.8-0.7c-0.6,0-1.5,0.1-2.5,0.4V63.9z M107.2,65v7.5
				c0,1.6,0.2,2.6,0.5,3c0.5,0.6,1.2,0.8,2.2,0.8h1V77h-11v-0.7h1c1.1,0,1.9-0.3,2.3-1.1c0.3-0.4,0.4-1.3,0.4-2.8V55.9
				c0-1.6-0.2-2.6-0.5-3c-0.5-0.6-1.2-0.8-2.2-0.8h-1v-0.7h9.4c2.3,0,4.1,0.2,5.4,0.7c1.3,0.5,2.4,1.3,3.4,2.4
				c0.9,1.1,1.4,2.5,1.4,4c0,2.1-0.7,3.8-2.1,5.1c-1.4,1.3-3.3,2-5.9,2c-0.6,0-1.3,0-2-0.1C108.8,65.3,108,65.2,107.2,65"/>
			<path class="st9" d="M107.2,63.9c0.7,0.1,1.3,0.2,1.8,0.3c0.5,0.1,1,0.1,1.3,0.1c1.3,0,2.4-0.5,3.4-1.5c1-1,1.4-2.3,1.4-3.9
				c0-1.1-0.2-2.1-0.7-3.1c-0.5-1-1.1-1.7-1.9-2.1c-0.8-0.5-1.8-0.7-2.8-0.7c-0.6,0-1.5,0.1-2.5,0.4V63.9z M107.2,65v7.5
				c0,1.6,0.2,2.6,0.5,3c0.5,0.6,1.2,0.8,2.2,0.8h1V77h-11v-0.7h1c1.1,0,1.9-0.3,2.3-1.1c0.3-0.4,0.4-1.3,0.4-2.8V55.9
				c0-1.6-0.2-2.6-0.5-3c-0.5-0.6-1.2-0.8-2.2-0.8h-1v-0.7h9.4c2.3,0,4.1,0.2,5.4,0.7c1.3,0.5,2.4,1.3,3.4,2.4
				c0.9,1.1,1.4,2.5,1.4,4c0,2.1-0.7,3.8-2.1,5.1c-1.4,1.3-3.3,2-5.9,2c-0.6,0-1.3,0-2-0.1C108.8,65.3,108,65.2,107.2,65z"/>
			<path class="st9" d="M134.2,63.8c0.2,0,0.4,0,0.6,0c0.2,0,0.3,0,0.4,0c2.4,0,4.2-0.5,5.5-1.6c1.2-1.1,1.8-2.4,1.8-4
				c0-1.6-0.5-2.9-1.5-3.9c-1-1-2.3-1.5-3.9-1.5c-0.7,0-1.7,0.1-2.9,0.3V63.8z M152.4,77h-6.9l-8.7-12c-0.6,0-1.2,0-1.6,0
				c-0.2,0-0.3,0-0.5,0c-0.2,0-0.4,0-0.6,0v7.5c0,1.6,0.2,2.6,0.5,3c0.5,0.6,1.2,0.8,2.1,0.8h1V77h-11v-0.7h1c1.1,0,1.9-0.4,2.3-1.1
				c0.3-0.4,0.4-1.3,0.4-2.8V55.9c0-1.6-0.2-2.6-0.5-3c-0.5-0.6-1.2-0.8-2.2-0.8h-1v-0.7h9.3c2.7,0,4.7,0.2,6,0.6
				c1.3,0.4,2.4,1.1,3.3,2.2c0.9,1.1,1.4,2.3,1.4,3.8c0,1.6-0.5,2.9-1.5,4.1c-1,1.2-2.6,2-4.8,2.5l5.3,7.4c1.2,1.7,2.3,2.8,3.1,3.4
				s2,0.9,3.4,1.1V77z"/>
			<path class="st9" d="M134.2,63.8c0.2,0,0.4,0,0.6,0c0.2,0,0.3,0,0.4,0c2.4,0,4.2-0.5,5.5-1.6c1.2-1.1,1.8-2.4,1.8-4
				c0-1.6-0.5-2.9-1.5-3.9c-1-1-2.3-1.5-3.9-1.5c-0.7,0-1.7,0.1-2.9,0.3V63.8z M152.4,77h-6.9l-8.7-12c-0.6,0-1.2,0-1.6,0
				c-0.2,0-0.3,0-0.5,0c-0.2,0-0.4,0-0.6,0v7.5c0,1.6,0.2,2.6,0.5,3c0.5,0.6,1.2,0.8,2.1,0.8h1V77h-11v-0.7h1c1.1,0,1.9-0.4,2.3-1.1
				c0.3-0.4,0.4-1.3,0.4-2.8V55.9c0-1.6-0.2-2.6-0.5-3c-0.5-0.6-1.2-0.8-2.2-0.8h-1v-0.7h9.3c2.7,0,4.7,0.2,6,0.6
				c1.3,0.4,2.4,1.1,3.3,2.2c0.9,1.1,1.4,2.3,1.4,3.8c0,1.6-0.5,2.9-1.5,4.1c-1,1.2-2.6,2-4.8,2.5l5.3,7.4c1.2,1.7,2.3,2.8,3.1,3.4
				s2,0.9,3.4,1.1V77z"/>
			<path class="st9" d="M171.3,52.1c-2.3,0-4.2,0.9-5.5,2.6c-1.7,2.1-2.6,5.2-2.6,9.3c0,4.2,0.9,7.4,2.7,9.7
				c1.4,1.7,3.2,2.6,5.5,2.6c2.4,0,4.4-0.9,6-2.8c1.6-1.9,2.4-4.9,2.4-8.9c0-4.4-0.9-7.7-2.6-9.8C175.6,53,173.7,52.1,171.3,52.1
				 M171.6,50.8c3.3,0,6.2,1.3,8.7,3.8c2.4,2.5,3.7,5.7,3.7,9.5c0,3.9-1.2,7.1-3.7,9.7c-2.5,2.6-5.4,3.9-8.9,3.9
				c-3.5,0-6.5-1.3-8.9-3.8c-2.4-2.5-3.6-5.8-3.6-9.8c0-4.1,1.4-7.4,4.2-10C165.4,51.9,168.3,50.8,171.6,50.8"/>
			<path class="st9" d="M171.3,52.1c-2.3,0-4.2,0.9-5.5,2.6c-1.7,2.1-2.6,5.2-2.6,9.3c0,4.2,0.9,7.4,2.7,9.7
				c1.4,1.7,3.2,2.6,5.5,2.6c2.4,0,4.4-0.9,6-2.8c1.6-1.9,2.4-4.9,2.4-8.9c0-4.4-0.9-7.7-2.6-9.8C175.6,53,173.7,52.1,171.3,52.1z
				 M171.6,50.8c3.3,0,6.2,1.3,8.7,3.8c2.4,2.5,3.7,5.7,3.7,9.5c0,3.9-1.2,7.1-3.7,9.7c-2.5,2.6-5.4,3.9-8.9,3.9
				c-3.5,0-6.5-1.3-8.9-3.8c-2.4-2.5-3.6-5.8-3.6-9.8c0-4.1,1.4-7.4,4.2-10C165.4,51.9,168.3,50.8,171.6,50.8z"/>
			<path class="st9" d="M213.3,51.3l0.3,6h-0.7c-0.1-1.1-0.3-1.8-0.6-2.3c-0.4-0.7-0.9-1.3-1.6-1.6c-0.6-0.3-1.5-0.5-2.6-0.5h-3.6
				v19.6c0,1.6,0.2,2.6,0.5,3c0.5,0.5,1.2,0.8,2.2,0.8h0.9V77h-10.9v-0.7h0.9c1.1,0,1.9-0.3,2.3-1c0.3-0.4,0.4-1.3,0.4-2.8V52.9
				h-3.1c-1.2,0-2,0.1-2.5,0.3c-0.7,0.2-1.2,0.7-1.7,1.4c-0.5,0.7-0.7,1.6-0.8,2.8H192l0.3-6H213.3z"/>
			<path class="st9" d="M213.3,51.3l0.3,6h-0.7c-0.1-1.1-0.3-1.8-0.6-2.3c-0.4-0.7-0.9-1.3-1.6-1.6c-0.6-0.3-1.5-0.5-2.6-0.5h-3.6
				v19.6c0,1.6,0.2,2.6,0.5,3c0.5,0.5,1.2,0.8,2.2,0.8h0.9V77h-10.9v-0.7h0.9c1.1,0,1.9-0.3,2.3-1c0.3-0.4,0.4-1.3,0.4-2.8V52.9
				h-3.1c-1.2,0-2,0.1-2.5,0.3c-0.7,0.2-1.2,0.7-1.7,1.4c-0.5,0.7-0.7,1.6-0.8,2.8H192l0.3-6H213.3z"/>
			<path class="st9" d="M228,52.7v10.2h5.6c1.5,0,2.5-0.2,2.9-0.7c0.7-0.6,1-1.6,1.1-3.1h0.7v8.9h-0.7c-0.2-1.2-0.4-2-0.5-2.4
				c-0.2-0.4-0.6-0.8-1.1-1c-0.5-0.3-1.3-0.4-2.4-0.4H228v8.5c0,1.1,0,1.8,0.2,2.1c0.1,0.2,0.3,0.4,0.5,0.6c0.3,0.1,0.7,0.2,1.4,0.2
				h4.4c1.4,0,2.5-0.1,3.2-0.3c0.7-0.2,1.3-0.6,1.9-1.2c0.8-0.8,1.6-2,2.4-3.6h0.8l-2.2,6.4h-19.8v-0.7h0.9c0.6,0,1.2-0.1,1.7-0.4
				c0.4-0.2,0.7-0.5,0.8-0.9c0.1-0.4,0.2-1.2,0.2-2.5V55.8c0-1.6-0.2-2.6-0.5-3c-0.5-0.5-1.2-0.8-2.3-0.8h-0.9v-0.7h19.8l0.3,5.6
				H240c-0.3-1.4-0.6-2.3-0.9-2.8c-0.3-0.5-0.8-0.9-1.4-1.2c-0.5-0.2-1.4-0.3-2.7-0.3H228z"/>
			<path class="st9" d="M228,52.7v10.2h5.6c1.5,0,2.5-0.2,2.9-0.7c0.7-0.6,1-1.6,1.1-3.1h0.7v8.9h-0.7c-0.2-1.2-0.4-2-0.5-2.4
				c-0.2-0.4-0.6-0.8-1.1-1c-0.5-0.3-1.3-0.4-2.4-0.4H228v8.5c0,1.1,0,1.8,0.2,2.1c0.1,0.2,0.3,0.4,0.5,0.6c0.3,0.1,0.7,0.2,1.4,0.2
				h4.4c1.4,0,2.5-0.1,3.2-0.3c0.7-0.2,1.3-0.6,1.9-1.2c0.8-0.8,1.6-2,2.4-3.6h0.8l-2.2,6.4h-19.8v-0.7h0.9c0.6,0,1.2-0.1,1.7-0.4
				c0.4-0.2,0.7-0.5,0.8-0.9c0.1-0.4,0.2-1.2,0.2-2.5V55.8c0-1.6-0.2-2.6-0.5-3c-0.5-0.5-1.2-0.8-2.3-0.8h-0.9v-0.7h19.8l0.3,5.6
				H240c-0.3-1.4-0.6-2.3-0.9-2.8c-0.3-0.5-0.8-0.9-1.4-1.2c-0.5-0.2-1.4-0.3-2.7-0.3H228z"/>
			<path class="st9" d="M272.4,50.8l0.6,8.7h-0.6c-0.8-2.6-1.9-4.5-3.3-5.6c-1.5-1.1-3.2-1.7-5.2-1.7c-1.7,0-3.2,0.4-4.6,1.3
				c-1.4,0.9-2.5,2.2-3.2,4.1c-0.8,1.9-1.2,4.3-1.2,7.1c0,2.3,0.4,4.3,1.1,6c0.7,1.7,1.9,3,3.4,3.9s3.2,1.4,5.1,1.4
				c1.7,0,3.1-0.4,4.4-1.1c1.3-0.7,2.7-2.1,4.2-4.3l0.6,0.4c-1.3,2.3-2.8,4-4.5,5c-1.7,1.1-3.8,1.6-6.1,1.6c-4.2,0-7.5-1.6-9.9-4.7
				c-1.7-2.3-2.6-5.1-2.6-8.3c0-2.6,0.6-4.9,1.7-7.1c1.1-2.1,2.7-3.8,4.7-5c2-1.2,4.2-1.8,6.6-1.8c1.8,0,3.7,0.5,5.5,1.4
				c0.5,0.3,0.9,0.4,1.1,0.4c0.3,0,0.6-0.1,0.9-0.4c0.3-0.3,0.6-0.8,0.7-1.4H272.4z"/>
			<path class="st9" d="M272.4,50.8l0.6,8.7h-0.6c-0.8-2.6-1.9-4.5-3.3-5.6c-1.5-1.1-3.2-1.7-5.2-1.7c-1.7,0-3.2,0.4-4.6,1.3
				c-1.4,0.9-2.5,2.2-3.2,4.1c-0.8,1.9-1.2,4.3-1.2,7.1c0,2.3,0.4,4.3,1.1,6c0.7,1.7,1.9,3,3.4,3.9s3.2,1.4,5.1,1.4
				c1.7,0,3.1-0.4,4.4-1.1c1.3-0.7,2.7-2.1,4.2-4.3l0.6,0.4c-1.3,2.3-2.8,4-4.5,5c-1.7,1.1-3.8,1.6-6.1,1.6c-4.2,0-7.5-1.6-9.9-4.7
				c-1.7-2.3-2.6-5.1-2.6-8.3c0-2.6,0.6-4.9,1.7-7.1c1.1-2.1,2.7-3.8,4.7-5c2-1.2,4.2-1.8,6.6-1.8c1.8,0,3.7,0.5,5.5,1.4
				c0.5,0.3,0.9,0.4,1.1,0.4c0.3,0,0.6-0.1,0.9-0.4c0.3-0.3,0.6-0.8,0.7-1.4H272.4z"/>
			<path class="st9" d="M302.7,51.3l0.3,6h-0.7c-0.1-1.1-0.3-1.8-0.6-2.3c-0.4-0.7-0.9-1.3-1.6-1.6c-0.6-0.3-1.5-0.5-2.6-0.5H294
				v19.6c0,1.6,0.2,2.6,0.5,3c0.5,0.5,1.2,0.8,2.2,0.8h0.9V77h-10.9v-0.7h0.9c1.1,0,1.9-0.3,2.3-1c0.3-0.4,0.4-1.3,0.4-2.8V52.9
				h-3.1c-1.2,0-2,0.1-2.6,0.3c-0.7,0.2-1.2,0.7-1.7,1.4c-0.5,0.7-0.7,1.6-0.8,2.8h-0.7l0.3-6H302.7z"/>
			<path class="st9" d="M302.7,51.3l0.3,6h-0.7c-0.1-1.1-0.3-1.8-0.6-2.3c-0.4-0.7-0.9-1.3-1.6-1.6c-0.6-0.3-1.5-0.5-2.6-0.5H294
				v19.6c0,1.6,0.2,2.6,0.5,3c0.5,0.5,1.2,0.8,2.2,0.8h0.9V77h-10.9v-0.7h0.9c1.1,0,1.9-0.3,2.3-1c0.3-0.4,0.4-1.3,0.4-2.8V52.9
				h-3.1c-1.2,0-2,0.1-2.6,0.3c-0.7,0.2-1.2,0.7-1.7,1.4c-0.5,0.7-0.7,1.6-0.8,2.8h-0.7l0.3-6H302.7z"/>
			<path class="st9" d="M321.4,76.3V77h-11v-0.7h0.9c1.1,0,1.8-0.3,2.3-0.9c0.3-0.4,0.5-1.4,0.5-2.9V55.9c0-1.3-0.1-2.2-0.2-2.6
				c-0.1-0.3-0.4-0.6-0.8-0.8c-0.6-0.3-1.1-0.5-1.7-0.5h-0.9v-0.7h11V52h-0.9c-1,0-1.8,0.3-2.3,0.9c-0.3,0.4-0.5,1.4-0.5,2.9v16.6
				c0,1.3,0.1,2.2,0.2,2.6c0.1,0.3,0.4,0.6,0.8,0.8c0.5,0.3,1.1,0.5,1.7,0.5H321.4z"/>
			<path class="st9" d="M321.4,76.3V77h-11v-0.7h0.9c1.1,0,1.8-0.3,2.3-0.9c0.3-0.4,0.5-1.4,0.5-2.9V55.9c0-1.3-0.1-2.2-0.2-2.6
				c-0.1-0.3-0.4-0.6-0.8-0.8c-0.6-0.3-1.1-0.5-1.7-0.5h-0.9v-0.7h11V52h-0.9c-1,0-1.8,0.3-2.3,0.9c-0.3,0.4-0.5,1.4-0.5,2.9v16.6
				c0,1.3,0.1,2.2,0.2,2.6c0.1,0.3,0.4,0.6,0.8,0.8c0.5,0.3,1.1,0.5,1.7,0.5H321.4z"/>
			<path class="st9" d="M341.5,52.1c-2.3,0-4.2,0.9-5.5,2.6c-1.7,2.1-2.6,5.2-2.6,9.3c0,4.2,0.9,7.4,2.7,9.7
				c1.4,1.7,3.2,2.6,5.5,2.6c2.4,0,4.4-0.9,6-2.8c1.6-1.9,2.4-4.9,2.4-8.9c0-4.4-0.9-7.7-2.6-9.8C345.9,53,344,52.1,341.5,52.1
				 M341.9,50.8c3.3,0,6.2,1.3,8.7,3.8c2.4,2.5,3.7,5.7,3.7,9.5c0,3.9-1.2,7.1-3.7,9.7c-2.5,2.6-5.4,3.9-8.9,3.9
				c-3.5,0-6.5-1.3-8.9-3.8c-2.4-2.5-3.6-5.8-3.6-9.8c0-4.1,1.4-7.4,4.2-10C335.7,51.9,338.5,50.8,341.9,50.8"/>
			<path class="st9" d="M341.5,52.1c-2.3,0-4.2,0.9-5.5,2.6c-1.7,2.1-2.6,5.2-2.6,9.3c0,4.2,0.9,7.4,2.7,9.7
				c1.4,1.7,3.2,2.6,5.5,2.6c2.4,0,4.4-0.9,6-2.8c1.6-1.9,2.4-4.9,2.4-8.9c0-4.4-0.9-7.7-2.6-9.8C345.9,53,344,52.1,341.5,52.1z
				 M341.9,50.8c3.3,0,6.2,1.3,8.7,3.8c2.4,2.5,3.7,5.7,3.7,9.5c0,3.9-1.2,7.1-3.7,9.7c-2.5,2.6-5.4,3.9-8.9,3.9
				c-3.5,0-6.5-1.3-8.9-3.8c-2.4-2.5-3.6-5.8-3.6-9.8c0-4.1,1.4-7.4,4.2-10C335.7,51.9,338.5,50.8,341.9,50.8z"/>
			<path class="st9" d="M360.6,51.3h7l15.7,19.3V55.8c0-1.6-0.2-2.6-0.5-3c-0.5-0.5-1.2-0.8-2.2-0.8h-0.9v-0.7h9V52h-0.9
				c-1.1,0-1.9,0.3-2.3,1c-0.3,0.4-0.4,1.3-0.4,2.8v21.6h-0.7l-16.9-20.7v15.8c0,1.6,0.2,2.6,0.5,3c0.5,0.5,1.2,0.8,2.2,0.8h0.9V77
				h-9v-0.7h0.9c1.1,0,1.9-0.3,2.4-1c0.3-0.4,0.4-1.3,0.4-2.8V54.7c-0.7-0.9-1.3-1.4-1.7-1.7c-0.4-0.3-1-0.5-1.7-0.8
				c-0.4-0.1-0.9-0.2-1.7-0.2V51.3z"/>
			<path class="st9" d="M360.6,51.3h7l15.7,19.3V55.8c0-1.6-0.2-2.6-0.5-3c-0.5-0.5-1.2-0.8-2.2-0.8h-0.9v-0.7h9V52h-0.9
				c-1.1,0-1.9,0.3-2.3,1c-0.3,0.4-0.4,1.3-0.4,2.8v21.6h-0.7l-16.9-20.7v15.8c0,1.6,0.2,2.6,0.5,3c0.5,0.5,1.2,0.8,2.2,0.8h0.9V77
				h-9v-0.7h0.9c1.1,0,1.9-0.3,2.4-1c0.3-0.4,0.4-1.3,0.4-2.8V54.7c-0.7-0.9-1.3-1.4-1.7-1.7c-0.4-0.3-1-0.5-1.7-0.8
				c-0.4-0.1-0.9-0.2-1.7-0.2V51.3z"/>
		</g>
	</g>
</g>
</svg>
