<?xml version="1.0" encoding="utf-8"?>
<!-- Generator: Adobe Illustrator 19.1.1, SVG Export Plug-In . SVG Version: 6.00 Build 0)  -->
<svg version="1.1" xmlns="http://www.w3.org/2000/svg" xmlns:xlink="http://www.w3.org/1999/xlink" x="0px" y="0px"
	 viewBox="0 0 591.2 35" style="enable-background:new 0 0 591.2 35;" xml:space="preserve">
<style type="text/css">
	.st0{display:none;}
	.st1{display:inline;fill:none;stroke:#AC57A1;stroke-width:0.1;stroke-miterlimit:10;stroke-dasharray:1,0.3;}
	.st2{fill:none;stroke:#9C9B9B;stroke-miterlimit:10;}
	.st3{fill:#803193;}
	.st4{fill:#7AB800;}
	.st5{fill:#009AA6;}
	.st6{fill:none;stroke:#66C2CA;stroke-miterlimit:10;}
	.st7{fill:#66C2CA;}
	.st8{fill:none;stroke:#FFFFFF;stroke-width:2;stroke-miterlimit:10;}
	.st9{fill:#FFFFFF;}
	.st10{fill:none;stroke:#AFD466;stroke-miterlimit:10;}
	.st11{fill:#AFD466;}
	.st12{fill:none;stroke:#B383BE;stroke-miterlimit:10;}
	.st13{fill:#B383BE;}
	.st14{fill:#616365;}
	.st15{fill:none;stroke:#FFFFFF;stroke-width:4;}
	.st16{fill:none;stroke:#803094;stroke-width:2;stroke-miterlimit:10;}
	.st17{fill:#803094;}
	.st18{fill:none;stroke:#803094;stroke-miterlimit:10;}
	.st19{fill:#66666A;}
	.st20{fill:#BC2036;}
	.st21{fill:#549800;}
</style>
<g id="Layer_2" class="st0">
</g>
<g id="Layer_1">
	<g>
		<path class="st9" d="M0,0.5h8.8v20.1h13.7v6.6H0V0.5z"/>
		<path class="st9" d="M48.7,19.3H32.9c0.1,1.2,0.5,2.1,1,2.7c0.8,0.8,1.8,1.3,3,1.3c0.8,0,1.5-0.2,2.2-0.5c0.4-0.2,0.9-0.6,1.4-1.2
			l7.7,0.7c-1.2,1.9-2.6,3.3-4.3,4.2c-1.7,0.8-4.1,1.3-7.2,1.3c-2.7,0-4.9-0.4-6.4-1.1c-1.6-0.7-2.8-1.9-3.9-3.4
			c-1-1.6-1.5-3.4-1.5-5.6c0-3,1-5.5,3.1-7.3s4.9-2.8,8.5-2.8c2.9,0,5.3,0.4,7,1.3s3,2.1,3.9,3.6s1.3,3.7,1.3,6.2V19.3z M40.7,15.8
			c-0.2-1.4-0.6-2.5-1.2-3.1c-0.7-0.6-1.5-0.9-2.6-0.9c-1.3,0-2.2,0.5-3,1.4c-0.5,0.6-0.8,1.5-0.9,2.6H40.7z"/>
		<path class="st9" d="M50,7.8h7.6L60.9,20L65,7.8h7.1L76.5,20l3.3-12.2h7.6l-7.6,19.4h-7l-4.2-11.7l-4,11.7h-7L50,7.8z"/>
		<path class="st9" d="M89.9,0.5h7.9v5.1h-7.9V0.5z M89.9,7.8h7.9v19.4h-7.9V7.8z"/>
		<path class="st9" d="M101.4,21.8l7.8-0.7c0.3,0.9,0.8,1.5,1.4,1.9c0.6,0.4,1.4,0.6,2.3,0.6c1.1,0,1.9-0.2,2.5-0.6
			c0.5-0.3,0.7-0.7,0.7-1.2c0-0.5-0.3-0.9-0.9-1.2c-0.4-0.2-1.6-0.5-3.4-0.8c-2.7-0.4-4.6-0.9-5.7-1.2c-1.1-0.4-2-1-2.7-1.9
			s-1.1-1.9-1.1-3.1c0-1.3,0.4-2.4,1.2-3.3c0.8-0.9,1.9-1.6,3.2-2.1c1.4-0.5,3.2-0.7,5.5-0.7c2.4,0,4.3,0.2,5.4,0.5s2.1,0.9,2.9,1.6
			s1.4,1.7,1.9,3l-7.5,0.7c-0.2-0.6-0.5-1.1-1-1.4c-0.6-0.4-1.4-0.6-2.2-0.6c-0.9,0-1.5,0.1-1.9,0.4c-0.4,0.3-0.6,0.7-0.6,1.1
			c0,0.5,0.3,0.8,0.8,1.1c0.5,0.2,1.6,0.5,3.4,0.7c2.6,0.3,4.6,0.7,5.8,1.2s2.3,1.2,2.9,2.1c0.7,0.9,1,1.9,1,3
			c0,1.1-0.4,2.2-1.1,3.3s-1.8,1.9-3.4,2.5c-1.5,0.6-3.6,0.9-6.3,0.9c-3.7,0-6.4-0.5-8-1.5C102.9,25.1,101.8,23.7,101.4,21.8z"/>
		<path class="st9" d="M140.7,0.5h8.8v9.4h9.6V0.5h8.8v26.7H159V16.4h-9.6v10.8h-8.8V0.5z"/>
		<path class="st9" d="M170.9,7.8h8.3l4.2,12.9l3.9-12.9h7.7l-8.1,20.7c-0.9,2.4-1.9,4-2.8,4.8c-1.4,1.2-3.4,1.8-6.2,1.8
			c-1.1,0-2.9-0.1-5.3-0.4l-0.6-5.2c1.1,0.3,2.4,0.5,3.8,0.5c0.9,0,1.7-0.2,2.2-0.6c0.6-0.4,1.1-1.1,1.5-2.2L170.9,7.8z"/>
		<path class="st9" d="M197.3,7.8h7.3v2.8c1.1-1.2,2.1-2,3.2-2.5c1.1-0.5,2.4-0.7,3.9-0.7c1.6,0,2.9,0.3,3.9,0.8
			c1,0.5,1.7,1.4,2.3,2.4c1.2-1.3,2.4-2.1,3.4-2.6c1-0.5,2.3-0.7,3.8-0.7c2.2,0,3.9,0.6,5.2,1.9c1.2,1.2,1.9,3.2,1.9,5.8v12.2h-7.9
			v-11c0-0.9-0.2-1.5-0.5-2c-0.5-0.7-1.2-1-2-1c-0.9,0-1.7,0.3-2.2,0.9c-0.6,0.6-0.8,1.6-0.8,3v10h-7.9V16.5c0-0.9-0.1-1.4-0.2-1.7
			c-0.2-0.5-0.5-0.9-0.9-1.2c-0.4-0.3-0.9-0.4-1.5-0.4c-0.9,0-1.6,0.3-2.2,1c-0.6,0.6-0.9,1.7-0.9,3.2v9.9h-7.9V7.8z"/>
		<path class="st9" d="M244,14.1l-7.5-0.7c0.3-1.2,0.7-2.2,1.2-2.9c0.5-0.7,1.3-1.3,2.3-1.9c0.7-0.4,1.7-0.7,3-0.9
			c1.3-0.2,2.6-0.3,4.1-0.3c2.4,0,4.3,0.1,5.7,0.4s2.6,0.8,3.6,1.6c0.7,0.5,1.2,1.3,1.6,2.3s0.6,2,0.6,2.9v8.6
			c0,0.9,0.1,1.6,0.2,2.1c0.1,0.5,0.4,1.2,0.8,2h-7.4c-0.3-0.5-0.5-0.9-0.6-1.1s-0.2-0.7-0.3-1.2c-1,0.9-2.1,1.6-3.1,2
			c-1.4,0.5-3,0.8-4.8,0.8c-2.4,0-4.3-0.5-5.6-1.6c-1.3-1.1-1.9-2.4-1.9-4c0-1.5,0.5-2.7,1.4-3.6c0.9-0.9,2.6-1.7,5.1-2.1
			c2.9-0.6,4.9-1,5.7-1.2c0.9-0.2,1.8-0.5,2.8-0.9c0-0.9-0.2-1.5-0.6-1.9c-0.4-0.4-1.1-0.5-2.1-0.5c-1.3,0-2.3,0.2-2.9,0.6
			C244.7,12.7,244.3,13.3,244,14.1z M250.8,18c-1.1,0.4-2.2,0.7-3.4,1c-1.6,0.4-2.6,0.8-3,1.2c-0.4,0.4-0.7,0.9-0.7,1.4
			c0,0.6,0.2,1.1,0.6,1.4s1.1,0.6,1.9,0.6c0.9,0,1.7-0.2,2.4-0.6s1.3-0.9,1.6-1.5s0.5-1.3,0.5-2.3V18z"/>
		<path class="st9" d="M263.3,7.8h7.3V11c1.1-1.3,2.2-2.2,3.3-2.8c1.1-0.6,2.5-0.8,4.1-0.8c2.2,0,3.9,0.6,5.1,1.8
			c1.2,1.2,1.8,3.1,1.8,5.7v12.3H277V16.5c0-1.2-0.2-2.1-0.7-2.6c-0.5-0.5-1.1-0.8-2-0.8c-1,0-1.7,0.3-2.3,1s-0.9,1.9-0.9,3.7v9.3
			h-7.9V7.8z"/>
		<path class="st9" d="M288.3,21.8l7.8-0.7c0.3,0.9,0.8,1.5,1.4,1.9c0.6,0.4,1.4,0.6,2.3,0.6c1.1,0,1.9-0.2,2.5-0.6
			c0.5-0.3,0.7-0.7,0.7-1.2c0-0.5-0.3-0.9-0.9-1.2c-0.4-0.2-1.6-0.5-3.4-0.8c-2.7-0.4-4.6-0.9-5.7-1.2c-1.1-0.4-2-1-2.7-1.9
			s-1.1-1.9-1.1-3.1c0-1.3,0.4-2.4,1.2-3.3c0.8-0.9,1.9-1.6,3.2-2.1c1.4-0.5,3.2-0.7,5.5-0.7c2.4,0,4.3,0.2,5.4,0.5s2.1,0.9,2.9,1.6
			s1.4,1.7,1.9,3l-7.5,0.7c-0.2-0.6-0.5-1.1-1-1.4c-0.6-0.4-1.4-0.6-2.2-0.6c-0.9,0-1.5,0.1-1.9,0.4c-0.4,0.3-0.6,0.7-0.6,1.1
			c0,0.5,0.3,0.8,0.8,1.1c0.5,0.2,1.6,0.5,3.4,0.7c2.6,0.3,4.6,0.7,5.8,1.2s2.3,1.2,2.9,2.1c0.7,0.9,1,1.9,1,3
			c0,1.1-0.4,2.2-1.1,3.3s-1.8,1.9-3.4,2.5c-1.5,0.6-3.6,0.9-6.3,0.9c-3.7,0-6.4-0.5-8-1.5C289.7,25.1,288.7,23.7,288.3,21.8z"/>
		<path class="st9" d="M312.9,17.6c0-3,1.1-5.4,3.2-7.3c2.1-1.9,5-2.9,8.6-2.9c4.1,0,7.2,1.1,9.3,3.4c1.7,1.8,2.5,4,2.5,6.7
			c0,3-1,5.4-3.1,7.3c-2.1,1.9-5,2.9-8.7,2.9c-3.3,0-6-0.8-8-2.4C314.1,23.3,312.9,20.7,312.9,17.6z M320.7,17.5
			c0,1.7,0.4,3,1.1,3.8c0.7,0.8,1.7,1.2,2.8,1.2c1.1,0,2.1-0.4,2.8-1.2s1.1-2.1,1.1-3.9c0-1.7-0.4-2.9-1.1-3.7
			c-0.7-0.8-1.6-1.2-2.7-1.2c-1.1,0-2.1,0.4-2.8,1.2C321.1,14.6,320.7,15.8,320.7,17.5z"/>
		<path class="st9" d="M340.2,7.8h7.3V11c1.1-1.3,2.2-2.2,3.3-2.8c1.1-0.6,2.5-0.8,4.1-0.8c2.2,0,3.9,0.6,5.1,1.8
			c1.2,1.2,1.8,3.1,1.8,5.7v12.3H354V16.5c0-1.2-0.2-2.1-0.7-2.6c-0.5-0.5-1.1-0.8-2-0.8c-1,0-1.7,0.3-2.3,1s-0.9,1.9-0.9,3.7v9.3
			h-7.9V7.8z"/>
		<path class="st9" d="M378.8,18.3l8.3-0.5c0.2,1.3,0.5,2.2,1.1,2.9c0.9,1.1,2.2,1.6,3.9,1.6c1.2,0,2.2-0.3,2.9-0.8
			c0.7-0.6,1-1.2,1-1.9c0-0.7-0.3-1.3-1-1.9c-0.6-0.5-2.1-1.1-4.5-1.5c-3.8-0.8-6.6-1.9-8.2-3.2c-1.6-1.3-2.5-3.1-2.5-5.2
			c0-1.4,0.4-2.7,1.3-3.9s2.1-2.2,3.8-2.9c1.7-0.7,4-1,7-1c3.6,0,6.4,0.6,8.3,1.9c1.9,1.3,3,3.3,3.4,6.1l-8.3,0.5
			c-0.2-1.2-0.7-2.1-1.4-2.6C393.2,5.3,392.3,5,391,5c-1,0-1.8,0.2-2.3,0.6C388.2,6,388,6.5,388,7.1c0,0.4,0.2,0.8,0.6,1.1
			c0.4,0.4,1.4,0.7,2.9,1c3.8,0.8,6.6,1.6,8.2,2.4c1.7,0.8,2.9,1.8,3.6,3c0.8,1.2,1.1,2.5,1.1,4c0,1.7-0.5,3.3-1.5,4.7
			c-1,1.4-2.4,2.5-4.2,3.3c-1.8,0.7-4.1,1.1-6.8,1.1c-4.8,0-8.2-0.9-10-2.6C380.1,23.3,379,21,378.8,18.3z"/>
		<path class="st9" d="M408.4,7.8h7.3v2.8c1.1-1.2,2.1-2,3.2-2.5c1.1-0.5,2.4-0.7,3.9-0.7c1.6,0,2.9,0.3,3.9,0.8
			c1,0.5,1.7,1.4,2.3,2.4c1.2-1.3,2.4-2.1,3.4-2.6c1-0.5,2.3-0.7,3.8-0.7c2.2,0,3.9,0.6,5.2,1.9c1.2,1.2,1.9,3.2,1.9,5.8v12.2h-7.9
			v-11c0-0.9-0.2-1.5-0.5-2c-0.5-0.7-1.2-1-2-1c-0.9,0-1.7,0.3-2.2,0.9c-0.6,0.6-0.8,1.6-0.8,3v10h-7.9V16.5c0-0.9-0.1-1.4-0.2-1.7
			c-0.2-0.5-0.5-0.9-0.9-1.2c-0.4-0.3-0.9-0.4-1.5-0.4c-0.9,0-1.6,0.3-2.2,1c-0.6,0.6-0.9,1.7-0.9,3.2v9.9h-7.9V7.8z"/>
		<path class="st9" d="M455.1,14.1l-7.5-0.7c0.3-1.2,0.7-2.2,1.2-2.9c0.5-0.7,1.3-1.3,2.3-1.9c0.7-0.4,1.7-0.7,3-0.9
			c1.3-0.2,2.6-0.3,4.1-0.3c2.4,0,4.3,0.1,5.7,0.4s2.6,0.8,3.6,1.6c0.7,0.5,1.2,1.3,1.6,2.3s0.6,2,0.6,2.9v8.6
			c0,0.9,0.1,1.6,0.2,2.1c0.1,0.5,0.4,1.2,0.8,2h-7.4c-0.3-0.5-0.5-0.9-0.6-1.1s-0.2-0.7-0.3-1.2c-1,0.9-2.1,1.6-3.1,2
			c-1.4,0.5-3,0.8-4.8,0.8c-2.4,0-4.3-0.5-5.6-1.6c-1.3-1.1-1.9-2.4-1.9-4c0-1.5,0.5-2.7,1.4-3.6c0.9-0.9,2.6-1.7,5.1-2.1
			c2.9-0.6,4.9-1,5.7-1.2c0.9-0.2,1.8-0.5,2.8-0.9c0-0.9-0.2-1.5-0.6-1.9c-0.4-0.4-1.1-0.5-2.1-0.5c-1.3,0-2.3,0.2-2.9,0.6
			C455.8,12.7,455.4,13.3,455.1,14.1z M461.9,18c-1.1,0.4-2.2,0.7-3.4,1c-1.6,0.4-2.6,0.8-3,1.2c-0.4,0.4-0.7,0.9-0.7,1.4
			c0,0.6,0.2,1.1,0.6,1.4s1.1,0.6,1.9,0.6c0.9,0,1.7-0.2,2.4-0.6s1.3-0.9,1.6-1.5s0.5-1.3,0.5-2.3V18z"/>
		<path class="st9" d="M474.6,0.5h7.9v26.7h-7.9V0.5z"/>
		<path class="st9" d="M487.8,0.5h7.9v26.7h-7.9V0.5z"/>
		<path class="st9" d="M514.4,0.5h8.8v20.1h13.7v6.6h-22.4V0.5z"/>
		<path class="st9" d="M540.8,0.5h8.8v20.1h13.7v6.6h-22.4V0.5z"/>
		<path class="st9" d="M567.2,0.5h14.5c3.2,0,5.5,0.7,7.1,2.1c1.6,1.4,2.4,3.4,2.4,6.1c0,2.7-0.9,4.8-2.6,6.3
			c-1.7,1.5-4.3,2.3-7.9,2.3H576v9.9h-8.8V0.5z M576,11.9h2.1c1.7,0,2.9-0.3,3.6-0.8c0.7-0.6,1-1.3,1-2.1c0-0.8-0.3-1.5-0.9-2.1
			c-0.6-0.6-1.7-0.9-3.3-0.9H576V11.9z"/>
	</g>
</g>
</svg>
