<?xml version="1.0" encoding="utf-8"?>
<!-- Generator: Adobe Illustrator 19.1.1, SVG Export Plug-In . SVG Version: 6.00 Build 0)  -->
<svg version="1.1" id="Layer_1" xmlns="http://www.w3.org/2000/svg" xmlns:xlink="http://www.w3.org/1999/xlink" x="0px" y="0px"
	 viewBox="0 0 397.6 210.6" style="enable-background:new 0 0 397.6 210.6;" xml:space="preserve">
<style type="text/css">
	.st0{fill:#616365;}
	.st1{font-family:'SenticoSansDT-Regular';}
	.st2{font-size:15px;}
	.st3{fill:#803193;}
	.st4{fill:none;stroke:#803193;stroke-miterlimit:10;}
	.st5{fill:#009BA7;}
	.st6{fill:#FFFFFF;}
	.st7{fill:none;stroke:#FFFFFF;}
	.st8{clip-path:url(#SVGID_2_);}
</style>
<g>
	<text transform="matrix(1 0 0 1 34.3696 124.5396)"><tspan x="0" y="0" class="st0 st1 st2">F</tspan><tspan x="7.3" y="0" class="st0 st1 st2">acing scepticism and professional snobbe</tspan><tspan x="264.5" y="0" class="st0 st1 st2">r</tspan><tspan x="269.9" y="0" class="st0 st1 st2">y</tspan><tspan x="276.2" y="0" class="st0 st1 st2">, a </tspan></text>
	<text transform="matrix(1 0 0 1 34.3696 142.5396)" class="st0 st1 st2">business boldly creating the UK’s ﬁrst 24/7 legal </text>
	<text transform="matrix(1 0 0 1 34.3696 160.5396)"><tspan x="0" y="0" class="st0 st1 st2">helpline se</tspan><tspan x="67.2" y="0" class="st0 st1 st2">r</tspan><tspan x="72.6" y="0" class="st0 st1 st2">vice in the 1990’s – still the most </tspan></text>
	<text transform="matrix(1 0 0 1 34.3696 178.5396)" class="st0 st1 st2">successful today </text>
	<text transform="matrix(1 0 0 1 837.7344 115.5396)"><tspan x="0" y="0" class="st0 st1 st2">2 </tspan><tspan x="12.1" y="0" class="st0 st1 st2">A</tspan><tspan x="21.2" y="0" class="st0 st1 st2">ward-winning, experienced legal mavericks </tspan></text>
	<text transform="matrix(1 0 0 1 837.7344 133.5396)" class="st0 st1 st2">determined to build a better business for their </text>
	<text transform="matrix(1 0 0 1 837.7344 151.5396)"><tspan x="0" y="0" class="st0 st1 st2">clients, culminating in a new ﬁrm sta</tspan><tspan x="228.5" y="0" class="st0 st1 st2">r</tspan><tspan x="233.8" y="0" class="st0 st1 st2">ted [D</tspan><tspan x="271.4" y="0" class="st0 st1 st2">A</tspan><tspan x="280" y="0" class="st0 st1 st2">TE] </tspan></text>
	<rect x="838.2" y="40.5" class="st3" width="311.8" height="48.3"/>
	<rect x="838.2" y="40.5" class="st4" width="311.8" height="48.3"/>
	<rect x="33.4" y="49" class="st5" width="311.8" height="48.3"/>
	<polygon class="st6" points="149.3,80.3 138.7,75 128.2,80.2 138.8,86.6 	"/>
	<polygon class="st7" points="149.3,80.3 138.7,75 128.2,80.2 138.8,86.6 	"/>
	<polygon class="st6" points="149.3,67 139.5,61.1 139.5,73.8 149.3,78.7 	"/>
	<polygon class="st7" points="149.3,67 139.5,61.1 139.5,73.8 149.3,78.7 	"/>
	<polygon class="st6" points="128.2,67.1 138,61.3 138,73.9 128.2,78.7 	"/>
	<polygon class="st7" points="128.2,67.1 138,61.3 138,73.9 128.2,78.7 	"/>
	<g>
		<path class="st6" d="M162.8,68.9l-1.3-3.2l-1.4,3.2H162.8z M163,69.3h-3.1l-0.5,1.2c-0.1,0.3-0.2,0.5-0.2,0.7
			c0,0.1,0.1,0.2,0.2,0.3c0.1,0.1,0.4,0.2,0.7,0.2v0.2h-2.5v-0.2c0.3-0.1,0.5-0.1,0.6-0.2c0.2-0.2,0.4-0.6,0.7-1.1l2.8-6.5h0.2
			l2.7,6.5c0.2,0.5,0.4,0.9,0.6,1s0.4,0.2,0.8,0.3v0.2h-3.1v-0.2c0.3,0,0.5-0.1,0.6-0.2s0.2-0.2,0.2-0.3c0-0.2-0.1-0.4-0.2-0.8
			L163,69.3z"/>
		<path class="st7" d="M162.8,68.9l-1.3-3.2l-1.4,3.2H162.8z M163,69.3h-3.1l-0.5,1.2c-0.1,0.3-0.2,0.5-0.2,0.7
			c0,0.1,0.1,0.2,0.2,0.3c0.1,0.1,0.4,0.2,0.7,0.2v0.2h-2.5v-0.2c0.3-0.1,0.5-0.1,0.6-0.2c0.2-0.2,0.4-0.6,0.7-1.1l2.8-6.5h0.2
			l2.7,6.5c0.2,0.5,0.4,0.9,0.6,1s0.4,0.2,0.8,0.3v0.2h-3.1v-0.2c0.3,0,0.5-0.1,0.6-0.2s0.2-0.2,0.2-0.3c0-0.2-0.1-0.4-0.2-0.8
			L163,69.3z"/>
		<path class="st6" d="M169.4,71.4c0.5,0.1,0.9,0.2,1.3,0.2c0.7,0,1.2-0.2,1.6-0.5c0.4-0.3,0.6-0.7,0.6-1.2c0-0.3-0.1-0.6-0.3-0.9
			c-0.2-0.3-0.4-0.5-0.8-0.7c-0.4-0.2-0.8-0.2-1.4-0.2c-0.2,0-0.4,0-0.6,0c-0.2,0-0.3,0-0.4,0V71.4z M169.4,67.6
			c0.1,0,0.3,0,0.5,0.1c0.2,0,0.4,0,0.6,0c0.6,0,1-0.1,1.3-0.2c0.3-0.1,0.5-0.3,0.7-0.6c0.2-0.3,0.2-0.5,0.2-0.8
			c0-0.5-0.2-0.8-0.6-1.2c-0.4-0.3-0.9-0.5-1.6-0.5c-0.4,0-0.7,0-1,0.1V67.6z M172.4,67.9c0.5,0.1,1,0.3,1.2,0.6
			c0.4,0.4,0.6,0.8,0.6,1.3c0,0.4-0.1,0.8-0.4,1.1c-0.2,0.4-0.6,0.6-1,0.8c-0.4,0.2-1.1,0.2-2,0.2h-3.7v-0.2h0.3
			c0.3,0,0.6-0.1,0.7-0.3c0.1-0.1,0.1-0.4,0.1-0.9v-5.1c0-0.5-0.1-0.8-0.2-0.9c-0.1-0.2-0.4-0.3-0.7-0.3h-0.3v-0.2h3.4
			c0.6,0,1.1,0,1.5,0.1c0.6,0.1,1,0.4,1.3,0.7s0.5,0.8,0.5,1.2c0,0.4-0.1,0.7-0.4,1.1C173.2,67.5,172.9,67.7,172.4,67.9"/>
		<path class="st7" d="M169.4,71.4c0.5,0.1,0.9,0.2,1.3,0.2c0.7,0,1.2-0.2,1.6-0.5c0.4-0.3,0.6-0.7,0.6-1.2c0-0.3-0.1-0.6-0.3-0.9
			c-0.2-0.3-0.4-0.5-0.8-0.7c-0.4-0.2-0.8-0.2-1.4-0.2c-0.2,0-0.4,0-0.6,0c-0.2,0-0.3,0-0.4,0V71.4z M169.4,67.6
			c0.1,0,0.3,0,0.5,0.1c0.2,0,0.4,0,0.6,0c0.6,0,1-0.1,1.3-0.2c0.3-0.1,0.5-0.3,0.7-0.6c0.2-0.3,0.2-0.5,0.2-0.8
			c0-0.5-0.2-0.8-0.6-1.2c-0.4-0.3-0.9-0.5-1.6-0.5c-0.4,0-0.7,0-1,0.1V67.6z M172.4,67.9c0.5,0.1,1,0.3,1.2,0.6
			c0.4,0.4,0.6,0.8,0.6,1.3c0,0.4-0.1,0.8-0.4,1.1c-0.2,0.4-0.6,0.6-1,0.8c-0.4,0.2-1.1,0.2-2,0.2h-3.7v-0.2h0.3
			c0.3,0,0.6-0.1,0.7-0.3c0.1-0.1,0.1-0.4,0.1-0.9v-5.1c0-0.5-0.1-0.8-0.2-0.9c-0.1-0.2-0.4-0.3-0.7-0.3h-0.3v-0.2h3.4
			c0.6,0,1.1,0,1.5,0.1c0.6,0.1,1,0.4,1.3,0.7s0.5,0.8,0.5,1.2c0,0.4-0.1,0.7-0.4,1.1C173.2,67.5,172.9,67.7,172.4,67.9z"/>
		<path class="st6" d="M178.1,71.4c0.5,0.1,0.9,0.2,1.3,0.2c0.7,0,1.2-0.2,1.6-0.5c0.4-0.3,0.6-0.7,0.6-1.2c0-0.3-0.1-0.6-0.3-0.9
			c-0.2-0.3-0.4-0.5-0.8-0.7c-0.4-0.2-0.8-0.2-1.4-0.2c-0.2,0-0.4,0-0.6,0c-0.2,0-0.3,0-0.4,0V71.4z M178.1,67.6
			c0.1,0,0.3,0,0.5,0.1c0.2,0,0.4,0,0.6,0c0.6,0,1-0.1,1.3-0.2c0.3-0.1,0.5-0.3,0.7-0.6c0.2-0.3,0.2-0.5,0.2-0.8
			c0-0.5-0.2-0.8-0.6-1.2c-0.4-0.3-0.9-0.5-1.6-0.5c-0.4,0-0.7,0-1,0.1V67.6z M181.1,67.9c0.5,0.1,1,0.3,1.2,0.6
			c0.4,0.4,0.6,0.8,0.6,1.3c0,0.4-0.1,0.8-0.4,1.1c-0.2,0.4-0.6,0.6-1,0.8c-0.4,0.2-1.1,0.2-2,0.2h-3.7v-0.2h0.3
			c0.3,0,0.6-0.1,0.7-0.3c0.1-0.1,0.1-0.4,0.1-0.9v-5.1c0-0.5-0.1-0.8-0.2-0.9c-0.1-0.2-0.4-0.3-0.7-0.3h-0.3v-0.2h3.4
			c0.6,0,1.1,0,1.5,0.1c0.6,0.1,1,0.4,1.3,0.7s0.5,0.8,0.5,1.2c0,0.4-0.1,0.7-0.4,1.1C182,67.5,181.6,67.7,181.1,67.9"/>
		<path class="st7" d="M178.1,71.4c0.5,0.1,0.9,0.2,1.3,0.2c0.7,0,1.2-0.2,1.6-0.5c0.4-0.3,0.6-0.7,0.6-1.2c0-0.3-0.1-0.6-0.3-0.9
			c-0.2-0.3-0.4-0.5-0.8-0.7c-0.4-0.2-0.8-0.2-1.4-0.2c-0.2,0-0.4,0-0.6,0c-0.2,0-0.3,0-0.4,0V71.4z M178.1,67.6
			c0.1,0,0.3,0,0.5,0.1c0.2,0,0.4,0,0.6,0c0.6,0,1-0.1,1.3-0.2c0.3-0.1,0.5-0.3,0.7-0.6c0.2-0.3,0.2-0.5,0.2-0.8
			c0-0.5-0.2-0.8-0.6-1.2c-0.4-0.3-0.9-0.5-1.6-0.5c-0.4,0-0.7,0-1,0.1V67.6z M181.1,67.9c0.5,0.1,1,0.3,1.2,0.6
			c0.4,0.4,0.6,0.8,0.6,1.3c0,0.4-0.1,0.8-0.4,1.1c-0.2,0.4-0.6,0.6-1,0.8c-0.4,0.2-1.1,0.2-2,0.2h-3.7v-0.2h0.3
			c0.3,0,0.6-0.1,0.7-0.3c0.1-0.1,0.1-0.4,0.1-0.9v-5.1c0-0.5-0.1-0.8-0.2-0.9c-0.1-0.2-0.4-0.3-0.7-0.3h-0.3v-0.2h3.4
			c0.6,0,1.1,0,1.5,0.1c0.6,0.1,1,0.4,1.3,0.7s0.5,0.8,0.5,1.2c0,0.4-0.1,0.7-0.4,1.1C182,67.5,181.6,67.7,181.1,67.9z"/>
		<path class="st6" d="M186.9,64.5v3.1h1.7c0.5,0,0.8-0.1,0.9-0.2c0.2-0.2,0.3-0.5,0.3-0.9h0.2v2.7h-0.2c-0.1-0.4-0.1-0.6-0.2-0.7
			c-0.1-0.1-0.2-0.2-0.3-0.3s-0.4-0.1-0.7-0.1h-1.7v2.6c0,0.3,0,0.6,0,0.6c0,0.1,0.1,0.1,0.2,0.2c0.1,0,0.2,0.1,0.4,0.1h1.3
			c0.4,0,0.8,0,1-0.1c0.2-0.1,0.4-0.2,0.6-0.4c0.2-0.2,0.5-0.6,0.7-1.1h0.2l-0.7,2h-6.1v-0.2h0.3c0.2,0,0.4,0,0.5-0.1
			c0.1-0.1,0.2-0.2,0.3-0.3c0-0.1,0.1-0.4,0.1-0.8v-5.1c0-0.5,0-0.8-0.1-0.9c-0.1-0.2-0.4-0.2-0.7-0.2h-0.3v-0.2h6.1l0.1,1.7h-0.2
			c-0.1-0.4-0.2-0.7-0.3-0.9c-0.1-0.2-0.2-0.3-0.4-0.4c-0.2-0.1-0.4-0.1-0.8-0.1H186.9z"/>
		<path class="st7" d="M186.9,64.5v3.1h1.7c0.5,0,0.8-0.1,0.9-0.2c0.2-0.2,0.3-0.5,0.3-0.9h0.2v2.7h-0.2c-0.1-0.4-0.1-0.6-0.2-0.7
			c-0.1-0.1-0.2-0.2-0.3-0.3s-0.4-0.1-0.7-0.1h-1.7v2.6c0,0.3,0,0.6,0,0.6c0,0.1,0.1,0.1,0.2,0.2c0.1,0,0.2,0.1,0.4,0.1h1.3
			c0.4,0,0.8,0,1-0.1c0.2-0.1,0.4-0.2,0.6-0.4c0.2-0.2,0.5-0.6,0.7-1.1h0.2l-0.7,2h-6.1v-0.2h0.3c0.2,0,0.4,0,0.5-0.1
			c0.1-0.1,0.2-0.2,0.3-0.3c0-0.1,0.1-0.4,0.1-0.8v-5.1c0-0.5,0-0.8-0.1-0.9c-0.1-0.2-0.4-0.2-0.7-0.2h-0.3v-0.2h6.1l0.1,1.7h-0.2
			c-0.1-0.4-0.2-0.7-0.3-0.9c-0.1-0.2-0.2-0.3-0.4-0.4c-0.2-0.1-0.4-0.1-0.8-0.1H186.9z"/>
		<path class="st6" d="M198.2,64.1h2.7v0.2h-0.1c-0.1,0-0.2,0-0.4,0.1s-0.4,0.2-0.5,0.4c-0.2,0.2-0.4,0.4-0.6,0.8l-1.9,3v2
			c0,0.5,0.1,0.8,0.2,0.9c0.1,0.2,0.4,0.2,0.7,0.2h0.3v0.2h-3.4v-0.2h0.3c0.3,0,0.6-0.1,0.7-0.3c0.1-0.1,0.1-0.4,0.1-0.9v-1.8
			l-2.1-3.3c-0.3-0.4-0.4-0.6-0.5-0.7c-0.1-0.1-0.3-0.2-0.6-0.3c-0.1,0-0.2-0.1-0.3-0.1v-0.2h3.4v0.2h-0.2c-0.2,0-0.3,0-0.5,0.1
			c-0.2,0.1-0.2,0.2-0.2,0.4c0,0.1,0.1,0.4,0.4,0.8l1.6,2.5l1.5-2.4c0.2-0.4,0.3-0.6,0.3-0.8c0-0.1,0-0.2-0.1-0.3
			c-0.1-0.1-0.1-0.2-0.2-0.2c-0.1,0-0.3-0.1-0.5-0.1V64.1z"/>
		<path class="st7" d="M198.2,64.1h2.7v0.2h-0.1c-0.1,0-0.2,0-0.4,0.1s-0.4,0.2-0.5,0.4c-0.2,0.2-0.4,0.4-0.6,0.8l-1.9,3v2
			c0,0.5,0.1,0.8,0.2,0.9c0.1,0.2,0.4,0.2,0.7,0.2h0.3v0.2h-3.4v-0.2h0.3c0.3,0,0.6-0.1,0.7-0.3c0.1-0.1,0.1-0.4,0.1-0.9v-1.8
			l-2.1-3.3c-0.3-0.4-0.4-0.6-0.5-0.7c-0.1-0.1-0.3-0.2-0.6-0.3c-0.1,0-0.2-0.1-0.3-0.1v-0.2h3.4v0.2h-0.2c-0.2,0-0.3,0-0.5,0.1
			c-0.2,0.1-0.2,0.2-0.2,0.4c0,0.1,0.1,0.4,0.4,0.8l1.6,2.5l1.5-2.4c0.2-0.4,0.3-0.6,0.3-0.8c0-0.1,0-0.2-0.1-0.3
			c-0.1-0.1-0.1-0.2-0.2-0.2c-0.1,0-0.3-0.1-0.5-0.1V64.1z"/>
		<path class="st6" d="M212,69.7l0.2,0l-0.7,2.1h-6.1v-0.2h0.3c0.3,0,0.6-0.1,0.7-0.3c0.1-0.1,0.1-0.4,0.1-0.9v-5.1
			c0-0.5-0.1-0.8-0.2-0.9c-0.1-0.2-0.4-0.3-0.7-0.3h-0.3v-0.2h3.6v0.2c-0.4,0-0.7,0-0.9,0.1c-0.2,0.1-0.3,0.2-0.3,0.3
			c-0.1,0.1-0.1,0.4-0.1,0.9v4.9c0,0.3,0,0.5,0.1,0.7c0,0.1,0.1,0.1,0.2,0.2c0.1,0,0.4,0.1,0.9,0.1h0.6c0.6,0,1,0,1.3-0.1
			c0.2-0.1,0.5-0.2,0.7-0.5C211.6,70.6,211.8,70.2,212,69.7"/>
		<path class="st7" d="M212,69.7l0.2,0l-0.7,2.1h-6.1v-0.2h0.3c0.3,0,0.6-0.1,0.7-0.3c0.1-0.1,0.1-0.4,0.1-0.9v-5.1
			c0-0.5-0.1-0.8-0.2-0.9c-0.1-0.2-0.4-0.3-0.7-0.3h-0.3v-0.2h3.6v0.2c-0.4,0-0.7,0-0.9,0.1c-0.2,0.1-0.3,0.2-0.3,0.3
			c-0.1,0.1-0.1,0.4-0.1,0.9v4.9c0,0.3,0,0.5,0.1,0.7c0,0.1,0.1,0.1,0.2,0.2c0.1,0,0.4,0.1,0.9,0.1h0.6c0.6,0,1,0,1.3-0.1
			c0.2-0.1,0.5-0.2,0.7-0.5C211.6,70.6,211.8,70.2,212,69.7z"/>
		<path class="st6" d="M215.8,64.5v3.1h1.7c0.5,0,0.8-0.1,0.9-0.2c0.2-0.2,0.3-0.5,0.3-0.9h0.2v2.7h-0.2c-0.1-0.4-0.1-0.6-0.2-0.7
			c-0.1-0.1-0.2-0.2-0.3-0.3s-0.4-0.1-0.7-0.1h-1.7v2.6c0,0.3,0,0.6,0,0.6c0,0.1,0.1,0.1,0.2,0.2c0.1,0,0.2,0.1,0.4,0.1h1.3
			c0.4,0,0.8,0,1-0.1c0.2-0.1,0.4-0.2,0.6-0.4c0.2-0.2,0.5-0.6,0.7-1.1h0.2l-0.7,2h-6.1v-0.2h0.3c0.2,0,0.4,0,0.5-0.1
			c0.1-0.1,0.2-0.2,0.3-0.3c0-0.1,0.1-0.4,0.1-0.8v-5.1c0-0.5,0-0.8-0.1-0.9c-0.1-0.2-0.4-0.2-0.7-0.2h-0.3v-0.2h6.1l0.1,1.7h-0.2
			c-0.1-0.4-0.2-0.7-0.3-0.9c-0.1-0.2-0.2-0.3-0.4-0.4c-0.2-0.1-0.4-0.1-0.8-0.1H215.8z"/>
		<path class="st7" d="M215.8,64.5v3.1h1.7c0.5,0,0.8-0.1,0.9-0.2c0.2-0.2,0.3-0.5,0.3-0.9h0.2v2.7h-0.2c-0.1-0.4-0.1-0.6-0.2-0.7
			c-0.1-0.1-0.2-0.2-0.3-0.3s-0.4-0.1-0.7-0.1h-1.7v2.6c0,0.3,0,0.6,0,0.6c0,0.1,0.1,0.1,0.2,0.2c0.1,0,0.2,0.1,0.4,0.1h1.3
			c0.4,0,0.8,0,1-0.1c0.2-0.1,0.4-0.2,0.6-0.4c0.2-0.2,0.5-0.6,0.7-1.1h0.2l-0.7,2h-6.1v-0.2h0.3c0.2,0,0.4,0,0.5-0.1
			c0.1-0.1,0.2-0.2,0.3-0.3c0-0.1,0.1-0.4,0.1-0.8v-5.1c0-0.5,0-0.8-0.1-0.9c-0.1-0.2-0.4-0.2-0.7-0.2h-0.3v-0.2h6.1l0.1,1.7h-0.2
			c-0.1-0.4-0.2-0.7-0.3-0.9c-0.1-0.2-0.2-0.3-0.4-0.4c-0.2-0.1-0.4-0.1-0.8-0.1H215.8z"/>
		<path class="st6" d="M228.7,63.9l0.2,2.5h-0.2c-0.2-0.6-0.5-1.1-0.8-1.4c-0.5-0.5-1.1-0.7-1.8-0.7c-1,0-1.8,0.4-2.3,1.2
			c-0.4,0.7-0.7,1.5-0.7,2.4c0,0.8,0.1,1.4,0.4,2.1c0.3,0.6,0.7,1.1,1.1,1.4c0.5,0.3,1,0.4,1.4,0.4c0.3,0,0.6,0,0.8-0.1
			c0.3-0.1,0.5-0.2,0.8-0.3V69c0-0.4,0-0.7-0.1-0.8c-0.1-0.1-0.2-0.2-0.3-0.3c-0.1-0.1-0.3-0.1-0.7-0.1v-0.2h3v0.2h-0.1
			c-0.3,0-0.5,0.1-0.6,0.3c-0.1,0.1-0.1,0.4-0.1,0.9v2.4c-0.4,0.2-0.9,0.4-1.3,0.5c-0.4,0.1-0.9,0.2-1.4,0.2c-1.5,0-2.7-0.5-3.5-1.5
			c-0.6-0.7-0.9-1.6-0.9-2.5c0-0.7,0.2-1.4,0.5-2c0.4-0.8,0.9-1.3,1.6-1.7c0.6-0.3,1.3-0.5,2-0.5c0.3,0,0.5,0,0.8,0.1
			c0.2,0,0.6,0.1,1,0.3c0.2,0.1,0.4,0.1,0.4,0.1s0.1,0,0.2-0.1c0.1-0.1,0.1-0.2,0.1-0.4H228.7z"/>
		<path class="st7" d="M228.7,63.9l0.2,2.5h-0.2c-0.2-0.6-0.5-1.1-0.8-1.4c-0.5-0.5-1.1-0.7-1.8-0.7c-1,0-1.8,0.4-2.3,1.2
			c-0.4,0.7-0.7,1.5-0.7,2.4c0,0.8,0.1,1.4,0.4,2.1c0.3,0.6,0.7,1.1,1.1,1.4c0.5,0.3,1,0.4,1.4,0.4c0.3,0,0.6,0,0.8-0.1
			c0.3-0.1,0.5-0.2,0.8-0.3V69c0-0.4,0-0.7-0.1-0.8c-0.1-0.1-0.2-0.2-0.3-0.3c-0.1-0.1-0.3-0.1-0.7-0.1v-0.2h3v0.2h-0.1
			c-0.3,0-0.5,0.1-0.6,0.3c-0.1,0.1-0.1,0.4-0.1,0.9v2.4c-0.4,0.2-0.9,0.4-1.3,0.5c-0.4,0.1-0.9,0.2-1.4,0.2c-1.5,0-2.7-0.5-3.5-1.5
			c-0.6-0.7-0.9-1.6-0.9-2.5c0-0.7,0.2-1.4,0.5-2c0.4-0.8,0.9-1.3,1.6-1.7c0.6-0.3,1.3-0.5,2-0.5c0.3,0,0.5,0,0.8,0.1
			c0.2,0,0.6,0.1,1,0.3c0.2,0.1,0.4,0.1,0.4,0.1s0.1,0,0.2-0.1c0.1-0.1,0.1-0.2,0.1-0.4H228.7z"/>
		<path class="st6" d="M236,68.9l-1.3-3.2l-1.4,3.2H236z M236.2,69.3h-3.1l-0.5,1.2c-0.1,0.3-0.2,0.5-0.2,0.7c0,0.1,0.1,0.2,0.2,0.3
			c0.1,0.1,0.4,0.2,0.7,0.2v0.2h-2.5v-0.2c0.3-0.1,0.5-0.1,0.6-0.2c0.2-0.2,0.4-0.6,0.7-1.1l2.8-6.5h0.2l2.7,6.5
			c0.2,0.5,0.4,0.9,0.6,1c0.2,0.2,0.4,0.2,0.8,0.3v0.2h-3.1v-0.2c0.3,0,0.5-0.1,0.6-0.2s0.2-0.2,0.2-0.3c0-0.2-0.1-0.4-0.2-0.8
			L236.2,69.3z"/>
		<path class="st7" d="M236,68.9l-1.3-3.2l-1.4,3.2H236z M236.2,69.3h-3.1l-0.5,1.2c-0.1,0.3-0.2,0.5-0.2,0.7c0,0.1,0.1,0.2,0.2,0.3
			c0.1,0.1,0.4,0.2,0.7,0.2v0.2h-2.5v-0.2c0.3-0.1,0.5-0.1,0.6-0.2c0.2-0.2,0.4-0.6,0.7-1.1l2.8-6.5h0.2l2.7,6.5
			c0.2,0.5,0.4,0.9,0.6,1c0.2,0.2,0.4,0.2,0.8,0.3v0.2h-3.1v-0.2c0.3,0,0.5-0.1,0.6-0.2s0.2-0.2,0.2-0.3c0-0.2-0.1-0.4-0.2-0.8
			L236.2,69.3z"/>
		<path class="st6" d="M247,69.7l0.2,0l-0.7,2.1h-6.1v-0.2h0.3c0.3,0,0.6-0.1,0.7-0.3c0.1-0.1,0.1-0.4,0.1-0.9v-5.1
			c0-0.5-0.1-0.8-0.2-0.9c-0.1-0.2-0.4-0.3-0.7-0.3h-0.3v-0.2h3.6v0.2c-0.4,0-0.7,0-0.9,0.1c-0.2,0.1-0.3,0.2-0.3,0.3
			c-0.1,0.1-0.1,0.4-0.1,0.9v4.9c0,0.3,0,0.5,0.1,0.7c0,0.1,0.1,0.1,0.2,0.2c0.1,0,0.4,0.1,0.9,0.1h0.6c0.6,0,1,0,1.3-0.1
			c0.2-0.1,0.5-0.2,0.7-0.5C246.6,70.6,246.8,70.2,247,69.7"/>
		<path class="st7" d="M247,69.7l0.2,0l-0.7,2.1h-6.1v-0.2h0.3c0.3,0,0.6-0.1,0.7-0.3c0.1-0.1,0.1-0.4,0.1-0.9v-5.1
			c0-0.5-0.1-0.8-0.2-0.9c-0.1-0.2-0.4-0.3-0.7-0.3h-0.3v-0.2h3.6v0.2c-0.4,0-0.7,0-0.9,0.1c-0.2,0.1-0.3,0.2-0.3,0.3
			c-0.1,0.1-0.1,0.4-0.1,0.9v4.9c0,0.3,0,0.5,0.1,0.7c0,0.1,0.1,0.1,0.2,0.2c0.1,0,0.4,0.1,0.9,0.1h0.6c0.6,0,1,0,1.3-0.1
			c0.2-0.1,0.5-0.2,0.7-0.5C246.6,70.6,246.8,70.2,247,69.7z"/>
		<path class="st6" d="M160,79.8c0.2,0,0.4,0.1,0.5,0.1c0.2,0,0.3,0,0.4,0c0.4,0,0.7-0.2,1-0.5c0.3-0.3,0.4-0.7,0.4-1.2
			c0-0.3-0.1-0.7-0.2-0.9c-0.1-0.3-0.3-0.5-0.6-0.7c-0.3-0.1-0.5-0.2-0.9-0.2c-0.2,0-0.5,0-0.8,0.1V79.8z M160,80.1v2.3
			c0,0.5,0.1,0.8,0.2,0.9c0.1,0.2,0.4,0.3,0.7,0.3h0.3v0.2h-3.4v-0.2h0.3c0.3,0,0.6-0.1,0.7-0.3c0.1-0.1,0.1-0.4,0.1-0.9v-5.1
			c0-0.5-0.1-0.8-0.2-0.9c-0.2-0.2-0.4-0.3-0.7-0.3h-0.3v-0.2h2.9c0.7,0,1.3,0.1,1.7,0.2c0.4,0.1,0.7,0.4,1,0.7
			c0.3,0.3,0.4,0.8,0.4,1.2c0,0.6-0.2,1.2-0.6,1.6c-0.4,0.4-1,0.6-1.8,0.6c-0.2,0-0.4,0-0.6,0C160.5,80.2,160.2,80.2,160,80.1"/>
		<path class="st7" d="M160,79.8c0.2,0,0.4,0.1,0.5,0.1c0.2,0,0.3,0,0.4,0c0.4,0,0.7-0.2,1-0.5c0.3-0.3,0.4-0.7,0.4-1.2
			c0-0.3-0.1-0.7-0.2-0.9c-0.1-0.3-0.3-0.5-0.6-0.7c-0.3-0.1-0.5-0.2-0.9-0.2c-0.2,0-0.5,0-0.8,0.1V79.8z M160,80.1v2.3
			c0,0.5,0.1,0.8,0.2,0.9c0.1,0.2,0.4,0.3,0.7,0.3h0.3v0.2h-3.4v-0.2h0.3c0.3,0,0.6-0.1,0.7-0.3c0.1-0.1,0.1-0.4,0.1-0.9v-5.1
			c0-0.5-0.1-0.8-0.2-0.9c-0.2-0.2-0.4-0.3-0.7-0.3h-0.3v-0.2h2.9c0.7,0,1.3,0.1,1.7,0.2c0.4,0.1,0.7,0.4,1,0.7
			c0.3,0.3,0.4,0.8,0.4,1.2c0,0.6-0.2,1.2-0.6,1.6c-0.4,0.4-1,0.6-1.8,0.6c-0.2,0-0.4,0-0.6,0C160.5,80.2,160.2,80.2,160,80.1z"/>
		<path class="st6" d="M168.2,79.8c0.1,0,0.1,0,0.2,0c0.1,0,0.1,0,0.1,0c0.7,0,1.3-0.2,1.7-0.5c0.4-0.3,0.6-0.7,0.6-1.2
			c0-0.5-0.2-0.9-0.5-1.2c-0.3-0.3-0.7-0.5-1.2-0.5c-0.2,0-0.5,0-0.9,0.1V79.8z M173.8,83.8h-2.1l-2.7-3.7c-0.2,0-0.4,0-0.5,0
			c0,0-0.1,0-0.2,0c-0.1,0-0.1,0-0.2,0v2.3c0,0.5,0.1,0.8,0.2,0.9c0.1,0.2,0.4,0.3,0.7,0.3h0.3v0.2H166v-0.2h0.3
			c0.3,0,0.6-0.1,0.7-0.3c0.1-0.1,0.1-0.4,0.1-0.9v-5.1c0-0.5-0.1-0.8-0.2-0.9c-0.1-0.2-0.4-0.3-0.7-0.3H166v-0.2h2.9
			c0.8,0,1.4,0.1,1.8,0.2c0.4,0.1,0.7,0.3,1,0.7s0.4,0.7,0.4,1.2c0,0.5-0.2,0.9-0.5,1.3c-0.3,0.4-0.8,0.6-1.5,0.8l1.6,2.3
			c0.4,0.5,0.7,0.9,1,1s0.6,0.3,1,0.3V83.8z"/>
		<path class="st7" d="M168.2,79.8c0.1,0,0.1,0,0.2,0c0.1,0,0.1,0,0.1,0c0.7,0,1.3-0.2,1.7-0.5c0.4-0.3,0.6-0.7,0.6-1.2
			c0-0.5-0.2-0.9-0.5-1.2c-0.3-0.3-0.7-0.5-1.2-0.5c-0.2,0-0.5,0-0.9,0.1V79.8z M173.8,83.8h-2.1l-2.7-3.7c-0.2,0-0.4,0-0.5,0
			c0,0-0.1,0-0.2,0c-0.1,0-0.1,0-0.2,0v2.3c0,0.5,0.1,0.8,0.2,0.9c0.1,0.2,0.4,0.3,0.7,0.3h0.3v0.2H166v-0.2h0.3
			c0.3,0,0.6-0.1,0.7-0.3c0.1-0.1,0.1-0.4,0.1-0.9v-5.1c0-0.5-0.1-0.8-0.2-0.9c-0.1-0.2-0.4-0.3-0.7-0.3H166v-0.2h2.9
			c0.8,0,1.4,0.1,1.8,0.2c0.4,0.1,0.7,0.3,1,0.7s0.4,0.7,0.4,1.2c0,0.5-0.2,0.9-0.5,1.3c-0.3,0.4-0.8,0.6-1.5,0.8l1.6,2.3
			c0.4,0.5,0.7,0.9,1,1s0.6,0.3,1,0.3V83.8z"/>
		<path class="st6" d="M179.6,76.2c-0.7,0-1.3,0.3-1.7,0.8c-0.5,0.7-0.8,1.6-0.8,2.9c0,1.3,0.3,2.3,0.8,3c0.4,0.5,1,0.8,1.7,0.8
			c0.7,0,1.3-0.3,1.8-0.9c0.5-0.6,0.7-1.5,0.7-2.7c0-1.3-0.3-2.4-0.8-3C180.9,76.4,180.3,76.2,179.6,76.2 M179.7,75.7
			c1,0,1.9,0.4,2.7,1.2c0.7,0.8,1.1,1.7,1.1,2.9c0,1.2-0.4,2.2-1.1,3c-0.8,0.8-1.7,1.2-2.7,1.2c-1.1,0-2-0.4-2.7-1.2
			c-0.7-0.8-1.1-1.8-1.1-3c0-1.2,0.4-2.3,1.3-3.1C177.8,76.1,178.7,75.7,179.7,75.7"/>
		<path class="st7" d="M179.6,76.2c-0.7,0-1.3,0.3-1.7,0.8c-0.5,0.7-0.8,1.6-0.8,2.9c0,1.3,0.3,2.3,0.8,3c0.4,0.5,1,0.8,1.7,0.8
			c0.7,0,1.3-0.3,1.8-0.9c0.5-0.6,0.7-1.5,0.7-2.7c0-1.3-0.3-2.4-0.8-3C180.9,76.4,180.3,76.2,179.6,76.2z M179.7,75.7
			c1,0,1.9,0.4,2.7,1.2c0.7,0.8,1.1,1.7,1.1,2.9c0,1.2-0.4,2.2-1.1,3c-0.8,0.8-1.7,1.2-2.7,1.2c-1.1,0-2-0.4-2.7-1.2
			c-0.7-0.8-1.1-1.8-1.1-3c0-1.2,0.4-2.3,1.3-3.1C177.8,76.1,178.7,75.7,179.7,75.7z"/>
		<path class="st6" d="M192.4,75.9l0.1,1.8h-0.2c0-0.3-0.1-0.6-0.2-0.7c-0.1-0.2-0.3-0.4-0.5-0.5c-0.2-0.1-0.5-0.2-0.8-0.2h-1.1v6
			c0,0.5,0.1,0.8,0.2,0.9c0.1,0.2,0.4,0.2,0.7,0.2h0.3v0.2h-3.3v-0.2h0.3c0.3,0,0.6-0.1,0.7-0.3c0.1-0.1,0.1-0.4,0.1-0.9v-6h-0.9
			c-0.4,0-0.6,0-0.8,0.1c-0.2,0.1-0.4,0.2-0.5,0.4c-0.1,0.2-0.2,0.5-0.3,0.8h-0.2l0.1-1.8H192.4z"/>
		<path class="st7" d="M192.4,75.9l0.1,1.8h-0.2c0-0.3-0.1-0.6-0.2-0.7c-0.1-0.2-0.3-0.4-0.5-0.5c-0.2-0.1-0.5-0.2-0.8-0.2h-1.1v6
			c0,0.5,0.1,0.8,0.2,0.9c0.1,0.2,0.4,0.2,0.7,0.2h0.3v0.2h-3.3v-0.2h0.3c0.3,0,0.6-0.1,0.7-0.3c0.1-0.1,0.1-0.4,0.1-0.9v-6h-0.9
			c-0.4,0-0.6,0-0.8,0.1c-0.2,0.1-0.4,0.2-0.5,0.4c-0.1,0.2-0.2,0.5-0.3,0.8h-0.2l0.1-1.8H192.4z"/>
		<path class="st6" d="M197,76.3v3.1h1.7c0.5,0,0.8-0.1,0.9-0.2c0.2-0.2,0.3-0.5,0.3-0.9h0.2v2.7h-0.2c-0.1-0.4-0.1-0.6-0.2-0.7
			c-0.1-0.1-0.2-0.2-0.3-0.3s-0.4-0.1-0.7-0.1H197v2.6c0,0.3,0,0.6,0,0.6c0,0.1,0.1,0.1,0.2,0.2c0.1,0,0.2,0.1,0.4,0.1h1.3
			c0.4,0,0.8,0,1-0.1c0.2-0.1,0.4-0.2,0.6-0.4c0.2-0.2,0.5-0.6,0.7-1.1h0.2l-0.7,2h-6.1v-0.2h0.3c0.2,0,0.4,0,0.5-0.1
			c0.1-0.1,0.2-0.2,0.3-0.3c0-0.1,0.1-0.4,0.1-0.8v-5.1c0-0.5,0-0.8-0.1-0.9c-0.1-0.2-0.4-0.2-0.7-0.2h-0.3v-0.2h6.1l0.1,1.7h-0.2
			c-0.1-0.4-0.2-0.7-0.3-0.9c-0.1-0.2-0.2-0.3-0.4-0.4c-0.2-0.1-0.4-0.1-0.8-0.1H197z"/>
		<path class="st7" d="M197,76.3v3.1h1.7c0.5,0,0.8-0.1,0.9-0.2c0.2-0.2,0.3-0.5,0.3-0.9h0.2v2.7h-0.2c-0.1-0.4-0.1-0.6-0.2-0.7
			c-0.1-0.1-0.2-0.2-0.3-0.3s-0.4-0.1-0.7-0.1H197v2.6c0,0.3,0,0.6,0,0.6c0,0.1,0.1,0.1,0.2,0.2c0.1,0,0.2,0.1,0.4,0.1h1.3
			c0.4,0,0.8,0,1-0.1c0.2-0.1,0.4-0.2,0.6-0.4c0.2-0.2,0.5-0.6,0.7-1.1h0.2l-0.7,2h-6.1v-0.2h0.3c0.2,0,0.4,0,0.5-0.1
			c0.1-0.1,0.2-0.2,0.3-0.3c0-0.1,0.1-0.4,0.1-0.8v-5.1c0-0.5,0-0.8-0.1-0.9c-0.1-0.2-0.4-0.2-0.7-0.2h-0.3v-0.2h6.1l0.1,1.7h-0.2
			c-0.1-0.4-0.2-0.7-0.3-0.9c-0.1-0.2-0.2-0.3-0.4-0.4c-0.2-0.1-0.4-0.1-0.8-0.1H197z"/>
		<path class="st6" d="M210.5,75.7l0.2,2.7h-0.2c-0.2-0.8-0.6-1.4-1-1.7c-0.4-0.4-1-0.5-1.6-0.5c-0.5,0-1,0.1-1.4,0.4
			c-0.4,0.3-0.8,0.7-1,1.3c-0.2,0.6-0.4,1.3-0.4,2.2c0,0.7,0.1,1.3,0.3,1.9c0.2,0.5,0.6,0.9,1,1.2c0.5,0.3,1,0.4,1.6,0.4
			c0.5,0,1-0.1,1.3-0.3c0.4-0.2,0.8-0.7,1.3-1.3l0.2,0.1c-0.4,0.7-0.9,1.2-1.4,1.5c-0.5,0.3-1.1,0.5-1.9,0.5c-1.3,0-2.3-0.5-3-1.4
			c-0.5-0.7-0.8-1.6-0.8-2.5c0-0.8,0.2-1.5,0.5-2.2c0.4-0.7,0.8-1.2,1.4-1.5c0.6-0.4,1.3-0.5,2-0.5c0.6,0,1.1,0.1,1.7,0.4
			c0.2,0.1,0.3,0.1,0.3,0.1c0.1,0,0.2,0,0.3-0.1c0.1-0.1,0.2-0.2,0.2-0.4H210.5z"/>
		<path class="st7" d="M210.5,75.7l0.2,2.7h-0.2c-0.2-0.8-0.6-1.4-1-1.7c-0.4-0.4-1-0.5-1.6-0.5c-0.5,0-1,0.1-1.4,0.4
			c-0.4,0.3-0.8,0.7-1,1.3c-0.2,0.6-0.4,1.3-0.4,2.2c0,0.7,0.1,1.3,0.3,1.9c0.2,0.5,0.6,0.9,1,1.2c0.5,0.3,1,0.4,1.6,0.4
			c0.5,0,1-0.1,1.3-0.3c0.4-0.2,0.8-0.7,1.3-1.3l0.2,0.1c-0.4,0.7-0.9,1.2-1.4,1.5c-0.5,0.3-1.1,0.5-1.9,0.5c-1.3,0-2.3-0.5-3-1.4
			c-0.5-0.7-0.8-1.6-0.8-2.5c0-0.8,0.2-1.5,0.5-2.2c0.4-0.7,0.8-1.2,1.4-1.5c0.6-0.4,1.3-0.5,2-0.5c0.6,0,1.1,0.1,1.7,0.4
			c0.2,0.1,0.3,0.1,0.3,0.1c0.1,0,0.2,0,0.3-0.1c0.1-0.1,0.2-0.2,0.2-0.4H210.5z"/>
		<path class="st6" d="M219.8,75.9l0.1,1.8h-0.2c0-0.3-0.1-0.6-0.2-0.7c-0.1-0.2-0.3-0.4-0.5-0.5c-0.2-0.1-0.5-0.2-0.8-0.2h-1.1v6
			c0,0.5,0.1,0.8,0.2,0.9c0.1,0.2,0.4,0.2,0.7,0.2h0.3v0.2h-3.3v-0.2h0.3c0.3,0,0.6-0.1,0.7-0.3c0.1-0.1,0.1-0.4,0.1-0.9v-6h-0.9
			c-0.4,0-0.6,0-0.8,0.1c-0.2,0.1-0.4,0.2-0.5,0.4c-0.1,0.2-0.2,0.5-0.3,0.8h-0.2l0.1-1.8H219.8z"/>
		<path class="st7" d="M219.8,75.9l0.1,1.8h-0.2c0-0.3-0.1-0.6-0.2-0.7c-0.1-0.2-0.3-0.4-0.5-0.5c-0.2-0.1-0.5-0.2-0.8-0.2h-1.1v6
			c0,0.5,0.1,0.8,0.2,0.9c0.1,0.2,0.4,0.2,0.7,0.2h0.3v0.2h-3.3v-0.2h0.3c0.3,0,0.6-0.1,0.7-0.3c0.1-0.1,0.1-0.4,0.1-0.9v-6h-0.9
			c-0.4,0-0.6,0-0.8,0.1c-0.2,0.1-0.4,0.2-0.5,0.4c-0.1,0.2-0.2,0.5-0.3,0.8h-0.2l0.1-1.8H219.8z"/>
		<path class="st6" d="M225.5,83.6v0.2h-3.4v-0.2h0.3c0.3,0,0.6-0.1,0.7-0.3c0.1-0.1,0.1-0.4,0.1-0.9v-5.1c0-0.4,0-0.7-0.1-0.8
			c0-0.1-0.1-0.2-0.2-0.2c-0.2-0.1-0.3-0.1-0.5-0.1h-0.3v-0.2h3.4v0.2h-0.3c-0.3,0-0.6,0.1-0.7,0.3c-0.1,0.1-0.1,0.4-0.1,0.9v5.1
			c0,0.4,0,0.7,0.1,0.8c0,0.1,0.1,0.2,0.2,0.2c0.2,0.1,0.3,0.1,0.5,0.1H225.5z"/>
		<path class="st7" d="M225.5,83.6v0.2h-3.4v-0.2h0.3c0.3,0,0.6-0.1,0.7-0.3c0.1-0.1,0.1-0.4,0.1-0.9v-5.1c0-0.4,0-0.7-0.1-0.8
			c0-0.1-0.1-0.2-0.2-0.2c-0.2-0.1-0.3-0.1-0.5-0.1h-0.3v-0.2h3.4v0.2h-0.3c-0.3,0-0.6,0.1-0.7,0.3c-0.1,0.1-0.1,0.4-0.1,0.9v5.1
			c0,0.4,0,0.7,0.1,0.8c0,0.1,0.1,0.2,0.2,0.2c0.2,0.1,0.3,0.1,0.5,0.1H225.5z"/>
		<path class="st6" d="M231.7,76.2c-0.7,0-1.3,0.3-1.7,0.8c-0.5,0.7-0.8,1.6-0.8,2.9c0,1.3,0.3,2.3,0.8,3c0.4,0.5,1,0.8,1.7,0.8
			c0.7,0,1.4-0.3,1.8-0.9c0.5-0.6,0.7-1.5,0.7-2.7c0-1.3-0.3-2.4-0.8-3C233.1,76.4,232.5,76.2,231.7,76.2 M231.8,75.7
			c1,0,1.9,0.4,2.7,1.2c0.7,0.8,1.1,1.7,1.1,2.9c0,1.2-0.4,2.2-1.1,3c-0.8,0.8-1.7,1.2-2.7,1.2c-1.1,0-2-0.4-2.7-1.2
			c-0.7-0.8-1.1-1.8-1.1-3c0-1.2,0.4-2.3,1.3-3.1C229.9,76.1,230.8,75.7,231.8,75.7"/>
		<path class="st7" d="M231.7,76.2c-0.7,0-1.3,0.3-1.7,0.8c-0.5,0.7-0.8,1.6-0.8,2.9c0,1.3,0.3,2.3,0.8,3c0.4,0.5,1,0.8,1.7,0.8
			c0.7,0,1.4-0.3,1.8-0.9c0.5-0.6,0.7-1.5,0.7-2.7c0-1.3-0.3-2.4-0.8-3C233.1,76.4,232.5,76.2,231.7,76.2z M231.8,75.7
			c1,0,1.9,0.4,2.7,1.2c0.7,0.8,1.1,1.7,1.1,2.9c0,1.2-0.4,2.2-1.1,3c-0.8,0.8-1.7,1.2-2.7,1.2c-1.1,0-2-0.4-2.7-1.2
			c-0.7-0.8-1.1-1.8-1.1-3c0-1.2,0.4-2.3,1.3-3.1C229.9,76.1,230.8,75.7,231.8,75.7z"/>
		<path class="st6" d="M237.6,75.9h2.1l4.8,5.9v-4.5c0-0.5-0.1-0.8-0.2-0.9c-0.1-0.2-0.4-0.2-0.7-0.2h-0.3v-0.2h2.8v0.2h-0.3
			c-0.3,0-0.6,0.1-0.7,0.3c-0.1,0.1-0.1,0.4-0.1,0.9v6.6h-0.2l-5.2-6.3v4.8c0,0.5,0.1,0.8,0.2,0.9c0.1,0.2,0.4,0.2,0.7,0.2h0.3v0.2
			H238v-0.2h0.3c0.3,0,0.6-0.1,0.7-0.3c0.1-0.1,0.1-0.4,0.1-0.9V77c-0.2-0.3-0.4-0.4-0.5-0.5c-0.1-0.1-0.3-0.2-0.5-0.2
			c-0.1,0-0.3-0.1-0.5-0.1V75.9z"/>
		<path class="st7" d="M237.6,75.9h2.1l4.8,5.9v-4.5c0-0.5-0.1-0.8-0.2-0.9c-0.1-0.2-0.4-0.2-0.7-0.2h-0.3v-0.2h2.8v0.2h-0.3
			c-0.3,0-0.6,0.1-0.7,0.3c-0.1,0.1-0.1,0.4-0.1,0.9v6.6h-0.2l-5.2-6.3v4.8c0,0.5,0.1,0.8,0.2,0.9c0.1,0.2,0.4,0.2,0.7,0.2h0.3v0.2
			H238v-0.2h0.3c0.3,0,0.6-0.1,0.7-0.3c0.1-0.1,0.1-0.4,0.1-0.9V77c-0.2-0.3-0.4-0.4-0.5-0.5c-0.1-0.1-0.3-0.2-0.5-0.2
			c-0.1,0-0.3-0.1-0.5-0.1V75.9z"/>
	</g>
	<g>
		<defs>
			<rect id="SVGID_1_" x="895.5" y="57.1" width="197.3" height="17"/>
		</defs>
		<clipPath id="SVGID_2_">
			<use xlink:href="#SVGID_1_"  style="overflow:visible;"/>
		</clipPath>
		<g class="st8">
			<defs>
				<rect id="SVGID_3_" x="895.5" y="57.1" width="197.3" height="18.4"/>
			</defs>
			<clipPath id="SVGID_4_">
				<use xlink:href="#SVGID_3_"  style="overflow:visible;"/>
			</clipPath>
			<g style="clip-path:url(#SVGID_4_);">
				
					<image style="overflow:visible;" width="332" height="31" xlink:href="71BEEE39.jpg"  transform="matrix(0.5943 0 0 0.5943 895.4976 57.1378)">
				</image>
			</g>
		</g>
	</g>
</g>
</svg>
