<?xml version="1.0" encoding="utf-8"?>
<!-- Generator: Adobe Illustrator 19.1.1, SVG Export Plug-In . SVG Version: 6.00 Build 0)  -->
<svg version="1.1" id="Layer_1" xmlns="http://www.w3.org/2000/svg" xmlns:xlink="http://www.w3.org/1999/xlink" x="0px" y="0px"
	 viewBox="0 0 397.6 210.6" style="enable-background:new 0 0 397.6 210.6;" xml:space="preserve">
<style type="text/css">
	.st0{fill:#616365;}
	.st1{font-family:'SenticoSansDT-Regular';}
	.st2{font-size:15px;}
	.st3{font-size:16px;}
	.st4{fill:#803193;}
	.st5{fill:none;stroke:#803193;stroke-miterlimit:10;}
	.st6{fill:#BD2037;}
	.st7{fill:#FFFFFF;}
	.st8{clip-path:url(#SVGID_2_);fill:#FFFFFF;}
	.st9{fill:#009BA7;}
	.st10{fill:none;stroke:#FFFFFF;}
	.st11{clip-path:url(#SVGID_4_);}
</style>
<g>
	<text transform="matrix(1 0 0 1 40.5 115.5396)"><tspan x="0" y="0" class="st0 st1 st2">One ma</tspan><tspan x="47.3" y="0" class="st0 st1 st2">n</tspan><tspan x="55" y="0" class="st0 st1 st2">’s vision in 1930 led to Americ</tspan><tspan x="243.4" y="0" class="st0 st1 st2">a</tspan><tspan x="250.6" y="0" class="st0 st1 st2">’s ﬁrst </tspan></text>
	<text transform="matrix(1 0 0 1 40.5 133.5396)"><tspan x="0" y="0" class="st0 st1 st2">insurance solution for jitney buses when eve</tspan><tspan x="275.1" y="0" class="st0 st1 st2">r</tspan><tspan x="280.4" y="0" class="st0 st1 st2">yone </tspan></text>
	<text transform="matrix(1 0 0 1 40.5 152.7397)"><tspan x="0" y="0" class="st0 st1 st2">said it could</tspan><tspan x="75.2" y="0" class="st0 st1 st2">n</tspan><tspan x="82.8" y="0" class="st0 st1 st2">’t be done successfully</tspan></text>
	<text transform="matrix(1 0 0 1 264.5664 152.7397)" class="st0 st1 st3"> </text>
	<text transform="matrix(1 0 0 1 440.3696 115.5396)"><tspan x="0" y="0" class="st0 st1 st2">F</tspan><tspan x="7.3" y="0" class="st0 st1 st2">acing scepticism and professional snobbe</tspan><tspan x="264.5" y="0" class="st0 st1 st2">r</tspan><tspan x="269.9" y="0" class="st0 st1 st2">y</tspan><tspan x="276.2" y="0" class="st0 st1 st2">, a </tspan></text>
	<text transform="matrix(1 0 0 1 440.3696 133.5396)" class="st0 st1 st2">business boldly creating the UK’s ﬁrst 24/7 legal </text>
	<text transform="matrix(1 0 0 1 440.3696 151.5396)"><tspan x="0" y="0" class="st0 st1 st2">helpline se</tspan><tspan x="67.2" y="0" class="st0 st1 st2">r</tspan><tspan x="72.6" y="0" class="st0 st1 st2">vice in the 1990’s – still the most </tspan></text>
	<text transform="matrix(1 0 0 1 440.3696 169.5396)" class="st0 st1 st2">successful today </text>
	<text transform="matrix(1 0 0 1 837.7344 115.5396)"><tspan x="0" y="0" class="st0 st1 st2">2 </tspan><tspan x="12.1" y="0" class="st0 st1 st2">A</tspan><tspan x="21.2" y="0" class="st0 st1 st2">ward-winning, experienced legal mavericks </tspan></text>
	<text transform="matrix(1 0 0 1 837.7344 133.5396)" class="st0 st1 st2">determined to build a better business for their </text>
	<text transform="matrix(1 0 0 1 837.7344 151.5396)"><tspan x="0" y="0" class="st0 st1 st2">clients, culminating in a new ﬁrm sta</tspan><tspan x="228.5" y="0" class="st0 st1 st2">r</tspan><tspan x="233.8" y="0" class="st0 st1 st2">ted [D</tspan><tspan x="271.4" y="0" class="st0 st1 st2">A</tspan><tspan x="280" y="0" class="st0 st1 st2">TE] </tspan></text>
	<rect x="838.2" y="40.5" class="st4" width="311.8" height="48.3"/>
	<rect x="838.2" y="40.5" class="st5" width="311.8" height="48.3"/>
	<rect x="40" y="40" class="st6" width="311.8" height="48.3"/>
	<polygon class="st7" points="210.5,44.7 200.6,48.6 200.6,75.1 210.5,75.1 	"/>
	<polygon class="st7" points="199.7,75.1 189.7,75.1 189.7,52.9 199.7,49 	"/>
	<polygon class="st7" points="178.9,57.2 178.9,75.1 188.9,75.1 188.9,53.3 	"/>
	<g>
		<path class="st7" d="M183.4,84.5h-1.6l-0.7-4.4l-0.3,4.4h-1.8l0.6-7.3h2.5l0.4,2.4c0,0.2,0.1,0.4,0.1,0.7c0,0.2,0.1,0.5,0.1,0.8
			c0-0.5,0.1-0.9,0.2-1.2l0.5-2.6h2.4l0.5,7.3h-1.7l-0.3-4.4L183.4,84.5z"/>
		<path class="st7" d="M189.7,82.1l-0.1-0.8c0,0,0,0,0-0.1c0-0.1,0-0.3-0.1-0.8c0-0.1,0-0.1,0-0.2c0-0.1,0-0.2,0-0.4l-0.1-0.7
			c0,0.1,0,0.1,0,0.2c0,0.1,0,0.2,0,0.3c0,0.2,0,0.3,0,0.4c0,0.1,0,0.1,0,0.1l-0.1,0.9l-0.2,1.1H189.7z M192.1,84.5h-2l-0.1-0.9
			h-1.3l-0.2,0.9h-2l1.7-7.3h2.4L192.1,84.5z"/>
		<path class="st7" d="M194.2,80.5h0.1c0.2,0,0.4-0.1,0.6-0.3c0.2-0.2,0.2-0.4,0.2-0.7c0-0.5-0.3-0.8-0.9-0.8h-0.1V80.5z
			 M197.4,84.5h-2.1l-1-2.6c0,0,0-0.1-0.1-0.2c0-0.1-0.1-0.2-0.1-0.3l0,0.5v2.5h-2v-7.3h2c0.9,0,1.5,0.2,2,0.5
			c0.6,0.4,0.8,1.1,0.8,1.9c0,0.9-0.4,1.5-1.1,1.8L197.4,84.5z"/>
	</g>
	<polygon class="st7" points="202.9,84.5 200.8,84.5 199.5,81.2 199.5,84.5 197.6,84.5 197.6,77.2 199.5,77.2 199.5,80.4 
		200.5,77.2 202.6,77.2 201.1,80.7 	"/>
	<polygon class="st7" points="203.1,84.5 203.1,77.2 206.7,77.2 206.7,78.9 205,78.9 205,79.9 206.4,79.9 206.4,81.6 205,81.6 
		205,82.8 206.7,82.8 206.7,84.5 	"/>
	<polygon class="st7" points="207.1,77.2 207.1,84.5 210.5,84.5 210.5,82.8 209,82.8 209,77.2 	"/>
	<g>
		<defs>
			<rect id="SVGID_1_" x="178.9" y="44.7" width="34" height="39.8"/>
		</defs>
		<clipPath id="SVGID_2_">
			<use xlink:href="#SVGID_1_"  style="overflow:visible;"/>
		</clipPath>
		<path class="st8" d="M210.8,78.5v-0.6h0.4c0.2,0,0.4,0,0.4,0.3c0,0.3-0.2,0.3-0.5,0.3H210.8z M210.8,78.8h0.3l0.5,0.8h0.3
			l-0.6-0.9c0.3,0,0.5-0.2,0.5-0.5c0-0.4-0.2-0.6-0.7-0.6h-0.7v2h0.3V78.8z M209.8,78.6c0-0.8,0.6-1.4,1.4-1.4
			c0.8,0,1.4,0.6,1.4,1.4c0,0.8-0.6,1.4-1.4,1.4C210.4,80.1,209.8,79.5,209.8,78.6 M209.5,78.6c0,1,0.8,1.7,1.7,1.7
			c0.9,0,1.7-0.7,1.7-1.7c0-1-0.8-1.7-1.7-1.7C210.2,77,209.5,77.7,209.5,78.6"/>
	</g>
	<rect x="439.4" y="40" class="st9" width="311.8" height="48.3"/>
	<polygon class="st7" points="555.3,71.3 544.7,66 534.2,71.2 544.8,77.6 	"/>
	<polygon class="st10" points="555.3,71.3 544.7,66 534.2,71.2 544.8,77.6 	"/>
	<polygon class="st7" points="555.3,58 545.5,52.1 545.5,64.8 555.3,69.7 	"/>
	<polygon class="st10" points="555.3,58 545.5,52.1 545.5,64.8 555.3,69.7 	"/>
	<polygon class="st7" points="534.2,58.1 544,52.3 544,64.9 534.2,69.7 	"/>
	<polygon class="st10" points="534.2,58.1 544,52.3 544,64.9 534.2,69.7 	"/>
	<g>
		<path class="st7" d="M568.8,59.9l-1.3-3.2l-1.4,3.2H568.8z M569,60.3h-3.1l-0.5,1.2c-0.1,0.3-0.2,0.5-0.2,0.7
			c0,0.1,0.1,0.2,0.2,0.3c0.1,0.1,0.4,0.2,0.7,0.2v0.2h-2.5v-0.2c0.3-0.1,0.5-0.1,0.6-0.2c0.2-0.2,0.4-0.6,0.7-1.1l2.8-6.5h0.2
			l2.7,6.5c0.2,0.5,0.4,0.9,0.6,1s0.4,0.2,0.8,0.3v0.2h-3.1v-0.2c0.3,0,0.5-0.1,0.6-0.2s0.2-0.2,0.2-0.3c0-0.2-0.1-0.4-0.2-0.8
			L569,60.3z"/>
		<path class="st10" d="M568.8,59.9l-1.3-3.2l-1.4,3.2H568.8z M569,60.3h-3.1l-0.5,1.2c-0.1,0.3-0.2,0.5-0.2,0.7
			c0,0.1,0.1,0.2,0.2,0.3c0.1,0.1,0.4,0.2,0.7,0.2v0.2h-2.5v-0.2c0.3-0.1,0.5-0.1,0.6-0.2c0.2-0.2,0.4-0.6,0.7-1.1l2.8-6.5h0.2
			l2.7,6.5c0.2,0.5,0.4,0.9,0.6,1s0.4,0.2,0.8,0.3v0.2h-3.1v-0.2c0.3,0,0.5-0.1,0.6-0.2s0.2-0.2,0.2-0.3c0-0.2-0.1-0.4-0.2-0.8
			L569,60.3z"/>
		<path class="st7" d="M575.4,62.4c0.5,0.1,0.9,0.2,1.3,0.2c0.7,0,1.2-0.2,1.6-0.5c0.4-0.3,0.6-0.7,0.6-1.2c0-0.3-0.1-0.6-0.3-0.9
			c-0.2-0.3-0.4-0.5-0.8-0.7c-0.4-0.2-0.8-0.2-1.4-0.2c-0.2,0-0.4,0-0.6,0c-0.2,0-0.3,0-0.4,0V62.4z M575.4,58.6
			c0.1,0,0.3,0,0.5,0.1c0.2,0,0.4,0,0.6,0c0.6,0,1-0.1,1.3-0.2c0.3-0.1,0.5-0.3,0.7-0.6c0.2-0.3,0.2-0.5,0.2-0.8
			c0-0.5-0.2-0.8-0.6-1.2c-0.4-0.3-0.9-0.5-1.6-0.5c-0.4,0-0.7,0-1,0.1V58.6z M578.4,58.9c0.5,0.1,1,0.3,1.2,0.6
			c0.4,0.4,0.6,0.8,0.6,1.3c0,0.4-0.1,0.8-0.4,1.1c-0.2,0.4-0.6,0.6-1,0.8c-0.4,0.2-1.1,0.2-2,0.2h-3.7v-0.2h0.3
			c0.3,0,0.6-0.1,0.7-0.3c0.1-0.1,0.1-0.4,0.1-0.9v-5.1c0-0.5-0.1-0.8-0.2-0.9c-0.1-0.2-0.4-0.3-0.7-0.3h-0.3v-0.2h3.4
			c0.6,0,1.1,0,1.5,0.1c0.6,0.1,1,0.4,1.3,0.7s0.5,0.8,0.5,1.2c0,0.4-0.1,0.7-0.4,1.1C579.2,58.5,578.9,58.7,578.4,58.9"/>
		<path class="st10" d="M575.4,62.4c0.5,0.1,0.9,0.2,1.3,0.2c0.7,0,1.2-0.2,1.6-0.5c0.4-0.3,0.6-0.7,0.6-1.2c0-0.3-0.1-0.6-0.3-0.9
			c-0.2-0.3-0.4-0.5-0.8-0.7c-0.4-0.2-0.8-0.2-1.4-0.2c-0.2,0-0.4,0-0.6,0c-0.2,0-0.3,0-0.4,0V62.4z M575.4,58.6
			c0.1,0,0.3,0,0.5,0.1c0.2,0,0.4,0,0.6,0c0.6,0,1-0.1,1.3-0.2c0.3-0.1,0.5-0.3,0.7-0.6c0.2-0.3,0.2-0.5,0.2-0.8
			c0-0.5-0.2-0.8-0.6-1.2c-0.4-0.3-0.9-0.5-1.6-0.5c-0.4,0-0.7,0-1,0.1V58.6z M578.4,58.9c0.5,0.1,1,0.3,1.2,0.6
			c0.4,0.4,0.6,0.8,0.6,1.3c0,0.4-0.1,0.8-0.4,1.1c-0.2,0.4-0.6,0.6-1,0.8c-0.4,0.2-1.1,0.2-2,0.2h-3.7v-0.2h0.3
			c0.3,0,0.6-0.1,0.7-0.3c0.1-0.1,0.1-0.4,0.1-0.9v-5.1c0-0.5-0.1-0.8-0.2-0.9c-0.1-0.2-0.4-0.3-0.7-0.3h-0.3v-0.2h3.4
			c0.6,0,1.1,0,1.5,0.1c0.6,0.1,1,0.4,1.3,0.7s0.5,0.8,0.5,1.2c0,0.4-0.1,0.7-0.4,1.1C579.2,58.5,578.9,58.7,578.4,58.9z"/>
		<path class="st7" d="M584.1,62.4c0.5,0.1,0.9,0.2,1.3,0.2c0.7,0,1.2-0.2,1.6-0.5c0.4-0.3,0.6-0.7,0.6-1.2c0-0.3-0.1-0.6-0.3-0.9
			c-0.2-0.3-0.4-0.5-0.8-0.7c-0.4-0.2-0.8-0.2-1.4-0.2c-0.2,0-0.4,0-0.6,0c-0.2,0-0.3,0-0.4,0V62.4z M584.1,58.6
			c0.1,0,0.3,0,0.5,0.1c0.2,0,0.4,0,0.6,0c0.6,0,1-0.1,1.3-0.2c0.3-0.1,0.5-0.3,0.7-0.6c0.2-0.3,0.2-0.5,0.2-0.8
			c0-0.5-0.2-0.8-0.6-1.2c-0.4-0.3-0.9-0.5-1.6-0.5c-0.4,0-0.7,0-1,0.1V58.6z M587.1,58.9c0.5,0.1,1,0.3,1.2,0.6
			c0.4,0.4,0.6,0.8,0.6,1.3c0,0.4-0.1,0.8-0.4,1.1c-0.2,0.4-0.6,0.6-1,0.8c-0.4,0.2-1.1,0.2-2,0.2h-3.7v-0.2h0.3
			c0.3,0,0.6-0.1,0.7-0.3c0.1-0.1,0.1-0.4,0.1-0.9v-5.1c0-0.5-0.1-0.8-0.2-0.9c-0.1-0.2-0.4-0.3-0.7-0.3h-0.3v-0.2h3.4
			c0.6,0,1.1,0,1.5,0.1c0.6,0.1,1,0.4,1.3,0.7s0.5,0.8,0.5,1.2c0,0.4-0.1,0.7-0.4,1.1C588,58.5,587.6,58.7,587.1,58.9"/>
		<path class="st10" d="M584.1,62.4c0.5,0.1,0.9,0.2,1.3,0.2c0.7,0,1.2-0.2,1.6-0.5c0.4-0.3,0.6-0.7,0.6-1.2c0-0.3-0.1-0.6-0.3-0.9
			c-0.2-0.3-0.4-0.5-0.8-0.7c-0.4-0.2-0.8-0.2-1.4-0.2c-0.2,0-0.4,0-0.6,0c-0.2,0-0.3,0-0.4,0V62.4z M584.1,58.6
			c0.1,0,0.3,0,0.5,0.1c0.2,0,0.4,0,0.6,0c0.6,0,1-0.1,1.3-0.2c0.3-0.1,0.5-0.3,0.7-0.6c0.2-0.3,0.2-0.5,0.2-0.8
			c0-0.5-0.2-0.8-0.6-1.2c-0.4-0.3-0.9-0.5-1.6-0.5c-0.4,0-0.7,0-1,0.1V58.6z M587.1,58.9c0.5,0.1,1,0.3,1.2,0.6
			c0.4,0.4,0.6,0.8,0.6,1.3c0,0.4-0.1,0.8-0.4,1.1c-0.2,0.4-0.6,0.6-1,0.8c-0.4,0.2-1.1,0.2-2,0.2h-3.7v-0.2h0.3
			c0.3,0,0.6-0.1,0.7-0.3c0.1-0.1,0.1-0.4,0.1-0.9v-5.1c0-0.5-0.1-0.8-0.2-0.9c-0.1-0.2-0.4-0.3-0.7-0.3h-0.3v-0.2h3.4
			c0.6,0,1.1,0,1.5,0.1c0.6,0.1,1,0.4,1.3,0.7s0.5,0.8,0.5,1.2c0,0.4-0.1,0.7-0.4,1.1C588,58.5,587.6,58.7,587.1,58.9z"/>
		<path class="st7" d="M592.9,55.5v3.1h1.7c0.5,0,0.8-0.1,0.9-0.2c0.2-0.2,0.3-0.5,0.3-0.9h0.2v2.7h-0.2c-0.1-0.4-0.1-0.6-0.2-0.7
			c-0.1-0.1-0.2-0.2-0.3-0.3s-0.4-0.1-0.7-0.1h-1.7v2.6c0,0.3,0,0.6,0,0.6c0,0.1,0.1,0.1,0.2,0.2c0.1,0,0.2,0.1,0.4,0.1h1.3
			c0.4,0,0.8,0,1-0.1c0.2-0.1,0.4-0.2,0.6-0.4c0.2-0.2,0.5-0.6,0.7-1.1h0.2l-0.7,2h-6.1v-0.2h0.3c0.2,0,0.4,0,0.5-0.1
			c0.1-0.1,0.2-0.2,0.3-0.3c0-0.1,0.1-0.4,0.1-0.8v-5.1c0-0.5,0-0.8-0.1-0.9c-0.1-0.2-0.4-0.2-0.7-0.2h-0.3v-0.2h6.1l0.1,1.7h-0.2
			c-0.1-0.4-0.2-0.7-0.3-0.9c-0.1-0.2-0.2-0.3-0.4-0.4c-0.2-0.1-0.4-0.1-0.8-0.1H592.9z"/>
		<path class="st10" d="M592.9,55.5v3.1h1.7c0.5,0,0.8-0.1,0.9-0.2c0.2-0.2,0.3-0.5,0.3-0.9h0.2v2.7h-0.2c-0.1-0.4-0.1-0.6-0.2-0.7
			c-0.1-0.1-0.2-0.2-0.3-0.3s-0.4-0.1-0.7-0.1h-1.7v2.6c0,0.3,0,0.6,0,0.6c0,0.1,0.1,0.1,0.2,0.2c0.1,0,0.2,0.1,0.4,0.1h1.3
			c0.4,0,0.8,0,1-0.1c0.2-0.1,0.4-0.2,0.6-0.4c0.2-0.2,0.5-0.6,0.7-1.1h0.2l-0.7,2h-6.1v-0.2h0.3c0.2,0,0.4,0,0.5-0.1
			c0.1-0.1,0.2-0.2,0.3-0.3c0-0.1,0.1-0.4,0.1-0.8v-5.1c0-0.5,0-0.8-0.1-0.9c-0.1-0.2-0.4-0.2-0.7-0.2h-0.3v-0.2h6.1l0.1,1.7h-0.2
			c-0.1-0.4-0.2-0.7-0.3-0.9c-0.1-0.2-0.2-0.3-0.4-0.4c-0.2-0.1-0.4-0.1-0.8-0.1H592.9z"/>
		<path class="st7" d="M604.2,55.1h2.7v0.2h-0.1c-0.1,0-0.2,0-0.4,0.1s-0.4,0.2-0.5,0.4c-0.2,0.2-0.4,0.4-0.6,0.8l-1.9,3v2
			c0,0.5,0.1,0.8,0.2,0.9c0.1,0.2,0.4,0.2,0.7,0.2h0.3v0.2h-3.4v-0.2h0.3c0.3,0,0.6-0.1,0.7-0.3c0.1-0.1,0.1-0.4,0.1-0.9v-1.8
			l-2.1-3.3c-0.3-0.4-0.4-0.6-0.5-0.7c-0.1-0.1-0.3-0.2-0.6-0.3c-0.1,0-0.2-0.1-0.3-0.1v-0.2h3.4v0.2h-0.2c-0.2,0-0.3,0-0.5,0.1
			c-0.2,0.1-0.2,0.2-0.2,0.4c0,0.1,0.1,0.4,0.4,0.8l1.6,2.5l1.5-2.4c0.2-0.4,0.3-0.6,0.3-0.8c0-0.1,0-0.2-0.1-0.3
			c-0.1-0.1-0.1-0.2-0.2-0.2c-0.1,0-0.3-0.1-0.5-0.1V55.1z"/>
		<path class="st10" d="M604.2,55.1h2.7v0.2h-0.1c-0.1,0-0.2,0-0.4,0.1s-0.4,0.2-0.5,0.4c-0.2,0.2-0.4,0.4-0.6,0.8l-1.9,3v2
			c0,0.5,0.1,0.8,0.2,0.9c0.1,0.2,0.4,0.2,0.7,0.2h0.3v0.2h-3.4v-0.2h0.3c0.3,0,0.6-0.1,0.7-0.3c0.1-0.1,0.1-0.4,0.1-0.9v-1.8
			l-2.1-3.3c-0.3-0.4-0.4-0.6-0.5-0.7c-0.1-0.1-0.3-0.2-0.6-0.3c-0.1,0-0.2-0.1-0.3-0.1v-0.2h3.4v0.2h-0.2c-0.2,0-0.3,0-0.5,0.1
			c-0.2,0.1-0.2,0.2-0.2,0.4c0,0.1,0.1,0.4,0.4,0.8l1.6,2.5l1.5-2.4c0.2-0.4,0.3-0.6,0.3-0.8c0-0.1,0-0.2-0.1-0.3
			c-0.1-0.1-0.1-0.2-0.2-0.2c-0.1,0-0.3-0.1-0.5-0.1V55.1z"/>
		<path class="st7" d="M618,60.7l0.2,0l-0.7,2.1h-6.1v-0.2h0.3c0.3,0,0.6-0.1,0.7-0.3c0.1-0.1,0.1-0.4,0.1-0.9v-5.1
			c0-0.5-0.1-0.8-0.2-0.9c-0.1-0.2-0.4-0.3-0.7-0.3h-0.3v-0.2h3.6v0.2c-0.4,0-0.7,0-0.9,0.1c-0.2,0.1-0.3,0.2-0.3,0.3
			c-0.1,0.1-0.1,0.4-0.1,0.9v4.9c0,0.3,0,0.5,0.1,0.7c0,0.1,0.1,0.1,0.2,0.2c0.1,0,0.4,0.1,0.9,0.1h0.6c0.6,0,1,0,1.3-0.1
			c0.2-0.1,0.5-0.2,0.7-0.5C617.6,61.6,617.8,61.2,618,60.7"/>
		<path class="st10" d="M618,60.7l0.2,0l-0.7,2.1h-6.1v-0.2h0.3c0.3,0,0.6-0.1,0.7-0.3c0.1-0.1,0.1-0.4,0.1-0.9v-5.1
			c0-0.5-0.1-0.8-0.2-0.9c-0.1-0.2-0.4-0.3-0.7-0.3h-0.3v-0.2h3.6v0.2c-0.4,0-0.7,0-0.9,0.1c-0.2,0.1-0.3,0.2-0.3,0.3
			c-0.1,0.1-0.1,0.4-0.1,0.9v4.9c0,0.3,0,0.5,0.1,0.7c0,0.1,0.1,0.1,0.2,0.2c0.1,0,0.4,0.1,0.9,0.1h0.6c0.6,0,1,0,1.3-0.1
			c0.2-0.1,0.5-0.2,0.7-0.5C617.6,61.6,617.8,61.2,618,60.7z"/>
		<path class="st7" d="M621.8,55.5v3.1h1.7c0.5,0,0.8-0.1,0.9-0.2c0.2-0.2,0.3-0.5,0.3-0.9h0.2v2.7h-0.2c-0.1-0.4-0.1-0.6-0.2-0.7
			c-0.1-0.1-0.2-0.2-0.3-0.3s-0.4-0.1-0.7-0.1h-1.7v2.6c0,0.3,0,0.6,0,0.6c0,0.1,0.1,0.1,0.2,0.2c0.1,0,0.2,0.1,0.4,0.1h1.3
			c0.4,0,0.8,0,1-0.1c0.2-0.1,0.4-0.2,0.6-0.4c0.2-0.2,0.5-0.6,0.7-1.1h0.2l-0.7,2h-6.1v-0.2h0.3c0.2,0,0.4,0,0.5-0.1
			c0.1-0.1,0.2-0.2,0.3-0.3c0-0.1,0.1-0.4,0.1-0.8v-5.1c0-0.5,0-0.8-0.1-0.9c-0.1-0.2-0.4-0.2-0.7-0.2h-0.3v-0.2h6.1l0.1,1.7h-0.2
			c-0.1-0.4-0.2-0.7-0.3-0.9c-0.1-0.2-0.2-0.3-0.4-0.4c-0.2-0.1-0.4-0.1-0.8-0.1H621.8z"/>
		<path class="st10" d="M621.8,55.5v3.1h1.7c0.5,0,0.8-0.1,0.9-0.2c0.2-0.2,0.3-0.5,0.3-0.9h0.2v2.7h-0.2c-0.1-0.4-0.1-0.6-0.2-0.7
			c-0.1-0.1-0.2-0.2-0.3-0.3s-0.4-0.1-0.7-0.1h-1.7v2.6c0,0.3,0,0.6,0,0.6c0,0.1,0.1,0.1,0.2,0.2c0.1,0,0.2,0.1,0.4,0.1h1.3
			c0.4,0,0.8,0,1-0.1c0.2-0.1,0.4-0.2,0.6-0.4c0.2-0.2,0.5-0.6,0.7-1.1h0.2l-0.7,2h-6.1v-0.2h0.3c0.2,0,0.4,0,0.5-0.1
			c0.1-0.1,0.2-0.2,0.3-0.3c0-0.1,0.1-0.4,0.1-0.8v-5.1c0-0.5,0-0.8-0.1-0.9c-0.1-0.2-0.4-0.2-0.7-0.2h-0.3v-0.2h6.1l0.1,1.7h-0.2
			c-0.1-0.4-0.2-0.7-0.3-0.9c-0.1-0.2-0.2-0.3-0.4-0.4c-0.2-0.1-0.4-0.1-0.8-0.1H621.8z"/>
		<path class="st7" d="M634.7,54.9l0.2,2.5h-0.2c-0.2-0.6-0.5-1.1-0.8-1.4c-0.5-0.5-1.1-0.7-1.8-0.7c-1,0-1.8,0.4-2.3,1.2
			c-0.4,0.7-0.7,1.5-0.7,2.4c0,0.8,0.1,1.4,0.4,2.1c0.3,0.6,0.7,1.1,1.1,1.4c0.5,0.3,1,0.4,1.4,0.4c0.3,0,0.6,0,0.8-0.1
			c0.3-0.1,0.5-0.2,0.8-0.3V60c0-0.4,0-0.7-0.1-0.8c-0.1-0.1-0.2-0.2-0.3-0.3c-0.1-0.1-0.3-0.1-0.7-0.1v-0.2h3v0.2h-0.1
			c-0.3,0-0.5,0.1-0.6,0.3c-0.1,0.1-0.1,0.4-0.1,0.9v2.4c-0.4,0.2-0.9,0.4-1.3,0.5c-0.4,0.1-0.9,0.2-1.4,0.2c-1.5,0-2.7-0.5-3.5-1.5
			c-0.6-0.7-0.9-1.6-0.9-2.5c0-0.7,0.2-1.4,0.5-2c0.4-0.8,0.9-1.3,1.6-1.7c0.6-0.3,1.3-0.5,2-0.5c0.3,0,0.5,0,0.8,0.1
			c0.2,0,0.6,0.1,1,0.3c0.2,0.1,0.4,0.1,0.4,0.1s0.1,0,0.2-0.1c0.1-0.1,0.1-0.2,0.1-0.4H634.7z"/>
		<path class="st10" d="M634.7,54.9l0.2,2.5h-0.2c-0.2-0.6-0.5-1.1-0.8-1.4c-0.5-0.5-1.1-0.7-1.8-0.7c-1,0-1.8,0.4-2.3,1.2
			c-0.4,0.7-0.7,1.5-0.7,2.4c0,0.8,0.1,1.4,0.4,2.1c0.3,0.6,0.7,1.1,1.1,1.4c0.5,0.3,1,0.4,1.4,0.4c0.3,0,0.6,0,0.8-0.1
			c0.3-0.1,0.5-0.2,0.8-0.3V60c0-0.4,0-0.7-0.1-0.8c-0.1-0.1-0.2-0.2-0.3-0.3c-0.1-0.1-0.3-0.1-0.7-0.1v-0.2h3v0.2h-0.1
			c-0.3,0-0.5,0.1-0.6,0.3c-0.1,0.1-0.1,0.4-0.1,0.9v2.4c-0.4,0.2-0.9,0.4-1.3,0.5c-0.4,0.1-0.9,0.2-1.4,0.2c-1.5,0-2.7-0.5-3.5-1.5
			c-0.6-0.7-0.9-1.6-0.9-2.5c0-0.7,0.2-1.4,0.5-2c0.4-0.8,0.9-1.3,1.6-1.7c0.6-0.3,1.3-0.5,2-0.5c0.3,0,0.5,0,0.8,0.1
			c0.2,0,0.6,0.1,1,0.3c0.2,0.1,0.4,0.1,0.4,0.1s0.1,0,0.2-0.1c0.1-0.1,0.1-0.2,0.1-0.4H634.7z"/>
		<path class="st7" d="M642,59.9l-1.3-3.2l-1.4,3.2H642z M642.2,60.3h-3.1l-0.5,1.2c-0.1,0.3-0.2,0.5-0.2,0.7c0,0.1,0.1,0.2,0.2,0.3
			c0.1,0.1,0.4,0.2,0.7,0.2v0.2h-2.5v-0.2c0.3-0.1,0.5-0.1,0.6-0.2c0.2-0.2,0.4-0.6,0.7-1.1l2.8-6.5h0.2l2.7,6.5
			c0.2,0.5,0.4,0.9,0.6,1c0.2,0.2,0.4,0.2,0.8,0.3v0.2h-3.1v-0.2c0.3,0,0.5-0.1,0.6-0.2s0.2-0.2,0.2-0.3c0-0.2-0.1-0.4-0.2-0.8
			L642.2,60.3z"/>
		<path class="st10" d="M642,59.9l-1.3-3.2l-1.4,3.2H642z M642.2,60.3h-3.1l-0.5,1.2c-0.1,0.3-0.2,0.5-0.2,0.7
			c0,0.1,0.1,0.2,0.2,0.3c0.1,0.1,0.4,0.2,0.7,0.2v0.2h-2.5v-0.2c0.3-0.1,0.5-0.1,0.6-0.2c0.2-0.2,0.4-0.6,0.7-1.1l2.8-6.5h0.2
			l2.7,6.5c0.2,0.5,0.4,0.9,0.6,1c0.2,0.2,0.4,0.2,0.8,0.3v0.2h-3.1v-0.2c0.3,0,0.5-0.1,0.6-0.2s0.2-0.2,0.2-0.3
			c0-0.2-0.1-0.4-0.2-0.8L642.2,60.3z"/>
		<path class="st7" d="M653,60.7l0.2,0l-0.7,2.1h-6.1v-0.2h0.3c0.3,0,0.6-0.1,0.7-0.3c0.1-0.1,0.1-0.4,0.1-0.9v-5.1
			c0-0.5-0.1-0.8-0.2-0.9c-0.1-0.2-0.4-0.3-0.7-0.3h-0.3v-0.2h3.6v0.2c-0.4,0-0.7,0-0.9,0.1c-0.2,0.1-0.3,0.2-0.3,0.3
			c-0.1,0.1-0.1,0.4-0.1,0.9v4.9c0,0.3,0,0.5,0.1,0.7c0,0.1,0.1,0.1,0.2,0.2c0.1,0,0.4,0.1,0.9,0.1h0.6c0.6,0,1,0,1.3-0.1
			c0.2-0.1,0.5-0.2,0.7-0.5C652.6,61.6,652.8,61.2,653,60.7"/>
		<path class="st10" d="M653,60.7l0.2,0l-0.7,2.1h-6.1v-0.2h0.3c0.3,0,0.6-0.1,0.7-0.3c0.1-0.1,0.1-0.4,0.1-0.9v-5.1
			c0-0.5-0.1-0.8-0.2-0.9c-0.1-0.2-0.4-0.3-0.7-0.3h-0.3v-0.2h3.6v0.2c-0.4,0-0.7,0-0.9,0.1c-0.2,0.1-0.3,0.2-0.3,0.3
			c-0.1,0.1-0.1,0.4-0.1,0.9v4.9c0,0.3,0,0.5,0.1,0.7c0,0.1,0.1,0.1,0.2,0.2c0.1,0,0.4,0.1,0.9,0.1h0.6c0.6,0,1,0,1.3-0.1
			c0.2-0.1,0.5-0.2,0.7-0.5C652.6,61.6,652.8,61.2,653,60.7z"/>
		<path class="st7" d="M566,70.8c0.2,0,0.4,0.1,0.5,0.1c0.2,0,0.3,0,0.4,0c0.4,0,0.7-0.2,1-0.5c0.3-0.3,0.4-0.7,0.4-1.2
			c0-0.3-0.1-0.7-0.2-0.9c-0.1-0.3-0.3-0.5-0.6-0.7c-0.3-0.1-0.5-0.2-0.9-0.2c-0.2,0-0.5,0-0.8,0.1V70.8z M566,71.1v2.3
			c0,0.5,0.1,0.8,0.2,0.9c0.1,0.2,0.4,0.3,0.7,0.3h0.3v0.2h-3.4v-0.2h0.3c0.3,0,0.6-0.1,0.7-0.3c0.1-0.1,0.1-0.4,0.1-0.9v-5.1
			c0-0.5-0.1-0.8-0.2-0.9c-0.2-0.2-0.4-0.3-0.7-0.3h-0.3v-0.2h2.9c0.7,0,1.3,0.1,1.7,0.2c0.4,0.1,0.7,0.4,1,0.7
			c0.3,0.3,0.4,0.8,0.4,1.2c0,0.6-0.2,1.2-0.6,1.6c-0.4,0.4-1,0.6-1.8,0.6c-0.2,0-0.4,0-0.6,0C566.5,71.2,566.2,71.2,566,71.1"/>
		<path class="st10" d="M566,70.8c0.2,0,0.4,0.1,0.5,0.1c0.2,0,0.3,0,0.4,0c0.4,0,0.7-0.2,1-0.5c0.3-0.3,0.4-0.7,0.4-1.2
			c0-0.3-0.1-0.7-0.2-0.9c-0.1-0.3-0.3-0.5-0.6-0.7c-0.3-0.1-0.5-0.2-0.9-0.2c-0.2,0-0.5,0-0.8,0.1V70.8z M566,71.1v2.3
			c0,0.5,0.1,0.8,0.2,0.9c0.1,0.2,0.4,0.3,0.7,0.3h0.3v0.2h-3.4v-0.2h0.3c0.3,0,0.6-0.1,0.7-0.3c0.1-0.1,0.1-0.4,0.1-0.9v-5.1
			c0-0.5-0.1-0.8-0.2-0.9c-0.2-0.2-0.4-0.3-0.7-0.3h-0.3v-0.2h2.9c0.7,0,1.3,0.1,1.7,0.2c0.4,0.1,0.7,0.4,1,0.7
			c0.3,0.3,0.4,0.8,0.4,1.2c0,0.6-0.2,1.2-0.6,1.6c-0.4,0.4-1,0.6-1.8,0.6c-0.2,0-0.4,0-0.6,0C566.5,71.2,566.2,71.2,566,71.1z"/>
		<path class="st7" d="M574.2,70.8c0.1,0,0.1,0,0.2,0c0.1,0,0.1,0,0.1,0c0.7,0,1.3-0.2,1.7-0.5c0.4-0.3,0.6-0.7,0.6-1.2
			c0-0.5-0.2-0.9-0.5-1.2c-0.3-0.3-0.7-0.5-1.2-0.5c-0.2,0-0.5,0-0.9,0.1V70.8z M579.8,74.8h-2.1l-2.7-3.7c-0.2,0-0.4,0-0.5,0
			c0,0-0.1,0-0.2,0c-0.1,0-0.1,0-0.2,0v2.3c0,0.5,0.1,0.8,0.2,0.9c0.1,0.2,0.4,0.3,0.7,0.3h0.3v0.2H572v-0.2h0.3
			c0.3,0,0.6-0.1,0.7-0.3c0.1-0.1,0.1-0.4,0.1-0.9v-5.1c0-0.5-0.1-0.8-0.2-0.9c-0.1-0.2-0.4-0.3-0.7-0.3H572v-0.2h2.9
			c0.8,0,1.4,0.1,1.8,0.2c0.4,0.1,0.7,0.3,1,0.7s0.4,0.7,0.4,1.2c0,0.5-0.2,0.9-0.5,1.3c-0.3,0.4-0.8,0.6-1.5,0.8l1.6,2.3
			c0.4,0.5,0.7,0.9,1,1s0.6,0.3,1,0.3V74.8z"/>
		<path class="st10" d="M574.2,70.8c0.1,0,0.1,0,0.2,0c0.1,0,0.1,0,0.1,0c0.7,0,1.3-0.2,1.7-0.5c0.4-0.3,0.6-0.7,0.6-1.2
			c0-0.5-0.2-0.9-0.5-1.2c-0.3-0.3-0.7-0.5-1.2-0.5c-0.2,0-0.5,0-0.9,0.1V70.8z M579.8,74.8h-2.1l-2.7-3.7c-0.2,0-0.4,0-0.5,0
			c0,0-0.1,0-0.2,0c-0.1,0-0.1,0-0.2,0v2.3c0,0.5,0.1,0.8,0.2,0.9c0.1,0.2,0.4,0.3,0.7,0.3h0.3v0.2H572v-0.2h0.3
			c0.3,0,0.6-0.1,0.7-0.3c0.1-0.1,0.1-0.4,0.1-0.9v-5.1c0-0.5-0.1-0.8-0.2-0.9c-0.1-0.2-0.4-0.3-0.7-0.3H572v-0.2h2.9
			c0.8,0,1.4,0.1,1.8,0.2c0.4,0.1,0.7,0.3,1,0.7s0.4,0.7,0.4,1.2c0,0.5-0.2,0.9-0.5,1.3c-0.3,0.4-0.8,0.6-1.5,0.8l1.6,2.3
			c0.4,0.5,0.7,0.9,1,1s0.6,0.3,1,0.3V74.8z"/>
		<path class="st7" d="M585.6,67.2c-0.7,0-1.3,0.3-1.7,0.8c-0.5,0.7-0.8,1.6-0.8,2.9c0,1.3,0.3,2.3,0.8,3c0.4,0.5,1,0.8,1.7,0.8
			c0.7,0,1.3-0.3,1.8-0.9c0.5-0.6,0.7-1.5,0.7-2.7c0-1.3-0.3-2.4-0.8-3C586.9,67.4,586.3,67.2,585.6,67.2 M585.7,66.7
			c1,0,1.9,0.4,2.7,1.2c0.7,0.8,1.1,1.7,1.1,2.9c0,1.2-0.4,2.2-1.1,3c-0.8,0.8-1.7,1.2-2.7,1.2c-1.1,0-2-0.4-2.7-1.2
			c-0.7-0.8-1.1-1.8-1.1-3c0-1.2,0.4-2.3,1.3-3.1C583.8,67.1,584.7,66.7,585.7,66.7"/>
		<path class="st10" d="M585.6,67.2c-0.7,0-1.3,0.3-1.7,0.8c-0.5,0.7-0.8,1.6-0.8,2.9c0,1.3,0.3,2.3,0.8,3c0.4,0.5,1,0.8,1.7,0.8
			c0.7,0,1.3-0.3,1.8-0.9c0.5-0.6,0.7-1.5,0.7-2.7c0-1.3-0.3-2.4-0.8-3C586.9,67.4,586.3,67.2,585.6,67.2z M585.7,66.7
			c1,0,1.9,0.4,2.7,1.2c0.7,0.8,1.1,1.7,1.1,2.9c0,1.2-0.4,2.2-1.1,3c-0.8,0.8-1.7,1.2-2.7,1.2c-1.1,0-2-0.4-2.7-1.2
			c-0.7-0.8-1.1-1.8-1.1-3c0-1.2,0.4-2.3,1.3-3.1C583.8,67.1,584.7,66.7,585.7,66.7z"/>
		<path class="st7" d="M598.4,66.9l0.1,1.8h-0.2c0-0.3-0.1-0.6-0.2-0.7c-0.1-0.2-0.3-0.4-0.5-0.5c-0.2-0.1-0.5-0.2-0.8-0.2h-1.1v6
			c0,0.5,0.1,0.8,0.2,0.9c0.1,0.2,0.4,0.2,0.7,0.2h0.3v0.2h-3.3v-0.2h0.3c0.3,0,0.6-0.1,0.7-0.3c0.1-0.1,0.1-0.4,0.1-0.9v-6h-0.9
			c-0.4,0-0.6,0-0.8,0.1c-0.2,0.1-0.4,0.2-0.5,0.4c-0.1,0.2-0.2,0.5-0.3,0.8h-0.2l0.1-1.8H598.4z"/>
		<path class="st10" d="M598.4,66.9l0.1,1.8h-0.2c0-0.3-0.1-0.6-0.2-0.7c-0.1-0.2-0.3-0.4-0.5-0.5c-0.2-0.1-0.5-0.2-0.8-0.2h-1.1v6
			c0,0.5,0.1,0.8,0.2,0.9c0.1,0.2,0.4,0.2,0.7,0.2h0.3v0.2h-3.3v-0.2h0.3c0.3,0,0.6-0.1,0.7-0.3c0.1-0.1,0.1-0.4,0.1-0.9v-6h-0.9
			c-0.4,0-0.6,0-0.8,0.1c-0.2,0.1-0.4,0.2-0.5,0.4c-0.1,0.2-0.2,0.5-0.3,0.8h-0.2l0.1-1.8H598.4z"/>
		<path class="st7" d="M603,67.3v3.1h1.7c0.5,0,0.8-0.1,0.9-0.2c0.2-0.2,0.3-0.5,0.3-0.9h0.2v2.7h-0.2c-0.1-0.4-0.1-0.6-0.2-0.7
			c-0.1-0.1-0.2-0.2-0.3-0.3s-0.4-0.1-0.7-0.1H603v2.6c0,0.3,0,0.6,0,0.6c0,0.1,0.1,0.1,0.2,0.2c0.1,0,0.2,0.1,0.4,0.1h1.3
			c0.4,0,0.8,0,1-0.1c0.2-0.1,0.4-0.2,0.6-0.4c0.2-0.2,0.5-0.6,0.7-1.1h0.2l-0.7,2h-6.1v-0.2h0.3c0.2,0,0.4,0,0.5-0.1
			c0.1-0.1,0.2-0.2,0.3-0.3c0-0.1,0.1-0.4,0.1-0.8v-5.1c0-0.5,0-0.8-0.1-0.9c-0.1-0.2-0.4-0.2-0.7-0.2h-0.3v-0.2h6.1l0.1,1.7h-0.2
			c-0.1-0.4-0.2-0.7-0.3-0.9c-0.1-0.2-0.2-0.3-0.4-0.4c-0.2-0.1-0.4-0.1-0.8-0.1H603z"/>
		<path class="st10" d="M603,67.3v3.1h1.7c0.5,0,0.8-0.1,0.9-0.2c0.2-0.2,0.3-0.5,0.3-0.9h0.2v2.7h-0.2c-0.1-0.4-0.1-0.6-0.2-0.7
			c-0.1-0.1-0.2-0.2-0.3-0.3s-0.4-0.1-0.7-0.1H603v2.6c0,0.3,0,0.6,0,0.6c0,0.1,0.1,0.1,0.2,0.2c0.1,0,0.2,0.1,0.4,0.1h1.3
			c0.4,0,0.8,0,1-0.1c0.2-0.1,0.4-0.2,0.6-0.4c0.2-0.2,0.5-0.6,0.7-1.1h0.2l-0.7,2h-6.1v-0.2h0.3c0.2,0,0.4,0,0.5-0.1
			c0.1-0.1,0.2-0.2,0.3-0.3c0-0.1,0.1-0.4,0.1-0.8v-5.1c0-0.5,0-0.8-0.1-0.9c-0.1-0.2-0.4-0.2-0.7-0.2h-0.3v-0.2h6.1l0.1,1.7h-0.2
			c-0.1-0.4-0.2-0.7-0.3-0.9c-0.1-0.2-0.2-0.3-0.4-0.4c-0.2-0.1-0.4-0.1-0.8-0.1H603z"/>
		<path class="st7" d="M616.5,66.7l0.2,2.7h-0.2c-0.2-0.8-0.6-1.4-1-1.7c-0.4-0.4-1-0.5-1.6-0.5c-0.5,0-1,0.1-1.4,0.4
			c-0.4,0.3-0.8,0.7-1,1.3c-0.2,0.6-0.4,1.3-0.4,2.2c0,0.7,0.1,1.3,0.3,1.9c0.2,0.5,0.6,0.9,1,1.2c0.5,0.3,1,0.4,1.6,0.4
			c0.5,0,1-0.1,1.3-0.3c0.4-0.2,0.8-0.7,1.3-1.3l0.2,0.1c-0.4,0.7-0.9,1.2-1.4,1.5c-0.5,0.3-1.1,0.5-1.9,0.5c-1.3,0-2.3-0.5-3-1.4
			c-0.5-0.7-0.8-1.6-0.8-2.5c0-0.8,0.2-1.5,0.5-2.2c0.4-0.7,0.8-1.2,1.4-1.5c0.6-0.4,1.3-0.5,2-0.5c0.6,0,1.1,0.1,1.7,0.4
			c0.2,0.1,0.3,0.1,0.3,0.1c0.1,0,0.2,0,0.3-0.1c0.1-0.1,0.2-0.2,0.2-0.4H616.5z"/>
		<path class="st10" d="M616.5,66.7l0.2,2.7h-0.2c-0.2-0.8-0.6-1.4-1-1.7c-0.4-0.4-1-0.5-1.6-0.5c-0.5,0-1,0.1-1.4,0.4
			c-0.4,0.3-0.8,0.7-1,1.3c-0.2,0.6-0.4,1.3-0.4,2.2c0,0.7,0.1,1.3,0.3,1.9c0.2,0.5,0.6,0.9,1,1.2c0.5,0.3,1,0.4,1.6,0.4
			c0.5,0,1-0.1,1.3-0.3c0.4-0.2,0.8-0.7,1.3-1.3l0.2,0.1c-0.4,0.7-0.9,1.2-1.4,1.5c-0.5,0.3-1.1,0.5-1.9,0.5c-1.3,0-2.3-0.5-3-1.4
			c-0.5-0.7-0.8-1.6-0.8-2.5c0-0.8,0.2-1.5,0.5-2.2c0.4-0.7,0.8-1.2,1.4-1.5c0.6-0.4,1.3-0.5,2-0.5c0.6,0,1.1,0.1,1.7,0.4
			c0.2,0.1,0.3,0.1,0.3,0.1c0.1,0,0.2,0,0.3-0.1c0.1-0.1,0.2-0.2,0.2-0.4H616.5z"/>
		<path class="st7" d="M625.8,66.9l0.1,1.8h-0.2c0-0.3-0.1-0.6-0.2-0.7c-0.1-0.2-0.3-0.4-0.5-0.5c-0.2-0.1-0.5-0.2-0.8-0.2h-1.1v6
			c0,0.5,0.1,0.8,0.2,0.9c0.1,0.2,0.4,0.2,0.7,0.2h0.3v0.2h-3.3v-0.2h0.3c0.3,0,0.6-0.1,0.7-0.3c0.1-0.1,0.1-0.4,0.1-0.9v-6h-0.9
			c-0.4,0-0.6,0-0.8,0.1c-0.2,0.1-0.4,0.2-0.5,0.4c-0.1,0.2-0.2,0.5-0.3,0.8h-0.2l0.1-1.8H625.8z"/>
		<path class="st10" d="M625.8,66.9l0.1,1.8h-0.2c0-0.3-0.1-0.6-0.2-0.7c-0.1-0.2-0.3-0.4-0.5-0.5c-0.2-0.1-0.5-0.2-0.8-0.2h-1.1v6
			c0,0.5,0.1,0.8,0.2,0.9c0.1,0.2,0.4,0.2,0.7,0.2h0.3v0.2h-3.3v-0.2h0.3c0.3,0,0.6-0.1,0.7-0.3c0.1-0.1,0.1-0.4,0.1-0.9v-6h-0.9
			c-0.4,0-0.6,0-0.8,0.1c-0.2,0.1-0.4,0.2-0.5,0.4c-0.1,0.2-0.2,0.5-0.3,0.8h-0.2l0.1-1.8H625.8z"/>
		<path class="st7" d="M631.5,74.6v0.2h-3.4v-0.2h0.3c0.3,0,0.6-0.1,0.7-0.3c0.1-0.1,0.1-0.4,0.1-0.9v-5.1c0-0.4,0-0.7-0.1-0.8
			c0-0.1-0.1-0.2-0.2-0.2c-0.2-0.1-0.3-0.1-0.5-0.1h-0.3v-0.2h3.4v0.2h-0.3c-0.3,0-0.6,0.1-0.7,0.3c-0.1,0.1-0.1,0.4-0.1,0.9v5.1
			c0,0.4,0,0.7,0.1,0.8c0,0.1,0.1,0.2,0.2,0.2c0.2,0.1,0.3,0.1,0.5,0.1H631.5z"/>
		<path class="st10" d="M631.5,74.6v0.2h-3.4v-0.2h0.3c0.3,0,0.6-0.1,0.7-0.3c0.1-0.1,0.1-0.4,0.1-0.9v-5.1c0-0.4,0-0.7-0.1-0.8
			c0-0.1-0.1-0.2-0.2-0.2c-0.2-0.1-0.3-0.1-0.5-0.1h-0.3v-0.2h3.4v0.2h-0.3c-0.3,0-0.6,0.1-0.7,0.3c-0.1,0.1-0.1,0.4-0.1,0.9v5.1
			c0,0.4,0,0.7,0.1,0.8c0,0.1,0.1,0.2,0.2,0.2c0.2,0.1,0.3,0.1,0.5,0.1H631.5z"/>
		<path class="st7" d="M637.7,67.2c-0.7,0-1.3,0.3-1.7,0.8c-0.5,0.7-0.8,1.6-0.8,2.9c0,1.3,0.3,2.3,0.8,3c0.4,0.5,1,0.8,1.7,0.8
			c0.7,0,1.4-0.3,1.8-0.9c0.5-0.6,0.7-1.5,0.7-2.7c0-1.3-0.3-2.4-0.8-3C639.1,67.4,638.5,67.2,637.7,67.2 M637.8,66.7
			c1,0,1.9,0.4,2.7,1.2c0.7,0.8,1.1,1.7,1.1,2.9c0,1.2-0.4,2.2-1.1,3c-0.8,0.8-1.7,1.2-2.7,1.2c-1.1,0-2-0.4-2.7-1.2
			c-0.7-0.8-1.1-1.8-1.1-3c0-1.2,0.4-2.3,1.3-3.1C635.9,67.1,636.8,66.7,637.8,66.7"/>
		<path class="st10" d="M637.7,67.2c-0.7,0-1.3,0.3-1.7,0.8c-0.5,0.7-0.8,1.6-0.8,2.9c0,1.3,0.3,2.3,0.8,3c0.4,0.5,1,0.8,1.7,0.8
			c0.7,0,1.4-0.3,1.8-0.9c0.5-0.6,0.7-1.5,0.7-2.7c0-1.3-0.3-2.4-0.8-3C639.1,67.4,638.5,67.2,637.7,67.2z M637.8,66.7
			c1,0,1.9,0.4,2.7,1.2c0.7,0.8,1.1,1.7,1.1,2.9c0,1.2-0.4,2.2-1.1,3c-0.8,0.8-1.7,1.2-2.7,1.2c-1.1,0-2-0.4-2.7-1.2
			c-0.7-0.8-1.1-1.8-1.1-3c0-1.2,0.4-2.3,1.3-3.1C635.9,67.1,636.8,66.7,637.8,66.7z"/>
		<path class="st7" d="M643.6,66.9h2.1l4.8,5.9v-4.5c0-0.5-0.1-0.8-0.2-0.9c-0.1-0.2-0.4-0.2-0.7-0.2h-0.3v-0.2h2.8v0.2h-0.3
			c-0.3,0-0.6,0.1-0.7,0.3c-0.1,0.1-0.1,0.4-0.1,0.9v6.6h-0.2l-5.2-6.3v4.8c0,0.5,0.1,0.8,0.2,0.9c0.1,0.2,0.4,0.2,0.7,0.2h0.3v0.2
			H644v-0.2h0.3c0.3,0,0.6-0.1,0.7-0.3c0.1-0.1,0.1-0.4,0.1-0.9V68c-0.2-0.3-0.4-0.4-0.5-0.5c-0.1-0.1-0.3-0.2-0.5-0.2
			c-0.1,0-0.3-0.1-0.5-0.1V66.9z"/>
		<path class="st10" d="M643.6,66.9h2.1l4.8,5.9v-4.5c0-0.5-0.1-0.8-0.2-0.9c-0.1-0.2-0.4-0.2-0.7-0.2h-0.3v-0.2h2.8v0.2h-0.3
			c-0.3,0-0.6,0.1-0.7,0.3c-0.1,0.1-0.1,0.4-0.1,0.9v6.6h-0.2l-5.2-6.3v4.8c0,0.5,0.1,0.8,0.2,0.9c0.1,0.2,0.4,0.2,0.7,0.2h0.3v0.2
			H644v-0.2h0.3c0.3,0,0.6-0.1,0.7-0.3c0.1-0.1,0.1-0.4,0.1-0.9V68c-0.2-0.3-0.4-0.4-0.5-0.5c-0.1-0.1-0.3-0.2-0.5-0.2
			c-0.1,0-0.3-0.1-0.5-0.1V66.9z"/>
	</g>
	<g>
		<defs>
			<rect id="SVGID_3_" x="895.5" y="57.1" width="197.3" height="17"/>
		</defs>
		<clipPath id="SVGID_4_">
			<use xlink:href="#SVGID_3_"  style="overflow:visible;"/>
		</clipPath>
		<g class="st11">
			<defs>
				<rect id="SVGID_5_" x="895.5" y="57.1" width="197.3" height="18.4"/>
			</defs>
			<clipPath id="SVGID_6_">
				<use xlink:href="#SVGID_5_"  style="overflow:visible;"/>
			</clipPath>
			<g style="clip-path:url(#SVGID_6_);">
				
					<image style="overflow:visible;" width="332" height="31" xlink:href="32EB5491.jpg"  transform="matrix(0.5943 0 0 0.5943 895.4976 57.1378)">
				</image>
			</g>
		</g>
	</g>
</g>
</svg>
