<?xml version="1.0" encoding="utf-8"?>
<!-- Generator: Adobe Illustrator 19.1.1, SVG Export Plug-In . SVG Version: 6.00 Build 0)  -->
<svg version="1.1" id="Layer_1" xmlns="http://www.w3.org/2000/svg" xmlns:xlink="http://www.w3.org/1999/xlink" x="0px" y="0px"
	 viewBox="0 0 397.6 210.6" style="enable-background:new 0 0 397.6 210.6;" xml:space="preserve">
<style type="text/css">
	.st0{fill:#616365;}
	.st1{font-family:'SenticoSansDT-Regular';}
	.st2{font-size:15px;}
	.st3{fill:#803193;}
	.st4{fill:none;stroke:#803193;stroke-miterlimit:10;}
	.st5{clip-path:url(#SVGID_2_);}
</style>
<g>
	<text transform="matrix(1 0 0 1 38.6415 115.5396)"><tspan x="0" y="0" class="st0 st1 st2">2 </tspan><tspan x="12.1" y="0" class="st0 st1 st2">A</tspan><tspan x="21.2" y="0" class="st0 st1 st2">ward-winning, experienced legal mavericks </tspan></text>
	<text transform="matrix(1 0 0 1 38.6415 133.5396)" class="st0 st1 st2">determined to build a better business for their </text>
	<text transform="matrix(1 0 0 1 38.6415 151.5396)"><tspan x="0" y="0" class="st0 st1 st2">clients, culminating in a new ﬁrm sta</tspan><tspan x="228.5" y="0" class="st0 st1 st2">r</tspan><tspan x="233.8" y="0" class="st0 st1 st2">ted [D</tspan><tspan x="271.4" y="0" class="st0 st1 st2">A</tspan><tspan x="280" y="0" class="st0 st1 st2">TE] </tspan></text>
	<rect x="39.1" y="40.5" class="st3" width="311.8" height="48.3"/>
	<rect x="39.1" y="40.5" class="st4" width="311.8" height="48.3"/>
	<g>
		<defs>
			<rect id="SVGID_1_" x="96.4" y="57.1" width="197.3" height="17"/>
		</defs>
		<clipPath id="SVGID_2_">
			<use xlink:href="#SVGID_1_"  style="overflow:visible;"/>
		</clipPath>
		<g class="st5">
			<defs>
				<rect id="SVGID_3_" x="96.4" y="57.1" width="197.3" height="18.4"/>
			</defs>
			<clipPath id="SVGID_4_">
				<use xlink:href="#SVGID_3_"  style="overflow:visible;"/>
			</clipPath>
			<g style="clip-path:url(#SVGID_4_);">
				
					<image style="overflow:visible;" width="332" height="31" xlink:href="55F4283B.jpg"  transform="matrix(0.5943 0 0 0.5943 96.4047 57.1378)">
				</image>
			</g>
		</g>
	</g>
</g>
</svg>
