<?xml version="1.0" encoding="utf-8"?>
<!-- Generator: Adobe Illustrator 19.1.1, SVG Export Plug-In . SVG Version: 6.00 Build 0)  -->
<svg version="1.1" xmlns="http://www.w3.org/2000/svg" xmlns:xlink="http://www.w3.org/1999/xlink" x="0px" y="0px"
	 viewBox="0 0 156.2 183.1" style="enable-background:new 0 0 156.2 183.1;" xml:space="preserve">
<style type="text/css">
	.st0{display:none;}
	.st1{display:inline;fill:none;stroke:#AC57A1;stroke-width:0.1;stroke-miterlimit:10;stroke-dasharray:1,0.3;}
	.st2{fill:none;stroke:#9C9B9B;stroke-miterlimit:10;}
	.st3{fill:#803193;}
	.st4{fill:#7AB800;}
	.st5{fill:#009AA6;}
	.st6{fill:none;stroke:#66C2CA;stroke-miterlimit:10;}
	.st7{fill:#66C2CA;}
	.st8{fill:none;stroke:#FFFFFF;stroke-width:2;stroke-miterlimit:10;}
	.st9{fill:#FFFFFF;}
	.st10{fill:none;stroke:#AFD466;stroke-miterlimit:10;}
	.st11{fill:#AFD466;}
	.st12{fill:none;stroke:#B383BE;stroke-miterlimit:10;}
	.st13{fill:#B383BE;}
	.st14{fill:#616365;}
	.st15{fill:none;stroke:#FFFFFF;stroke-width:4;}
	.st16{clip-path:url(#SVGID_2_);}
	.st17{fill:none;stroke:#803094;stroke-width:2;stroke-miterlimit:10;}
	.st18{fill:#803094;}
	.st19{fill:none;stroke:#803094;stroke-miterlimit:10;}
	.st20{fill:#66666A;}
	.st21{fill:#BC2036;}
	.st22{fill:#549800;}
</style>
<g id="Layer_2" class="st0">
</g>
<g id="Layer_1">
	<g>
		<polygon class="st9" points="145.4,0 99.6,18.1 99.6,139.8 145.4,139.8 		"/>
		<polygon class="st9" points="95.6,139.8 49.8,139.8 49.8,37.8 95.6,19.7 		"/>
		<polygon class="st9" points="0,57.5 0,139.8 45.8,139.8 45.8,39.4 		"/>
		<g>
			<path class="st9" d="M20.6,183h-7.5l-3.2-20.1L8.4,183H0l2.8-33.4h11.6l1.9,11.2c0.2,0.9,0.3,1.9,0.4,3c0.1,1.1,0.2,2.3,0.3,3.5
				c0.2-2.1,0.4-4,0.8-5.7l2.2-12.1h11.3l2.2,33.4h-8l-1.2-20.1L20.6,183z"/>
			<path class="st9" d="M49.4,171.8l-0.6-3.9c0,0,0-0.2-0.1-0.6c0-0.3-0.2-1.6-0.5-3.8c0-0.2-0.1-0.6-0.1-1c0-0.4-0.1-1-0.2-1.6
				l-0.3-3.2c0,0.3-0.1,0.6-0.1,1c-0.1,0.4-0.1,0.8-0.2,1.2c-0.1,0.9-0.2,1.5-0.2,1.9c0,0.3-0.1,0.6-0.1,0.6l-0.6,4l-0.9,5.2H49.4z
				 M60.4,183h-9.3l-0.7-4.2h-6.1l-0.7,4.2h-9.3l8-33.4h11L60.4,183z"/>
			<path class="st9" d="M70.3,164.6h0.6c1,0,1.9-0.4,2.6-1.2c0.7-0.8,1-1.8,1-3c0-2.5-1.3-3.7-3.9-3.7h-0.3V164.6z M85,183h-9.8
				l-4.5-11.9c0-0.2-0.1-0.5-0.2-0.8c-0.1-0.3-0.2-0.7-0.4-1.2l0.1,2.2V183h-9v-33.4h9.2c4.1,0,7.1,0.8,9.1,2.4
				c2.6,2.1,3.8,5,3.8,8.7c0,4-1.7,6.8-5.2,8.4L85,183z"/>
		</g>
		<polygon class="st9" points="99.4,149.7 94.5,164 94.7,149.7 85.7,149.7 85.7,183.1 94.7,183.1 94.5,167.7 100.5,183.1 
			110.2,183.1 102.1,165.8 109,149.7 		"/>
		<polygon class="st9" points="111.1,149.7 111.1,183.1 127.6,183.1 127.6,175.3 119.7,175.3 119.7,169.9 126.5,169.9 126.5,162.1 
			119.7,162.1 119.7,157.4 127.6,157.4 127.6,149.7 		"/>
		<polygon class="st9" points="129.5,149.7 129.5,183.1 145.4,183.1 145.4,175.3 138.2,175.3 138.2,149.7 		"/>
		<g>
			<path class="st9" d="M146.7,155.5v-2.8h1.9c0.9,0,1.9,0.2,1.9,1.4c0,1.4-1,1.4-2.2,1.4H146.7z M146.7,156.7h1.6l2.4,3.9h1.5
				l-2.6-3.9c1.3-0.2,2.4-0.9,2.4-2.5c0-1.8-1.1-2.6-3.2-2.6h-3.4v9h1.3V156.7z M142,156.1c0-3.7,2.7-6.5,6.3-6.5
				c3.5,0,6.3,2.8,6.3,6.5c0,3.7-2.8,6.5-6.3,6.5C144.8,162.6,142,159.8,142,156.1 M140.4,156.1c0,4.5,3.6,7.8,7.9,7.8
				c4.3,0,7.9-3.3,7.9-7.8c0-4.5-3.6-7.8-7.9-7.8C144,148.4,140.4,151.6,140.4,156.1"/>
		</g>
	</g>
</g>
</svg>
