<?xml version="1.0" encoding="utf-8"?>
<!-- Generator: Adobe Illustrator 19.1.1, SVG Export Plug-In . SVG Version: 6.00 Build 0)  -->
<svg version="1.1" xmlns="http://www.w3.org/2000/svg" xmlns:xlink="http://www.w3.org/1999/xlink" x="0px" y="0px"
	 viewBox="0 0 295 150" style="enable-background:new 0 0 295 150;" xml:space="preserve">
<style type="text/css">
	.st0{fill:#BD2137;}
	.st1{fill:#FFFFFF;}
	.st2{fill:#009AA6;}
	.st3{fill:#813393;}
	.st4{fill:#FFFFFF;stroke:#FFFFFF;}
	.st5{fill:none;stroke:#AD58A2;stroke-width:0.1;stroke-miterlimit:10;stroke-dasharray:1,0.3;}
	.st6{clip-path:url(#SVGID_2_);}
	.st7{fill:none;stroke:#BFA1CC;stroke-miterlimit:10;}
	.st8{fill:#BFA1CC;}
	.st9{fill:#B4B1B3;}
	.st10{fill:none;stroke:#B4B1B3;stroke-miterlimit:10;}
	.st11{fill:none;stroke:#FFFFFF;stroke-miterlimit:10;}
	.st12{fill:#FFFFFF;stroke:#B4B1B3;stroke-miterlimit:10;}
	.st13{fill:none;stroke:#B4B1B3;stroke-width:6;stroke-miterlimit:10;}
	.st14{fill:#FFFFFF;stroke:#BFA1CC;stroke-miterlimit:10;}
</style>
<g id="Layer_2">
	<rect y="-414.8" class="st0" width="295" height="150"/>
	<g>
		<polygon class="st1" points="173.5,-375.2 155.8,-368.2 155.8,-321.2 173.5,-321.2 		"/>
		<polygon class="st1" points="154.3,-321.2 136.6,-321.2 136.6,-360.6 154.3,-367.5 		"/>
		<polygon class="st1" points="117.3,-353 117.3,-321.2 135,-321.2 135,-359.9 		"/>
		<g>
			<path class="st1" d="M125.3-304.5h-2.9l-1.2-7.8l-0.6,7.8h-3.2l1.1-12.9h4.5l0.7,4.3c0.1,0.4,0.1,0.7,0.2,1.2
				c0,0.4,0.1,0.9,0.1,1.4c0.1-0.8,0.2-1.6,0.3-2.2l0.9-4.7h4.3l0.9,12.9h-3.1l-0.4-7.8L125.3-304.5z"/>
			<path class="st1" d="M140.7-304.5h-3.6l-0.3-1.6h-2.3l-0.3,1.6h-3.6l3.1-12.9h4.3L140.7-304.5z M136.4-308.8l-0.2-1.5
				c0,0,0-0.1,0-0.2c0-0.1-0.1-0.6-0.2-1.5c0-0.1,0-0.2,0-0.4c0-0.2,0-0.4-0.1-0.6l-0.1-1.2c0,0.1,0,0.2,0,0.4c0,0.1,0,0.3-0.1,0.5
				c0,0.3-0.1,0.6-0.1,0.7c0,0.1,0,0.2,0,0.2l-0.2,1.6l-0.4,2H136.4z"/>
			<path class="st1" d="M150.2-304.5h-3.8l-1.7-4.6c0-0.1,0-0.2-0.1-0.3c0-0.1-0.1-0.3-0.2-0.5l0,0.9v4.5H141v-12.9h3.6
				c1.6,0,2.7,0.3,3.5,0.9c1,0.8,1.5,1.9,1.5,3.4c0,1.6-0.7,2.6-2,3.2L150.2-304.5z M144.5-311.6h0.2c0.4,0,0.7-0.2,1-0.5
				c0.3-0.3,0.4-0.7,0.4-1.2c0-1-0.5-1.4-1.5-1.4h-0.1V-311.6z"/>
			<polygon class="st1" points="159.9,-304.5 156.1,-304.5 153.8,-310.4 153.9,-304.5 150.4,-304.5 150.4,-317.4 153.9,-317.4 
				153.8,-311.8 155.7,-317.4 159.4,-317.4 156.8,-311.1 			"/>
			<polygon class="st1" points="160.2,-304.5 160.2,-317.4 166.6,-317.4 166.6,-314.4 163.6,-314.4 163.6,-312.6 166.2,-312.6 
				166.2,-309.5 163.6,-309.5 163.6,-307.5 166.6,-307.5 166.6,-304.5 			"/>
			<polygon class="st1" points="173.5,-304.5 167.4,-304.5 167.4,-317.4 170.7,-317.4 170.7,-307.5 173.5,-307.5 			"/>
			<path class="st1" d="M171.6-314.9c0,1.7,1.4,3,3,3c1.6,0,3-1.3,3-3c0-1.7-1.4-3-3-3C173-317.9,171.6-316.6,171.6-314.9
				 M172.2-314.9c0-1.4,1.1-2.5,2.4-2.5c1.4,0,2.4,1.1,2.4,2.5c0,1.4-1.1,2.5-2.4,2.5C173.3-312.4,172.2-313.4,172.2-314.9
				 M174-314.6h0.6l0.9,1.5h0.6l-1-1.5c0.5-0.1,0.9-0.3,0.9-1c0-0.7-0.4-1-1.2-1h-1.3v3.5h0.5V-314.6z M174-315.1v-1.1h0.7
				c0.4,0,0.7,0.1,0.7,0.5c0,0.5-0.4,0.6-0.8,0.6H174z"/>
		</g>
	</g>
	<rect y="-212.6" class="st2" width="295" height="150"/>
	<rect class="st3" width="295" height="150"/>
	<g>
		<polygon class="st4" points="96.3,-129 82.2,-136.1 68.1,-129 82.2,-120.5 		"/>
		<polygon class="st4" points="96.3,-146.7 83.2,-154.6 83.2,-137.6 96.3,-131 		"/>
		<polygon class="st4" points="68.1,-146.6 81.1,-154.3 81.1,-137.5 68.1,-131 		"/>
		<g>
			<path class="st4" d="M114.5-143.6h-4.1l-0.7,1.7c-0.2,0.4-0.3,0.7-0.3,0.9c0,0.2,0.1,0.3,0.2,0.4c0.2,0.1,0.5,0.2,1,0.2v0.3h-3.3
				v-0.3c0.4-0.1,0.7-0.2,0.9-0.3c0.3-0.2,0.6-0.8,0.9-1.5l3.7-8.6h0.3l3.7,8.7c0.3,0.7,0.6,1.2,0.8,1.4c0.2,0.2,0.6,0.3,1,0.4v0.3
				h-4.1v-0.3c0.4,0,0.7-0.1,0.8-0.2c0.1-0.1,0.2-0.3,0.2-0.4c0-0.2-0.1-0.6-0.3-1.1L114.5-143.6z M114.3-144.2l-1.8-4.2l-1.8,4.2
				H114.3z"/>
			<path class="st4" d="M127.1-145.5c0.7,0.2,1.3,0.4,1.6,0.7c0.5,0.5,0.8,1.1,0.8,1.7c0,0.5-0.2,1-0.5,1.5c-0.3,0.5-0.8,0.8-1.4,1
				c-0.6,0.2-1.5,0.3-2.6,0.3h-4.9v-0.3h0.4c0.4,0,0.7-0.1,0.9-0.4c0.1-0.2,0.2-0.6,0.2-1.2v-6.8c0-0.6-0.1-1.1-0.2-1.2
				c-0.2-0.2-0.5-0.3-0.9-0.3h-0.4v-0.3h4.5c0.8,0,1.5,0.1,2,0.2c0.8,0.2,1.4,0.5,1.8,1c0.4,0.5,0.6,1,0.6,1.6c0,0.5-0.2,1-0.5,1.4
				C128.2-146,127.7-145.7,127.1-145.5z M123.1-145.9c0.2,0,0.4,0.1,0.7,0.1c0.2,0,0.5,0,0.8,0c0.8,0,1.3-0.1,1.7-0.2
				c0.4-0.2,0.7-0.4,0.9-0.7c0.2-0.3,0.3-0.7,0.3-1.1c0-0.6-0.3-1.1-0.8-1.6c-0.5-0.4-1.2-0.6-2.2-0.6c-0.5,0-1,0.1-1.4,0.2V-145.9z
				 M123.1-140.9c0.6,0.1,1.2,0.2,1.8,0.2c0.9,0,1.7-0.2,2.1-0.6c0.5-0.4,0.7-0.9,0.7-1.6c0-0.4-0.1-0.8-0.3-1.2
				c-0.2-0.4-0.6-0.7-1.1-0.9c-0.5-0.2-1.1-0.3-1.9-0.3c-0.3,0-0.6,0-0.8,0c-0.2,0-0.4,0-0.5,0.1V-140.9z"/>
			<path class="st4" d="M138.8-145.5c0.7,0.2,1.3,0.4,1.6,0.7c0.5,0.5,0.8,1.1,0.8,1.7c0,0.5-0.2,1-0.5,1.5c-0.3,0.5-0.8,0.8-1.4,1
				c-0.6,0.2-1.5,0.3-2.6,0.3h-4.9v-0.3h0.4c0.4,0,0.7-0.1,0.9-0.4c0.1-0.2,0.2-0.6,0.2-1.2v-6.8c0-0.6-0.1-1.1-0.2-1.2
				c-0.2-0.2-0.5-0.3-0.9-0.3h-0.4v-0.3h4.5c0.8,0,1.5,0.1,2,0.2c0.8,0.2,1.4,0.5,1.8,1c0.4,0.5,0.6,1,0.6,1.6c0,0.5-0.2,1-0.5,1.4
				C139.9-146,139.4-145.7,138.8-145.5z M134.7-145.9c0.2,0,0.4,0.1,0.7,0.1c0.2,0,0.5,0,0.8,0c0.8,0,1.3-0.1,1.7-0.2
				c0.4-0.2,0.7-0.4,0.9-0.7c0.2-0.3,0.3-0.7,0.3-1.1c0-0.6-0.3-1.1-0.8-1.6c-0.5-0.4-1.2-0.6-2.2-0.6c-0.5,0-1,0.1-1.4,0.2V-145.9z
				 M134.7-140.9c0.6,0.1,1.2,0.2,1.8,0.2c0.9,0,1.7-0.2,2.1-0.6c0.5-0.4,0.7-0.9,0.7-1.6c0-0.4-0.1-0.8-0.3-1.2
				c-0.2-0.4-0.6-0.7-1.1-0.9c-0.5-0.2-1.1-0.3-1.9-0.3c-0.3,0-0.6,0-0.8,0c-0.2,0-0.4,0-0.5,0.1V-140.9z"/>
			<path class="st4" d="M146.5-150.1v4.2h2.3c0.6,0,1-0.1,1.2-0.3c0.3-0.2,0.4-0.7,0.5-1.3h0.3v3.7h-0.3c-0.1-0.5-0.1-0.8-0.2-1
				c-0.1-0.2-0.2-0.3-0.5-0.4c-0.2-0.1-0.5-0.2-1-0.2h-2.3v3.5c0,0.5,0,0.7,0.1,0.8c0,0.1,0.1,0.2,0.2,0.2c0.1,0.1,0.3,0.1,0.6,0.1
				h1.8c0.6,0,1,0,1.3-0.1c0.3-0.1,0.5-0.2,0.8-0.5c0.3-0.3,0.6-0.8,1-1.5h0.3l-0.9,2.6h-8.1v-0.3h0.4c0.2,0,0.5-0.1,0.7-0.2
				c0.2-0.1,0.3-0.2,0.3-0.4c0.1-0.2,0.1-0.5,0.1-1v-6.8c0-0.7-0.1-1.1-0.2-1.2c-0.2-0.2-0.5-0.3-0.9-0.3h-0.4v-0.3h8.1l0.1,2.3
				h-0.3c-0.1-0.6-0.2-0.9-0.4-1.1c-0.1-0.2-0.3-0.4-0.6-0.5c-0.2-0.1-0.6-0.1-1.1-0.1H146.5z"/>
			<path class="st4" d="M161.5-150.6h3.7v0.3H165c-0.1,0-0.3,0.1-0.6,0.2c-0.3,0.1-0.5,0.3-0.7,0.5c-0.2,0.2-0.5,0.6-0.8,1.1l-2.5,4
				v2.7c0,0.6,0.1,1.1,0.2,1.2c0.2,0.2,0.5,0.3,0.9,0.3h0.3v0.3h-4.5v-0.3h0.4c0.4,0,0.8-0.1,1-0.4c0.1-0.2,0.2-0.5,0.2-1.1v-2.5
				l-2.9-4.4c-0.3-0.5-0.6-0.8-0.7-1c-0.1-0.1-0.4-0.3-0.8-0.5c-0.1-0.1-0.3-0.1-0.4-0.1v-0.3h4.5v0.3h-0.2c-0.2,0-0.5,0.1-0.7,0.2
				c-0.2,0.1-0.3,0.3-0.3,0.5c0,0.2,0.2,0.5,0.5,1l2.2,3.4l2.1-3.2c0.3-0.5,0.5-0.8,0.5-1.1c0-0.1,0-0.3-0.1-0.4
				c-0.1-0.1-0.2-0.2-0.3-0.3c-0.1-0.1-0.3-0.1-0.6-0.1V-150.6z"/>
			<path class="st4" d="M180-143l0.3,0.1l-0.9,2.8h-8.1v-0.3h0.4c0.4,0,0.8-0.1,0.9-0.4c0.1-0.2,0.2-0.5,0.2-1.1v-6.8
				c0-0.7-0.1-1.1-0.2-1.2c-0.2-0.2-0.5-0.3-0.9-0.3h-0.4v-0.3h4.7v0.3c-0.6,0-0.9,0-1.2,0.2c-0.2,0.1-0.4,0.2-0.5,0.4
				c-0.1,0.2-0.1,0.6-0.1,1.2v6.6c0,0.4,0,0.7,0.1,0.9c0.1,0.1,0.2,0.2,0.3,0.2c0.1,0.1,0.5,0.1,1.2,0.1h0.8c0.8,0,1.4-0.1,1.7-0.2
				c0.3-0.1,0.6-0.3,0.9-0.6C179.5-141.9,179.8-142.4,180-143z"/>
			<path class="st4" d="M185-150.1v4.2h2.3c0.6,0,1-0.1,1.2-0.3c0.3-0.2,0.4-0.7,0.5-1.3h0.3v3.7H189c-0.1-0.5-0.1-0.8-0.2-1
				c-0.1-0.2-0.2-0.3-0.5-0.4c-0.2-0.1-0.5-0.2-1-0.2H185v3.5c0,0.5,0,0.7,0.1,0.8c0,0.1,0.1,0.2,0.2,0.2c0.1,0.1,0.3,0.1,0.6,0.1
				h1.8c0.6,0,1,0,1.3-0.1c0.3-0.1,0.5-0.2,0.8-0.5c0.3-0.3,0.6-0.8,1-1.5h0.3l-0.9,2.6h-8.1v-0.3h0.4c0.2,0,0.5-0.1,0.7-0.2
				c0.2-0.1,0.3-0.2,0.3-0.4c0.1-0.2,0.1-0.5,0.1-1v-6.8c0-0.7-0.1-1.1-0.2-1.2c-0.2-0.2-0.5-0.3-0.9-0.3h-0.4v-0.3h8.1l0.1,2.3H190
				c-0.1-0.6-0.2-0.9-0.4-1.1c-0.1-0.2-0.3-0.4-0.6-0.5c-0.2-0.1-0.6-0.1-1.1-0.1H185z"/>
			<path class="st4" d="M202.2-150.9l0.3,3.3h-0.3c-0.3-0.8-0.6-1.4-1.1-1.9c-0.6-0.6-1.4-0.9-2.4-0.9c-1.3,0-2.4,0.5-3,1.6
				c-0.6,0.9-0.9,2-0.9,3.2c0,1,0.2,1.9,0.6,2.7c0.4,0.8,0.9,1.4,1.5,1.8c0.6,0.4,1.3,0.6,1.9,0.6c0.4,0,0.8,0,1.1-0.1
				c0.4-0.1,0.7-0.2,1-0.4v-3c0-0.5,0-0.9-0.1-1c-0.1-0.2-0.2-0.3-0.4-0.4c-0.2-0.1-0.5-0.1-0.9-0.1v-0.3h4.1v0.3h-0.2
				c-0.4,0-0.7,0.1-0.8,0.4c-0.1,0.2-0.2,0.6-0.2,1.1v3.2c-0.6,0.3-1.2,0.6-1.8,0.7c-0.6,0.1-1.2,0.2-1.9,0.2c-2,0-3.6-0.7-4.6-2
				c-0.8-1-1.2-2.1-1.2-3.4c0-0.9,0.2-1.8,0.7-2.7c0.5-1,1.2-1.8,2.2-2.3c0.8-0.4,1.7-0.7,2.7-0.7c0.4,0,0.7,0,1,0.1
				c0.3,0.1,0.8,0.2,1.3,0.4c0.3,0.1,0.5,0.2,0.6,0.2s0.2,0,0.3-0.1c0.1-0.1,0.1-0.3,0.1-0.5H202.2z"/>
			<path class="st4" d="M212.3-143.6h-4.1l-0.7,1.7c-0.2,0.4-0.3,0.7-0.3,0.9c0,0.2,0.1,0.3,0.2,0.4c0.2,0.1,0.5,0.2,1,0.2v0.3h-3.3
				v-0.3c0.4-0.1,0.7-0.2,0.9-0.3c0.3-0.2,0.6-0.8,0.9-1.5l3.7-8.6h0.3l3.7,8.7c0.3,0.7,0.6,1.2,0.8,1.4s0.6,0.3,1,0.4v0.3h-4.1
				v-0.3c0.4,0,0.7-0.1,0.8-0.2c0.1-0.1,0.2-0.3,0.2-0.4c0-0.2-0.1-0.6-0.3-1.1L212.3-143.6z M212.1-144.2l-1.8-4.2l-1.8,4.2H212.1z
				"/>
			<path class="st4" d="M226.7-143l0.3,0.1l-0.9,2.8h-8.1v-0.3h0.4c0.4,0,0.8-0.1,0.9-0.4c0.1-0.2,0.2-0.5,0.2-1.1v-6.8
				c0-0.7-0.1-1.1-0.2-1.2c-0.2-0.2-0.5-0.3-0.9-0.3h-0.4v-0.3h4.7v0.3c-0.6,0-0.9,0-1.2,0.2c-0.2,0.1-0.4,0.2-0.5,0.4
				c-0.1,0.2-0.1,0.6-0.1,1.2v6.6c0,0.4,0,0.7,0.1,0.9c0.1,0.1,0.2,0.2,0.3,0.2c0.1,0.1,0.5,0.1,1.2,0.1h0.8c0.8,0,1.4-0.1,1.7-0.2
				c0.3-0.1,0.6-0.3,0.9-0.6C226.2-141.9,226.4-142.4,226.7-143z"/>
		</g>
		<g>
			<path class="st4" d="M110.5-129.2v3.1c0,0.7,0.1,1.1,0.2,1.2c0.2,0.2,0.5,0.3,0.9,0.3h0.4v0.3h-4.5v-0.3h0.4c0.4,0,0.8-0.1,1-0.4
				c0.1-0.2,0.2-0.5,0.2-1.1v-6.8c0-0.7-0.1-1.1-0.2-1.2c-0.2-0.2-0.5-0.3-0.9-0.3h-0.4v-0.3h3.8c0.9,0,1.7,0.1,2.2,0.3
				c0.5,0.2,1,0.5,1.4,1c0.4,0.5,0.6,1,0.6,1.6c0,0.9-0.3,1.6-0.8,2.1c-0.6,0.5-1.4,0.8-2.4,0.8c-0.3,0-0.5,0-0.8-0.1
				C111.2-129.1,110.8-129.1,110.5-129.2z M110.5-129.6c0.3,0.1,0.5,0.1,0.7,0.1c0.2,0,0.4,0,0.5,0c0.5,0,1-0.2,1.4-0.6
				c0.4-0.4,0.6-1,0.6-1.6c0-0.5-0.1-0.9-0.3-1.3c-0.2-0.4-0.4-0.7-0.8-0.9c-0.3-0.2-0.7-0.3-1.2-0.3c-0.3,0-0.6,0-1,0.1V-129.6z"/>
			<path class="st4" d="M129-124.3h-2.8l-3.6-4.9c-0.3,0-0.5,0-0.6,0c-0.1,0-0.1,0-0.2,0c-0.1,0-0.2,0-0.2,0v3.1
				c0,0.7,0.1,1.1,0.2,1.2c0.2,0.2,0.5,0.3,0.9,0.3h0.4v0.3h-4.5v-0.3h0.4c0.4,0,0.8-0.1,0.9-0.4c0.1-0.2,0.2-0.5,0.2-1.1v-6.8
				c0-0.7-0.1-1.1-0.2-1.2c-0.2-0.2-0.5-0.3-0.9-0.3h-0.4v-0.3h3.8c1.1,0,1.9,0.1,2.5,0.2c0.5,0.2,1,0.5,1.3,0.9
				c0.4,0.4,0.6,1,0.6,1.6c0,0.6-0.2,1.2-0.6,1.7c-0.4,0.5-1.1,0.8-2,1l2.2,3c0.5,0.7,0.9,1.2,1.3,1.4c0.4,0.2,0.8,0.4,1.4,0.4
				V-124.3z M121.5-129.7c0.1,0,0.2,0,0.3,0c0.1,0,0.1,0,0.2,0c1,0,1.7-0.2,2.2-0.7c0.5-0.4,0.8-1,0.8-1.7c0-0.7-0.2-1.2-0.6-1.6
				c-0.4-0.4-0.9-0.6-1.6-0.6c-0.3,0-0.7,0-1.2,0.1V-129.7z"/>
			<path class="st4" d="M136.9-135c1.4,0,2.5,0.5,3.5,1.6c1,1,1.5,2.3,1.5,3.9c0,1.6-0.5,2.9-1.5,4c-1,1.1-2.2,1.6-3.7,1.6
				c-1.4,0-2.7-0.5-3.6-1.5c-1-1-1.5-2.4-1.5-4c0-1.7,0.6-3,1.7-4.1C134.3-134.6,135.5-135,136.9-135z M136.7-134.5
				c-0.9,0-1.7,0.3-2.3,1c-0.7,0.9-1.1,2.1-1.1,3.8c0,1.7,0.4,3,1.1,4c0.6,0.7,1.3,1.1,2.2,1.1c1,0,1.8-0.4,2.4-1.2
				c0.6-0.8,1-2,1-3.6c0-1.8-0.4-3.1-1.1-4C138.5-134.1,137.7-134.5,136.7-134.5z"/>
			<path class="st4" d="M153.9-134.8l0.1,2.5h-0.3c-0.1-0.4-0.1-0.7-0.2-0.9c-0.2-0.3-0.4-0.5-0.6-0.7c-0.3-0.1-0.6-0.2-1-0.2h-1.5
				v8c0,0.6,0.1,1.1,0.2,1.2c0.2,0.2,0.5,0.3,0.9,0.3h0.4v0.3h-4.5v-0.3h0.4c0.4,0,0.8-0.1,1-0.4c0.1-0.2,0.2-0.5,0.2-1.1v-8h-1.3
				c-0.5,0-0.8,0-1,0.1c-0.3,0.1-0.5,0.3-0.7,0.6c-0.2,0.3-0.3,0.7-0.3,1.1h-0.3l0.1-2.5H153.9z"/>
			<path class="st4" d="M159.9-134.2v4.2h2.3c0.6,0,1-0.1,1.2-0.3c0.3-0.2,0.4-0.7,0.5-1.3h0.3v3.7h-0.3c-0.1-0.5-0.1-0.8-0.2-1
				c-0.1-0.2-0.2-0.3-0.5-0.4c-0.2-0.1-0.5-0.2-1-0.2h-2.3v3.5c0,0.5,0,0.7,0.1,0.8c0,0.1,0.1,0.2,0.2,0.2c0.1,0.1,0.3,0.1,0.6,0.1
				h1.8c0.6,0,1,0,1.3-0.1c0.3-0.1,0.5-0.2,0.8-0.5c0.3-0.3,0.6-0.8,1-1.5h0.3l-0.9,2.6h-8.1v-0.3h0.4c0.2,0,0.5-0.1,0.7-0.2
				c0.2-0.1,0.3-0.2,0.3-0.4c0.1-0.2,0.1-0.5,0.1-1v-6.8c0-0.7-0.1-1.1-0.2-1.2c-0.2-0.2-0.5-0.3-0.9-0.3h-0.4v-0.3h8.1l0.1,2.3
				h-0.3c-0.1-0.6-0.2-0.9-0.4-1.1c-0.1-0.2-0.3-0.4-0.6-0.5c-0.2-0.1-0.6-0.1-1.1-0.1H159.9z"/>
			<path class="st4" d="M178-135l0.2,3.6H178c-0.3-1.1-0.8-1.8-1.4-2.3c-0.6-0.5-1.3-0.7-2.1-0.7c-0.7,0-1.3,0.2-1.9,0.5
				c-0.6,0.4-1,0.9-1.3,1.7c-0.3,0.8-0.5,1.7-0.5,2.9c0,1,0.2,1.8,0.5,2.5c0.3,0.7,0.8,1.2,1.4,1.6c0.6,0.4,1.3,0.6,2.1,0.6
				c0.7,0,1.3-0.1,1.8-0.4c0.5-0.3,1.1-0.9,1.7-1.7l0.2,0.2c-0.5,0.9-1.1,1.6-1.8,2.1c-0.7,0.4-1.5,0.7-2.5,0.7
				c-1.7,0-3.1-0.6-4-1.9c-0.7-1-1.1-2.1-1.1-3.4c0-1,0.2-2,0.7-2.9c0.5-0.9,1.1-1.6,1.9-2c0.8-0.5,1.7-0.7,2.7-0.7
				c0.8,0,1.5,0.2,2.2,0.6c0.2,0.1,0.4,0.2,0.5,0.2c0.1,0,0.3,0,0.4-0.1c0.1-0.1,0.2-0.3,0.3-0.6H178z"/>
			<path class="st4" d="M190.5-134.8l0.1,2.5h-0.3c-0.1-0.4-0.1-0.7-0.2-0.9c-0.2-0.3-0.4-0.5-0.6-0.7c-0.3-0.1-0.6-0.2-1-0.2h-1.5
				v8c0,0.6,0.1,1.1,0.2,1.2c0.2,0.2,0.5,0.3,0.9,0.3h0.4v0.3h-4.5v-0.3h0.4c0.4,0,0.8-0.1,1-0.4c0.1-0.2,0.2-0.5,0.2-1.1v-8h-1.3
				c-0.5,0-0.8,0-1,0.1c-0.3,0.1-0.5,0.3-0.7,0.6c-0.2,0.3-0.3,0.7-0.3,1.1h-0.3l0.1-2.5H190.5z"/>
			<path class="st4" d="M198.1-124.6v0.3h-4.5v-0.3h0.4c0.4,0,0.7-0.1,0.9-0.4c0.1-0.2,0.2-0.6,0.2-1.2v-6.8c0-0.5,0-0.9-0.1-1.1
				c-0.1-0.1-0.2-0.2-0.3-0.3c-0.2-0.1-0.5-0.2-0.7-0.2h-0.4v-0.3h4.5v0.3h-0.4c-0.4,0-0.7,0.1-0.9,0.4c-0.1,0.2-0.2,0.6-0.2,1.2
				v6.8c0,0.5,0,0.9,0.1,1.1c0.1,0.1,0.2,0.2,0.3,0.3c0.2,0.1,0.5,0.2,0.7,0.2H198.1z"/>
			<path class="st4" d="M206.5-135c1.4,0,2.5,0.5,3.5,1.6c1,1,1.5,2.3,1.5,3.9c0,1.6-0.5,2.9-1.5,4c-1,1.1-2.2,1.6-3.7,1.6
				c-1.4,0-2.7-0.5-3.6-1.5c-1-1-1.5-2.4-1.5-4c0-1.7,0.6-3,1.7-4.1C203.9-134.6,205.1-135,206.5-135z M206.3-134.5
				c-0.9,0-1.7,0.3-2.3,1c-0.7,0.9-1.1,2.1-1.1,3.8c0,1.7,0.4,3,1.1,4c0.6,0.7,1.3,1.1,2.2,1.1c1,0,1.8-0.4,2.4-1.2
				c0.6-0.8,1-2,1-3.6c0-1.8-0.4-3.1-1.1-4C208.1-134.1,207.3-134.5,206.3-134.5z"/>
			<path class="st4" d="M214.1-134.8h2.8l6.4,7.9v-6.1c0-0.6-0.1-1.1-0.2-1.2c-0.2-0.2-0.5-0.3-0.9-0.3h-0.4v-0.3h3.7v0.3h-0.4
				c-0.4,0-0.8,0.1-1,0.4c-0.1,0.2-0.2,0.5-0.2,1.1v8.8h-0.3l-6.9-8.5v6.5c0,0.6,0.1,1.1,0.2,1.2c0.2,0.2,0.5,0.3,0.9,0.3h0.4v0.3
				h-3.7v-0.3h0.4c0.5,0,0.8-0.1,1-0.4c0.1-0.2,0.2-0.5,0.2-1.1v-7.3c-0.3-0.4-0.5-0.6-0.7-0.7c-0.2-0.1-0.4-0.2-0.7-0.3
				c-0.1,0-0.4-0.1-0.7-0.1V-134.8z"/>
		</g>
	</g>
	<rect x="496.1" y="-463.5" class="st5" width="80" height="80"/>
	<polygon class="st5" points="486,-423.5 536.1,-473.5 586.1,-423.5 536.1,-373.5 	"/>
	<line class="st5" x1="586.1" y1="-473.5" x2="486" y2="-373.4"/>
	<line class="st5" x1="586.1" y1="-373.4" x2="486" y2="-473.5"/>
	<line class="st5" x1="486" y1="-423.5" x2="586.1" y2="-423.5"/>
	<line class="st5" x1="536.1" y1="-473.6" x2="536.1" y2="-373.4"/>
	<rect x="633.7" y="-463.5" class="st5" width="80" height="80"/>
	<polygon class="st5" points="623.7,-423.5 673.7,-473.5 723.8,-423.5 673.7,-373.5 	"/>
	<line class="st5" x1="723.8" y1="-473.5" x2="623.7" y2="-373.4"/>
	<line class="st5" x1="723.8" y1="-373.4" x2="623.7" y2="-473.5"/>
	<line class="st5" x1="623.7" y1="-423.5" x2="723.8" y2="-423.5"/>
	<line class="st5" x1="673.7" y1="-473.6" x2="673.7" y2="-373.4"/>
	<rect x="779.2" y="-463.5" class="st5" width="80" height="80"/>
	<polygon class="st5" points="769.1,-423.5 819.2,-473.5 869.2,-423.5 819.1,-373.5 	"/>
	<line class="st5" x1="869.2" y1="-473.5" x2="769.1" y2="-373.4"/>
	<line class="st5" x1="869.2" y1="-373.4" x2="769.1" y2="-473.5"/>
	<line class="st5" x1="769.1" y1="-423.5" x2="869.2" y2="-423.5"/>
	<line class="st5" x1="819.2" y1="-473.6" x2="819.2" y2="-373.4"/>
	<rect x="779.2" y="-315.4" class="st5" width="80" height="80"/>
	<polygon class="st5" points="769.1,-275.4 819.2,-325.4 869.2,-275.4 819.1,-225.4 	"/>
	<line class="st5" x1="869.2" y1="-325.4" x2="769.1" y2="-225.3"/>
	<line class="st5" x1="869.2" y1="-225.3" x2="769.1" y2="-325.4"/>
	<line class="st5" x1="769.1" y1="-275.4" x2="869.2" y2="-275.4"/>
	<line class="st5" x1="819.2" y1="-325.5" x2="819.2" y2="-225.3"/>
	<rect x="633.7" y="-315.4" class="st5" width="80" height="80"/>
	<polygon class="st5" points="623.7,-275.4 673.7,-325.4 723.8,-275.4 673.7,-225.4 	"/>
	<line class="st5" x1="723.8" y1="-325.4" x2="623.7" y2="-225.3"/>
	<line class="st5" x1="723.8" y1="-225.3" x2="623.7" y2="-325.4"/>
	<line class="st5" x1="623.7" y1="-275.4" x2="723.8" y2="-275.4"/>
	<line class="st5" x1="673.7" y1="-325.5" x2="673.7" y2="-225.3"/>
	<rect x="501.3" y="-315.4" class="st5" width="80" height="80"/>
	<polygon class="st5" points="491.2,-275.4 541.3,-325.4 591.3,-275.4 541.3,-225.4 	"/>
	<line class="st5" x1="591.3" y1="-325.4" x2="491.2" y2="-225.3"/>
	<line class="st5" x1="591.3" y1="-225.3" x2="491.2" y2="-325.4"/>
	<line class="st5" x1="491.2" y1="-275.4" x2="591.3" y2="-275.4"/>
	<line class="st5" x1="541.3" y1="-325.5" x2="541.3" y2="-225.3"/>
	<rect x="501.3" y="-177.5" class="st5" width="80" height="80"/>
	<polygon class="st5" points="491.2,-137.5 541.3,-187.5 591.3,-137.6 541.3,-87.5 	"/>
	<line class="st5" x1="591.3" y1="-187.6" x2="491.2" y2="-87.5"/>
	<line class="st5" x1="591.3" y1="-87.5" x2="491.2" y2="-187.5"/>
	<line class="st5" x1="491.2" y1="-137.5" x2="591.3" y2="-137.5"/>
	<line class="st5" x1="541.3" y1="-187.7" x2="541.3" y2="-87.5"/>
	<rect x="637" y="-177.5" class="st5" width="80" height="80"/>
	<polygon class="st5" points="627,-137.5 677,-187.5 727.1,-137.6 677,-87.5 	"/>
	<line class="st5" x1="727.1" y1="-187.6" x2="627" y2="-87.5"/>
	<line class="st5" x1="727.1" y1="-87.5" x2="627" y2="-187.5"/>
	<line class="st5" x1="627" y1="-137.5" x2="727.1" y2="-137.5"/>
	<line class="st5" x1="677" y1="-187.7" x2="677" y2="-87.5"/>
	<rect x="784" y="-177.5" class="st5" width="80" height="80"/>
	<polygon class="st5" points="773.9,-137.5 824,-187.5 874,-137.6 823.9,-87.5 	"/>
	<line class="st5" x1="874" y1="-187.6" x2="773.9" y2="-87.5"/>
	<line class="st5" x1="874" y1="-87.5" x2="773.9" y2="-187.5"/>
	<line class="st5" x1="773.9" y1="-137.5" x2="874" y2="-137.5"/>
	<line class="st5" x1="824" y1="-187.7" x2="824" y2="-87.5"/>
	<g>
		<defs>
			<rect id="SVGID_1_" x="15.3" y="66.5" width="264.5" height="22.8"/>
		</defs>
		<clipPath id="SVGID_2_">
			<use xlink:href="#SVGID_1_"  style="overflow:visible;"/>
		</clipPath>
		<g class="st6">
			<defs>
				<rect id="SVGID_3_" x="15.3" y="66.5" width="264.5" height="24.7"/>
			</defs>
			<clipPath id="SVGID_4_">
				<use xlink:href="#SVGID_3_"  style="overflow:visible;"/>
			</clipPath>
			<g style="clip-path:url(#SVGID_4_);">
				
					<image style="overflow:visible;" width="332" height="31" xlink:href="BD67E1E3.jpg"  transform="matrix(0.7966 0 0 0.7966 15.2695 66.4929)">
				</image>
			</g>
		</g>
	</g>
</g>
<g id="lines">
	<g>
		<path class="st7" d="M535.5-265l21.8,5.4l3.1-12.8l-21.8-5.4L535.5-265z M557.7-261.7l20.2,5l2.1-8.5l-20.2-5L557.7-261.7z"/>
		<rect x="551" y="-257.4" class="st8" width="12" height="2.3"/>
		<polygon class="st8" points="585.2,-260.9 584.5,-258.1 578.6,-259.6 579.3,-262.4 		"/>
		<polygon class="st8" points="535.3,-280.3 539,-279.4 535.1,-263.2 531.4,-264.1 		"/>
		<g>
			<path class="st7" d="M557-249.5l-17,17.1 M557-249.5l17,17.1 M557-255v22.6"/>
		</g>
	</g>
	<g>
		<polygon class="st9" points="524.3,-282.8 523,-281.4 521.6,-282.8 519.6,-282.8 519.6,-284.6 518.2,-286 519.6,-287.3 
			519.6,-289.2 521.6,-289.2 523,-290.6 524.3,-289.2 526.3,-289.2 526.3,-287.3 527.7,-286 526.3,-284.6 526.3,-282.8 		"/>
		<polygon class="st10" points="507.8,-291.7 506.5,-290.4 505.2,-291.7 503.4,-291.7 503.4,-293.5 502.1,-294.8 503.4,-296.1 
			503.4,-297.9 505.2,-297.9 506.5,-299.2 507.8,-297.9 509.7,-297.9 509.7,-296.1 511,-294.8 509.7,-293.5 509.7,-291.7 		"/>
		<polygon class="st10" points="524.3,-307 523,-305.7 521.7,-307 519.8,-307 519.8,-308.8 518.5,-310.1 519.8,-311.4 519.8,-313.2 
			521.7,-313.2 523,-314.5 524.3,-313.2 526.2,-313.2 526.2,-311.4 527.5,-310.1 526.2,-308.8 526.2,-307 		"/>
		<polygon class="st9" points="503.4,-311.5 502,-310.1 500.7,-311.5 498.7,-311.5 498.7,-313.3 497.3,-314.7 498.7,-316 
			498.7,-317.9 500.7,-317.9 502,-319.3 503.4,-317.9 505.4,-317.9 505.4,-316 506.8,-314.7 505.4,-313.3 505.4,-311.5 		"/>
	</g>
	<g>
		<path class="st7" d="M695.5-453.3l8-8 M702.3-424.5h11.4 M645.3-461.3l8,8 M673.8-455.6v-11.3 M633.3-424.5h11.4 M663.4-385.4
			h20.7 M663.4-388h20.7 M663.4-390.7h20.7"/>
		<polygon class="st8" points="694,-424 683.9,-446.6 663.5,-446.6 653.3,-424 663.5,-401.5 663.5,-401.5 663.5,-393.3 
			684.2,-393.3 684.2,-402.1 		"/>
		<g>
			<polygon class="st1" points="670.3,-421.6 667.3,-418.8 670.3,-415.9 673.3,-418.8 676.3,-415.9 679.3,-418.8 676.3,-421.6 
				673.3,-424.5 			"/>
		</g>
		<polyline class="st11" points="673.8,-394.1 673.8,-399.3 677.3,-402.8 673.9,-406.2 677.6,-409.9 673.5,-414 673.5,-419.9 		"/>
	</g>
	<g>
		<g>
			<polyline class="st7" points="812.4,-422.4 824.7,-410.1 824.7,-392.8 812.4,-380.5 795,-380.5 782.8,-392.8 782.8,-410.1 
				795,-422.4 			"/>
			<line class="st7" x1="803.7" y1="-430.5" x2="803.7" y2="-424.7"/>
			<rect x="799.4" y="-434.6" class="st8" width="8.7" height="5.4"/>
			<g>
				<polyline class="st8" points="805.3,-404.5 807.5,-402.3 807.5,-399.2 805.3,-397 802.2,-397 799.9,-399.2 799.9,-402.3 
					802.2,-404.5 				"/>
				<line class="st7" x1="803.7" y1="-400" x2="815.5" y2="-411.7"/>
			</g>
			
				<rect x="815.4" y="-419.1" transform="matrix(0.7071 0.7071 -0.7071 0.7071 -54.576 -702.5445)" class="st8" width="10.8" height="3.9"/>
			
				<rect x="781.7" y="-419.9" transform="matrix(-0.7071 0.7071 -0.7071 -0.7071 1048.1149 -1270.0765)" class="st8" width="10.8" height="3.9"/>
		</g>
		<path class="st10" d="M855.4-456.1l-5.5,5.5l-7.3,7.3l-8.1,2l-25.5-5v-4.4h14.8l-5.4-5.4l-14.8,2.9l-4.9,4.9l-6.1,0.1
			c-0.4-1.3-0.5-1.6-0.8-3l7.8-7.8l19.1-4.6l16.6,4.3l5-0.9l5.5-5.5"/>
	</g>
	<g>
		<g>
			<rect x="648.5" y="-275.2" class="st7" width="50.9" height="31.1"/>
			<rect x="641.7" y="-275.2" class="st8" width="6.5" height="4.9"/>
			<rect x="699.4" y="-275.2" class="st8" width="6.5" height="4.9"/>
			<polyline class="st8" points="700.2,-275.2 700.2,-281.3 688.7,-288 674,-288 659.2,-288 647.8,-281.3 647.8,-275.2 			"/>
			<polygon class="st8" points="677.1,-292.2 676.1,-288 671.8,-288 670.8,-292.2 			"/>
		</g>
		<g>
			<polyline class="st7" points="639,-237.1 646,-233.1 652.9,-237.1 659.9,-233.1 666.8,-237.1 673.8,-233.1 680.7,-237.1 
				687.7,-233.1 694.6,-237.1 701.6,-233.1 708.6,-237.1 			"/>
		</g>
		<polyline class="st7" points="675.9,-311.4 671.3,-306.8 675.8,-302.2 675.8,-295.5 		"/>
		<polyline class="st7" points="668.3,-315.1 663.6,-310.5 668.2,-305.9 668.2,-299.3 		"/>
	</g>
	<g>
		<polygon class="st12" points="797.3,-258.7 797.3,-258.7 788.7,-258.7 783.9,-247.8 785.4,-247.2 789.6,-256.7 789.7,-256.7 
			789.7,-246.4 789.7,-246 789.7,-236.1 792.4,-236.1 792.4,-246 793.8,-246 793.8,-236.1 796.4,-236.1 796.4,-246 796.4,-246.4 
			796.4,-256.7 796.5,-256.7 800.6,-247.2 802.1,-247.8 797.3,-258.7 		"/>
		<polygon class="st12" points="814.4,-258.7 814.4,-258.7 805.3,-258.7 805.3,-258.7 805.3,-258.7 800.5,-247.8 802,-247.2 
			806.1,-256.7 806.7,-256.7 804.4,-246 806.7,-246 806.7,-236.1 809.3,-236.1 809.3,-246 809.8,-246 810,-246 810.5,-246 
			810.5,-236.1 813.1,-236.1 813.1,-246 815.4,-246 813.1,-256.7 813.6,-256.7 817.8,-247.2 819.2,-247.8 814.4,-258.7 		"/>
		<polygon class="st12" points="791.9,-264.8 790.3,-263.3 790.2,-261 791.8,-259.3 794.1,-259.3 795.8,-260.9 795.8,-263.2 
			794.2,-264.8 		"/>
		<polygon class="st12" points="831.1,-258.7 831.1,-258.7 822.5,-258.7 817.7,-247.8 819.1,-247.2 823.3,-256.7 823.5,-256.7 
			823.5,-246.4 823.5,-246 823.5,-236.1 826.1,-236.1 826.1,-246 827.5,-246 827.5,-236.1 830.2,-236.1 830.2,-246 830.2,-246.4 
			830.2,-256.7 830.2,-256.7 834.4,-247.2 835.9,-247.8 831.1,-258.7 		"/>
		<polygon class="st12" points="825.7,-264.8 824,-263.3 824,-261 825.6,-259.3 827.9,-259.3 829.5,-260.9 829.6,-263.2 828,-264.8 
					"/>
		<polygon class="st12" points="808.9,-264.8 807.2,-263.3 807.2,-261 808.8,-259.3 811.1,-259.3 812.7,-260.9 812.7,-263.2 
			811.1,-264.8 		"/>
		<polygon class="st12" points="848.4,-258.7 848.4,-258.7 839.3,-258.7 839.3,-258.7 839.3,-258.7 834.5,-247.8 836,-247.2 
			840.1,-256.7 840.7,-256.7 838.4,-246 840.7,-246 840.7,-236.1 843.3,-236.1 843.3,-246 843.8,-246 844,-246 844.5,-246 
			844.5,-236.1 847.1,-236.1 847.1,-246 849.4,-246 847.1,-256.7 847.6,-256.7 851.8,-247.2 853.2,-247.8 848.5,-258.7 		"/>
		<polygon class="st12" points="842.9,-264.8 841.2,-263.3 841.2,-261 842.8,-259.3 845.1,-259.3 846.7,-260.9 846.7,-263.2 
			845.2,-264.8 		"/>
	</g>
	<g>
		<g>
			<polygon class="st7" points="848.9,-309.4 842.6,-315.7 838.2,-315.7 825.5,-292.4 827,-290.9 828.2,-289.7 830.2,-287.7 
				853.5,-300.4 853.5,-304.9 849.9,-308.4 			"/>
			<polygon class="st8" points="834,-304.2 828.9,-294.9 830.1,-293.7 831.1,-292.7 832.6,-291.1 851.3,-301.3 851.3,-304.9 			"/>
			
				<rect x="820.3" y="-289.5" transform="matrix(-0.7071 -0.7071 0.7071 -0.7071 1612.7059 92.5071)" class="st8" width="10.4" height="3.4"/>
		</g>
		<polygon class="st7" points="825.3,-284.8 825.9,-285.3 826.7,-285.3 827.2,-284.8 827.2,-284 826.7,-283.4 825.9,-283.4 
			825.3,-284 		"/>
		<polygon class="st7" points="821.7,-281.8 822.3,-282.3 823.1,-282.3 823.7,-281.8 823.7,-281 823.1,-280.4 822.3,-280.4 
			821.7,-281 		"/>
		<polygon class="st7" points="817.1,-277.3 817.6,-277.8 818.4,-277.8 819,-277.3 819,-276.5 818.4,-275.9 817.6,-275.9 
			817.1,-276.5 		"/>
		<polygon class="st7" points="822.7,-276.3 823.3,-276.9 824.1,-276.9 824.6,-276.3 824.6,-275.5 824.1,-274.9 823.3,-274.9 
			822.7,-275.5 		"/>
		<polygon class="st7" points="813.9,-275.3 814.5,-275.9 815.3,-275.9 815.9,-275.3 815.9,-274.6 815.3,-274 814.5,-274 
			813.9,-274.6 		"/>
		<polygon class="st7" points="820.8,-285.7 821.4,-286.3 822.1,-286.3 822.7,-285.7 822.7,-284.9 822.1,-284.4 821.4,-284.4 
			820.8,-284.9 		"/>
		<polygon class="st7" points="816.7,-282.3 817.2,-282.9 818,-282.9 818.6,-282.3 818.6,-281.5 818,-281 817.2,-281 816.7,-281.5 
					"/>
	</g>
	<g>
		<polyline class="st7" points="713.9,-122.6 713.9,-132.6 697.7,-148.8 677.7,-151.2 657.6,-148.8 641.4,-132.6 641.4,-122.6 		"/>
		<polygon class="st8" points="680.8,-160.9 679.9,-156.6 675.5,-156.6 674.5,-160.9 		"/>
		<rect x="633.2" y="-122.6" class="st8" width="88.3" height="5.2"/>
		<line class="st7" x1="677.7" y1="-151.2" x2="677.7" y2="-158.8"/>
	</g>
	<g>
		<path class="st7" d="M827.4-102.2l25.8-28.9v-18.7c0,0-9.9-9.9-13.6-13.6l-15.1,13.6l-15.1-13.6l-13.6,13.6v18.7l25.8,28.9H827.4z
			"/>
	</g>
	<g>
		<g>
			<g>
				<path class="st8" d="M496.3-395.9h12.6c0.1,0,0.1,0,0.2,0.1l9.2,9.2c0.1,0.1,0.4,0,0.4-0.2v-8.9c0-0.1,0.1-0.2,0.2-0.2h5
					c0.1,0,0.2-0.1,0.2-0.2v-27c0-0.1-0.1-0.2-0.2-0.2h-27.6c-0.1,0-0.2,0.1-0.2,0.2v27C496.1-396,496.2-395.9,496.3-395.9z"/>
			</g>
			<g>
				<g>
					<path class="st1" d="M509.4-405.9c-0.1,0-0.2-0.1-0.1-0.3c0.3-1.3,0.5-2.1,1.6-3.1c1.2-1,2.1-1.3,2.1-3.4
						c0-1.7-0.4-2.3-2.5-2.3c-0.9,0-1.9,0.2-2.9,0.5c-0.1,0-0.3,0-0.3-0.2l-0.1-1.1c0-0.1,0.1-0.2,0.2-0.2c1-0.2,2.1-0.5,3.2-0.5
						c3.1,0,4.2,1.1,4.2,3.8c0,3.1-1.4,3.4-2.8,4.8c-0.6,0.6-0.9,1.2-1.2,2.3c0,0.1-0.2,0.2-0.3,0.2L509.4-405.9z M510.6-403.4
						c0.5,0.1,0.5,0.4,0.5,1.1c0,0.8-0.7,1.4-1.4,1.2c-0.5-0.1-0.5-0.4-0.5-1.1C509.2-403,509.9-403.6,510.6-403.4z"/>
				</g>
			</g>
		</g>
		<g>
			<polyline class="st10" points="545.8,-455.4 576.1,-439.2 572.1,-428.8 568.2,-418.5 545.5,-423.9 534.8,-426.5 			"/>
			<polyline class="st13" points="550.7,-452.8 552,-456.3 558.1,-456.8 564.5,-454.4 566.6,-449.6 564.7,-444.5 			"/>
			<polygon class="st10" points="560.1,-447.5 539.2,-425.4 568.2,-418.5 576.1,-439.2 			"/>
			<line class="st10" x1="544.7" y1="-424.1" x2="546.3" y2="-428.3"/>
			<line class="st10" x1="550.5" y1="-422.2" x2="552.1" y2="-426.4"/>
			<line class="st10" x1="556.6" y1="-421.3" x2="557.7" y2="-424.3"/>
			<line class="st10" x1="562.2" y1="-419.5" x2="563.2" y2="-422.2"/>
		</g>
		<g>
			<polygon class="st10" points="520.1,-442.1 522.1,-444.3 525.1,-444.4 527.3,-442.4 527.5,-439.4 525.4,-437.2 522.4,-437 
				520.2,-439.1 			"/>
			<polygon class="st10" points="530.9,-437.1 531.9,-438.3 533.5,-438.4 534.6,-437.3 534.7,-435.7 533.6,-434.6 532.1,-434.5 
				530.9,-435.6 			"/>
			<polygon class="st10" points="518.7,-431.2 519.7,-432.4 521.3,-432.4 522.4,-431.4 522.5,-429.8 521.4,-428.7 519.9,-428.6 
				518.7,-429.7 			"/>
		</g>
	</g>
	
		<rect x="547.5" y="-119.6" transform="matrix(0.9583 -0.2859 0.2859 0.9583 57.4951 157.1978)" class="st8" width="39.4" height="2.6"/>
	<g>
		
			<rect x="493.4" y="-151.2" transform="matrix(-0.6144 -0.789 0.789 -0.6144 950.8242 166.6033)" class="st9" width="45.4" height="4.2"/>
		<polygon class="st12" points="524.9,-142 531.6,-140.2 536.3,-134.1 536.4,-127.2 531.8,-123.6 525.2,-125.4 520.4,-131.6 
			520.3,-138.4 		"/>
	</g>
	<polygon class="st14" points="549.4,-114.2 549.4,-107.8 539.1,-97.5 524.1,-97.5 522.3,-97.5 508.9,-97.5 498.6,-107.8 
		498.6,-114.2 	"/>
</g>
</svg>
