<?xml version="1.0" encoding="utf-8"?>
<!-- Generator: Adobe Illustrator 19.1.1, SVG Export Plug-In . SVG Version: 6.00 Build 0)  -->
<svg version="1.1" xmlns="http://www.w3.org/2000/svg" xmlns:xlink="http://www.w3.org/1999/xlink" x="0px" y="0px"
	 viewBox="0 0 295 150" style="enable-background:new 0 0 295 150;" xml:space="preserve">
<style type="text/css">
	.st0{fill:#FFFFFF;}
	.st1{fill:none;stroke:#B4B1B3;stroke-miterlimit:10;}
	.st2{fill:#BD2137;}
	.st3{fill:#009AA6;}
	.st4{fill:#813393;}
	.st5{fill:#FFFFFF;stroke:#FFFFFF;}
	.st6{fill:#539B43;}
	.st7{fill:#BFA1CC;}
	.st8{fill:none;stroke:#B4B1B3;stroke-width:6;stroke-miterlimit:10;}
	.st9{fill:#BD2036;}
	.st10{fill:#00A0AF;}
	.st11{fill:#803393;}
	.st12{fill:#FFFFFF;stroke:#B4B1B3;stroke-width:0.5;stroke-miterlimit:10;}
	.st13{fill:none;stroke:#BFA1CC;stroke-miterlimit:10;}
	.st14{clip-path:url(#SVGID_2_);}
	.st15{fill:#B4B1B3;}
	.st16{fill:none;stroke:#AD58A2;stroke-width:0.1;stroke-miterlimit:10;stroke-dasharray:1,0.3;}
	.st17{clip-path:url(#SVGID_4_);}
	.st18{fill:#FFFFFF;stroke:#B4B1B3;stroke-miterlimit:10;}
	.st19{fill:none;stroke:#FFFFFF;stroke-miterlimit:10;}
	.st20{opacity:0.3;fill:url(#SVGID_7_);}
	.st21{opacity:0.3;fill:url(#SVGID_8_);}
	.st22{opacity:0.3;fill:url(#SVGID_9_);}
	.st23{fill:#FFFFFF;stroke:#BFA1CC;stroke-miterlimit:10;}
</style>
<g id="Layer_2">
	<rect x="2408.3" y="134.9" class="st0" width="288.5" height="107.6"/>
	<g>
		
			<rect x="2240.3" y="662.3" transform="matrix(0.99 0.1407 -0.1407 0.99 119.5033 -308.9148)" class="st1" width="7.3" height="56.4"/>
		<polyline class="st1" points="2247.9,662.6 2256.3,603.4 2248.6,615.7 2246.7,629.2 2248.1,641.7 2247.8,648.4 2245.8,662.3 		"/>
		<polyline class="st1" points="2256.4,602.7 2254.5,602.5 2246.3,605.6 2240.9,616.2 2239.3,627.2 2245.8,651.8 2244.3,662.1 		"/>
		<polyline class="st1" points="2245.8,651.8 2243.1,628.7 2244.9,616.1 2248.8,608.5 2256.4,602.7 		"/>
		<g>
			<polyline class="st1" points="2256.3,603.4 2260.3,617.4 2258.4,630.8 2253.6,642.5 2252,649 2250,662.9 			"/>
			<polyline class="st1" points="2256.4,602.7 2258.4,603 2265.4,608.3 2267.6,620 2266,631 2253,652.8 2251.5,663.1 			"/>
			<polyline class="st1" points="2253,652.8 2262,631.3 2263.8,618.8 2262.2,610.4 2256.4,602.7 			"/>
		</g>
	</g>
	<text transform="matrix(1 0 0 1 2344.8967 774.5239)" class="st0" style="font-family:'SenticoSansDT-Regular'; font-size:24px;">Real law made easy for you, by</text>
	<g>
		<polygon class="st0" points="2668.3,758.5 2668.3,785.2 2682.8,785.2 2682.8,782.3 2671.6,782.3 2671.6,758.5 		"/>
		<polygon class="st0" points="2702.7,785.2 2702.7,772.9 2691,772.9 2691,785.2 2687.7,785.2 2687.7,758.5 2691,758.5 2691,770 
			2702.7,770 2702.7,758.5 2705.9,758.5 2705.9,785.2 		"/>
		<g>
			<path class="st0" d="M2720,770.4c-4.5-1.2-6.1-1.6-6.1-5.2c0-2.9,1.1-4.3,5.3-4.3c2.3,0,4.8,0.4,6.6,1v-3.1
				c-1.9-0.4-4.4-0.7-6.7-0.7c-7,0-8.7,3.1-8.7,7.9c0,4.6,2.4,5.7,6.8,6.8c4.6,1.2,6.2,1.6,6.2,5.5c0,3.2-1.6,4.4-5.5,4.4
				c-2.4,0-5.1-0.5-7.1-1.2v3.2c2.1,0.6,4.7,1,7.1,1c6.9,0,8.9-2.9,8.9-7.6C2726.9,773,2725.1,771.8,2720,770.4"/>
		</g>
		<polygon class="st0" points="2746.2,740.9 2739.2,740.9 2739.2,747.9 2746.2,747.9 2746.2,754.9 2753.2,754.9 2753.2,747.9 
			2753.2,740.9 		"/>
		<polygon class="st0" points="2739.2,754.9 2739.2,747.9 2732.1,747.9 2732.1,754.9 2732.1,762 2739.2,762 2746.2,762 
			2746.2,754.9 		"/>
	</g>
	<rect y="0" class="st2" width="295" height="150"/>
	<rect x="2391.2" y="-100.4" class="st3" width="311.8" height="48.3"/>
	<g>
		<rect x="2788.7" y="-100.1" class="st4" width="311.8" height="48.3"/>
	</g>
	<g>
		<polygon class="st0" points="173.5,39.7 155.8,46.7 155.8,93.6 173.5,93.6 		"/>
		<polygon class="st0" points="154.3,93.6 136.6,93.6 136.6,54.3 154.3,47.3 		"/>
		<polygon class="st0" points="117.3,61.9 117.3,93.6 135,93.6 135,54.9 		"/>
		<g>
			<path class="st0" d="M125.3,110.3h-2.9l-1.2-7.8l-0.6,7.8h-3.2l1.1-12.9h4.5l0.7,4.3c0.1,0.4,0.1,0.7,0.2,1.2
				c0,0.4,0.1,0.9,0.1,1.4c0.1-0.8,0.2-1.6,0.3-2.2l0.9-4.7h4.3l0.9,12.9h-3.1l-0.4-7.8L125.3,110.3z"/>
			<path class="st0" d="M140.7,110.3h-3.6l-0.3-1.6h-2.3l-0.3,1.6h-3.6l3.1-12.9h4.3L140.7,110.3z M136.4,106l-0.2-1.5
				c0,0,0-0.1,0-0.2c0-0.1-0.1-0.6-0.2-1.5c0-0.1,0-0.2,0-0.4c0-0.2,0-0.4-0.1-0.6l-0.1-1.2c0,0.1,0,0.2,0,0.4c0,0.1,0,0.3-0.1,0.5
				c0,0.3-0.1,0.6-0.1,0.7c0,0.1,0,0.2,0,0.2l-0.2,1.6l-0.4,2H136.4z"/>
			<path class="st0" d="M150.2,110.3h-3.8l-1.7-4.6c0-0.1,0-0.2-0.1-0.3c0-0.1-0.1-0.3-0.2-0.5l0,0.9v4.5H141V97.5h3.6
				c1.6,0,2.7,0.3,3.5,0.9c1,0.8,1.5,1.9,1.5,3.4c0,1.6-0.7,2.6-2,3.2L150.2,110.3z M144.5,103.2h0.2c0.4,0,0.7-0.2,1-0.5
				c0.3-0.3,0.4-0.7,0.4-1.2c0-1-0.5-1.4-1.5-1.4h-0.1V103.2z"/>
			<polygon class="st0" points="159.9,110.3 156.1,110.3 153.8,104.4 153.9,110.3 150.4,110.3 150.4,97.5 153.9,97.5 153.8,103 
				155.7,97.5 159.4,97.5 156.8,103.7 			"/>
			<polygon class="st0" points="160.2,110.3 160.2,97.5 166.6,97.5 166.6,100.4 163.6,100.4 163.6,102.2 166.2,102.2 166.2,105.3 
				163.6,105.3 163.6,107.4 166.6,107.4 166.6,110.3 			"/>
			<polygon class="st0" points="173.5,110.3 167.4,110.3 167.4,97.5 170.7,97.5 170.7,107.4 173.5,107.4 			"/>
			<path class="st0" d="M171.6,99.9c0,1.7,1.4,3,3,3c1.6,0,3-1.3,3-3c0-1.7-1.4-3-3-3C173,96.9,171.6,98.2,171.6,99.9 M172.2,99.9
				c0-1.4,1.1-2.5,2.4-2.5c1.4,0,2.4,1.1,2.4,2.5c0,1.4-1.1,2.5-2.4,2.5C173.3,102.4,172.2,101.4,172.2,99.9 M174,100.2h0.6l0.9,1.5
				h0.6l-1-1.5c0.5-0.1,0.9-0.3,0.9-1c0-0.7-0.4-1-1.2-1h-1.3v3.5h0.5V100.2z M174,99.7v-1.1h0.7c0.4,0,0.7,0.1,0.7,0.5
				c0,0.5-0.4,0.6-0.8,0.6H174z"/>
		</g>
	</g>
	<rect y="202.2" class="st3" width="295" height="150"/>
	<rect y="414.8" class="st4" width="295" height="150"/>
	<g>
		<polygon class="st5" points="2507.1,-69.1 2496.6,-74.4 2486,-69.2 2496.6,-62.8 		"/>
		<polygon class="st5" points="2507.1,-82.4 2497.3,-88.3 2497.3,-75.6 2507.1,-70.7 		"/>
		<polygon class="st5" points="2486,-82.3 2495.8,-88.1 2495.8,-75.5 2486,-70.7 		"/>
		<g>
			<path class="st5" d="M2520.8-80.1h-3.1l-0.5,1.2c-0.1,0.3-0.2,0.5-0.2,0.7c0,0.1,0.1,0.2,0.2,0.3c0.1,0.1,0.4,0.2,0.7,0.2v0.2
				h-2.5v-0.2c0.3-0.1,0.5-0.1,0.6-0.2c0.2-0.2,0.4-0.6,0.7-1.1l2.8-6.5h0.2l2.7,6.5c0.2,0.5,0.4,0.9,0.6,1c0.2,0.2,0.4,0.2,0.8,0.3
				v0.2h-3.1v-0.2c0.3,0,0.5-0.1,0.6-0.2c0.1-0.1,0.2-0.2,0.2-0.3c0-0.2-0.1-0.4-0.2-0.8L2520.8-80.1z M2520.6-80.5l-1.3-3.2
				l-1.4,3.2H2520.6z"/>
			<path class="st5" d="M2530.2-81.5c0.5,0.1,1,0.3,1.2,0.6c0.4,0.4,0.6,0.8,0.6,1.3c0,0.4-0.1,0.8-0.4,1.1c-0.2,0.4-0.6,0.6-1,0.8
				c-0.4,0.2-1.1,0.2-2,0.2h-3.7v-0.2h0.3c0.3,0,0.6-0.1,0.7-0.3c0.1-0.1,0.1-0.4,0.1-0.9V-84c0-0.5-0.1-0.8-0.2-0.9
				c-0.1-0.2-0.4-0.3-0.7-0.3h-0.3v-0.2h3.4c0.6,0,1.1,0,1.5,0.1c0.6,0.1,1,0.4,1.3,0.7s0.5,0.8,0.5,1.2c0,0.4-0.1,0.7-0.4,1.1
				C2531-81.9,2530.7-81.7,2530.2-81.5z M2527.2-81.8c0.1,0,0.3,0,0.5,0.1c0.2,0,0.4,0,0.6,0c0.6,0,1-0.1,1.3-0.2
				c0.3-0.1,0.5-0.3,0.7-0.6c0.2-0.2,0.2-0.5,0.2-0.8c0-0.5-0.2-0.8-0.6-1.2c-0.4-0.3-0.9-0.5-1.6-0.5c-0.4,0-0.7,0-1,0.1V-81.8z
				 M2527.2-78.1c0.5,0.1,0.9,0.2,1.3,0.2c0.7,0,1.2-0.2,1.6-0.5c0.4-0.3,0.6-0.7,0.6-1.2c0-0.3-0.1-0.6-0.3-0.9
				c-0.2-0.3-0.4-0.5-0.8-0.7c-0.4-0.2-0.8-0.2-1.4-0.2c-0.2,0-0.4,0-0.6,0c-0.2,0-0.3,0-0.4,0V-78.1z"/>
			<path class="st5" d="M2539-81.5c0.5,0.1,1,0.3,1.2,0.6c0.4,0.4,0.6,0.8,0.6,1.3c0,0.4-0.1,0.8-0.4,1.1c-0.2,0.4-0.6,0.6-1,0.8
				c-0.4,0.2-1.1,0.2-2,0.2h-3.7v-0.2h0.3c0.3,0,0.6-0.1,0.7-0.3c0.1-0.1,0.1-0.4,0.1-0.9V-84c0-0.5-0.1-0.8-0.2-0.9
				c-0.1-0.2-0.4-0.3-0.7-0.3h-0.3v-0.2h3.4c0.6,0,1.1,0,1.5,0.1c0.6,0.1,1,0.4,1.3,0.7c0.3,0.4,0.5,0.8,0.5,1.2
				c0,0.4-0.1,0.7-0.4,1.1C2539.8-81.9,2539.4-81.7,2539-81.5z M2535.9-81.8c0.1,0,0.3,0,0.5,0.1c0.2,0,0.4,0,0.6,0
				c0.6,0,1-0.1,1.3-0.2c0.3-0.1,0.5-0.3,0.7-0.6c0.2-0.2,0.2-0.5,0.2-0.8c0-0.5-0.2-0.8-0.6-1.2c-0.4-0.3-0.9-0.5-1.6-0.5
				c-0.4,0-0.7,0-1,0.1V-81.8z M2535.9-78.1c0.5,0.1,0.9,0.2,1.3,0.2c0.7,0,1.2-0.2,1.6-0.5c0.4-0.3,0.6-0.7,0.6-1.2
				c0-0.3-0.1-0.6-0.3-0.9c-0.2-0.3-0.4-0.5-0.8-0.7c-0.4-0.2-0.8-0.2-1.4-0.2c-0.2,0-0.4,0-0.6,0c-0.2,0-0.3,0-0.4,0V-78.1z"/>
			<path class="st5" d="M2544.7-84.9v3.1h1.7c0.4,0,0.8-0.1,0.9-0.2c0.2-0.2,0.3-0.5,0.3-0.9h0.2v2.7h-0.2c-0.1-0.4-0.1-0.6-0.2-0.7
				c-0.1-0.1-0.2-0.2-0.3-0.3c-0.2-0.1-0.4-0.1-0.7-0.1h-1.7v2.6c0,0.3,0,0.6,0,0.6c0,0.1,0.1,0.1,0.2,0.2c0.1,0,0.2,0.1,0.4,0.1
				h1.3c0.4,0,0.8,0,1-0.1c0.2-0.1,0.4-0.2,0.6-0.4c0.2-0.2,0.5-0.6,0.7-1.1h0.2l-0.7,2h-6.1v-0.2h0.3c0.2,0,0.4,0,0.5-0.1
				c0.1-0.1,0.2-0.2,0.3-0.3c0-0.1,0.1-0.4,0.1-0.8V-84c0-0.5-0.1-0.8-0.2-0.9c-0.1-0.2-0.4-0.2-0.7-0.2h-0.3v-0.2h6.1l0.1,1.7h-0.2
				c-0.1-0.4-0.2-0.7-0.3-0.9c-0.1-0.2-0.2-0.3-0.4-0.4c-0.2-0.1-0.4-0.1-0.8-0.1H2544.7z"/>
			<path class="st5" d="M2556-85.4h2.7v0.2h-0.2c-0.1,0-0.2,0-0.4,0.1c-0.2,0.1-0.4,0.2-0.5,0.4c-0.2,0.2-0.4,0.4-0.6,0.8l-1.9,3v2
				c0,0.5,0.1,0.8,0.2,0.9c0.1,0.2,0.4,0.2,0.7,0.2h0.3v0.2h-3.4v-0.2h0.3c0.3,0,0.6-0.1,0.7-0.3c0.1-0.1,0.1-0.4,0.1-0.9v-1.8
				l-2.1-3.3c-0.3-0.4-0.4-0.6-0.5-0.7c-0.1-0.1-0.3-0.2-0.6-0.3c-0.1,0-0.2-0.1-0.3-0.1v-0.2h3.4v0.2h-0.2c-0.2,0-0.3,0-0.5,0.1
				c-0.2,0.1-0.2,0.2-0.2,0.4c0,0.1,0.1,0.4,0.4,0.8l1.6,2.5l1.5-2.4c0.2-0.4,0.3-0.6,0.3-0.8c0-0.1,0-0.2-0.1-0.3
				c-0.1-0.1-0.1-0.2-0.2-0.2c-0.1,0-0.3-0.1-0.5-0.1V-85.4z"/>
			<path class="st5" d="M2569.9-79.7l0.2,0l-0.7,2.1h-6.1v-0.2h0.3c0.3,0,0.6-0.1,0.7-0.3c0.1-0.1,0.1-0.4,0.1-0.9V-84
				c0-0.5-0.1-0.8-0.2-0.9c-0.1-0.2-0.4-0.3-0.7-0.3h-0.3v-0.2h3.6v0.2c-0.4,0-0.7,0-0.9,0.1c-0.2,0.1-0.3,0.2-0.3,0.3
				c-0.1,0.1-0.1,0.4-0.1,0.9v4.9c0,0.3,0,0.5,0.1,0.7c0,0.1,0.1,0.1,0.2,0.2c0.1,0,0.4,0.1,0.9,0.1h0.6c0.6,0,1,0,1.3-0.1
				c0.2-0.1,0.5-0.2,0.7-0.5C2569.4-78.8,2569.6-79.2,2569.9-79.7z"/>
			<path class="st5" d="M2573.6-84.9v3.1h1.7c0.4,0,0.8-0.1,0.9-0.2c0.2-0.2,0.3-0.5,0.3-0.9h0.2v2.7h-0.2c-0.1-0.4-0.1-0.6-0.2-0.7
				c-0.1-0.1-0.2-0.2-0.3-0.3c-0.2-0.1-0.4-0.1-0.7-0.1h-1.7v2.6c0,0.3,0,0.6,0,0.6c0,0.1,0.1,0.1,0.2,0.2c0.1,0,0.2,0.1,0.4,0.1
				h1.3c0.4,0,0.8,0,1-0.1c0.2-0.1,0.4-0.2,0.6-0.4c0.2-0.2,0.5-0.6,0.7-1.1h0.2l-0.7,2h-6.1v-0.2h0.3c0.2,0,0.4,0,0.5-0.1
				c0.1-0.1,0.2-0.2,0.3-0.3c0-0.1,0.1-0.4,0.1-0.8V-84c0-0.5-0.1-0.8-0.2-0.9c-0.1-0.2-0.4-0.2-0.7-0.2h-0.3v-0.2h6.1l0.1,1.7h-0.2
				c-0.1-0.4-0.2-0.7-0.3-0.9c-0.1-0.2-0.2-0.3-0.4-0.4c-0.2-0.1-0.4-0.1-0.8-0.1H2573.6z"/>
			<path class="st5" d="M2586.5-85.5l0.2,2.5h-0.2c-0.2-0.6-0.5-1.1-0.8-1.4c-0.5-0.5-1.1-0.7-1.8-0.7c-1,0-1.8,0.4-2.3,1.2
				c-0.4,0.7-0.7,1.5-0.7,2.4c0,0.7,0.1,1.4,0.4,2.1c0.3,0.6,0.7,1.1,1.1,1.4c0.5,0.3,1,0.4,1.4,0.4c0.3,0,0.6,0,0.8-0.1
				c0.3-0.1,0.5-0.2,0.8-0.3v-2.3c0-0.4,0-0.7-0.1-0.8c-0.1-0.1-0.2-0.2-0.3-0.3c-0.1-0.1-0.3-0.1-0.7-0.1v-0.2h3v0.2h-0.1
				c-0.3,0-0.5,0.1-0.6,0.3c-0.1,0.1-0.1,0.4-0.1,0.9v2.4c-0.4,0.2-0.9,0.4-1.3,0.5c-0.4,0.1-0.9,0.2-1.4,0.2
				c-1.5,0-2.7-0.5-3.5-1.5c-0.6-0.7-0.9-1.6-0.9-2.5c0-0.7,0.2-1.4,0.5-2c0.4-0.8,0.9-1.3,1.6-1.7c0.6-0.3,1.3-0.5,2-0.5
				c0.3,0,0.5,0,0.8,0.1c0.2,0,0.6,0.1,1,0.3c0.2,0.1,0.4,0.1,0.4,0.1s0.1,0,0.2-0.1c0.1-0.1,0.1-0.2,0.1-0.4H2586.5z"/>
			<path class="st5" d="M2594-80.1h-3.1l-0.5,1.2c-0.1,0.3-0.2,0.5-0.2,0.7c0,0.1,0.1,0.2,0.2,0.3c0.1,0.1,0.4,0.2,0.7,0.2v0.2h-2.5
				v-0.2c0.3-0.1,0.5-0.1,0.6-0.2c0.2-0.2,0.4-0.6,0.7-1.1l2.8-6.5h0.2l2.7,6.5c0.2,0.5,0.4,0.9,0.6,1c0.2,0.2,0.4,0.2,0.8,0.3v0.2
				h-3.1v-0.2c0.3,0,0.5-0.1,0.6-0.2c0.1-0.1,0.2-0.2,0.2-0.3c0-0.2-0.1-0.4-0.2-0.8L2594-80.1z M2593.9-80.5l-1.3-3.2l-1.4,3.2
				H2593.9z"/>
			<path class="st5" d="M2604.8-79.7l0.2,0l-0.7,2.1h-6.1v-0.2h0.3c0.3,0,0.6-0.1,0.7-0.3c0.1-0.1,0.1-0.4,0.1-0.9V-84
				c0-0.5-0.1-0.8-0.2-0.9c-0.1-0.2-0.4-0.3-0.7-0.3h-0.3v-0.2h3.6v0.2c-0.4,0-0.7,0-0.9,0.1c-0.2,0.1-0.3,0.2-0.3,0.3
				c-0.1,0.1-0.1,0.4-0.1,0.9v4.9c0,0.3,0,0.5,0.1,0.7c0,0.1,0.1,0.1,0.2,0.2c0.1,0,0.4,0.1,0.9,0.1h0.6c0.6,0,1,0,1.3-0.1
				c0.2-0.1,0.5-0.2,0.7-0.5C2604.4-78.8,2604.6-79.2,2604.8-79.7z"/>
		</g>
		<g>
			<path class="st5" d="M2517.8-69.3v2.3c0,0.5,0.1,0.8,0.2,0.9c0.1,0.2,0.4,0.3,0.7,0.3h0.3v0.2h-3.4v-0.2h0.3
				c0.3,0,0.6-0.1,0.7-0.3c0.1-0.1,0.1-0.4,0.1-0.9v-5.1c0-0.5-0.1-0.8-0.2-0.9c-0.2-0.2-0.4-0.3-0.7-0.3h-0.3v-0.2h2.9
				c0.7,0,1.3,0.1,1.7,0.2c0.4,0.1,0.7,0.4,1,0.7c0.3,0.3,0.4,0.8,0.4,1.2c0,0.6-0.2,1.2-0.6,1.6c-0.4,0.4-1,0.6-1.8,0.6
				c-0.2,0-0.4,0-0.6,0C2518.3-69.2,2518-69.2,2517.8-69.3z M2517.8-69.6c0.2,0,0.4,0.1,0.5,0.1c0.2,0,0.3,0,0.4,0
				c0.4,0,0.7-0.2,1-0.5c0.3-0.3,0.4-0.7,0.4-1.2c0-0.3-0.1-0.7-0.2-0.9c-0.1-0.3-0.3-0.5-0.6-0.7c-0.3-0.1-0.5-0.2-0.9-0.2
				c-0.2,0-0.5,0-0.8,0.1V-69.6z"/>
			<path class="st5" d="M2531.6-65.6h-2.1l-2.7-3.7c-0.2,0-0.4,0-0.5,0c0,0-0.1,0-0.2,0s-0.1,0-0.2,0v2.3c0,0.5,0.1,0.8,0.2,0.9
				c0.1,0.2,0.4,0.3,0.7,0.3h0.3v0.2h-3.4v-0.2h0.3c0.3,0,0.6-0.1,0.7-0.3c0.1-0.1,0.1-0.4,0.1-0.9v-5.1c0-0.5-0.1-0.8-0.2-0.9
				c-0.1-0.2-0.4-0.3-0.7-0.3h-0.3v-0.2h2.9c0.8,0,1.4,0.1,1.8,0.2c0.4,0.1,0.7,0.3,1,0.7c0.3,0.3,0.4,0.7,0.4,1.2
				c0,0.5-0.2,0.9-0.5,1.3c-0.3,0.4-0.8,0.6-1.5,0.8l1.6,2.3c0.4,0.5,0.7,0.9,1,1c0.3,0.2,0.6,0.3,1,0.3V-65.6z M2526-69.7
				c0.1,0,0.1,0,0.2,0c0.1,0,0.1,0,0.1,0c0.7,0,1.3-0.2,1.7-0.5c0.4-0.3,0.6-0.7,0.6-1.2c0-0.5-0.2-0.9-0.5-1.2
				c-0.3-0.3-0.7-0.5-1.2-0.5c-0.2,0-0.5,0-0.9,0.1V-69.7z"/>
			<path class="st5" d="M2537.5-73.7c1,0,1.9,0.4,2.7,1.2c0.7,0.8,1.1,1.7,1.1,2.9c0,1.2-0.4,2.2-1.1,3c-0.8,0.8-1.7,1.2-2.7,1.2
				c-1.1,0-2-0.4-2.7-1.2c-0.7-0.8-1.1-1.8-1.1-3c0-1.2,0.4-2.3,1.3-3.1C2535.6-73.3,2536.5-73.7,2537.5-73.7z M2537.4-73.2
				c-0.7,0-1.3,0.3-1.7,0.8c-0.5,0.7-0.8,1.6-0.8,2.9c0,1.3,0.3,2.3,0.8,3c0.4,0.5,1,0.8,1.7,0.8c0.7,0,1.4-0.3,1.8-0.9
				c0.5-0.6,0.7-1.5,0.7-2.7c0-1.3-0.3-2.4-0.8-3C2538.7-73,2538.2-73.2,2537.4-73.2z"/>
			<path class="st5" d="M2550.3-73.5l0.1,1.8h-0.2c0-0.3-0.1-0.6-0.2-0.7c-0.1-0.2-0.3-0.4-0.5-0.5c-0.2-0.1-0.5-0.2-0.8-0.2h-1.1v6
				c0,0.5,0.1,0.8,0.2,0.9c0.1,0.2,0.4,0.2,0.7,0.2h0.3v0.2h-3.3v-0.2h0.3c0.3,0,0.6-0.1,0.7-0.3c0.1-0.1,0.1-0.4,0.1-0.9v-6h-0.9
				c-0.4,0-0.6,0-0.8,0.1c-0.2,0.1-0.4,0.2-0.5,0.4c-0.1,0.2-0.2,0.5-0.3,0.8h-0.2l0.1-1.8H2550.3z"/>
			<path class="st5" d="M2554.8-73.1v3.1h1.7c0.4,0,0.8-0.1,0.9-0.2c0.2-0.2,0.3-0.5,0.3-0.9h0.2v2.7h-0.2c-0.1-0.4-0.1-0.6-0.2-0.7
				c-0.1-0.1-0.2-0.2-0.3-0.3c-0.2-0.1-0.4-0.1-0.7-0.1h-1.7v2.6c0,0.3,0,0.6,0,0.6c0,0.1,0.1,0.1,0.2,0.2c0.1,0,0.2,0.1,0.4,0.1
				h1.3c0.4,0,0.8,0,1-0.1c0.2-0.1,0.4-0.2,0.6-0.4c0.2-0.2,0.5-0.6,0.7-1.1h0.2l-0.7,2h-6.1v-0.2h0.3c0.2,0,0.4,0,0.5-0.1
				c0.1-0.1,0.2-0.2,0.3-0.3c0-0.1,0.1-0.4,0.1-0.8v-5.1c0-0.5-0.1-0.8-0.2-0.9c-0.1-0.2-0.4-0.2-0.7-0.2h-0.3v-0.2h6.1l0.1,1.7
				h-0.2c-0.1-0.4-0.2-0.7-0.3-0.9c-0.1-0.2-0.2-0.3-0.4-0.4c-0.2-0.1-0.4-0.1-0.8-0.1H2554.8z"/>
			<path class="st5" d="M2568.4-73.7l0.2,2.7h-0.2c-0.2-0.8-0.6-1.4-1-1.7c-0.4-0.4-1-0.5-1.6-0.5c-0.5,0-1,0.1-1.4,0.4
				c-0.4,0.3-0.8,0.7-1,1.3c-0.2,0.6-0.4,1.3-0.4,2.2c0,0.7,0.1,1.3,0.3,1.9c0.2,0.5,0.6,0.9,1,1.2c0.5,0.3,1,0.4,1.6,0.4
				c0.5,0,1-0.1,1.3-0.3c0.4-0.2,0.8-0.7,1.3-1.3l0.2,0.1c-0.4,0.7-0.9,1.2-1.4,1.5c-0.5,0.3-1.1,0.5-1.9,0.5c-1.3,0-2.3-0.5-3-1.4
				c-0.5-0.7-0.8-1.6-0.8-2.5c0-0.8,0.2-1.5,0.5-2.2c0.4-0.7,0.8-1.2,1.4-1.5c0.6-0.4,1.3-0.5,2-0.5c0.6,0,1.1,0.1,1.7,0.4
				c0.2,0.1,0.3,0.1,0.3,0.1c0.1,0,0.2,0,0.3-0.1c0.1-0.1,0.2-0.2,0.2-0.4H2568.4z"/>
			<path class="st5" d="M2577.7-73.5l0.1,1.8h-0.2c0-0.3-0.1-0.6-0.2-0.7c-0.1-0.2-0.3-0.4-0.5-0.5c-0.2-0.1-0.5-0.2-0.8-0.2h-1.1v6
				c0,0.5,0.1,0.8,0.2,0.9c0.1,0.2,0.4,0.2,0.7,0.2h0.3v0.2h-3.3v-0.2h0.3c0.3,0,0.6-0.1,0.7-0.3c0.1-0.1,0.1-0.4,0.1-0.9v-6h-0.9
				c-0.4,0-0.6,0-0.8,0.1c-0.2,0.1-0.4,0.2-0.5,0.4c-0.1,0.2-0.2,0.5-0.3,0.8h-0.2l0.1-1.8H2577.7z"/>
			<path class="st5" d="M2583.4-65.8v0.2h-3.4v-0.2h0.3c0.3,0,0.6-0.1,0.7-0.3c0.1-0.1,0.1-0.4,0.1-0.9v-5.1c0-0.4,0-0.7-0.1-0.8
				c0-0.1-0.1-0.2-0.2-0.2c-0.2-0.1-0.3-0.1-0.5-0.1h-0.3v-0.2h3.4v0.2h-0.3c-0.3,0-0.6,0.1-0.7,0.3c-0.1,0.1-0.1,0.4-0.1,0.9v5.1
				c0,0.4,0,0.7,0.1,0.8c0,0.1,0.1,0.2,0.2,0.2c0.2,0.1,0.3,0.1,0.5,0.1H2583.4z"/>
			<path class="st5" d="M2589.6-73.7c1,0,1.9,0.4,2.7,1.2c0.7,0.8,1.1,1.7,1.1,2.9c0,1.2-0.4,2.2-1.1,3c-0.8,0.8-1.7,1.2-2.7,1.2
				c-1.1,0-2-0.4-2.7-1.2c-0.7-0.8-1.1-1.8-1.1-3c0-1.2,0.4-2.3,1.3-3.1C2587.7-73.3,2588.6-73.7,2589.6-73.7z M2589.5-73.2
				c-0.7,0-1.3,0.3-1.7,0.8c-0.5,0.7-0.8,1.6-0.8,2.9c0,1.3,0.3,2.3,0.8,3c0.4,0.5,1,0.8,1.7,0.8c0.7,0,1.4-0.3,1.8-0.9
				c0.5-0.6,0.7-1.5,0.7-2.7c0-1.3-0.3-2.4-0.8-3C2590.9-73,2590.3-73.2,2589.5-73.2z"/>
			<path class="st5" d="M2595.4-73.5h2.1l4.8,5.9v-4.5c0-0.5-0.1-0.8-0.2-0.9c-0.1-0.2-0.4-0.2-0.7-0.2h-0.3v-0.2h2.8v0.2h-0.3
				c-0.3,0-0.6,0.1-0.7,0.3c-0.1,0.1-0.1,0.4-0.1,0.9v6.6h-0.2l-5.2-6.3v4.8c0,0.5,0.1,0.8,0.2,0.9c0.1,0.2,0.4,0.2,0.7,0.2h0.3v0.2
				h-2.8v-0.2h0.3c0.3,0,0.6-0.1,0.7-0.3c0.1-0.1,0.1-0.4,0.1-0.9v-5.5c-0.2-0.3-0.4-0.4-0.5-0.5s-0.3-0.2-0.5-0.2
				c-0.1,0-0.3-0.1-0.5-0.1V-73.5z"/>
		</g>
	</g>
	<g>
		<polygon class="st5" points="96.3,285.9 82.2,278.7 68.1,285.8 82.2,294.3 		"/>
		<polygon class="st5" points="96.3,268.1 83.2,260.2 83.2,277.2 96.3,283.8 		"/>
		<polygon class="st5" points="68.1,268.2 81.1,260.5 81.1,277.3 68.1,283.8 		"/>
		<g>
			<path class="st5" d="M114.5,271.2h-4.1l-0.7,1.7c-0.2,0.4-0.3,0.7-0.3,0.9c0,0.2,0.1,0.3,0.2,0.4c0.2,0.1,0.5,0.2,1,0.2v0.3h-3.3
				v-0.3c0.4-0.1,0.7-0.2,0.9-0.3c0.3-0.2,0.6-0.8,0.9-1.5l3.7-8.6h0.3l3.7,8.7c0.3,0.7,0.6,1.2,0.8,1.4c0.2,0.2,0.6,0.3,1,0.4v0.3
				h-4.1v-0.3c0.4,0,0.7-0.1,0.8-0.2c0.1-0.1,0.2-0.3,0.2-0.4c0-0.2-0.1-0.6-0.3-1.1L114.5,271.2z M114.3,270.6l-1.8-4.2l-1.8,4.2
				H114.3z"/>
			<path class="st5" d="M127.1,269.3c0.7,0.2,1.3,0.4,1.6,0.7c0.5,0.5,0.8,1.1,0.8,1.7c0,0.5-0.2,1-0.5,1.5c-0.3,0.5-0.8,0.8-1.4,1
				c-0.6,0.2-1.5,0.3-2.6,0.3h-4.9v-0.3h0.4c0.4,0,0.7-0.1,0.9-0.4c0.1-0.2,0.2-0.6,0.2-1.2V266c0-0.6-0.1-1.1-0.2-1.2
				c-0.2-0.2-0.5-0.3-0.9-0.3h-0.4v-0.3h4.5c0.8,0,1.5,0.1,2,0.2c0.8,0.2,1.4,0.5,1.8,1c0.4,0.5,0.6,1,0.6,1.6c0,0.5-0.2,1-0.5,1.4
				C128.2,268.8,127.7,269.1,127.1,269.3z M123.1,268.9c0.2,0,0.4,0.1,0.7,0.1c0.2,0,0.5,0,0.8,0c0.8,0,1.3-0.1,1.7-0.2
				c0.4-0.2,0.7-0.4,0.9-0.7c0.2-0.3,0.3-0.7,0.3-1.1c0-0.6-0.3-1.1-0.8-1.6c-0.5-0.4-1.2-0.6-2.2-0.6c-0.5,0-1,0.1-1.4,0.2V268.9z
				 M123.1,273.9c0.6,0.1,1.2,0.2,1.8,0.2c0.9,0,1.7-0.2,2.1-0.6c0.5-0.4,0.7-0.9,0.7-1.6c0-0.4-0.1-0.8-0.3-1.2
				c-0.2-0.4-0.6-0.7-1.1-0.9c-0.5-0.2-1.1-0.3-1.9-0.3c-0.3,0-0.6,0-0.8,0c-0.2,0-0.4,0-0.5,0.1V273.9z"/>
			<path class="st5" d="M138.8,269.3c0.7,0.2,1.3,0.4,1.6,0.7c0.5,0.5,0.8,1.1,0.8,1.7c0,0.5-0.2,1-0.5,1.5c-0.3,0.5-0.8,0.8-1.4,1
				c-0.6,0.2-1.5,0.3-2.6,0.3h-4.9v-0.3h0.4c0.4,0,0.7-0.1,0.9-0.4c0.1-0.2,0.2-0.6,0.2-1.2V266c0-0.6-0.1-1.1-0.2-1.2
				c-0.2-0.2-0.5-0.3-0.9-0.3h-0.4v-0.3h4.5c0.8,0,1.5,0.1,2,0.2c0.8,0.2,1.4,0.5,1.8,1c0.4,0.5,0.6,1,0.6,1.6c0,0.5-0.2,1-0.5,1.4
				C139.9,268.8,139.4,269.1,138.8,269.3z M134.7,268.9c0.2,0,0.4,0.1,0.7,0.1c0.2,0,0.5,0,0.8,0c0.8,0,1.3-0.1,1.7-0.2
				c0.4-0.2,0.7-0.4,0.9-0.7c0.2-0.3,0.3-0.7,0.3-1.1c0-0.6-0.3-1.1-0.8-1.6c-0.5-0.4-1.2-0.6-2.2-0.6c-0.5,0-1,0.1-1.4,0.2V268.9z
				 M134.7,273.9c0.6,0.1,1.2,0.2,1.8,0.2c0.9,0,1.7-0.2,2.1-0.6c0.5-0.4,0.7-0.9,0.7-1.6c0-0.4-0.1-0.8-0.3-1.2
				c-0.2-0.4-0.6-0.7-1.1-0.9c-0.5-0.2-1.1-0.3-1.9-0.3c-0.3,0-0.6,0-0.8,0c-0.2,0-0.4,0-0.5,0.1V273.9z"/>
			<path class="st5" d="M146.5,264.7v4.2h2.3c0.6,0,1-0.1,1.2-0.3c0.3-0.2,0.4-0.7,0.5-1.3h0.3v3.7h-0.3c-0.1-0.5-0.1-0.8-0.2-1
				c-0.1-0.2-0.2-0.3-0.5-0.4c-0.2-0.1-0.5-0.2-1-0.2h-2.3v3.5c0,0.5,0,0.7,0.1,0.8c0,0.1,0.1,0.2,0.2,0.2c0.1,0.1,0.3,0.1,0.6,0.1
				h1.8c0.6,0,1,0,1.3-0.1c0.3-0.1,0.5-0.2,0.8-0.5c0.3-0.3,0.6-0.8,1-1.5h0.3l-0.9,2.6h-8.1v-0.3h0.4c0.2,0,0.5-0.1,0.7-0.2
				c0.2-0.1,0.3-0.2,0.3-0.4c0.1-0.2,0.1-0.5,0.1-1V266c0-0.7-0.1-1.1-0.2-1.2c-0.2-0.2-0.5-0.3-0.9-0.3h-0.4v-0.3h8.1l0.1,2.3h-0.3
				c-0.1-0.6-0.2-0.9-0.4-1.1c-0.1-0.2-0.3-0.4-0.6-0.5c-0.2-0.1-0.6-0.1-1.1-0.1H146.5z"/>
			<path class="st5" d="M161.5,264.2h3.7v0.3H165c-0.1,0-0.3,0.1-0.6,0.2c-0.3,0.1-0.5,0.3-0.7,0.5c-0.2,0.2-0.5,0.6-0.8,1.1l-2.5,4
				v2.7c0,0.6,0.1,1.1,0.2,1.2c0.2,0.2,0.5,0.3,0.9,0.3h0.3v0.3h-4.5v-0.3h0.4c0.4,0,0.8-0.1,1-0.4c0.1-0.2,0.2-0.5,0.2-1.1v-2.5
				L156,266c-0.3-0.5-0.6-0.8-0.7-1c-0.1-0.1-0.4-0.3-0.8-0.5c-0.1-0.1-0.3-0.1-0.4-0.1v-0.3h4.5v0.3h-0.2c-0.2,0-0.5,0.1-0.7,0.2
				c-0.2,0.1-0.3,0.3-0.3,0.5c0,0.2,0.2,0.5,0.5,1l2.2,3.4l2.1-3.2c0.3-0.5,0.5-0.8,0.5-1.1c0-0.1,0-0.3-0.1-0.4
				c-0.1-0.1-0.2-0.2-0.3-0.3c-0.1-0.1-0.3-0.1-0.6-0.1V264.2z"/>
			<path class="st5" d="M180,271.8l0.3,0.1l-0.9,2.8h-8.1v-0.3h0.4c0.4,0,0.8-0.1,0.9-0.4c0.1-0.2,0.2-0.5,0.2-1.1V266
				c0-0.7-0.1-1.1-0.2-1.2c-0.2-0.2-0.5-0.3-0.9-0.3h-0.4v-0.3h4.7v0.3c-0.6,0-0.9,0-1.2,0.2c-0.2,0.1-0.4,0.2-0.5,0.4
				c-0.1,0.2-0.1,0.6-0.1,1.2v6.6c0,0.4,0,0.7,0.1,0.9c0.1,0.1,0.2,0.2,0.3,0.2c0.1,0.1,0.5,0.1,1.2,0.1h0.8c0.8,0,1.4-0.1,1.7-0.2
				c0.3-0.1,0.6-0.3,0.9-0.6C179.5,272.9,179.8,272.4,180,271.8z"/>
			<path class="st5" d="M185,264.7v4.2h2.3c0.6,0,1-0.1,1.2-0.3c0.3-0.2,0.4-0.7,0.5-1.3h0.3v3.7H189c-0.1-0.5-0.1-0.8-0.2-1
				c-0.1-0.2-0.2-0.3-0.5-0.4c-0.2-0.1-0.5-0.2-1-0.2H185v3.5c0,0.5,0,0.7,0.1,0.8c0,0.1,0.1,0.2,0.2,0.2c0.1,0.1,0.3,0.1,0.6,0.1
				h1.8c0.6,0,1,0,1.3-0.1c0.3-0.1,0.5-0.2,0.8-0.5c0.3-0.3,0.6-0.8,1-1.5h0.3l-0.9,2.6h-8.1v-0.3h0.4c0.2,0,0.5-0.1,0.7-0.2
				c0.2-0.1,0.3-0.2,0.3-0.4c0.1-0.2,0.1-0.5,0.1-1V266c0-0.7-0.1-1.1-0.2-1.2c-0.2-0.2-0.5-0.3-0.9-0.3h-0.4v-0.3h8.1l0.1,2.3H190
				c-0.1-0.6-0.2-0.9-0.4-1.1c-0.1-0.2-0.3-0.4-0.6-0.5c-0.2-0.1-0.6-0.1-1.1-0.1H185z"/>
			<path class="st5" d="M202.2,263.9l0.3,3.3h-0.3c-0.3-0.8-0.6-1.4-1.1-1.9c-0.6-0.6-1.4-0.9-2.4-0.9c-1.3,0-2.4,0.5-3,1.6
				c-0.6,0.9-0.9,2-0.9,3.2c0,1,0.2,1.9,0.6,2.7c0.4,0.8,0.9,1.4,1.5,1.8c0.6,0.4,1.3,0.6,1.9,0.6c0.4,0,0.8,0,1.1-0.1
				c0.4-0.1,0.7-0.2,1-0.4v-3c0-0.5,0-0.9-0.1-1c-0.1-0.2-0.2-0.3-0.4-0.4c-0.2-0.1-0.5-0.1-0.9-0.1v-0.3h4.1v0.3h-0.2
				c-0.4,0-0.7,0.1-0.8,0.4c-0.1,0.2-0.2,0.6-0.2,1.1v3.2c-0.6,0.3-1.2,0.6-1.8,0.7c-0.6,0.1-1.2,0.2-1.9,0.2c-2,0-3.6-0.7-4.6-2
				c-0.8-1-1.2-2.1-1.2-3.4c0-0.9,0.2-1.8,0.7-2.7c0.5-1,1.2-1.8,2.2-2.3c0.8-0.4,1.7-0.7,2.7-0.7c0.4,0,0.7,0,1,0.1
				c0.3,0.1,0.8,0.2,1.3,0.4c0.3,0.1,0.5,0.2,0.6,0.2s0.2,0,0.3-0.1c0.1-0.1,0.1-0.3,0.1-0.5H202.2z"/>
			<path class="st5" d="M212.3,271.2h-4.1l-0.7,1.7c-0.2,0.4-0.3,0.7-0.3,0.9c0,0.2,0.1,0.3,0.2,0.4c0.2,0.1,0.5,0.2,1,0.2v0.3h-3.3
				v-0.3c0.4-0.1,0.7-0.2,0.9-0.3c0.3-0.2,0.6-0.8,0.9-1.5l3.7-8.6h0.3l3.7,8.7c0.3,0.7,0.6,1.2,0.8,1.4c0.2,0.2,0.6,0.3,1,0.4v0.3
				h-4.1v-0.3c0.4,0,0.7-0.1,0.8-0.2c0.1-0.1,0.2-0.3,0.2-0.4c0-0.2-0.1-0.6-0.3-1.1L212.3,271.2z M212.1,270.6l-1.8-4.2l-1.8,4.2
				H212.1z"/>
			<path class="st5" d="M226.7,271.8l0.3,0.1l-0.9,2.8h-8.1v-0.3h0.4c0.4,0,0.8-0.1,0.9-0.4c0.1-0.2,0.2-0.5,0.2-1.1V266
				c0-0.7-0.1-1.1-0.2-1.2c-0.2-0.2-0.5-0.3-0.9-0.3h-0.4v-0.3h4.7v0.3c-0.6,0-0.9,0-1.2,0.2c-0.2,0.1-0.4,0.2-0.5,0.4
				c-0.1,0.2-0.1,0.6-0.1,1.2v6.6c0,0.4,0,0.7,0.1,0.9c0.1,0.1,0.2,0.2,0.3,0.2c0.1,0.1,0.5,0.1,1.2,0.1h0.8c0.8,0,1.4-0.1,1.7-0.2
				c0.3-0.1,0.6-0.3,0.9-0.6C226.2,272.9,226.4,272.4,226.7,271.8z"/>
		</g>
		<g>
			<path class="st5" d="M110.5,285.6v3.1c0,0.7,0.1,1.1,0.2,1.2c0.2,0.2,0.5,0.3,0.9,0.3h0.4v0.3h-4.5v-0.3h0.4c0.4,0,0.8-0.1,1-0.4
				c0.1-0.2,0.2-0.5,0.2-1.1v-6.8c0-0.7-0.1-1.1-0.2-1.2c-0.2-0.2-0.5-0.3-0.9-0.3h-0.4V280h3.8c0.9,0,1.7,0.1,2.2,0.3
				c0.5,0.2,1,0.5,1.4,1c0.4,0.5,0.6,1,0.6,1.6c0,0.9-0.3,1.6-0.8,2.1c-0.6,0.5-1.4,0.8-2.4,0.8c-0.3,0-0.5,0-0.8-0.1
				C111.2,285.7,110.8,285.7,110.5,285.6z M110.5,285.2c0.3,0.1,0.5,0.1,0.7,0.1c0.2,0,0.4,0,0.5,0c0.5,0,1-0.2,1.4-0.6
				c0.4-0.4,0.6-1,0.6-1.6c0-0.5-0.1-0.9-0.3-1.3c-0.2-0.4-0.4-0.7-0.8-0.9c-0.3-0.2-0.7-0.3-1.2-0.3c-0.3,0-0.6,0-1,0.1V285.2z"/>
			<path class="st5" d="M129,290.5h-2.8l-3.6-4.9c-0.3,0-0.5,0-0.6,0c-0.1,0-0.1,0-0.2,0c-0.1,0-0.2,0-0.2,0v3.1
				c0,0.7,0.1,1.1,0.2,1.2c0.2,0.2,0.5,0.3,0.9,0.3h0.4v0.3h-4.5v-0.3h0.4c0.4,0,0.8-0.1,0.9-0.4c0.1-0.2,0.2-0.5,0.2-1.1v-6.8
				c0-0.7-0.1-1.1-0.2-1.2c-0.2-0.2-0.5-0.3-0.9-0.3h-0.4V280h3.8c1.1,0,1.9,0.1,2.5,0.2c0.5,0.2,1,0.5,1.3,0.9
				c0.4,0.4,0.6,1,0.6,1.6c0,0.6-0.2,1.2-0.6,1.7c-0.4,0.5-1.1,0.8-2,1l2.2,3c0.5,0.7,0.9,1.2,1.3,1.4c0.4,0.2,0.8,0.4,1.4,0.4
				V290.5z M121.5,285.1c0.1,0,0.2,0,0.3,0c0.1,0,0.1,0,0.2,0c1,0,1.7-0.2,2.2-0.7c0.5-0.4,0.8-1,0.8-1.7c0-0.7-0.2-1.2-0.6-1.6
				c-0.4-0.4-0.9-0.6-1.6-0.6c-0.3,0-0.7,0-1.2,0.1V285.1z"/>
			<path class="st5" d="M136.9,279.8c1.4,0,2.5,0.5,3.5,1.6c1,1,1.5,2.3,1.5,3.9c0,1.6-0.5,2.9-1.5,4c-1,1.1-2.2,1.6-3.7,1.6
				c-1.4,0-2.7-0.5-3.6-1.5c-1-1-1.5-2.4-1.5-4c0-1.7,0.6-3,1.7-4.1C134.3,280.2,135.5,279.8,136.9,279.8z M136.7,280.3
				c-0.9,0-1.7,0.3-2.3,1c-0.7,0.9-1.1,2.1-1.1,3.8c0,1.7,0.4,3,1.1,4c0.6,0.7,1.3,1.1,2.2,1.1c1,0,1.8-0.4,2.4-1.2s1-2,1-3.6
				c0-1.8-0.4-3.1-1.1-4C138.5,280.7,137.7,280.3,136.7,280.3z"/>
			<path class="st5" d="M153.9,280l0.1,2.5h-0.3c-0.1-0.4-0.1-0.7-0.2-0.9c-0.2-0.3-0.4-0.5-0.6-0.7c-0.3-0.1-0.6-0.2-1-0.2h-1.5v8
				c0,0.6,0.1,1.1,0.2,1.2c0.2,0.2,0.5,0.3,0.9,0.3h0.4v0.3h-4.5v-0.3h0.4c0.4,0,0.8-0.1,1-0.4c0.1-0.2,0.2-0.5,0.2-1.1v-8h-1.3
				c-0.5,0-0.8,0-1,0.1c-0.3,0.1-0.5,0.3-0.7,0.6c-0.2,0.3-0.3,0.7-0.3,1.1h-0.3l0.1-2.5H153.9z"/>
			<path class="st5" d="M159.9,280.6v4.2h2.3c0.6,0,1-0.1,1.2-0.3c0.3-0.2,0.4-0.7,0.5-1.3h0.3v3.7h-0.3c-0.1-0.5-0.1-0.8-0.2-1
				c-0.1-0.2-0.2-0.3-0.5-0.4c-0.2-0.1-0.5-0.2-1-0.2h-2.3v3.5c0,0.5,0,0.7,0.1,0.8c0,0.1,0.1,0.2,0.2,0.2c0.1,0.1,0.3,0.1,0.6,0.1
				h1.8c0.6,0,1,0,1.3-0.1c0.3-0.1,0.5-0.2,0.8-0.5c0.3-0.3,0.6-0.8,1-1.5h0.3l-0.9,2.6h-8.1v-0.3h0.4c0.2,0,0.5-0.1,0.7-0.2
				c0.2-0.1,0.3-0.2,0.3-0.4c0.1-0.2,0.1-0.5,0.1-1v-6.8c0-0.7-0.1-1.1-0.2-1.2c-0.2-0.2-0.5-0.3-0.9-0.3h-0.4V280h8.1l0.1,2.3h-0.3
				c-0.1-0.6-0.2-0.9-0.4-1.1c-0.1-0.2-0.3-0.4-0.6-0.5c-0.2-0.1-0.6-0.1-1.1-0.1H159.9z"/>
			<path class="st5" d="M178,279.8l0.2,3.6H178c-0.3-1.1-0.8-1.8-1.4-2.3c-0.6-0.5-1.3-0.7-2.1-0.7c-0.7,0-1.3,0.2-1.9,0.5
				c-0.6,0.4-1,0.9-1.3,1.7c-0.3,0.8-0.5,1.7-0.5,2.9c0,1,0.2,1.8,0.5,2.5c0.3,0.7,0.8,1.2,1.4,1.6c0.6,0.4,1.3,0.6,2.1,0.6
				c0.7,0,1.3-0.1,1.8-0.4c0.5-0.3,1.1-0.9,1.7-1.7l0.2,0.2c-0.5,0.9-1.1,1.6-1.8,2.1c-0.7,0.4-1.5,0.7-2.5,0.7
				c-1.7,0-3.1-0.6-4-1.9c-0.7-1-1.1-2.1-1.1-3.4c0-1,0.2-2,0.7-2.9c0.5-0.9,1.1-1.6,1.9-2c0.8-0.5,1.7-0.7,2.7-0.7
				c0.8,0,1.5,0.2,2.2,0.6c0.2,0.1,0.4,0.2,0.5,0.2c0.1,0,0.3,0,0.4-0.1c0.1-0.1,0.2-0.3,0.3-0.6H178z"/>
			<path class="st5" d="M190.5,280l0.1,2.5h-0.3c-0.1-0.4-0.1-0.7-0.2-0.9c-0.2-0.3-0.4-0.5-0.6-0.7c-0.3-0.1-0.6-0.2-1-0.2h-1.5v8
				c0,0.6,0.1,1.1,0.2,1.2c0.2,0.2,0.5,0.3,0.9,0.3h0.4v0.3h-4.5v-0.3h0.4c0.4,0,0.8-0.1,1-0.4c0.1-0.2,0.2-0.5,0.2-1.1v-8h-1.3
				c-0.5,0-0.8,0-1,0.1c-0.3,0.1-0.5,0.3-0.7,0.6c-0.2,0.3-0.3,0.7-0.3,1.1h-0.3l0.1-2.5H190.5z"/>
			<path class="st5" d="M198.1,290.2v0.3h-4.5v-0.3h0.4c0.4,0,0.7-0.1,0.9-0.4c0.1-0.2,0.2-0.6,0.2-1.2v-6.8c0-0.5,0-0.9-0.1-1.1
				c-0.1-0.1-0.2-0.2-0.3-0.3c-0.2-0.1-0.5-0.2-0.7-0.2h-0.4V280h4.5v0.3h-0.4c-0.4,0-0.7,0.1-0.9,0.4c-0.1,0.2-0.2,0.6-0.2,1.2v6.8
				c0,0.5,0,0.9,0.1,1.1c0.1,0.1,0.2,0.2,0.3,0.3c0.2,0.1,0.5,0.2,0.7,0.2H198.1z"/>
			<path class="st5" d="M206.5,279.8c1.4,0,2.5,0.5,3.5,1.6c1,1,1.5,2.3,1.5,3.9c0,1.6-0.5,2.9-1.5,4c-1,1.1-2.2,1.6-3.7,1.6
				c-1.4,0-2.7-0.5-3.6-1.5c-1-1-1.5-2.4-1.5-4c0-1.7,0.6-3,1.7-4.1C203.9,280.2,205.1,279.8,206.5,279.8z M206.3,280.3
				c-0.9,0-1.7,0.3-2.3,1c-0.7,0.9-1.1,2.1-1.1,3.8c0,1.7,0.4,3,1.1,4c0.6,0.7,1.3,1.1,2.2,1.1c1,0,1.8-0.4,2.4-1.2s1-2,1-3.6
				c0-1.8-0.4-3.1-1.1-4C208.1,280.7,207.3,280.3,206.3,280.3z"/>
			<path class="st5" d="M214.1,280h2.8l6.4,7.9v-6.1c0-0.6-0.1-1.1-0.2-1.2c-0.2-0.2-0.5-0.3-0.9-0.3h-0.4V280h3.7v0.3h-0.4
				c-0.4,0-0.8,0.1-1,0.4c-0.1,0.2-0.2,0.5-0.2,1.1v8.8h-0.3l-6.9-8.5v6.5c0,0.6,0.1,1.1,0.2,1.2c0.2,0.2,0.5,0.3,0.9,0.3h0.4v0.3
				h-3.7v-0.3h0.4c0.5,0,0.8-0.1,1-0.4c0.1-0.2,0.2-0.5,0.2-1.1v-7.3c-0.3-0.4-0.5-0.6-0.7-0.7c-0.2-0.1-0.4-0.2-0.7-0.3
				c-0.1,0-0.4-0.1-0.7-0.1V280z"/>
		</g>
	</g>
	<g>
		<g>
			<polygon class="st6" points="2152.2,128.5 2073.5,128.5 1994.1,128.5 1994.1,97.7 2152.2,97.7 			"/>
		</g>
		<text transform="matrix(1 0 0 1 2061.8147 120.8613)" class="st0" style="font-family:'SenticoSansDT-Bold'; font-size:17px;">ADD</text>
	</g>
	<text transform="matrix(1 0 0 1 1994.1459 187.8651)" class="st15" style="font-family:'SenticoSansDT-Regular'; font-size:24px;">1</text>
	<rect x="2011.4" y="171.9" class="st0" width="165.3" height="44.5"/>
	<text transform="matrix(1 0 0 1 2019.4418 184.7082)"><tspan x="0" y="0" class="st4" style="font-family:'SenticoSansDT-Regular'; font-size:18px;">Late 2013</tspan><tspan x="0" y="15" style="fill:#66666B; font-family:'SenticoSansDT-Regular'; font-size:12px;">a large dose of ‘what if?</tspan></text>
	<g>
		<g>
			<g>
				<path class="st7" d="M2199.1,212.4h12.9c0.1,0,0.1,0,0.2,0.1l9.3,9.4c0.1,0.1,0.4,0,0.4-0.2v-9c0-0.1,0.1-0.2,0.2-0.2h5.1
					c0.1,0,0.2-0.1,0.2-0.2v-27.6c0-0.1-0.1-0.2-0.2-0.2h-28.1c-0.1,0-0.2,0.1-0.2,0.2v27.6C2198.8,212.3,2198.9,212.4,2199.1,212.4
					z"/>
			</g>
			<g>
				<g>
					<path class="st0" d="M2212.4,202.2c-0.1,0-0.2-0.2-0.1-0.3c0.3-1.4,0.5-2.2,1.7-3.2c1.3-1,2.1-1.4,2.1-3.5
						c0-1.7-0.4-2.4-2.5-2.4c-0.9,0-1.9,0.2-2.9,0.5c-0.1,0-0.3,0-0.3-0.2l-0.1-1.2c0-0.1,0.1-0.2,0.2-0.2c1-0.3,2.2-0.5,3.3-0.5
						c3.1,0,4.3,1.2,4.3,3.9c0,3.1-1.5,3.5-2.9,4.9c-0.7,0.6-0.9,1.2-1.2,2.4c0,0.1-0.2,0.2-0.3,0.2L2212.4,202.2z M2213.6,204.8
						c0.5,0.1,0.5,0.4,0.5,1.1c0,0.8-0.7,1.4-1.5,1.2c-0.5-0.1-0.5-0.4-0.5-1.1C2212.2,205.2,2212.9,204.6,2213.6,204.8z"/>
				</g>
			</g>
		</g>
		<g>
			<polyline class="st1" points="2249.6,151.7 2280.4,168.3 2276.4,178.8 2272.4,189.4 2249.3,183.8 2238.3,181.2 			"/>
			<polyline class="st8" points="2254.5,154.3 2255.9,150.8 2262.1,150.3 2268.6,152.7 2270.8,157.6 2268.8,162.8 			"/>
			<polygon class="st1" points="2264.1,159.8 2242.9,182.3 2272.4,189.4 2280.4,168.3 			"/>
			<line class="st1" x1="2248.4" y1="183.6" x2="2250" y2="179.3"/>
			<line class="st1" x1="2254.4" y1="185.6" x2="2256" y2="181.3"/>
			<line class="st1" x1="2260.6" y1="186.5" x2="2261.7" y2="183.5"/>
			<line class="st1" x1="2266.3" y1="188.3" x2="2267.3" y2="185.6"/>
		</g>
		<g>
			<polygon class="st1" points="2223.3,165.3 2225.4,163 2228.4,162.9 2230.7,165 2230.8,168.1 2228.8,170.3 2225.7,170.4 
				2223.4,168.4 			"/>
			<polygon class="st1" points="2234.3,170.3 2235.4,169.2 2237,169.1 2238.1,170.2 2238.2,171.8 2237.1,173 2235.5,173 
				2234.4,171.9 			"/>
			<polygon class="st1" points="2221.8,176.4 2222.9,175.2 2224.5,175.1 2225.7,176.2 2225.8,177.8 2224.7,179 2223.1,179.1 
				2221.9,178 			"/>
		</g>
	</g>
	<text transform="matrix(1 0 0 1 1994.1459 288.3616)" class="st15" style="font-family:'SenticoSansDT-Regular'; font-size:24px;">2</text>
	<rect x="2011.8" y="271.2" class="st0" width="165" height="51.8"/>
	<text transform="matrix(1 0 0 1 2019.7557 283.9849)"><tspan x="0" y="0" class="st4" style="font-family:'SenticoSansDT-Regular'; font-size:18px;">Early 2014</tspan><tspan x="0" y="15" style="fill:#66666B; font-family:'SenticoSansDT-Regular'; font-size:12px;">a healthy slug of ‘why not’</tspan></text>
	<text transform="matrix(1 0 0 1 1994.1459 390.072)" class="st15" style="font-family:'SenticoSansDT-Regular'; font-size:24px;">3</text>
	<rect x="2011.8" y="372.8" class="st0" width="177.4" height="51.8"/>
	<text transform="matrix(1 0 0 1 2019.7557 385.5552)"><tspan x="0" y="0" class="st4" style="font-family:'SenticoSansDT-Regular'; font-size:18px;">Late 2014</tspan><tspan x="0" y="15" style="fill:#66666B; font-family:'SenticoSansDT-Regular'; font-size:12px;">big handful of  </tspan><tspan x="0" y="30" style="fill:#66666B; font-family:'SenticoSansDT-Regular'; font-size:12px;">‘isn’t it about time? </tspan></text>
	<text transform="matrix(1 0 0 1 1994.1459 474.7407)" class="st15" style="font-family:'SenticoSansDT-Regular'; font-size:24px;">4</text>
	<rect x="2011.8" y="459.5" class="st0" width="170.4" height="94"/>
	<text transform="matrix(1 0 0 1 2019.7557 472.3129)"><tspan x="0" y="0" class="st4" style="font-family:'SenticoSansDT-Regular'; font-size:18px;">Start 2015</tspan><tspan x="0" y="14.4" style="fill:#66666B; font-family:'SenticoSansDT-Regular'; font-size:12px;">fold in a visionary newcomer </tspan><tspan x="0" y="28.8" style="fill:#66666B; font-family:'SenticoSansDT-Regular'; font-size:12px;">with a pioneering spirit and an </tspan><tspan x="0" y="43.2" style="fill:#66666B; font-family:'SenticoSansDT-Regular'; font-size:12px;">unapologetically rebellious </tspan><tspan x="0" y="57.6" style="fill:#66666B; font-family:'SenticoSansDT-Regular'; font-size:12px;">belief in simple solutions and </tspan><tspan x="0" y="72" style="fill:#66666B; font-family:'SenticoSansDT-Regular'; font-size:12px;">innovation</tspan></text>
	<rect x="2011.8" y="602.5" class="st0" width="190.5" height="74.6"/>
	<text transform="matrix(1 0 0 1 2019.756 615.3245)"><tspan x="0" y="0" class="st4" style="font-family:'SenticoSansDT-Regular'; font-size:18px;">Spring 2015</tspan><tspan x="0" y="14.4" style="fill:#66666B; font-family:'SenticoSansDT-Regular'; font-size:12px;">introduce a carefully marinated, </tspan><tspan x="0" y="28.8" style="fill:#66666B; font-family:'SenticoSansDT-Regular'; font-size:12px;">collaboratively created set of new </tspan><tspan x="0" y="43.2" style="fill:#66666B; font-family:'SenticoSansDT-Regular'; font-size:12px;">cultural values</tspan></text>
	<polygon class="st9" points="2073.8,685.1 2067.2,678.6 2060.7,685.1 2067.2,691.7 2073.8,698.3 2080.4,691.7 2086.9,685.1 
		2080.4,678.6 	"/>
	
		<rect x="2039.5" y="679.6" transform="matrix(-0.7071 0.7071 -0.7071 -0.7071 3971.0652 -278.3675)" class="st10" width="7.3" height="7.3"/>
	<polygon class="st6" points="2032.8,688.4 2027.7,683.3 2022.5,688.4 2027.7,693.6 2032.8,698.8 2038,693.6 2043.2,688.4 
		2038,683.3 	"/>
	<polygon class="st11" points="2116.7,696.3 2113.7,699.3 2116.7,702.2 2119.6,699.3 2122.6,702.2 2125.5,699.3 2122.6,696.3 
		2119.6,693.4 	"/>
	<polygon class="st6" points="2119.6,678.8 2113.7,684.7 2107.9,690.6 2113.7,696.5 2119.6,690.6 2125.5,696.5 2131.4,690.6 
		2125.5,684.7 	"/>
	<polygon class="st10" points="2148.3,700 2145.3,700 2145.3,703 2148.3,703 2148.3,706 2151.3,706 2151.3,703 2151.3,700 	"/>
	<polygon class="st11" points="2151.4,693.9 2145.3,693.9 2145.3,699.9 2151.4,699.9 2151.4,706 2157.4,706 2157.4,699.9 
		2157.4,693.9 	"/>
	<polygon class="st9" points="2157.4,681.7 2145.3,681.7 2145.3,693.9 2157.4,693.9 2157.4,706 2169.6,706 2169.6,681.7 	"/>
	<text transform="matrix(1 0 0 1 1994.1456 619.1274)" class="st15" style="font-family:'SenticoSansDT-Regular'; font-size:24px;">5</text>
	<text transform="matrix(1 0 0 1 2806.8542 187.8651)" class="st15" style="font-family:'SenticoSansDT-Regular'; font-size:24px;">6</text>
	<rect x="2824.2" y="171.9" class="st0" width="165.3" height="84.4"/>
	<text transform="matrix(1 0 0 1 2832.1501 184.7092)"><tspan x="0" y="0" class="st4" style="font-family:'SenticoSansDT-Regular'; font-size:18px;">Summer 2015</tspan><tspan x="0" y="15" style="fill:#66666B; font-family:'SenticoSansDT-Regular'; font-size:12px;">marinate for a very short while </tspan><tspan x="0" y="36" style="fill:#66666B; font-family:'SenticoSansDT-Regular'; font-size:12px;">Return to pan and bring  </tspan><tspan x="0" y="51" style="fill:#66666B; font-family:'SenticoSansDT-Regular'; font-size:12px;">to the boil</tspan></text>
	<line class="st12" x1="2806.9" y1="416.9" x2="3096" y2="416.9"/>
	<line class="st12" x1="2813.7" y1="560.8" x2="3102.8" y2="560.8"/>
	<text transform="matrix(1 0 0 1 2806.8542 329.3641)" class="st15" style="font-family:'SenticoSansDT-Regular'; font-size:24px;">7</text>
	<rect x="2824.5" y="312.2" class="st0" width="138.9" height="96.3"/>
	<text transform="matrix(1 0 0 1 2832.4641 324.9875)"><tspan x="0" y="0" class="st4" style="font-family:'SenticoSansDT-Regular'; font-size:18px;">Autumn 2015</tspan><tspan x="0" y="15" style="fill:#66666B; font-family:'SenticoSansDT-Regular'; font-size:12px;">season with friends and </tspan><tspan x="0" y="30" style="fill:#66666B; font-family:'SenticoSansDT-Regular'; font-size:12px;">bring plenty of feedback</tspan></text>
	<text transform="matrix(1 0 0 1 2806.8542 470.0769)" class="st15" style="font-family:'SenticoSansDT-Regular'; font-size:24px;">8</text>
	<rect x="2824.5" y="452.8" class="st0" width="165.9" height="78"/>
	<text transform="matrix(1 0 0 1 2832.4641 465.5601)"><tspan x="0" y="0" class="st4" style="font-family:'SenticoSansDT-Regular'; font-size:18px;">Winter 2015</tspan><tspan x="0" y="15" style="fill:#66666B; font-family:'SenticoSansDT-Regular'; font-size:12px;">test regularly to ensure it’s all </tspan><tspan x="0" y="30" style="fill:#66666B; font-family:'SenticoSansDT-Regular'; font-size:12px;">coming together and the </tspan><tspan x="0" y="45" style="fill:#66666B; font-family:'SenticoSansDT-Regular'; font-size:12px;">flavour is balanced with </tspan><tspan x="0" y="60" style="fill:#66666B; font-family:'SenticoSansDT-Regular'; font-size:12px;">diversity and consistency</tspan></text>
	<text transform="matrix(1 0 0 1 2806.8542 595.748)" class="st15" style="font-family:'SenticoSansDT-Regular'; font-size:24px;">9</text>
	<rect x="2824.5" y="580.5" class="st0" width="163.3" height="94"/>
	<text transform="matrix(1 0 0 1 2832.4646 593.3212)"><tspan x="0" y="0" class="st4" style="font-family:'SenticoSansDT-Regular'; font-size:18px;">Spring 2016</tspan><tspan x="0" y="14.4" style="fill:#66666B; font-family:'SenticoSansDT-Regular'; font-size:12px;">after 9 months, remove from </tspan><tspan x="0" y="28.8" style="fill:#66666B; font-family:'SenticoSansDT-Regular'; font-size:12px;">the stove, serve generously, </tspan><tspan x="0" y="43.2" style="fill:#66666B; font-family:'SenticoSansDT-Regular'; font-size:12px;">and share widely</tspan></text>
	<g>
		<rect x="3027.7" y="206.4" class="st13" width="35.4" height="2.6"/>
		<rect x="3027.7" y="164.9" class="st13" width="35.4" height="2.6"/>
		<g>
			<defs>
				<polygon id="SVGID_1_" points="3042.4,189.3 3039.7,193.5 3032.6,204.4 3032.6,206.4 3058.1,206.4 3058.1,204.4 3051.5,193.8 
					3048.3,189.3 3048.3,187 3048.3,184.5 3058.1,169.4 3058.1,167.5 3032.6,167.5 3032.6,169.4 3042.4,184.5 3042.4,186.9 				"/>
			</defs>
			<clipPath id="SVGID_2_">
				<use xlink:href="#SVGID_1_"  style="overflow:visible;"/>
			</clipPath>
			<g class="st14">
				<g>
					<rect x="3027.2" y="167.5" class="st7" width="32.9" height="10.5"/>
				</g>
			</g>
			<g class="st14">
				<g>
					<rect x="3027.2" y="200.3" class="st7" width="32.9" height="6.1"/>
				</g>
			</g>
			<use xlink:href="#SVGID_1_"  style="overflow:visible;fill:none;stroke:#BFA1CC;stroke-miterlimit:10;"/>
		</g>
		<polygon class="st7" points="3045.3,190.7 3043.5,194.7 3043.5,195.7 3044.4,196.8 3045.3,196.8 3046.3,196.8 3047.1,195.7 
			3047.1,194.7 		"/>
	</g>
	<g>
		<g>
			<path class="st1" d="M3071.1,497.4l-4.5,1.7c-2.9-1.3-4.5-2-7.3-3.3l-4-10.8c1.3-2.9,2-4.5,3.3-7.3l4.5-1.7
				c2.9,1.3,4.5,2,7.3,3.3l4,10.8C3073.1,493,3072.4,494.6,3071.1,497.4z"/>
			<g>
				
					<rect x="3059.9" y="481.4" transform="matrix(0.936 -0.352 0.352 0.936 24.0724 1108.5752)" class="st1" width="1.8" height="13.3"/>
				
					<rect x="3063.6" y="480.1" transform="matrix(0.936 -0.352 0.352 0.936 24.7855 1109.7661)" class="st1" width="1.8" height="13.3"/>
				
					<rect x="3067.2" y="478.7" transform="matrix(0.936 -0.352 0.352 0.936 25.4987 1110.9572)" class="st1" width="1.8" height="13.3"/>
			</g>
		</g>
		
			<rect x="3074" y="497" transform="matrix(-0.936 0.352 -0.352 -0.936 6137.4604 -80.7218)" class="st15" width="4.2" height="41"/>
	</g>
	<g>
		<polygon class="st13" points="3031.5,487 3031.5,489.5 3029.1,489.5 3029.1,506.6 3042.3,529.8 3040.3,533.7 3023.9,533.7 
			3023.3,533.7 3006.9,533.7 3004.9,529.8 3018.2,506.6 3018.2,489.5 3015.7,489.5 3015.7,487 		"/>
		<polygon class="st13" points="3031.9,471.4 3033.2,470.1 3031.9,468.8 3055.2,445.5 3055.2,442.4 3054.4,441.6 3054.2,441.3 
			3052,439.2 3049,439.2 3025.6,462.6 3024.3,461.2 3023,462.6 		"/>
		<polyline class="st7" points="3033.1,513.6 3042.3,529.8 3040.3,533.7 3023.9,533.7 3023.3,533.7 3006.9,533.7 3004.9,529.8 
			3014.2,513.6 		"/>
		<polygon class="st0" points="3025.3,530.7 3023.7,529.1 3023.7,526.9 3025.3,525.3 3027.5,525.3 3029.1,526.9 3029.1,529.1 
			3027.5,530.7 		"/>
		<polygon class="st0" points="3032.5,529.1 3030.9,527.5 3030.9,525.2 3032.5,523.6 3034.7,523.6 3036.3,525.2 3036.3,527.5 
			3034.7,529.1 		"/>
		<polygon class="st13" points="3017,482.2 3015.4,480.6 3015.4,478.3 3017,476.7 3019.3,476.7 3020.9,478.3 3020.9,480.6 
			3019.3,482.2 		"/>
		<polygon class="st13" points="3021.1,474.3 3020.3,473.4 3020.3,472.3 3021.1,471.4 3022.3,471.4 3023.1,472.3 3023.1,473.4 
			3022.3,474.3 		"/>
		<polygon class="st13" points="3025.1,483.6 3024.3,482.8 3024.3,481.6 3025.1,480.8 3026.3,480.8 3027.1,481.6 3027.1,482.8 
			3026.3,483.6 		"/>
		<polygon class="st0" points="3027.1,520.9 3026.3,520.1 3026.3,518.9 3027.1,518.1 3028.3,518.1 3029.1,518.9 3029.1,520.1 
			3028.3,520.9 		"/>
		<line class="st13" x1="3014.2" y1="513.6" x2="3018.2" y2="506.6"/>
		<line class="st13" x1="3029.1" y1="506.6" x2="3032.6" y2="512.9"/>
		<polyline class="st7" points="3034,454.2 3049,439.2 3052,439.2 3054.2,441.3 3054.4,441.6 3055.2,442.4 3055.2,445.5 
			3031.9,468.8 		"/>
	</g>
	<text transform="matrix(1 0 0 1 2644.7119 617.2128)"><tspan x="0" y="0" style="fill:#66666B; font-family:'SenticoSansDT-Regular'; font-size:36px;">96%</tspan><tspan x="-8" y="19.2" class="st15" style="font-family:'SenticoSansDT-Regular'; font-size:16px;">positive feedback</tspan></text>
	<text transform="matrix(1 0 0 1 2344.3152 617.2128)"><tspan x="0" y="0" style="fill:#66666B; font-family:'SenticoSansDT-Regular'; font-size:36px;">96%</tspan><tspan x="-8" y="19.2" class="st15" style="font-family:'SenticoSansDT-Regular'; font-size:16px;">positive feedback</tspan></text>
	<text transform="matrix(1 0 0 1 2496.2373 617.2123)"><tspan x="0" y="0" style="fill:#66666B; font-family:'SenticoSansDT-Regular'; font-size:36px;">96%</tspan><tspan x="-8" y="19.2" class="st15" style="font-family:'SenticoSansDT-Regular'; font-size:16px;">positive feedback</tspan></text>
	<rect x="496.1" y="-48.7" class="st16" width="80" height="80"/>
	<polygon class="st16" points="486,-8.7 536.1,-58.7 586.1,-8.7 536.1,41.3 	"/>
	<line class="st16" x1="586.1" y1="-58.7" x2="486" y2="41.4"/>
	<line class="st16" x1="586.1" y1="41.4" x2="486" y2="-58.7"/>
	<line class="st16" x1="486" y1="-8.7" x2="586.1" y2="-8.7"/>
	<line class="st16" x1="536.1" y1="-58.8" x2="536.1" y2="41.4"/>
	<rect x="633.7" y="-48.7" class="st16" width="80" height="80"/>
	<polygon class="st16" points="623.7,-8.7 673.7,-58.7 723.8,-8.7 673.7,41.3 	"/>
	<line class="st16" x1="723.8" y1="-58.7" x2="623.7" y2="41.4"/>
	<line class="st16" x1="723.8" y1="41.4" x2="623.7" y2="-58.7"/>
	<line class="st16" x1="623.7" y1="-8.7" x2="723.8" y2="-8.7"/>
	<line class="st16" x1="673.7" y1="-58.8" x2="673.7" y2="41.4"/>
	<rect x="779.2" y="-48.7" class="st16" width="80" height="80"/>
	<polygon class="st16" points="769.1,-8.7 819.2,-58.7 869.2,-8.7 819.1,41.3 	"/>
	<line class="st16" x1="869.2" y1="-58.7" x2="769.1" y2="41.4"/>
	<line class="st16" x1="869.2" y1="41.4" x2="769.1" y2="-58.7"/>
	<line class="st16" x1="769.1" y1="-8.7" x2="869.2" y2="-8.7"/>
	<line class="st16" x1="819.2" y1="-58.8" x2="819.2" y2="41.4"/>
	<rect x="779.2" y="99.4" class="st16" width="80" height="80"/>
	<polygon class="st16" points="769.1,139.4 819.2,89.4 869.2,139.4 819.1,189.4 	"/>
	<line class="st16" x1="869.2" y1="89.4" x2="769.1" y2="189.5"/>
	<line class="st16" x1="869.2" y1="189.5" x2="769.1" y2="89.4"/>
	<line class="st16" x1="769.1" y1="139.4" x2="869.2" y2="139.4"/>
	<line class="st16" x1="819.2" y1="89.3" x2="819.2" y2="189.5"/>
	<rect x="633.7" y="99.4" class="st16" width="80" height="80"/>
	<polygon class="st16" points="623.7,139.4 673.7,89.4 723.8,139.4 673.7,189.4 	"/>
	<line class="st16" x1="723.8" y1="89.4" x2="623.7" y2="189.5"/>
	<line class="st16" x1="723.8" y1="189.5" x2="623.7" y2="89.4"/>
	<line class="st16" x1="623.7" y1="139.4" x2="723.8" y2="139.4"/>
	<line class="st16" x1="673.7" y1="89.3" x2="673.7" y2="189.5"/>
	<rect x="501.3" y="99.4" class="st16" width="80" height="80"/>
	<polygon class="st16" points="491.2,139.4 541.3,89.4 591.3,139.4 541.3,189.4 	"/>
	<line class="st16" x1="591.3" y1="89.4" x2="491.2" y2="189.5"/>
	<line class="st16" x1="591.3" y1="189.5" x2="491.2" y2="89.4"/>
	<line class="st16" x1="491.2" y1="139.4" x2="591.3" y2="139.4"/>
	<line class="st16" x1="541.3" y1="89.3" x2="541.3" y2="189.5"/>
	<rect x="501.3" y="237.3" class="st16" width="80" height="80"/>
	<polygon class="st16" points="491.2,277.3 541.3,227.3 591.3,277.3 541.3,327.3 	"/>
	<line class="st16" x1="591.3" y1="227.2" x2="491.2" y2="327.3"/>
	<line class="st16" x1="591.3" y1="327.3" x2="491.2" y2="227.3"/>
	<line class="st16" x1="491.2" y1="277.3" x2="591.3" y2="277.3"/>
	<line class="st16" x1="541.3" y1="227.1" x2="541.3" y2="327.3"/>
	<rect x="637" y="237.3" class="st16" width="80" height="80"/>
	<polygon class="st16" points="627,277.3 677,227.3 727.1,277.3 677,327.3 	"/>
	<line class="st16" x1="727.1" y1="227.2" x2="627" y2="327.3"/>
	<line class="st16" x1="727.1" y1="327.3" x2="627" y2="227.3"/>
	<line class="st16" x1="627" y1="277.3" x2="727.1" y2="277.3"/>
	<line class="st16" x1="677" y1="227.1" x2="677" y2="327.3"/>
	<rect x="784" y="237.3" class="st16" width="80" height="80"/>
	<polygon class="st16" points="773.9,277.3 824,227.3 874,277.3 823.9,327.3 	"/>
	<line class="st16" x1="874" y1="227.2" x2="773.9" y2="327.3"/>
	<line class="st16" x1="874" y1="327.3" x2="773.9" y2="227.3"/>
	<line class="st16" x1="773.9" y1="277.3" x2="874" y2="277.3"/>
	<line class="st16" x1="824" y1="227.1" x2="824" y2="327.3"/>
	<g>
		<defs>
			<rect id="SVGID_3_" x="15.3" y="481.3" width="264.5" height="22.8"/>
		</defs>
		<clipPath id="SVGID_4_">
			<use xlink:href="#SVGID_3_"  style="overflow:visible;"/>
		</clipPath>
		<g class="st17">
			<defs>
				<rect id="SVGID_5_" x="15.3" y="481.3" width="264.5" height="24.7"/>
			</defs>
			<clipPath id="SVGID_6_">
				<use xlink:href="#SVGID_5_"  style="overflow:visible;"/>
			</clipPath>
			<g transform="matrix(1 0 0 1 0 3.051758e-005)" style="clip-path:url(#SVGID_6_);">
				
					<image style="overflow:visible;" width="332" height="31" xlink:href="433DD40B.jpg"  transform="matrix(0.7966 0 0 0.7966 15.2695 481.3027)">
				</image>
			</g>
		</g>
	</g>
</g>
<g id="lines">
	<rect x="3250.9" y="302.7" class="st15" width="11.3" height="199.5"/>
	<polyline class="st18" points="3287.8,220.3 3287.8,289.6 3256.6,320.8 3225.3,289.6 3225.3,220.3 	"/>
	<line class="st18" x1="3256.6" y1="220.3" x2="3256.6" y2="320.8"/>
</g>
<g id="Layer_1">
	<g>
		<path class="st18" d="M3583.3,498.7l9.1,5.8l-27.2,93.4c-2.9,1.1-4.1,1.6-7,2.7l-4.2-2.6l-43.4-27.4l-4.2-2.6
			c-0.3-3.1-0.4-4.4-0.6-7.5l72.7-64.7l9.1,5.8"/>
		
			<rect x="3481.3" y="571.8" transform="matrix(0.8455 0.5339 -0.5339 0.8455 887.0522 -1762.5277)" class="st15" width="16.6" height="159.9"/>
	</g>
	<rect x="1953.8" y="729.5" class="st4" width="1190.6" height="70.8"/>
</g>
<g id="hIDE">
	<rect x="1995.7" y="-36.1" style="fill:none;" width="311.8" height="74.3"/>
	<text transform="matrix(1.0037 0 0 1 1995.7028 -27.5562)"><tspan x="0" y="0" style="fill:#66666B; font-family:'SenticoSansDT-Regular'; font-size:12px;">Take a man with a brave vision in 1930 to create America’s </tspan><tspan x="0" y="15" style="fill:#66666B; font-family:'SenticoSansDT-Regular'; font-size:12px;">first insurance package for streetcars, when everyone else </tspan><tspan x="0" y="30" style="fill:#66666B; font-family:'SenticoSansDT-Regular'; font-size:12px;">said it couldn’t and wouldn’t be done</tspan></text>
	<rect x="2391.2" y="-36.1" style="fill:none;" width="311.8" height="87.1"/>
	<text transform="matrix(1 0 0 1 2391.1848 -27.5557)"><tspan x="0" y="0" style="fill:#66666B; font-family:'SenticoSansDT-Regular'; font-size:12px;">Take a business that faced scepticism, professional snobbery </tspan><tspan x="0" y="15" style="fill:#66666B; font-family:'SenticoSansDT-Regular'; font-size:12px;">and disbelief but boldly forged ahead in the early 1990’s with </tspan><tspan x="0" y="30" style="fill:#66666B; font-family:'SenticoSansDT-Regular'; font-size:12px;">the UK’s first ever legal advice helpline service – still the most </tspan><tspan x="0" y="45" style="fill:#66666B; font-family:'SenticoSansDT-Regular'; font-size:12px;">successful of them all today*</tspan><tspan x="0" y="66" style="fill:#66666B; font-family:'SenticoSansDT-Regular'; font-size:10px;">*sustained 96%+ customer satisfaction rates</tspan></text>
	<rect x="2788.7" y="-35.8" style="fill:none;" width="311.8" height="86.7"/>
	<text transform="matrix(1 0 0 1 2788.6787 -27.2433)"><tspan x="0" y="0" style="fill:#66666B; font-family:'SenticoSansDT-Regular'; font-size:12px;">Take an award-winning** breakaway couple of experienced </tspan><tspan x="0" y="15" style="fill:#66666B; font-family:'SenticoSansDT-Regular'; font-size:12px;">legal mavericks who felt they could build something better for </tspan><tspan x="0" y="30" style="fill:#66666B; font-family:'SenticoSansDT-Regular'; font-size:12px;">their clients by breaking away and striking out on their own in </tspan><tspan x="0" y="45" style="fill:#66666B; font-family:'SenticoSansDT-Regular'; font-size:12px;">[DATE]</tspan><tspan x="0" y="66" style="fill:#66666B; font-family:'SenticoSansDT-Regular'; font-size:10px;">** reference last year’s legal awards</tspan></text>
	<line class="st12" x1="1994.1" y1="230" x2="2283.3" y2="230"/>
	<line class="st12" x1="1994.1" y1="334.9" x2="2283.3" y2="334.9"/>
	<line class="st12" x1="1994.1" y1="439.8" x2="2283.3" y2="439.8"/>
	<line class="st12" x1="1994.1" y1="577.4" x2="2283.3" y2="577.4"/>
	<line class="st12" x1="2806.9" y1="280" x2="3096" y2="280"/>
</g>
<g id="Layer_3">
</g>
<g id="Layer_5">
	<g>
		<path class="st13" d="M2235.8,258.9l5.1-5 M2240.1,277.1h7.2 M2204.1,253.9l5.1,5 M2222.1,257.4v-7.1 M2196.5,277.1h7.2
			 M2215.5,301.7h13.1 M2215.5,300.1h13.1 M2215.5,298.4h13.1"/>
		<polygon class="st7" points="2234.8,277.4 2228.4,263.1 2215.6,263.1 2209.2,277.4 2215.6,291.6 2215.6,291.6 2215.6,296.8 
			2228.6,296.8 2228.6,291.2 		"/>
		<g>
			<polygon class="st0" points="2219.9,278.9 2218,280.7 2219.9,282.5 2221.8,280.7 2223.7,282.5 2225.6,280.7 2223.7,278.9 
				2221.8,277.1 			"/>
		</g>
		<polyline class="st19" points="2222.1,296.2 2222.1,293 2224.3,290.7 2222.1,288.6 2224.5,286.3 2221.9,283.7 2221.9,279.9 		"/>
	</g>
	<g>
		<g>
			<polyline class="st13" points="2227.1,386.8 2237.4,397.1 2237.4,411.6 2227.1,421.9 2212.5,421.9 2202.2,411.6 2202.2,397.1 
				2212.5,386.8 			"/>
			<line class="st13" x1="2219.8" y1="380" x2="2219.8" y2="384.9"/>
			<rect x="2216.1" y="376.6" class="st7" width="7.3" height="4.5"/>
			<g>
				<polyline class="st7" points="2221.1,401.8 2223,403.7 2223,406.3 2221.1,408.1 2218.5,408.1 2216.6,406.3 2216.6,403.7 
					2218.5,401.8 				"/>
				<line class="st13" x1="2219.8" y1="405.6" x2="2229.7" y2="395.7"/>
			</g>
			
				<rect x="2229.6" y="389.6" transform="matrix(0.7071 0.7071 -0.7071 0.7071 930.9244 -1465.1432)" class="st7" width="9" height="3.3"/>
			
				<rect x="2201.3" y="388.9" transform="matrix(-0.7071 0.7071 -0.7071 -0.7071 4041.7996 -893.0938)" class="st7" width="9" height="3.3"/>
		</g>
		<path class="st1" d="M2263.1,358.5l-4.6,4.6l-6.2,6.2l-6.8,1.7l-21.4-4.2V363h12.4l-4.5-4.5l-12.4,2.4l-4.1,4.1l-5.1,0.1
			c-0.3-1.1-0.4-1.4-0.7-2.5l6.6-6.6l16-3.8l14,3.6l4.2-0.7l4.6-4.6"/>
	</g>
	<g>
		<path class="st13" d="M535.5,149.9l21.8,5.4l3.1-12.8l-21.8-5.4L535.5,149.9z M557.7,153.1l20.2,5l2.1-8.5l-20.2-5L557.7,153.1z"
			/>
		<rect x="551" y="157.4" class="st7" width="12" height="2.3"/>
		<polygon class="st7" points="585.2,153.9 584.5,156.7 578.6,155.2 579.3,152.5 		"/>
		<polygon class="st7" points="535.3,134.5 539,135.4 535.1,151.6 531.4,150.7 		"/>
		<g>
			<path class="st13" d="M557,165.3l-17,17.1 M557,165.3l17,17.1 M557,159.8v22.6"/>
		</g>
	</g>
	<g>
		<polygon class="st15" points="524.3,132 523,133.4 521.6,132 519.6,132 519.6,130.2 518.2,128.9 519.6,127.5 519.6,125.6 
			521.6,125.6 523,124.2 524.3,125.6 526.3,125.6 526.3,127.5 527.7,128.9 526.3,130.2 526.3,132 		"/>
		<polygon class="st1" points="507.8,123.1 506.5,124.4 505.2,123.1 503.4,123.1 503.4,121.3 502.1,120 503.4,118.7 503.4,116.9 
			505.2,116.9 506.5,115.6 507.8,116.9 509.7,116.9 509.7,118.7 511,120 509.7,121.3 509.7,123.1 		"/>
		<polygon class="st1" points="524.3,107.8 523,109.1 521.7,107.8 519.8,107.8 519.8,106 518.5,104.7 519.8,103.4 519.8,101.6 
			521.7,101.6 523,100.3 524.3,101.6 526.2,101.6 526.2,103.4 527.5,104.7 526.2,106 526.2,107.8 		"/>
		<polygon class="st15" points="503.4,103.3 502,104.7 500.7,103.3 498.7,103.3 498.7,101.5 497.3,100.1 498.7,98.8 498.7,96.9 
			500.7,96.9 502,95.5 503.4,96.9 505.4,96.9 505.4,98.8 506.8,100.1 505.4,101.5 505.4,103.3 		"/>
	</g>
	<g>
		<polygon class="st18" points="3004.6,367.6 3004.6,367.6 2993.8,367.6 2987.8,381.3 2989.6,382.1 2994.9,370.2 2995.1,370.2 
			2995.1,383.1 2995.1,383.6 2995.1,396.1 2998.4,396.1 2998.4,383.6 3000.2,383.6 3000.2,396.1 3003.5,396.1 3003.5,383.6 
			3003.5,383.1 3003.5,370.2 3003.6,370.2 3008.8,382.1 3010.6,381.3 3004.6,367.6 		"/>
		<polygon class="st18" points="3026.2,367.6 3026.2,367.6 3014.7,367.6 3014.7,367.7 3014.7,367.6 3008.6,381.3 3010.5,382.1 
			3015.7,370.2 3016.4,370.2 3013.5,383.6 3016.4,383.6 3016.4,396.1 3019.7,396.1 3019.7,383.6 3020.3,383.6 3020.6,383.6 
			3021.2,383.6 3021.2,396.1 3024.5,396.1 3024.5,383.6 3027.4,383.6 3024.4,370.2 3025.1,370.2 3030.4,382.1 3032.2,381.3 
			3026.2,367.6 		"/>
		<polygon class="st18" points="2997.8,359.9 2995.8,361.9 2995.7,364.8 2997.7,366.9 3000.6,366.9 3002.7,364.9 3002.7,362 
			3000.7,360 		"/>
		<polygon class="st18" points="3047,367.6 3047,367.6 3036.3,367.6 3030.3,381.3 3032.1,382.1 3037.3,370.2 3037.5,370.2 
			3037.5,383.1 3037.5,383.6 3037.5,396.1 3040.9,396.1 3040.9,383.6 3042.6,383.6 3042.6,396.1 3046,396.1 3046,383.6 3046,383.1 
			3046,370.2 3046,370.2 3051.2,382.1 3053.1,381.3 3047.1,367.6 		"/>
		<polygon class="st18" points="3040.3,359.9 3038.2,361.9 3038.2,364.8 3040.2,366.9 3043.1,366.9 3045.1,364.9 3045.2,362 
			3043.2,360 		"/>
		<polygon class="st18" points="3019.1,359.9 3017.1,361.9 3017,364.8 3019,366.9 3021.9,366.9 3024,364.9 3024,362 3022,360 		"/>
		<polygon class="st18" points="3068.9,367.6 3068.9,367.6 3057.5,367.6 3057.5,367.7 3057.4,367.6 3051.4,381.3 3053.2,382.1 
			3058.5,370.2 3059.2,370.2 3056.3,383.6 3059.1,383.6 3059.1,396.1 3062.5,396.1 3062.5,383.6 3063.1,383.6 3063.3,383.6 
			3063.9,383.6 3063.9,396.1 3067.2,396.1 3067.2,383.6 3070.1,383.6 3067.2,370.2 3067.9,370.2 3073.1,382.1 3074.9,381.3 
			3068.9,367.6 		"/>
		<polygon class="st18" points="3061.9,359.9 3059.8,361.9 3059.8,364.8 3061.8,366.9 3064.7,366.9 3066.7,364.9 3066.8,362 
			3064.8,360 		"/>
	</g>
	<g>
		<g>
			<polygon class="st13" points="3069.5,303.9 3061.6,296 3056,296 3040,325.3 3041.9,327.1 3043.5,328.7 3046,331.2 3075.2,315.2 
				3075.2,309.6 3070.8,305.2 			"/>
			<polygon class="st7" points="3050.7,310.5 3044.3,322.2 3045.8,323.6 3047.1,324.9 3049.1,326.9 3072.5,314.1 3072.5,309.6 			
				"/>
			
				<rect x="3033.6" y="329" transform="matrix(-0.7071 -0.7071 0.7071 -0.7071 4955.6011 2714.9397)" class="st7" width="13" height="4.3"/>
		</g>
		<polygon class="st13" points="3039.8,334.9 3040.5,334.2 3041.5,334.2 3042.2,334.9 3042.2,335.9 3041.5,336.6 3040.5,336.6 
			3039.8,335.9 		"/>
		<polygon class="st13" points="3035.4,338.7 3036.1,337.9 3037.1,337.9 3037.8,338.7 3037.8,339.6 3037.1,340.4 3036.1,340.4 
			3035.4,339.6 		"/>
		<polygon class="st13" points="3029.5,344.3 3030.2,343.6 3031.2,343.6 3031.9,344.3 3031.9,345.3 3031.2,346 3030.2,346 
			3029.5,345.3 		"/>
		<polygon class="st13" points="3036.6,345.5 3037.3,344.8 3038.3,344.8 3039,345.5 3039,346.5 3038.3,347.2 3037.3,347.2 
			3036.6,346.5 		"/>
		<polygon class="st13" points="3025.5,346.7 3026.2,346 3027.2,346 3027.9,346.7 3027.9,347.7 3027.2,348.4 3026.2,348.4 
			3025.5,347.7 		"/>
		<polygon class="st13" points="3034.2,333.7 3034.9,333 3035.9,333 3036.6,333.7 3036.6,334.7 3035.9,335.4 3034.9,335.4 
			3034.2,334.7 		"/>
		<polygon class="st13" points="3029,338 3029.7,337.3 3030.7,337.3 3031.4,338 3031.4,339 3030.7,339.7 3029.7,339.7 3029,339 		
			"/>
	</g>
	<g>
		<polyline class="st13" points="3083.6,625.9 3083.6,615.8 3067.4,599.6 3047.4,597.2 3027.3,599.6 3011.1,615.8 3011.1,625.9 		
			"/>
		<polygon class="st7" points="3050.5,587.5 3049.5,591.8 3045.2,591.8 3044.2,587.5 		"/>
		<rect x="3002.8" y="625.9" class="st7" width="88.3" height="5.2"/>
		<line class="st13" x1="3047.4" y1="597.2" x2="3047.4" y2="589.7"/>
	</g>
	<g>
		<g>
			<rect x="3032.6" y="242.5" class="st13" width="29.3" height="17.9"/>
			<rect x="3028.7" y="242.5" class="st7" width="3.7" height="2.8"/>
			<rect x="3061.8" y="242.5" class="st7" width="3.7" height="2.8"/>
			<polyline class="st7" points="3062.3,242.5 3062.3,239 3055.7,235.2 3047.2,235.2 3038.7,235.2 3032.1,239 3032.1,242.5 			"/>
			<polygon class="st7" points="3049,232.7 3048.5,235.2 3046,235.2 3045.4,232.7 			"/>
		</g>
		<g>
			<polyline class="st13" points="3027.1,263.6 3031.1,267.6 3035.1,263.6 3039.1,267.6 3043.1,263.6 3047.1,267.6 3051.1,263.6 
				3055.1,267.6 3059.1,263.6 3063.1,267.6 3067.1,263.6 			"/>
		</g>
		<polyline class="st13" points="3048.3,221.7 3045.7,224.4 3048.3,227 3048.3,230.8 		"/>
		<polyline class="st13" points="3043.9,219.5 3041.3,222.2 3043.9,224.8 3043.9,228.7 		"/>
	</g>
	<g>
		<path class="st13" d="M695.5-38.5l8-8 M702.3-9.7h11.4 M645.3-46.5l8,8 M673.8-40.8v-11.3 M633.3-9.7h11.4 M663.4,29.4h20.7
			 M663.4,26.8h20.7 M663.4,24.1h20.7"/>
		<polygon class="st7" points="694,-9.2 683.9,-31.8 663.5,-31.8 653.3,-9.2 663.5,13.3 663.5,13.3 663.5,21.6 684.2,21.6 
			684.2,12.7 		"/>
		<g>
			<polygon class="st0" points="670.3,-6.8 667.3,-4 670.3,-1.1 673.3,-4 676.3,-1.1 679.3,-4 676.3,-6.8 673.3,-9.7 			"/>
		</g>
		<polyline class="st19" points="673.8,20.7 673.8,15.5 677.3,12 673.9,8.6 677.6,4.9 673.5,0.8 673.5,-5.1 		"/>
	</g>
	<g>
		<g>
			<polyline class="st13" points="812.4,-7.6 824.7,4.7 824.7,22 812.4,34.3 795,34.3 782.8,22 782.8,4.7 795,-7.6 			"/>
			<line class="st13" x1="803.7" y1="-15.7" x2="803.7" y2="-9.9"/>
			<rect x="799.4" y="-19.8" class="st7" width="8.7" height="5.4"/>
			<g>
				<polyline class="st7" points="805.3,10.3 807.5,12.5 807.5,15.6 805.3,17.9 802.2,17.9 799.9,15.6 799.9,12.5 802.2,10.3 				
					"/>
				<line class="st13" x1="803.7" y1="14.8" x2="815.5" y2="3.1"/>
			</g>
			
				<rect x="815.4" y="-4.3" transform="matrix(0.7071 0.7071 -0.7071 0.7071 238.7318 -581.0565)" class="st7" width="10.8" height="3.9"/>
			
				<rect x="781.7" y="-5.1" transform="matrix(-0.7071 0.7071 -0.7071 -0.7071 1341.421 -561.9432)" class="st7" width="10.8" height="3.9"/>
		</g>
		<path class="st1" d="M855.4-41.3l-5.5,5.5l-7.3,7.3l-8.1,2l-25.5-5v-4.4h14.8l-5.4-5.4l-14.8,2.9l-4.9,4.9l-6.1,0.1
			c-0.4-1.3-0.5-1.6-0.8-3l7.8-7.8l19.1-4.6l16.6,4.3l5-0.9l5.5-5.5"/>
	</g>
	<g>
		<g>
			<rect x="648.5" y="139.6" class="st13" width="50.9" height="31.1"/>
			<rect x="641.7" y="139.6" class="st7" width="6.5" height="4.9"/>
			<rect x="699.4" y="139.6" class="st7" width="6.5" height="4.9"/>
			<polyline class="st7" points="700.2,139.6 700.2,133.5 688.7,126.8 674,126.8 659.2,126.8 647.8,133.5 647.8,139.6 			"/>
			<polygon class="st7" points="677.1,122.6 676.1,126.8 671.8,126.8 670.8,122.6 			"/>
		</g>
		<g>
			<polyline class="st13" points="639,177.7 646,181.8 652.9,177.7 659.9,181.8 666.8,177.7 673.8,181.8 680.7,177.7 687.7,181.8 
				694.6,177.7 701.6,181.8 708.6,177.7 			"/>
		</g>
		<polyline class="st13" points="675.9,103.4 671.3,108.1 675.8,112.6 675.8,119.3 		"/>
		<polyline class="st13" points="668.3,99.7 663.6,104.3 668.2,108.9 668.2,115.6 		"/>
	</g>
	<g>
		<polygon class="st18" points="797.3,156.1 797.3,156.1 788.7,156.1 783.9,167 785.4,167.6 789.6,158.2 789.7,158.2 789.7,168.4 
			789.7,168.8 789.7,178.7 792.4,178.7 792.4,168.8 793.8,168.8 793.8,178.7 796.4,178.7 796.4,168.8 796.4,168.4 796.4,158.2 
			796.5,158.2 800.6,167.6 802.1,167 797.3,156.1 		"/>
		<polygon class="st18" points="814.4,156.1 814.4,156.1 805.3,156.1 805.3,156.1 805.3,156.1 800.5,167 802,167.6 806.1,158.2 
			806.7,158.2 804.4,168.8 806.7,168.8 806.7,178.7 809.3,178.7 809.3,168.8 809.8,168.8 810,168.8 810.5,168.8 810.5,178.7 
			813.1,178.7 813.1,168.8 815.4,168.8 813.1,158.2 813.6,158.2 817.8,167.6 819.2,167 814.4,156.1 		"/>
		<polygon class="st18" points="791.9,150 790.3,151.6 790.2,153.8 791.8,155.5 794.1,155.5 795.8,153.9 795.8,151.6 794.2,150 		
			"/>
		<polygon class="st18" points="831.1,156.1 831.1,156.1 822.5,156.1 817.7,167 819.1,167.6 823.3,158.2 823.5,158.2 823.5,168.4 
			823.5,168.8 823.5,178.7 826.1,178.7 826.1,168.8 827.5,168.8 827.5,178.7 830.2,178.7 830.2,168.8 830.2,168.4 830.2,158.2 
			830.2,158.2 834.4,167.6 835.9,167 831.1,156.1 		"/>
		<polygon class="st18" points="825.7,150 824,151.6 824,153.8 825.6,155.5 827.9,155.5 829.5,153.9 829.6,151.6 828,150 		"/>
		<polygon class="st18" points="808.9,150 807.2,151.6 807.2,153.8 808.8,155.5 811.1,155.5 812.7,153.9 812.7,151.6 811.1,150 		
			"/>
		<polygon class="st18" points="848.4,156.1 848.4,156.1 839.3,156.1 839.3,156.1 839.3,156.1 834.5,167 836,167.6 840.1,158.2 
			840.7,158.2 838.4,168.8 840.7,168.8 840.7,178.7 843.3,178.7 843.3,168.8 843.8,168.8 844,168.8 844.5,168.8 844.5,178.7 
			847.1,178.7 847.1,168.8 849.4,168.8 847.1,158.2 847.6,158.2 851.8,167.6 853.2,167 848.5,156.1 		"/>
		<polygon class="st18" points="842.9,150 841.2,151.6 841.2,153.8 842.8,155.5 845.1,155.5 846.7,153.9 846.7,151.6 845.2,150 		
			"/>
	</g>
	<g>
		<g>
			<polygon class="st13" points="848.9,105.4 842.6,99.1 838.2,99.1 825.5,122.4 827,123.9 828.2,125.1 830.2,127.1 853.5,114.4 
				853.5,109.9 849.9,106.4 			"/>
			<polygon class="st7" points="834,110.6 828.9,119.9 830.1,121.1 831.1,122.1 832.6,123.7 851.3,113.5 851.3,110 			"/>
			
				<rect x="820.3" y="125.4" transform="matrix(-0.7071 -0.7071 0.7071 -0.7071 1319.3911 800.6317)" class="st7" width="10.4" height="3.4"/>
		</g>
		<polygon class="st13" points="825.3,130 825.9,129.5 826.7,129.5 827.2,130 827.2,130.8 826.7,131.4 825.9,131.4 825.3,130.8 		
			"/>
		<polygon class="st13" points="821.7,133 822.3,132.5 823.1,132.5 823.7,133 823.7,133.8 823.1,134.4 822.3,134.4 821.7,133.8 		
			"/>
		<polygon class="st13" points="817.1,137.6 817.6,137 818.4,137 819,137.6 819,138.3 818.4,138.9 817.6,138.9 817.1,138.3 		"/>
		<polygon class="st13" points="822.7,138.5 823.3,138 824.1,138 824.6,138.5 824.6,139.3 824.1,139.9 823.3,139.9 822.7,139.3 		
			"/>
		<polygon class="st13" points="813.9,139.5 814.5,138.9 815.3,138.9 815.9,139.5 815.9,140.3 815.3,140.8 814.5,140.8 813.9,140.3 
					"/>
		<polygon class="st13" points="820.8,129.1 821.4,128.5 822.1,128.5 822.7,129.1 822.7,129.9 822.1,130.4 821.4,130.4 820.8,129.9 
					"/>
		<polygon class="st13" points="816.7,132.5 817.2,131.9 818,131.9 818.6,132.5 818.6,133.3 818,133.8 817.2,133.8 816.7,133.3 		
			"/>
	</g>
	<g>
		<polyline class="st13" points="713.9,292.2 713.9,282.2 697.7,266 677.7,263.6 657.6,266 641.4,282.2 641.4,292.2 		"/>
		<polygon class="st7" points="680.8,253.9 679.9,258.2 675.5,258.2 674.5,253.9 		"/>
		<rect x="633.2" y="292.2" class="st7" width="88.3" height="5.2"/>
		<line class="st13" x1="677.7" y1="263.6" x2="677.7" y2="256"/>
	</g>
	<g>
		<path class="st13" d="M827.4,312.6l25.8-28.9V265c0,0-9.9-9.9-13.6-13.6l-15.1,13.6l-15.1-13.6L795.8,265v18.7l25.8,28.9H827.4z"
			/>
	</g>
</g>
<g id="Layer_6">
	<linearGradient id="SVGID_7_" gradientUnits="userSpaceOnUse" x1="2194.8374" y1="181.4335" x2="2482.6021" y2="181.4335">
		<stop  offset="0" style="stop-color:#D27A6F"/>
		<stop  offset="8.406200e-002" style="stop-color:#C19176"/>
		<stop  offset="0.186" style="stop-color:#ACA87D"/>
		<stop  offset="0.2648" style="stop-color:#9CB480"/>
		<stop  offset="0.3103" style="stop-color:#95B982"/>
		<stop  offset="0.3266" style="stop-color:#8BB586"/>
		<stop  offset="0.379" style="stop-color:#6CAA92"/>
		<stop  offset="0.4341" style="stop-color:#50A39B"/>
		<stop  offset="0.4924" style="stop-color:#339EA1"/>
		<stop  offset="0.5561" style="stop-color:#159BA5"/>
		<stop  offset="0.6355" style="stop-color:#009AA6"/>
		<stop  offset="0.6555" style="stop-color:#1F96A6"/>
		<stop  offset="1" style="stop-color:#813393"/>
	</linearGradient>
	<polygon class="st20" points="2476.9,355.3 2332.3,210.6 2332.3,89.9 2194.8,89.9 2194.8,7.6 2202.8,7.6 2202.8,81.9 2340.3,81.9 
		2340.3,207.3 2482.6,349.6 	"/>
	<linearGradient id="SVGID_8_" gradientUnits="userSpaceOnUse" x1="2531.479" y1="189.5937" x2="2614.3716" y2="189.5937">
		<stop  offset="9.359606e-002" style="stop-color:#813393"/>
		<stop  offset="0.532" style="stop-color:#95B982"/>
		<stop  offset="0.5445" style="stop-color:#92B783"/>
		<stop  offset="0.6826" style="stop-color:#6AAA93"/>
		<stop  offset="0.8092" style="stop-color:#46A19E"/>
		<stop  offset="0.9191" style="stop-color:#209CA4"/>
		<stop  offset="1" style="stop-color:#009AA6"/>
	</linearGradient>
	<polygon class="st21" points="2539.5,352.4 2531.5,352.4 2531.5,252.3 2606.4,177.4 2606.4,26.8 2614.4,26.8 2614.4,180.7 
		2539.5,255.6 	"/>
	<linearGradient id="SVGID_9_" gradientUnits="userSpaceOnUse" x1="2604.4043" y1="187.0595" x2="2991.8125" y2="187.0595">
		<stop  offset="0.1823" style="stop-color:#95B982"/>
		<stop  offset="0.2269" style="stop-color:#87B388"/>
		<stop  offset="0.3435" style="stop-color:#63A895"/>
		<stop  offset="0.4538" style="stop-color:#41A09F"/>
		<stop  offset="0.5541" style="stop-color:#1D9CA4"/>
		<stop  offset="0.6355" style="stop-color:#009AA6"/>
		<stop  offset="0.6555" style="stop-color:#1F96A6"/>
		<stop  offset="1" style="stop-color:#813393"/>
	</linearGradient>
	<polygon class="st22" points="2610.1,362.3 2604.4,356.6 2753.7,207.3 2753.7,93.9 2983.8,93.9 2983.8,11.9 2991.8,11.9 
		2991.8,101.9 2761.7,101.9 2761.7,210.6 	"/>
	<g>
		<g>
			<g>
				<path class="st7" d="M496.3,18.9h12.6c0.1,0,0.1,0,0.2,0.1l9.2,9.2c0.1,0.1,0.4,0,0.4-0.2v-8.9c0-0.1,0.1-0.2,0.2-0.2h5
					c0.1,0,0.2-0.1,0.2-0.2v-27c0-0.1-0.1-0.2-0.2-0.2h-27.6c-0.1,0-0.2,0.1-0.2,0.2v27C496.1,18.8,496.2,18.9,496.3,18.9z"/>
			</g>
			<g>
				<g>
					<path class="st0" d="M509.4,8.9c-0.1,0-0.2-0.1-0.1-0.3c0.3-1.3,0.5-2.1,1.6-3.1c1.2-1,2.1-1.3,2.1-3.4c0-1.7-0.4-2.3-2.5-2.3
						c-0.9,0-1.9,0.2-2.9,0.5c-0.1,0-0.3,0-0.3-0.2l-0.1-1.1c0-0.1,0.1-0.2,0.2-0.2c1-0.2,2.1-0.5,3.2-0.5c3.1,0,4.2,1.1,4.2,3.8
						c0,3.1-1.4,3.4-2.8,4.8c-0.6,0.6-0.9,1.2-1.2,2.3c0,0.1-0.2,0.2-0.3,0.2L509.4,8.9z M510.6,11.4c0.5,0.1,0.5,0.4,0.5,1.1
						c0,0.8-0.7,1.4-1.4,1.2c-0.5-0.1-0.5-0.4-0.5-1.1C509.2,11.8,509.9,11.2,510.6,11.4z"/>
				</g>
			</g>
		</g>
		<g>
			<polyline class="st1" points="545.8,-40.6 576.1,-24.3 572.1,-14 568.2,-3.7 545.5,-9.1 534.8,-11.7 			"/>
			<polyline class="st8" points="550.7,-38 552,-41.5 558.1,-42 564.5,-39.6 566.6,-34.8 564.7,-29.7 			"/>
			<polygon class="st1" points="560.1,-32.7 539.2,-10.6 568.2,-3.7 576.1,-24.3 			"/>
			<line class="st1" x1="544.7" y1="-9.3" x2="546.3" y2="-13.5"/>
			<line class="st1" x1="550.5" y1="-7.4" x2="552.1" y2="-11.6"/>
			<line class="st1" x1="556.6" y1="-6.5" x2="557.7" y2="-9.4"/>
			<line class="st1" x1="562.2" y1="-4.7" x2="563.2" y2="-7.4"/>
		</g>
		<g>
			<polygon class="st1" points="520.1,-27.3 522.1,-29.5 525.1,-29.6 527.3,-27.6 527.5,-24.6 525.4,-22.4 522.4,-22.2 520.2,-24.3 
							"/>
			<polygon class="st1" points="530.9,-22.3 531.9,-23.5 533.5,-23.5 534.6,-22.5 534.7,-20.9 533.6,-19.8 532.1,-19.7 530.9,-20.8 
							"/>
			<polygon class="st1" points="518.7,-16.4 519.7,-17.6 521.3,-17.6 522.4,-16.6 522.5,-15 521.4,-13.9 519.9,-13.8 518.7,-14.9 
							"/>
		</g>
	</g>
	
		<rect x="3301.2" y="637.7" transform="matrix(0.9583 -0.2859 0.2859 0.9583 -43.7794 979.9951)" class="st7" width="67.1" height="4.5"/>
	<g>
		
			<rect x="3198.9" y="600" transform="matrix(-0.6144 -0.789 0.789 -0.6144 4739.7925 3522.3972)" class="st15" width="63.6" height="5.9"/>
		<polygon class="st18" points="3243,612.8 3252.3,615.3 3259,623.9 3259.1,633.5 3252.7,638.5 3243.4,636 3236.7,627.4 
			3236.5,617.8 		"/>
	</g>
	<polygon class="st23" points="3304.5,646.9 3304.5,657.9 3286.9,675.4 3261.3,675.4 3258.2,675.4 3235.4,675.4 3217.9,657.9 
		3217.9,646.9 	"/>
	
		<rect x="547.5" y="295.2" transform="matrix(0.9583 -0.2859 0.2859 0.9583 -61.0859 174.5083)" class="st7" width="39.4" height="2.6"/>
	<g>
		
			<rect x="493.4" y="263.7" transform="matrix(-0.6144 -0.789 0.789 -0.6144 623.5295 836.2568)" class="st15" width="45.4" height="4.2"/>
		<polygon class="st18" points="524.9,272.8 531.6,274.6 536.3,280.7 536.4,287.6 531.8,291.2 525.2,289.4 520.4,283.3 520.3,276.4 
					"/>
	</g>
	<polygon class="st23" points="549.4,300.6 549.4,307 539.1,317.3 524.1,317.3 522.3,317.3 508.9,317.3 498.6,307 498.6,300.6 	"/>
</g>
</svg>
