<?xml version="1.0" encoding="utf-8"?>
<!-- Generator: Adobe Illustrator 19.1.1, SVG Export Plug-In . SVG Version: 6.00 Build 0)  -->
<svg version="1.1" xmlns="http://www.w3.org/2000/svg" xmlns:xlink="http://www.w3.org/1999/xlink" x="0px" y="0px"
	 viewBox="0 0 295 150" style="enable-background:new 0 0 295 150;" xml:space="preserve">
<style type="text/css">
	.st0{fill:#FFFFFF;}
	.st1{fill:none;stroke:#B4B1B3;stroke-miterlimit:10;}
	.st2{fill:#BD2137;}
	.st3{fill:#009AA6;}
	.st4{fill:#813393;}
	.st5{fill:#FFFFFF;stroke:#FFFFFF;}
	.st6{fill:#539B43;}
	.st7{fill:#BFA1CC;}
	.st8{fill:none;stroke:#B4B1B3;stroke-width:6;stroke-miterlimit:10;}
	.st9{fill:#BD2036;}
	.st10{fill:#00A0AF;}
	.st11{fill:#803393;}
	.st12{fill:#FFFFFF;stroke:#B4B1B3;stroke-width:0.5;stroke-miterlimit:10;}
	.st13{fill:none;stroke:#BFA1CC;stroke-miterlimit:10;}
	.st14{clip-path:url(#SVGID_2_);}
	.st15{fill:#B4B1B3;}
	.st16{fill:none;stroke:#AD58A2;stroke-width:0.1;stroke-miterlimit:10;stroke-dasharray:1,0.3;}
	.st17{clip-path:url(#SVGID_4_);}
	.st18{fill:#FFFFFF;stroke:#B4B1B3;stroke-miterlimit:10;}
	.st19{fill:none;stroke:#FFFFFF;stroke-miterlimit:10;}
	.st20{opacity:0.3;fill:url(#SVGID_7_);}
	.st21{opacity:0.3;fill:url(#SVGID_8_);}
	.st22{opacity:0.3;fill:url(#SVGID_9_);}
	.st23{fill:#FFFFFF;stroke:#BFA1CC;stroke-miterlimit:10;}
</style>
<g id="Layer_2">
	<rect x="2408.3" y="-67.4" class="st0" width="288.5" height="107.6"/>
	<g>
		
			<rect x="2240.3" y="460.1" transform="matrix(0.99 0.1407 -0.1407 0.99 91.0417 -310.9274)" class="st1" width="7.3" height="56.4"/>
		<polyline class="st1" points="2247.9,460.4 2256.3,401.2 2248.6,413.5 2246.7,426.9 2248.1,439.5 2247.8,446.2 2245.8,460.1 		"/>
		<polyline class="st1" points="2256.4,400.5 2254.5,400.2 2246.3,403.4 2240.9,414 2239.3,425 2245.8,449.5 2244.3,459.8 		"/>
		<polyline class="st1" points="2245.8,449.5 2243.1,426.4 2244.9,413.9 2248.8,406.2 2256.4,400.5 		"/>
		<g>
			<polyline class="st1" points="2256.3,401.2 2260.3,415.1 2258.4,428.6 2253.6,440.2 2252,446.8 2250,460.7 			"/>
			<polyline class="st1" points="2256.4,400.5 2258.4,400.8 2265.4,406.1 2267.6,417.8 2266,428.8 2253,450.6 2251.5,460.9 			"/>
			<polyline class="st1" points="2253,450.6 2262,429.1 2263.8,416.6 2262.2,408.1 2256.4,400.5 			"/>
		</g>
	</g>
	<text transform="matrix(1 0 0 1 2344.8967 572.2775)" class="st0" style="font-family:'SenticoSansDT-Regular'; font-size:24px;">Real law made easy for you, by</text>
	<g>
		<polygon class="st0" points="2668.3,556.3 2668.3,583 2682.8,583 2682.8,580.1 2671.6,580.1 2671.6,556.3 		"/>
		<polygon class="st0" points="2702.7,583 2702.7,570.7 2691,570.7 2691,583 2687.7,583 2687.7,556.3 2691,556.3 2691,567.8 
			2702.7,567.8 2702.7,556.3 2705.9,556.3 2705.9,583 		"/>
		<g>
			<path class="st0" d="M2720,568.2c-4.5-1.2-6.1-1.6-6.1-5.2c0-2.9,1.1-4.3,5.3-4.3c2.3,0,4.8,0.4,6.6,1v-3.1
				c-1.9-0.4-4.4-0.7-6.7-0.7c-7,0-8.7,3.1-8.7,7.9c0,4.6,2.4,5.7,6.8,6.8c4.6,1.2,6.2,1.6,6.2,5.5c0,3.2-1.6,4.4-5.5,4.4
				c-2.4,0-5.1-0.5-7.1-1.2v3.2c2.1,0.6,4.7,1,7.1,1c6.9,0,8.9-2.9,8.9-7.6C2726.9,570.8,2725.1,569.6,2720,568.2"/>
		</g>
		<polygon class="st0" points="2746.2,538.6 2739.2,538.6 2739.2,545.7 2746.2,545.7 2746.2,552.7 2753.2,552.7 2753.2,545.7 
			2753.2,538.6 		"/>
		<polygon class="st0" points="2739.2,552.7 2739.2,545.7 2732.1,545.7 2732.1,552.7 2732.1,559.7 2739.2,559.7 2746.2,559.7 
			2746.2,552.7 		"/>
	</g>
	<rect y="-202.2" class="st2" width="295" height="150"/>
	<rect x="2391.2" y="-302.7" class="st3" width="311.8" height="48.3"/>
	<g>
		<rect x="2788.7" y="-302.4" class="st4" width="311.8" height="48.3"/>
	</g>
	<g>
		<polygon class="st0" points="173.5,-162.6 155.8,-155.6 155.8,-108.6 173.5,-108.6 		"/>
		<polygon class="st0" points="154.3,-108.6 136.6,-108.6 136.6,-148 154.3,-155 		"/>
		<polygon class="st0" points="117.3,-140.4 117.3,-108.6 135,-108.6 135,-147.4 		"/>
		<g>
			<path class="st0" d="M125.3-91.9h-2.9l-1.2-7.8l-0.6,7.8h-3.2l1.1-12.9h4.5l0.7,4.3c0.1,0.4,0.1,0.7,0.2,1.2
				c0,0.4,0.1,0.9,0.1,1.4c0.1-0.8,0.2-1.6,0.3-2.2l0.9-4.7h4.3l0.9,12.9h-3.1l-0.4-7.8L125.3-91.9z"/>
			<path class="st0" d="M140.7-91.9h-3.6l-0.3-1.6h-2.3l-0.3,1.6h-3.6l3.1-12.9h4.3L140.7-91.9z M136.4-96.3l-0.2-1.5
				c0,0,0-0.1,0-0.2c0-0.1-0.1-0.6-0.2-1.5c0-0.1,0-0.2,0-0.4c0-0.2,0-0.4-0.1-0.6l-0.1-1.2c0,0.1,0,0.2,0,0.4c0,0.1,0,0.3-0.1,0.5
				c0,0.3-0.1,0.6-0.1,0.7c0,0.1,0,0.2,0,0.2l-0.2,1.6l-0.4,2H136.4z"/>
			<path class="st0" d="M150.2-91.9h-3.8l-1.7-4.6c0-0.1,0-0.2-0.1-0.3c0-0.1-0.1-0.3-0.2-0.5l0,0.9v4.5H141v-12.9h3.6
				c1.6,0,2.7,0.3,3.5,0.9c1,0.8,1.5,1.9,1.5,3.4c0,1.6-0.7,2.6-2,3.2L150.2-91.9z M144.5-99h0.2c0.4,0,0.7-0.2,1-0.5
				c0.3-0.3,0.4-0.7,0.4-1.2c0-1-0.5-1.4-1.5-1.4h-0.1V-99z"/>
			<polygon class="st0" points="159.9,-91.9 156.1,-91.9 153.8,-97.8 153.9,-91.9 150.4,-91.9 150.4,-104.8 153.9,-104.8 
				153.8,-99.3 155.7,-104.8 159.4,-104.8 156.8,-98.6 			"/>
			<polygon class="st0" points="160.2,-91.9 160.2,-104.8 166.6,-104.8 166.6,-101.8 163.6,-101.8 163.6,-100 166.2,-100 166.2,-97 
				163.6,-97 163.6,-94.9 166.6,-94.9 166.6,-91.9 			"/>
			<polygon class="st0" points="173.5,-91.9 167.4,-91.9 167.4,-104.8 170.7,-104.8 170.7,-94.9 173.5,-94.9 			"/>
			<path class="st0" d="M171.6-102.3c0,1.7,1.4,3,3,3c1.6,0,3-1.3,3-3c0-1.7-1.4-3-3-3C173-105.3,171.6-104,171.6-102.3
				 M172.2-102.3c0-1.4,1.1-2.5,2.4-2.5c1.4,0,2.4,1.1,2.4,2.5c0,1.4-1.1,2.5-2.4,2.5C173.3-99.8,172.2-100.9,172.2-102.3
				 M174-102.1h0.6l0.9,1.5h0.6l-1-1.5c0.5-0.1,0.9-0.3,0.9-1c0-0.7-0.4-1-1.2-1h-1.3v3.5h0.5V-102.1z M174-102.5v-1.1h0.7
				c0.4,0,0.7,0.1,0.7,0.5c0,0.5-0.4,0.6-0.8,0.6H174z"/>
		</g>
	</g>
	<rect y="0" class="st3" width="295" height="150"/>
	<rect y="212.6" class="st4" width="295" height="150"/>
	<g>
		<polygon class="st5" points="2507.1,-271.4 2496.6,-276.7 2486,-271.4 2496.6,-265.1 		"/>
		<polygon class="st5" points="2507.1,-284.7 2497.3,-290.6 2497.3,-277.8 2507.1,-272.9 		"/>
		<polygon class="st5" points="2486,-284.6 2495.8,-290.4 2495.8,-277.8 2486,-272.9 		"/>
		<g>
			<path class="st5" d="M2520.8-282.4h-3.1l-0.5,1.2c-0.1,0.3-0.2,0.5-0.2,0.7c0,0.1,0.1,0.2,0.2,0.3c0.1,0.1,0.4,0.2,0.7,0.2v0.2
				h-2.5v-0.2c0.3-0.1,0.5-0.1,0.6-0.2c0.2-0.2,0.4-0.6,0.7-1.1l2.8-6.5h0.2l2.7,6.5c0.2,0.5,0.4,0.9,0.6,1s0.4,0.2,0.8,0.3v0.2
				h-3.1v-0.2c0.3,0,0.5-0.1,0.6-0.2c0.1-0.1,0.2-0.2,0.2-0.3c0-0.2-0.1-0.4-0.2-0.8L2520.8-282.4z M2520.6-282.8l-1.3-3.2l-1.4,3.2
				H2520.6z"/>
			<path class="st5" d="M2530.2-283.8c0.5,0.1,1,0.3,1.2,0.6c0.4,0.4,0.6,0.8,0.6,1.3c0,0.4-0.1,0.8-0.4,1.1c-0.2,0.4-0.6,0.6-1,0.8
				c-0.4,0.2-1.1,0.2-2,0.2h-3.7v-0.2h0.3c0.3,0,0.6-0.1,0.7-0.3c0.1-0.1,0.1-0.4,0.1-0.9v-5.1c0-0.5-0.1-0.8-0.2-0.9
				c-0.1-0.2-0.4-0.3-0.7-0.3h-0.3v-0.2h3.4c0.6,0,1.1,0,1.5,0.1c0.6,0.1,1,0.4,1.3,0.7c0.3,0.4,0.5,0.8,0.5,1.2
				c0,0.4-0.1,0.7-0.4,1.1C2531-284.1,2530.7-283.9,2530.2-283.8z M2527.2-284.1c0.1,0,0.3,0,0.5,0.1c0.2,0,0.4,0,0.6,0
				c0.6,0,1-0.1,1.3-0.2c0.3-0.1,0.5-0.3,0.7-0.6c0.2-0.2,0.2-0.5,0.2-0.8c0-0.5-0.2-0.8-0.6-1.2c-0.4-0.3-0.9-0.5-1.6-0.5
				c-0.4,0-0.7,0-1,0.1V-284.1z M2527.2-280.3c0.5,0.1,0.9,0.2,1.3,0.2c0.7,0,1.2-0.2,1.6-0.5s0.6-0.7,0.6-1.2
				c0-0.3-0.1-0.6-0.3-0.9c-0.2-0.3-0.4-0.5-0.8-0.7c-0.4-0.2-0.8-0.2-1.4-0.2c-0.2,0-0.4,0-0.6,0c-0.2,0-0.3,0-0.4,0V-280.3z"/>
			<path class="st5" d="M2539-283.8c0.5,0.1,1,0.3,1.2,0.6c0.4,0.4,0.6,0.8,0.6,1.3c0,0.4-0.1,0.8-0.4,1.1c-0.2,0.4-0.6,0.6-1,0.8
				c-0.4,0.2-1.1,0.2-2,0.2h-3.7v-0.2h0.3c0.3,0,0.6-0.1,0.7-0.3c0.1-0.1,0.1-0.4,0.1-0.9v-5.1c0-0.5-0.1-0.8-0.2-0.9
				c-0.1-0.2-0.4-0.3-0.7-0.3h-0.3v-0.2h3.4c0.6,0,1.1,0,1.5,0.1c0.6,0.1,1,0.4,1.3,0.7c0.3,0.4,0.5,0.8,0.5,1.2
				c0,0.4-0.1,0.7-0.4,1.1C2539.8-284.1,2539.4-283.9,2539-283.8z M2535.9-284.1c0.1,0,0.3,0,0.5,0.1c0.2,0,0.4,0,0.6,0
				c0.6,0,1-0.1,1.3-0.2c0.3-0.1,0.5-0.3,0.7-0.6c0.2-0.2,0.2-0.5,0.2-0.8c0-0.5-0.2-0.8-0.6-1.2c-0.4-0.3-0.9-0.5-1.6-0.5
				c-0.4,0-0.7,0-1,0.1V-284.1z M2535.9-280.3c0.5,0.1,0.9,0.2,1.3,0.2c0.7,0,1.2-0.2,1.6-0.5s0.6-0.7,0.6-1.2
				c0-0.3-0.1-0.6-0.3-0.9c-0.2-0.3-0.4-0.5-0.8-0.7c-0.4-0.2-0.8-0.2-1.4-0.2c-0.2,0-0.4,0-0.6,0c-0.2,0-0.3,0-0.4,0V-280.3z"/>
			<path class="st5" d="M2544.7-287.2v3.1h1.7c0.4,0,0.8-0.1,0.9-0.2c0.2-0.2,0.3-0.5,0.3-0.9h0.2v2.7h-0.2
				c-0.1-0.4-0.1-0.6-0.2-0.7c-0.1-0.1-0.2-0.2-0.3-0.3c-0.2-0.1-0.4-0.1-0.7-0.1h-1.7v2.6c0,0.3,0,0.6,0,0.6s0.1,0.1,0.2,0.2
				c0.1,0,0.2,0.1,0.4,0.1h1.3c0.4,0,0.8,0,1-0.1c0.2-0.1,0.4-0.2,0.6-0.4c0.2-0.2,0.5-0.6,0.7-1.1h0.2l-0.7,2h-6.1v-0.2h0.3
				c0.2,0,0.4,0,0.5-0.1c0.1-0.1,0.2-0.2,0.3-0.3c0-0.1,0.1-0.4,0.1-0.8v-5.1c0-0.5-0.1-0.8-0.2-0.9c-0.1-0.2-0.4-0.2-0.7-0.2h-0.3
				v-0.2h6.1l0.1,1.7h-0.2c-0.1-0.4-0.2-0.7-0.3-0.9c-0.1-0.2-0.2-0.3-0.4-0.4c-0.2-0.1-0.4-0.1-0.8-0.1H2544.7z"/>
			<path class="st5" d="M2556-287.6h2.7v0.2h-0.2c-0.1,0-0.2,0-0.4,0.1c-0.2,0.1-0.4,0.2-0.5,0.4c-0.2,0.2-0.4,0.4-0.6,0.8l-1.9,3v2
				c0,0.5,0.1,0.8,0.2,0.9c0.1,0.2,0.4,0.2,0.7,0.2h0.3v0.2h-3.4v-0.2h0.3c0.3,0,0.6-0.1,0.7-0.3c0.1-0.1,0.1-0.4,0.1-0.9v-1.8
				l-2.1-3.3c-0.3-0.4-0.4-0.6-0.5-0.7c-0.1-0.1-0.3-0.2-0.6-0.3c-0.1,0-0.2-0.1-0.3-0.1v-0.2h3.4v0.2h-0.2c-0.2,0-0.3,0-0.5,0.1
				c-0.2,0.1-0.2,0.2-0.2,0.4c0,0.1,0.1,0.4,0.4,0.8l1.6,2.5l1.5-2.4c0.2-0.4,0.3-0.6,0.3-0.8c0-0.1,0-0.2-0.1-0.3
				c-0.1-0.1-0.1-0.2-0.2-0.2c-0.1,0-0.3-0.1-0.5-0.1V-287.6z"/>
			<path class="st5" d="M2569.9-281.9l0.2,0l-0.7,2.1h-6.1v-0.2h0.3c0.3,0,0.6-0.1,0.7-0.3c0.1-0.1,0.1-0.4,0.1-0.9v-5.1
				c0-0.5-0.1-0.8-0.2-0.9c-0.1-0.2-0.4-0.3-0.7-0.3h-0.3v-0.2h3.6v0.2c-0.4,0-0.7,0-0.9,0.1c-0.2,0.1-0.3,0.2-0.3,0.3
				c-0.1,0.1-0.1,0.4-0.1,0.9v4.9c0,0.3,0,0.5,0.1,0.7c0,0.1,0.1,0.1,0.2,0.2c0.1,0,0.4,0.1,0.9,0.1h0.6c0.6,0,1,0,1.3-0.1
				c0.2-0.1,0.5-0.2,0.7-0.5C2569.4-281.1,2569.6-281.4,2569.9-281.9z"/>
			<path class="st5" d="M2573.6-287.2v3.1h1.7c0.4,0,0.8-0.1,0.9-0.2c0.2-0.2,0.3-0.5,0.3-0.9h0.2v2.7h-0.2
				c-0.1-0.4-0.1-0.6-0.2-0.7c-0.1-0.1-0.2-0.2-0.3-0.3c-0.2-0.1-0.4-0.1-0.7-0.1h-1.7v2.6c0,0.3,0,0.6,0,0.6c0,0.1,0.1,0.1,0.2,0.2
				c0.1,0,0.2,0.1,0.4,0.1h1.3c0.4,0,0.8,0,1-0.1c0.2-0.1,0.4-0.2,0.6-0.4c0.2-0.2,0.5-0.6,0.7-1.1h0.2l-0.7,2h-6.1v-0.2h0.3
				c0.2,0,0.4,0,0.5-0.1c0.1-0.1,0.2-0.2,0.3-0.3c0-0.1,0.1-0.4,0.1-0.8v-5.1c0-0.5-0.1-0.8-0.2-0.9c-0.1-0.2-0.4-0.2-0.7-0.2h-0.3
				v-0.2h6.1l0.1,1.7h-0.2c-0.1-0.4-0.2-0.7-0.3-0.9c-0.1-0.2-0.2-0.3-0.4-0.4c-0.2-0.1-0.4-0.1-0.8-0.1H2573.6z"/>
			<path class="st5" d="M2586.5-287.8l0.2,2.5h-0.2c-0.2-0.6-0.5-1.1-0.8-1.4c-0.5-0.5-1.1-0.7-1.8-0.7c-1,0-1.8,0.4-2.3,1.2
				c-0.4,0.7-0.7,1.5-0.7,2.4c0,0.7,0.1,1.4,0.4,2.1c0.3,0.6,0.7,1.1,1.1,1.4c0.5,0.3,1,0.4,1.4,0.4c0.3,0,0.6,0,0.8-0.1
				c0.3-0.1,0.5-0.2,0.8-0.3v-2.3c0-0.4,0-0.7-0.1-0.8c-0.1-0.1-0.2-0.2-0.3-0.3c-0.1-0.1-0.3-0.1-0.7-0.1v-0.2h3v0.2h-0.1
				c-0.3,0-0.5,0.1-0.6,0.3c-0.1,0.1-0.1,0.4-0.1,0.9v2.4c-0.4,0.2-0.9,0.4-1.3,0.5c-0.4,0.1-0.9,0.2-1.4,0.2
				c-1.5,0-2.7-0.5-3.5-1.5c-0.6-0.7-0.9-1.6-0.9-2.5c0-0.7,0.2-1.4,0.5-2c0.4-0.8,0.9-1.3,1.6-1.7c0.6-0.3,1.3-0.5,2-0.5
				c0.3,0,0.5,0,0.8,0.1c0.2,0,0.6,0.1,1,0.3c0.2,0.1,0.4,0.1,0.4,0.1s0.1,0,0.2-0.1s0.1-0.2,0.1-0.4H2586.5z"/>
			<path class="st5" d="M2594-282.4h-3.1l-0.5,1.2c-0.1,0.3-0.2,0.5-0.2,0.7c0,0.1,0.1,0.2,0.2,0.3c0.1,0.1,0.4,0.2,0.7,0.2v0.2
				h-2.5v-0.2c0.3-0.1,0.5-0.1,0.6-0.2c0.2-0.2,0.4-0.6,0.7-1.1l2.8-6.5h0.2l2.7,6.5c0.2,0.5,0.4,0.9,0.6,1s0.4,0.2,0.8,0.3v0.2
				h-3.1v-0.2c0.3,0,0.5-0.1,0.6-0.2c0.1-0.1,0.2-0.2,0.2-0.3c0-0.2-0.1-0.4-0.2-0.8L2594-282.4z M2593.9-282.8l-1.3-3.2l-1.4,3.2
				H2593.9z"/>
			<path class="st5" d="M2604.8-281.9l0.2,0l-0.7,2.1h-6.1v-0.2h0.3c0.3,0,0.6-0.1,0.7-0.3c0.1-0.1,0.1-0.4,0.1-0.9v-5.1
				c0-0.5-0.1-0.8-0.2-0.9c-0.1-0.2-0.4-0.3-0.7-0.3h-0.3v-0.2h3.6v0.2c-0.4,0-0.7,0-0.9,0.1c-0.2,0.1-0.3,0.2-0.3,0.3
				c-0.1,0.1-0.1,0.4-0.1,0.9v4.9c0,0.3,0,0.5,0.1,0.7c0,0.1,0.1,0.1,0.2,0.2c0.1,0,0.4,0.1,0.9,0.1h0.6c0.6,0,1,0,1.3-0.1
				c0.2-0.1,0.5-0.2,0.7-0.5C2604.4-281.1,2604.6-281.4,2604.8-281.9z"/>
		</g>
		<g>
			<path class="st5" d="M2517.8-271.5v2.3c0,0.5,0.1,0.8,0.2,0.9c0.1,0.2,0.4,0.3,0.7,0.3h0.3v0.2h-3.4v-0.2h0.3
				c0.3,0,0.6-0.1,0.7-0.3c0.1-0.1,0.1-0.4,0.1-0.9v-5.1c0-0.5-0.1-0.8-0.2-0.9c-0.2-0.2-0.4-0.3-0.7-0.3h-0.3v-0.2h2.9
				c0.7,0,1.3,0.1,1.7,0.2s0.7,0.4,1,0.7c0.3,0.3,0.4,0.8,0.4,1.2c0,0.6-0.2,1.2-0.6,1.6c-0.4,0.4-1,0.6-1.8,0.6c-0.2,0-0.4,0-0.6,0
				C2518.3-271.5,2518-271.5,2517.8-271.5z M2517.8-271.9c0.2,0,0.4,0.1,0.5,0.1c0.2,0,0.3,0,0.4,0c0.4,0,0.7-0.2,1-0.5
				c0.3-0.3,0.4-0.7,0.4-1.2c0-0.3-0.1-0.7-0.2-0.9s-0.3-0.5-0.6-0.7s-0.5-0.2-0.9-0.2c-0.2,0-0.5,0-0.8,0.1V-271.9z"/>
			<path class="st5" d="M2531.6-267.9h-2.1l-2.7-3.7c-0.2,0-0.4,0-0.5,0c0,0-0.1,0-0.2,0c-0.1,0-0.1,0-0.2,0v2.3
				c0,0.5,0.1,0.8,0.2,0.9c0.1,0.2,0.4,0.3,0.7,0.3h0.3v0.2h-3.4v-0.2h0.3c0.3,0,0.6-0.1,0.7-0.3c0.1-0.1,0.1-0.4,0.1-0.9v-5.1
				c0-0.5-0.1-0.8-0.2-0.9c-0.1-0.2-0.4-0.3-0.7-0.3h-0.3v-0.2h2.9c0.8,0,1.4,0.1,1.8,0.2c0.4,0.1,0.7,0.3,1,0.7
				c0.3,0.3,0.4,0.7,0.4,1.2c0,0.5-0.2,0.9-0.5,1.3c-0.3,0.4-0.8,0.6-1.5,0.8l1.6,2.3c0.4,0.5,0.7,0.9,1,1c0.3,0.2,0.6,0.3,1,0.3
				V-267.9z M2526-271.9c0.1,0,0.1,0,0.2,0c0.1,0,0.1,0,0.1,0c0.7,0,1.3-0.2,1.7-0.5c0.4-0.3,0.6-0.7,0.6-1.2c0-0.5-0.2-0.9-0.5-1.2
				c-0.3-0.3-0.7-0.5-1.2-0.5c-0.2,0-0.5,0-0.9,0.1V-271.9z"/>
			<path class="st5" d="M2537.5-275.9c1,0,1.9,0.4,2.7,1.2c0.7,0.8,1.1,1.7,1.1,2.9c0,1.2-0.4,2.2-1.1,3c-0.8,0.8-1.7,1.2-2.7,1.2
				c-1.1,0-2-0.4-2.7-1.2c-0.7-0.8-1.1-1.8-1.1-3c0-1.2,0.4-2.3,1.3-3.1C2535.6-275.6,2536.5-275.9,2537.5-275.9z M2537.4-275.5
				c-0.7,0-1.3,0.3-1.7,0.8c-0.5,0.7-0.8,1.6-0.8,2.9c0,1.3,0.3,2.3,0.8,3c0.4,0.5,1,0.8,1.7,0.8c0.7,0,1.4-0.3,1.8-0.9
				c0.5-0.6,0.7-1.5,0.7-2.7c0-1.3-0.3-2.4-0.8-3C2538.7-275.2,2538.2-275.5,2537.4-275.5z"/>
			<path class="st5" d="M2550.3-275.7l0.1,1.8h-0.2c0-0.3-0.1-0.6-0.2-0.7c-0.1-0.2-0.3-0.4-0.5-0.5c-0.2-0.1-0.5-0.2-0.8-0.2h-1.1
				v6c0,0.5,0.1,0.8,0.2,0.9c0.1,0.2,0.4,0.2,0.7,0.2h0.3v0.2h-3.3v-0.2h0.3c0.3,0,0.6-0.1,0.7-0.3c0.1-0.1,0.1-0.4,0.1-0.9v-6h-0.9
				c-0.4,0-0.6,0-0.8,0.1c-0.2,0.1-0.4,0.2-0.5,0.4c-0.1,0.2-0.2,0.5-0.3,0.8h-0.2l0.1-1.8H2550.3z"/>
			<path class="st5" d="M2554.8-275.3v3.1h1.7c0.4,0,0.8-0.1,0.9-0.2c0.2-0.2,0.3-0.5,0.3-0.9h0.2v2.7h-0.2
				c-0.1-0.4-0.1-0.6-0.2-0.7c-0.1-0.1-0.2-0.2-0.3-0.3c-0.2-0.1-0.4-0.1-0.7-0.1h-1.7v2.6c0,0.3,0,0.6,0,0.6c0,0.1,0.1,0.1,0.2,0.2
				c0.1,0,0.2,0.1,0.4,0.1h1.3c0.4,0,0.8,0,1-0.1c0.2-0.1,0.4-0.2,0.6-0.4c0.2-0.2,0.5-0.6,0.7-1.1h0.2l-0.7,2h-6.1v-0.2h0.3
				c0.2,0,0.4,0,0.5-0.1c0.1-0.1,0.2-0.2,0.3-0.3c0-0.1,0.1-0.4,0.1-0.8v-5.1c0-0.5-0.1-0.8-0.2-0.9c-0.1-0.2-0.4-0.2-0.7-0.2h-0.3
				v-0.2h6.1l0.1,1.7h-0.2c-0.1-0.4-0.2-0.7-0.3-0.9c-0.1-0.2-0.2-0.3-0.4-0.4c-0.2-0.1-0.4-0.1-0.8-0.1H2554.8z"/>
			<path class="st5" d="M2568.4-275.9l0.2,2.7h-0.2c-0.2-0.8-0.6-1.4-1-1.7c-0.4-0.4-1-0.5-1.6-0.5c-0.5,0-1,0.1-1.4,0.4
				c-0.4,0.3-0.8,0.7-1,1.3c-0.2,0.6-0.4,1.3-0.4,2.2c0,0.7,0.1,1.3,0.3,1.9c0.2,0.5,0.6,0.9,1,1.2c0.5,0.3,1,0.4,1.6,0.4
				c0.5,0,1-0.1,1.3-0.3c0.4-0.2,0.8-0.7,1.3-1.3l0.2,0.1c-0.4,0.7-0.9,1.2-1.4,1.5c-0.5,0.3-1.1,0.5-1.9,0.5c-1.3,0-2.3-0.5-3-1.4
				c-0.5-0.7-0.8-1.6-0.8-2.5c0-0.8,0.2-1.5,0.5-2.2c0.4-0.7,0.8-1.2,1.4-1.5c0.6-0.4,1.3-0.5,2-0.5c0.6,0,1.1,0.1,1.7,0.4
				c0.2,0.1,0.3,0.1,0.3,0.1c0.1,0,0.2,0,0.3-0.1c0.1-0.1,0.2-0.2,0.2-0.4H2568.4z"/>
			<path class="st5" d="M2577.7-275.7l0.1,1.8h-0.2c0-0.3-0.1-0.6-0.2-0.7c-0.1-0.2-0.3-0.4-0.5-0.5c-0.2-0.1-0.5-0.2-0.8-0.2h-1.1
				v6c0,0.5,0.1,0.8,0.2,0.9c0.1,0.2,0.4,0.2,0.7,0.2h0.3v0.2h-3.3v-0.2h0.3c0.3,0,0.6-0.1,0.7-0.3c0.1-0.1,0.1-0.4,0.1-0.9v-6h-0.9
				c-0.4,0-0.6,0-0.8,0.1c-0.2,0.1-0.4,0.2-0.5,0.4c-0.1,0.2-0.2,0.5-0.3,0.8h-0.2l0.1-1.8H2577.7z"/>
			<path class="st5" d="M2583.4-268.1v0.2h-3.4v-0.2h0.3c0.3,0,0.6-0.1,0.7-0.3c0.1-0.1,0.1-0.4,0.1-0.9v-5.1c0-0.4,0-0.7-0.1-0.8
				c0-0.1-0.1-0.2-0.2-0.2c-0.2-0.1-0.3-0.1-0.5-0.1h-0.3v-0.2h3.4v0.2h-0.3c-0.3,0-0.6,0.1-0.7,0.3c-0.1,0.1-0.1,0.4-0.1,0.9v5.1
				c0,0.4,0,0.7,0.1,0.8c0,0.1,0.1,0.2,0.2,0.2c0.2,0.1,0.3,0.1,0.5,0.1H2583.4z"/>
			<path class="st5" d="M2589.6-275.9c1,0,1.9,0.4,2.7,1.2c0.7,0.8,1.1,1.7,1.1,2.9c0,1.2-0.4,2.2-1.1,3c-0.8,0.8-1.7,1.2-2.7,1.2
				c-1.1,0-2-0.4-2.7-1.2c-0.7-0.8-1.1-1.8-1.1-3c0-1.2,0.4-2.3,1.3-3.1C2587.7-275.6,2588.6-275.9,2589.6-275.9z M2589.5-275.5
				c-0.7,0-1.3,0.3-1.7,0.8c-0.5,0.7-0.8,1.6-0.8,2.9c0,1.3,0.3,2.3,0.8,3c0.4,0.5,1,0.8,1.7,0.8c0.7,0,1.4-0.3,1.8-0.9
				c0.5-0.6,0.7-1.5,0.7-2.7c0-1.3-0.3-2.4-0.8-3C2590.9-275.2,2590.3-275.5,2589.5-275.5z"/>
			<path class="st5" d="M2595.4-275.7h2.1l4.8,5.9v-4.5c0-0.5-0.1-0.8-0.2-0.9c-0.1-0.2-0.4-0.2-0.7-0.2h-0.3v-0.2h2.8v0.2h-0.3
				c-0.3,0-0.6,0.1-0.7,0.3c-0.1,0.1-0.1,0.4-0.1,0.9v6.6h-0.2l-5.2-6.3v4.8c0,0.5,0.1,0.8,0.2,0.9c0.1,0.2,0.4,0.2,0.7,0.2h0.3v0.2
				h-2.8v-0.2h0.3c0.3,0,0.6-0.1,0.7-0.3c0.1-0.1,0.1-0.4,0.1-0.9v-5.5c-0.2-0.3-0.4-0.4-0.5-0.5s-0.3-0.2-0.5-0.2
				c-0.1,0-0.3-0.1-0.5-0.1V-275.7z"/>
		</g>
	</g>
	<g>
		<polygon class="st5" points="96.3,83.6 82.2,76.5 68.1,83.5 82.2,92 		"/>
		<polygon class="st5" points="96.3,65.8 83.2,58 83.2,75 96.3,81.5 		"/>
		<polygon class="st5" points="68.1,66 81.1,58.2 81.1,75.1 68.1,81.5 		"/>
		<g>
			<path class="st5" d="M114.5,68.9h-4.1l-0.7,1.7c-0.2,0.4-0.3,0.7-0.3,0.9c0,0.2,0.1,0.3,0.2,0.4c0.2,0.1,0.5,0.2,1,0.2v0.3h-3.3
				v-0.3c0.4-0.1,0.7-0.2,0.9-0.3c0.3-0.2,0.6-0.8,0.9-1.5l3.7-8.6h0.3l3.7,8.7c0.3,0.7,0.6,1.2,0.8,1.4c0.2,0.2,0.6,0.3,1,0.4v0.3
				h-4.1v-0.3c0.4,0,0.7-0.1,0.8-0.2c0.1-0.1,0.2-0.3,0.2-0.4c0-0.2-0.1-0.6-0.3-1.1L114.5,68.9z M114.3,68.4l-1.8-4.2l-1.8,4.2
				H114.3z"/>
			<path class="st5" d="M127.1,67.1c0.7,0.2,1.3,0.4,1.6,0.7c0.5,0.5,0.8,1.1,0.8,1.7c0,0.5-0.2,1-0.5,1.5c-0.3,0.5-0.8,0.8-1.4,1
				c-0.6,0.2-1.5,0.3-2.6,0.3h-4.9v-0.3h0.4c0.4,0,0.7-0.1,0.9-0.4c0.1-0.2,0.2-0.6,0.2-1.2v-6.8c0-0.6-0.1-1.1-0.2-1.2
				c-0.2-0.2-0.5-0.3-0.9-0.3h-0.4v-0.3h4.5c0.8,0,1.5,0.1,2,0.2c0.8,0.2,1.4,0.5,1.8,1c0.4,0.5,0.6,1,0.6,1.6c0,0.5-0.2,1-0.5,1.4
				C128.2,66.6,127.7,66.9,127.1,67.1z M123.1,66.6c0.2,0,0.4,0.1,0.7,0.1c0.2,0,0.5,0,0.8,0c0.8,0,1.3-0.1,1.7-0.2
				c0.4-0.2,0.7-0.4,0.9-0.7c0.2-0.3,0.3-0.7,0.3-1.1c0-0.6-0.3-1.1-0.8-1.6c-0.5-0.4-1.2-0.6-2.2-0.6c-0.5,0-1,0.1-1.4,0.2V66.6z
				 M123.1,71.7c0.6,0.1,1.2,0.2,1.8,0.2c0.9,0,1.7-0.2,2.1-0.6c0.5-0.4,0.7-0.9,0.7-1.6c0-0.4-0.1-0.8-0.3-1.2
				c-0.2-0.4-0.6-0.7-1.1-0.9c-0.5-0.2-1.1-0.3-1.9-0.3c-0.3,0-0.6,0-0.8,0c-0.2,0-0.4,0-0.5,0.1V71.7z"/>
			<path class="st5" d="M138.8,67.1c0.7,0.2,1.3,0.4,1.6,0.7c0.5,0.5,0.8,1.1,0.8,1.7c0,0.5-0.2,1-0.5,1.5c-0.3,0.5-0.8,0.8-1.4,1
				c-0.6,0.2-1.5,0.3-2.6,0.3h-4.9v-0.3h0.4c0.4,0,0.7-0.1,0.9-0.4c0.1-0.2,0.2-0.6,0.2-1.2v-6.8c0-0.6-0.1-1.1-0.2-1.2
				c-0.2-0.2-0.5-0.3-0.9-0.3h-0.4v-0.3h4.5c0.8,0,1.5,0.1,2,0.2c0.8,0.2,1.4,0.5,1.8,1c0.4,0.5,0.6,1,0.6,1.6c0,0.5-0.2,1-0.5,1.4
				C139.9,66.6,139.4,66.9,138.8,67.1z M134.7,66.6c0.2,0,0.4,0.1,0.7,0.1c0.2,0,0.5,0,0.8,0c0.8,0,1.3-0.1,1.7-0.2
				c0.4-0.2,0.7-0.4,0.9-0.7c0.2-0.3,0.3-0.7,0.3-1.1c0-0.6-0.3-1.1-0.8-1.6c-0.5-0.4-1.2-0.6-2.2-0.6c-0.5,0-1,0.1-1.4,0.2V66.6z
				 M134.7,71.7c0.6,0.1,1.2,0.2,1.8,0.2c0.9,0,1.7-0.2,2.1-0.6c0.5-0.4,0.7-0.9,0.7-1.6c0-0.4-0.1-0.8-0.3-1.2
				c-0.2-0.4-0.6-0.7-1.1-0.9c-0.5-0.2-1.1-0.3-1.9-0.3c-0.3,0-0.6,0-0.8,0c-0.2,0-0.4,0-0.5,0.1V71.7z"/>
			<path class="st5" d="M146.5,62.5v4.2h2.3c0.6,0,1-0.1,1.2-0.3c0.3-0.2,0.4-0.7,0.5-1.3h0.3v3.7h-0.3c-0.1-0.5-0.1-0.8-0.2-1
				c-0.1-0.2-0.2-0.3-0.5-0.4c-0.2-0.1-0.5-0.2-1-0.2h-2.3v3.5c0,0.5,0,0.7,0.1,0.8c0,0.1,0.1,0.2,0.2,0.2c0.1,0.1,0.3,0.1,0.6,0.1
				h1.8c0.6,0,1,0,1.3-0.1c0.3-0.1,0.5-0.2,0.8-0.5c0.3-0.3,0.6-0.8,1-1.5h0.3l-0.9,2.6h-8.1v-0.3h0.4c0.2,0,0.5-0.1,0.7-0.2
				c0.2-0.1,0.3-0.2,0.3-0.4c0.1-0.2,0.1-0.5,0.1-1v-6.8c0-0.7-0.1-1.1-0.2-1.2c-0.2-0.2-0.5-0.3-0.9-0.3h-0.4v-0.3h8.1l0.1,2.3
				h-0.3c-0.1-0.6-0.2-0.9-0.4-1.1c-0.1-0.2-0.3-0.4-0.6-0.5c-0.2-0.1-0.6-0.1-1.1-0.1H146.5z"/>
			<path class="st5" d="M161.5,61.9h3.7v0.3H165c-0.1,0-0.3,0.1-0.6,0.2c-0.3,0.1-0.5,0.3-0.7,0.5c-0.2,0.2-0.5,0.6-0.8,1.1l-2.5,4
				v2.7c0,0.6,0.1,1.1,0.2,1.2c0.2,0.2,0.5,0.3,0.9,0.3h0.3v0.3h-4.5v-0.3h0.4c0.4,0,0.8-0.1,1-0.4c0.1-0.2,0.2-0.5,0.2-1.1v-2.5
				l-2.9-4.4c-0.3-0.5-0.6-0.8-0.7-1c-0.1-0.1-0.4-0.3-0.8-0.5c-0.1-0.1-0.3-0.1-0.4-0.1v-0.3h4.5v0.3h-0.2c-0.2,0-0.5,0.1-0.7,0.2
				c-0.2,0.1-0.3,0.3-0.3,0.5c0,0.2,0.2,0.5,0.5,1l2.2,3.4l2.1-3.2c0.3-0.5,0.5-0.8,0.5-1.1c0-0.1,0-0.3-0.1-0.4
				c-0.1-0.1-0.2-0.2-0.3-0.3c-0.1-0.1-0.3-0.1-0.6-0.1V61.9z"/>
			<path class="st5" d="M180,69.5l0.3,0.1l-0.9,2.8h-8.1v-0.3h0.4c0.4,0,0.8-0.1,0.9-0.4c0.1-0.2,0.2-0.5,0.2-1.1v-6.8
				c0-0.7-0.1-1.1-0.2-1.2c-0.2-0.2-0.5-0.3-0.9-0.3h-0.4v-0.3h4.7v0.3c-0.6,0-0.9,0-1.2,0.2c-0.2,0.1-0.4,0.2-0.5,0.4
				c-0.1,0.2-0.1,0.6-0.1,1.2v6.6c0,0.4,0,0.7,0.1,0.9c0.1,0.1,0.2,0.2,0.3,0.2c0.1,0.1,0.5,0.1,1.2,0.1h0.8c0.8,0,1.4-0.1,1.7-0.2
				c0.3-0.1,0.6-0.3,0.9-0.6C179.5,70.7,179.8,70.2,180,69.5z"/>
			<path class="st5" d="M185,62.5v4.2h2.3c0.6,0,1-0.1,1.2-0.3c0.3-0.2,0.4-0.7,0.5-1.3h0.3v3.7H189c-0.1-0.5-0.1-0.8-0.2-1
				c-0.1-0.2-0.2-0.3-0.5-0.4c-0.2-0.1-0.5-0.2-1-0.2H185v3.5c0,0.5,0,0.7,0.1,0.8c0,0.1,0.1,0.2,0.2,0.2c0.1,0.1,0.3,0.1,0.6,0.1
				h1.8c0.6,0,1,0,1.3-0.1c0.3-0.1,0.5-0.2,0.8-0.5c0.3-0.3,0.6-0.8,1-1.5h0.3l-0.9,2.6h-8.1v-0.3h0.4c0.2,0,0.5-0.1,0.7-0.2
				c0.2-0.1,0.3-0.2,0.3-0.4c0.1-0.2,0.1-0.5,0.1-1v-6.8c0-0.7-0.1-1.1-0.2-1.2c-0.2-0.2-0.5-0.3-0.9-0.3h-0.4v-0.3h8.1l0.1,2.3H190
				c-0.1-0.6-0.2-0.9-0.4-1.1c-0.1-0.2-0.3-0.4-0.6-0.5c-0.2-0.1-0.6-0.1-1.1-0.1H185z"/>
			<path class="st5" d="M202.2,61.7l0.3,3.3h-0.3c-0.3-0.8-0.6-1.4-1.1-1.9c-0.6-0.6-1.4-0.9-2.4-0.9c-1.3,0-2.4,0.5-3,1.6
				c-0.6,0.9-0.9,2-0.9,3.2c0,1,0.2,1.9,0.6,2.7c0.4,0.8,0.9,1.4,1.5,1.8c0.6,0.4,1.3,0.6,1.9,0.6c0.4,0,0.8,0,1.1-0.1
				c0.4-0.1,0.7-0.2,1-0.4v-3c0-0.5,0-0.9-0.1-1c-0.1-0.2-0.2-0.3-0.4-0.4c-0.2-0.1-0.5-0.1-0.9-0.1v-0.3h4.1V67h-0.2
				c-0.4,0-0.7,0.1-0.8,0.4c-0.1,0.2-0.2,0.6-0.2,1.1v3.2c-0.6,0.3-1.2,0.6-1.8,0.7c-0.6,0.1-1.2,0.2-1.9,0.2c-2,0-3.6-0.7-4.6-2
				c-0.8-1-1.2-2.1-1.2-3.4c0-0.9,0.2-1.8,0.7-2.7c0.5-1,1.2-1.8,2.2-2.3c0.8-0.4,1.7-0.7,2.7-0.7c0.4,0,0.7,0,1,0.1
				c0.3,0.1,0.8,0.2,1.3,0.4c0.3,0.1,0.5,0.2,0.6,0.2s0.2,0,0.3-0.1c0.1-0.1,0.1-0.3,0.1-0.5H202.2z"/>
			<path class="st5" d="M212.3,68.9h-4.1l-0.7,1.7c-0.2,0.4-0.3,0.7-0.3,0.9c0,0.2,0.1,0.3,0.2,0.4c0.2,0.1,0.5,0.2,1,0.2v0.3h-3.3
				v-0.3c0.4-0.1,0.7-0.2,0.9-0.3c0.3-0.2,0.6-0.8,0.9-1.5l3.7-8.6h0.3l3.7,8.7c0.3,0.7,0.6,1.2,0.8,1.4s0.6,0.3,1,0.4v0.3h-4.1
				v-0.3c0.4,0,0.7-0.1,0.8-0.2c0.1-0.1,0.2-0.3,0.2-0.4c0-0.2-0.1-0.6-0.3-1.1L212.3,68.9z M212.1,68.4l-1.8-4.2l-1.8,4.2H212.1z"
				/>
			<path class="st5" d="M226.7,69.5l0.3,0.1l-0.9,2.8h-8.1v-0.3h0.4c0.4,0,0.8-0.1,0.9-0.4c0.1-0.2,0.2-0.5,0.2-1.1v-6.8
				c0-0.7-0.1-1.1-0.2-1.2c-0.2-0.2-0.5-0.3-0.9-0.3h-0.4v-0.3h4.7v0.3c-0.6,0-0.9,0-1.2,0.2c-0.2,0.1-0.4,0.2-0.5,0.4
				c-0.1,0.2-0.1,0.6-0.1,1.2v6.6c0,0.4,0,0.7,0.1,0.9c0.1,0.1,0.2,0.2,0.3,0.2c0.1,0.1,0.5,0.1,1.2,0.1h0.8c0.8,0,1.4-0.1,1.7-0.2
				c0.3-0.1,0.6-0.3,0.9-0.6C226.2,70.7,226.4,70.2,226.7,69.5z"/>
		</g>
		<g>
			<path class="st5" d="M110.5,83.4v3.1c0,0.7,0.1,1.1,0.2,1.2c0.2,0.2,0.5,0.3,0.9,0.3h0.4v0.3h-4.5V88h0.4c0.4,0,0.8-0.1,1-0.4
				c0.1-0.2,0.2-0.5,0.2-1.1v-6.8c0-0.7-0.1-1.1-0.2-1.2c-0.2-0.2-0.5-0.3-0.9-0.3h-0.4v-0.3h3.8c0.9,0,1.7,0.1,2.2,0.3
				c0.5,0.2,1,0.5,1.4,1c0.4,0.5,0.6,1,0.6,1.6c0,0.9-0.3,1.6-0.8,2.1c-0.6,0.5-1.4,0.8-2.4,0.8c-0.3,0-0.5,0-0.8-0.1
				C111.2,83.5,110.8,83.4,110.5,83.4z M110.5,82.9c0.3,0.1,0.5,0.1,0.7,0.1c0.2,0,0.4,0,0.5,0c0.5,0,1-0.2,1.4-0.6
				c0.4-0.4,0.6-1,0.6-1.6c0-0.5-0.1-0.9-0.3-1.3c-0.2-0.4-0.4-0.7-0.8-0.9c-0.3-0.2-0.7-0.3-1.2-0.3c-0.3,0-0.6,0-1,0.1V82.9z"/>
			<path class="st5" d="M129,88.3h-2.8l-3.6-4.9c-0.3,0-0.5,0-0.6,0c-0.1,0-0.1,0-0.2,0c-0.1,0-0.2,0-0.2,0v3.1
				c0,0.7,0.1,1.1,0.2,1.2c0.2,0.2,0.5,0.3,0.9,0.3h0.4v0.3h-4.5V88h0.4c0.4,0,0.8-0.1,0.9-0.4c0.1-0.2,0.2-0.5,0.2-1.1v-6.8
				c0-0.7-0.1-1.1-0.2-1.2c-0.2-0.2-0.5-0.3-0.9-0.3h-0.4v-0.3h3.8c1.1,0,1.9,0.1,2.5,0.2c0.5,0.2,1,0.5,1.3,0.9
				c0.4,0.4,0.6,1,0.6,1.6c0,0.6-0.2,1.2-0.6,1.7c-0.4,0.5-1.1,0.8-2,1l2.2,3c0.5,0.7,0.9,1.2,1.3,1.4c0.4,0.2,0.8,0.4,1.4,0.4V88.3
				z M121.5,82.9c0.1,0,0.2,0,0.3,0c0.1,0,0.1,0,0.2,0c1,0,1.7-0.2,2.2-0.7c0.5-0.4,0.8-1,0.8-1.7c0-0.7-0.2-1.2-0.6-1.6
				c-0.4-0.4-0.9-0.6-1.6-0.6c-0.3,0-0.7,0-1.2,0.1V82.9z"/>
			<path class="st5" d="M136.9,77.5c1.4,0,2.5,0.5,3.5,1.6c1,1,1.5,2.3,1.5,3.9c0,1.6-0.5,2.9-1.5,4c-1,1.1-2.2,1.6-3.7,1.6
				c-1.4,0-2.7-0.5-3.6-1.5c-1-1-1.5-2.4-1.5-4c0-1.7,0.6-3,1.7-4.1C134.3,78,135.5,77.5,136.9,77.5z M136.7,78.1
				c-0.9,0-1.7,0.3-2.3,1c-0.7,0.9-1.1,2.1-1.1,3.8c0,1.7,0.4,3,1.1,4c0.6,0.7,1.3,1.1,2.2,1.1c1,0,1.8-0.4,2.4-1.2
				c0.6-0.8,1-2,1-3.6c0-1.8-0.4-3.1-1.1-4C138.5,78.4,137.7,78.1,136.7,78.1z"/>
			<path class="st5" d="M153.9,77.8l0.1,2.5h-0.3c-0.1-0.4-0.1-0.7-0.2-0.9c-0.2-0.3-0.4-0.5-0.6-0.7c-0.3-0.1-0.6-0.2-1-0.2h-1.5v8
				c0,0.6,0.1,1.1,0.2,1.2c0.2,0.2,0.5,0.3,0.9,0.3h0.4v0.3h-4.5V88h0.4c0.4,0,0.8-0.1,1-0.4c0.1-0.2,0.2-0.5,0.2-1.1v-8h-1.3
				c-0.5,0-0.8,0-1,0.1c-0.3,0.1-0.5,0.3-0.7,0.6c-0.2,0.3-0.3,0.7-0.3,1.1h-0.3l0.1-2.5H153.9z"/>
			<path class="st5" d="M159.9,78.3v4.2h2.3c0.6,0,1-0.1,1.2-0.3c0.3-0.2,0.4-0.7,0.5-1.3h0.3v3.7h-0.3c-0.1-0.5-0.1-0.8-0.2-1
				c-0.1-0.2-0.2-0.3-0.5-0.4c-0.2-0.1-0.5-0.2-1-0.2h-2.3v3.5c0,0.5,0,0.7,0.1,0.8c0,0.1,0.1,0.2,0.2,0.2c0.1,0.1,0.3,0.1,0.6,0.1
				h1.8c0.6,0,1,0,1.3-0.1c0.3-0.1,0.5-0.2,0.8-0.5c0.3-0.3,0.6-0.8,1-1.5h0.3l-0.9,2.6h-8.1V88h0.4c0.2,0,0.5-0.1,0.7-0.2
				c0.2-0.1,0.3-0.2,0.3-0.4c0.1-0.2,0.1-0.5,0.1-1v-6.8c0-0.7-0.1-1.1-0.2-1.2c-0.2-0.2-0.5-0.3-0.9-0.3h-0.4v-0.3h8.1l0.1,2.3
				h-0.3c-0.1-0.6-0.2-0.9-0.4-1.1c-0.1-0.2-0.3-0.4-0.6-0.5c-0.2-0.1-0.6-0.1-1.1-0.1H159.9z"/>
			<path class="st5" d="M178,77.5l0.2,3.6H178c-0.3-1.1-0.8-1.8-1.4-2.3c-0.6-0.5-1.3-0.7-2.1-0.7c-0.7,0-1.3,0.2-1.9,0.5
				c-0.6,0.4-1,0.9-1.3,1.7c-0.3,0.8-0.5,1.7-0.5,2.9c0,1,0.2,1.8,0.5,2.5c0.3,0.7,0.8,1.2,1.4,1.6c0.6,0.4,1.3,0.6,2.1,0.6
				c0.7,0,1.3-0.1,1.8-0.4c0.5-0.3,1.1-0.9,1.7-1.7l0.2,0.2c-0.5,0.9-1.1,1.6-1.8,2.1c-0.7,0.4-1.5,0.7-2.5,0.7
				c-1.7,0-3.1-0.6-4-1.9c-0.7-1-1.1-2.1-1.1-3.4c0-1,0.2-2,0.7-2.9c0.5-0.9,1.1-1.6,1.9-2c0.8-0.5,1.7-0.7,2.7-0.7
				c0.8,0,1.5,0.2,2.2,0.6c0.2,0.1,0.4,0.2,0.5,0.2c0.1,0,0.3,0,0.4-0.1c0.1-0.1,0.2-0.3,0.3-0.6H178z"/>
			<path class="st5" d="M190.5,77.8l0.1,2.5h-0.3c-0.1-0.4-0.1-0.7-0.2-0.9c-0.2-0.3-0.4-0.5-0.6-0.7c-0.3-0.1-0.6-0.2-1-0.2h-1.5v8
				c0,0.6,0.1,1.1,0.2,1.2c0.2,0.2,0.5,0.3,0.9,0.3h0.4v0.3h-4.5V88h0.4c0.4,0,0.8-0.1,1-0.4c0.1-0.2,0.2-0.5,0.2-1.1v-8h-1.3
				c-0.5,0-0.8,0-1,0.1c-0.3,0.1-0.5,0.3-0.7,0.6c-0.2,0.3-0.3,0.7-0.3,1.1h-0.3l0.1-2.5H190.5z"/>
			<path class="st5" d="M198.1,88v0.3h-4.5V88h0.4c0.4,0,0.7-0.1,0.9-0.4c0.1-0.2,0.2-0.6,0.2-1.2v-6.8c0-0.5,0-0.9-0.1-1.1
				c-0.1-0.1-0.2-0.2-0.3-0.3c-0.2-0.1-0.5-0.2-0.7-0.2h-0.4v-0.3h4.5v0.3h-0.4c-0.4,0-0.7,0.1-0.9,0.4c-0.1,0.2-0.2,0.6-0.2,1.2
				v6.8c0,0.5,0,0.9,0.1,1.1c0.1,0.1,0.2,0.2,0.3,0.3c0.2,0.1,0.5,0.2,0.7,0.2H198.1z"/>
			<path class="st5" d="M206.5,77.5c1.4,0,2.5,0.5,3.5,1.6c1,1,1.5,2.3,1.5,3.9c0,1.6-0.5,2.9-1.5,4c-1,1.1-2.2,1.6-3.7,1.6
				c-1.4,0-2.7-0.5-3.6-1.5c-1-1-1.5-2.4-1.5-4c0-1.7,0.6-3,1.7-4.1C203.9,78,205.1,77.5,206.5,77.5z M206.3,78.1
				c-0.9,0-1.7,0.3-2.3,1c-0.7,0.9-1.1,2.1-1.1,3.8c0,1.7,0.4,3,1.1,4c0.6,0.7,1.3,1.1,2.2,1.1c1,0,1.8-0.4,2.4-1.2
				c0.6-0.8,1-2,1-3.6c0-1.8-0.4-3.1-1.1-4C208.1,78.4,207.3,78.1,206.3,78.1z"/>
			<path class="st5" d="M214.1,77.8h2.8l6.4,7.9v-6.1c0-0.6-0.1-1.1-0.2-1.2c-0.2-0.2-0.5-0.3-0.9-0.3h-0.4v-0.3h3.7v0.3h-0.4
				c-0.4,0-0.8,0.1-1,0.4c-0.1,0.2-0.2,0.5-0.2,1.1v8.8h-0.3l-6.9-8.5v6.5c0,0.6,0.1,1.1,0.2,1.2c0.2,0.2,0.5,0.3,0.9,0.3h0.4v0.3
				h-3.7V88h0.4c0.5,0,0.8-0.1,1-0.4c0.1-0.2,0.2-0.5,0.2-1.1v-7.3c-0.3-0.4-0.5-0.6-0.7-0.7c-0.2-0.1-0.4-0.2-0.7-0.3
				c-0.1,0-0.4-0.1-0.7-0.1V77.8z"/>
		</g>
	</g>
	<g>
		<g>
			<polygon class="st6" points="2152.2,-73.8 2073.5,-73.8 1994.1,-73.8 1994.1,-104.5 2152.2,-104.5 			"/>
		</g>
		<text transform="matrix(1 0 0 1 2061.8147 -81.3851)" class="st0" style="font-family:'SenticoSansDT-Bold'; font-size:17px;">ADD</text>
	</g>
	<text transform="matrix(1 0 0 1 1994.1459 -14.3813)" class="st15" style="font-family:'SenticoSansDT-Regular'; font-size:24px;">1</text>
	<rect x="2011.4" y="-30.3" class="st0" width="165.3" height="44.5"/>
	<text transform="matrix(1 0 0 1 2019.4418 -17.5382)"><tspan x="0" y="0" class="st4" style="font-family:'SenticoSansDT-Regular'; font-size:18px;">Late 2013</tspan><tspan x="0" y="15" style="fill:#66666B; font-family:'SenticoSansDT-Regular'; font-size:12px;">a large dose of ‘what if?</tspan></text>
	<g>
		<g>
			<g>
				<path class="st7" d="M2199.1,10.2h12.9c0.1,0,0.1,0,0.2,0.1l9.3,9.4c0.1,0.1,0.4,0,0.4-0.2v-9c0-0.1,0.1-0.2,0.2-0.2h5.1
					c0.1,0,0.2-0.1,0.2-0.2v-27.6c0-0.1-0.1-0.2-0.2-0.2h-28.1c-0.1,0-0.2,0.1-0.2,0.2V9.9C2198.8,10.1,2198.9,10.2,2199.1,10.2z"/>
			</g>
			<g>
				<g>
					<path class="st0" d="M2212.4-0.1c-0.1,0-0.2-0.2-0.1-0.3c0.3-1.4,0.5-2.2,1.7-3.2c1.3-1,2.1-1.4,2.1-3.5c0-1.7-0.4-2.4-2.5-2.4
						c-0.9,0-1.9,0.2-2.9,0.5c-0.1,0-0.3,0-0.3-0.2l-0.1-1.2c0-0.1,0.1-0.2,0.2-0.2c1-0.3,2.2-0.5,3.3-0.5c3.1,0,4.3,1.2,4.3,3.9
						c0,3.1-1.5,3.5-2.9,4.9c-0.7,0.6-0.9,1.2-1.2,2.4c0,0.1-0.2,0.2-0.3,0.2L2212.4-0.1z M2213.6,2.5c0.5,0.1,0.5,0.4,0.5,1.1
						c0,0.8-0.7,1.4-1.5,1.2c-0.5-0.1-0.5-0.4-0.5-1.1C2212.2,3,2212.9,2.3,2213.6,2.5z"/>
				</g>
			</g>
		</g>
		<g>
			<polyline class="st1" points="2249.6,-50.5 2280.4,-34 2276.4,-23.4 2272.4,-12.9 2249.3,-18.4 2238.3,-21 			"/>
			<polyline class="st8" points="2254.5,-47.9 2255.9,-51.4 2262.1,-52 2268.6,-49.5 2270.8,-44.6 2268.8,-39.4 			"/>
			<polygon class="st1" points="2264.1,-42.4 2242.9,-20 2272.4,-12.9 2280.4,-34 			"/>
			<line class="st1" x1="2248.4" y1="-18.6" x2="2250" y2="-22.9"/>
			<line class="st1" x1="2254.4" y1="-16.7" x2="2256" y2="-20.9"/>
			<line class="st1" x1="2260.6" y1="-15.7" x2="2261.7" y2="-18.7"/>
			<line class="st1" x1="2266.3" y1="-13.9" x2="2267.3" y2="-16.6"/>
		</g>
		<g>
			<polygon class="st1" points="2223.3,-36.9 2225.4,-39.2 2228.4,-39.3 2230.7,-37.3 2230.8,-34.2 2228.8,-31.9 2225.7,-31.8 
				2223.4,-33.9 			"/>
			<polygon class="st1" points="2234.3,-31.9 2235.4,-33.1 2237,-33.1 2238.1,-32.1 2238.2,-30.5 2237.1,-29.3 2235.5,-29.2 
				2234.4,-30.3 			"/>
			<polygon class="st1" points="2221.8,-25.9 2222.9,-27 2224.5,-27.1 2225.7,-26 2225.8,-24.4 2224.7,-23.3 2223.1,-23.2 
				2221.9,-24.3 			"/>
		</g>
	</g>
	<text transform="matrix(1 0 0 1 1994.1459 86.1152)" class="st15" style="font-family:'SenticoSansDT-Regular'; font-size:24px;">2</text>
	<rect x="2011.8" y="69" class="st0" width="165" height="51.8"/>
	<text transform="matrix(1 0 0 1 2019.7557 81.7385)"><tspan x="0" y="0" class="st4" style="font-family:'SenticoSansDT-Regular'; font-size:18px;">Early 2014</tspan><tspan x="0" y="15" style="fill:#66666B; font-family:'SenticoSansDT-Regular'; font-size:12px;">a healthy slug of ‘why not’</tspan></text>
	<text transform="matrix(1 0 0 1 1994.1459 187.8256)" class="st15" style="font-family:'SenticoSansDT-Regular'; font-size:24px;">3</text>
	<rect x="2011.8" y="170.5" class="st0" width="177.4" height="51.8"/>
	<text transform="matrix(1 0 0 1 2019.7557 183.3088)"><tspan x="0" y="0" class="st4" style="font-family:'SenticoSansDT-Regular'; font-size:18px;">Late 2014</tspan><tspan x="0" y="15" style="fill:#66666B; font-family:'SenticoSansDT-Regular'; font-size:12px;">big handful of  </tspan><tspan x="0" y="30" style="fill:#66666B; font-family:'SenticoSansDT-Regular'; font-size:12px;">‘isn’t it about time? </tspan></text>
	<text transform="matrix(1 0 0 1 1994.1459 272.4943)" class="st15" style="font-family:'SenticoSansDT-Regular'; font-size:24px;">4</text>
	<rect x="2011.8" y="257.3" class="st0" width="170.4" height="94"/>
	<text transform="matrix(1 0 0 1 2019.7557 270.0665)"><tspan x="0" y="0" class="st4" style="font-family:'SenticoSansDT-Regular'; font-size:18px;">Start 2015</tspan><tspan x="0" y="14.4" style="fill:#66666B; font-family:'SenticoSansDT-Regular'; font-size:12px;">fold in a visionary newcomer </tspan><tspan x="0" y="28.8" style="fill:#66666B; font-family:'SenticoSansDT-Regular'; font-size:12px;">with a pioneering spirit and an </tspan><tspan x="0" y="43.2" style="fill:#66666B; font-family:'SenticoSansDT-Regular'; font-size:12px;">unapologetically rebellious </tspan><tspan x="0" y="57.6" style="fill:#66666B; font-family:'SenticoSansDT-Regular'; font-size:12px;">belief in simple solutions and </tspan><tspan x="0" y="72" style="fill:#66666B; font-family:'SenticoSansDT-Regular'; font-size:12px;">innovation</tspan></text>
	<rect x="2011.8" y="400.3" class="st0" width="190.5" height="74.6"/>
	<text transform="matrix(1 0 0 1 2019.756 413.0781)"><tspan x="0" y="0" class="st4" style="font-family:'SenticoSansDT-Regular'; font-size:18px;">Spring 2015</tspan><tspan x="0" y="14.4" style="fill:#66666B; font-family:'SenticoSansDT-Regular'; font-size:12px;">introduce a carefully marinated, </tspan><tspan x="0" y="28.8" style="fill:#66666B; font-family:'SenticoSansDT-Regular'; font-size:12px;">collaboratively created set of new </tspan><tspan x="0" y="43.2" style="fill:#66666B; font-family:'SenticoSansDT-Regular'; font-size:12px;">cultural values</tspan></text>
	<polygon class="st9" points="2073.8,482.9 2067.2,476.3 2060.7,482.9 2067.2,489.5 2073.8,496 2080.4,489.5 2086.9,482.9 
		2080.4,476.3 	"/>
	
		<rect x="2039.5" y="477.3" transform="matrix(-0.7071 0.7071 -0.7071 -0.7071 3828.0554 -623.6237)" class="st10" width="7.3" height="7.3"/>
	<polygon class="st6" points="2032.8,486.2 2027.7,481 2022.5,486.2 2027.7,491.4 2032.8,496.5 2038,491.4 2043.2,486.2 2038,481 	
		"/>
	<polygon class="st11" points="2116.7,494.1 2113.7,497.1 2116.7,500 2119.6,497.1 2122.6,500 2125.5,497.1 2122.6,494.1 
		2119.6,491.2 	"/>
	<polygon class="st6" points="2119.6,476.6 2113.7,482.5 2107.9,488.4 2113.7,494.3 2119.6,488.4 2125.5,494.3 2131.4,488.4 
		2125.5,482.5 	"/>
	<polygon class="st10" points="2148.3,497.7 2145.3,497.7 2145.3,500.7 2148.3,500.7 2148.3,503.8 2151.3,503.8 2151.3,500.7 
		2151.3,497.7 	"/>
	<polygon class="st11" points="2151.4,491.6 2145.3,491.6 2145.3,497.7 2151.4,497.7 2151.4,503.8 2157.4,503.8 2157.4,497.7 
		2157.4,491.6 	"/>
	<polygon class="st9" points="2157.4,479.5 2145.3,479.5 2145.3,491.6 2157.4,491.6 2157.4,503.8 2169.6,503.8 2169.6,479.5 	"/>
	<text transform="matrix(1 0 0 1 1994.1456 416.8811)" class="st15" style="font-family:'SenticoSansDT-Regular'; font-size:24px;">5</text>
	<text transform="matrix(1 0 0 1 2806.8542 -14.3813)" class="st15" style="font-family:'SenticoSansDT-Regular'; font-size:24px;">6</text>
	<rect x="2824.2" y="-30.3" class="st0" width="165.3" height="84.4"/>
	<text transform="matrix(1 0 0 1 2832.1501 -17.5372)"><tspan x="0" y="0" class="st4" style="font-family:'SenticoSansDT-Regular'; font-size:18px;">Summer 2015</tspan><tspan x="0" y="15" style="fill:#66666B; font-family:'SenticoSansDT-Regular'; font-size:12px;">marinate for a very short while </tspan><tspan x="0" y="36" style="fill:#66666B; font-family:'SenticoSansDT-Regular'; font-size:12px;">Return to pan and bring  </tspan><tspan x="0" y="51" style="fill:#66666B; font-family:'SenticoSansDT-Regular'; font-size:12px;">to the boil</tspan></text>
	<line class="st12" x1="2806.9" y1="214.7" x2="3096" y2="214.7"/>
	<line class="st12" x1="2813.7" y1="358.6" x2="3102.8" y2="358.6"/>
	<text transform="matrix(1 0 0 1 2806.8542 127.1177)" class="st15" style="font-family:'SenticoSansDT-Regular'; font-size:24px;">7</text>
	<rect x="2824.5" y="110" class="st0" width="138.9" height="96.3"/>
	<text transform="matrix(1 0 0 1 2832.4641 122.7411)"><tspan x="0" y="0" class="st4" style="font-family:'SenticoSansDT-Regular'; font-size:18px;">Autumn 2015</tspan><tspan x="0" y="15" style="fill:#66666B; font-family:'SenticoSansDT-Regular'; font-size:12px;">season with friends and </tspan><tspan x="0" y="30" style="fill:#66666B; font-family:'SenticoSansDT-Regular'; font-size:12px;">bring plenty of feedback</tspan></text>
	<text transform="matrix(1 0 0 1 2806.8542 267.8305)" class="st15" style="font-family:'SenticoSansDT-Regular'; font-size:24px;">8</text>
	<rect x="2824.5" y="250.5" class="st0" width="165.9" height="78"/>
	<text transform="matrix(1 0 0 1 2832.4641 263.3137)"><tspan x="0" y="0" class="st4" style="font-family:'SenticoSansDT-Regular'; font-size:18px;">Winter 2015</tspan><tspan x="0" y="15" style="fill:#66666B; font-family:'SenticoSansDT-Regular'; font-size:12px;">test regularly to ensure it’s all </tspan><tspan x="0" y="30" style="fill:#66666B; font-family:'SenticoSansDT-Regular'; font-size:12px;">coming together and the </tspan><tspan x="0" y="45" style="fill:#66666B; font-family:'SenticoSansDT-Regular'; font-size:12px;">flavour is balanced with </tspan><tspan x="0" y="60" style="fill:#66666B; font-family:'SenticoSansDT-Regular'; font-size:12px;">diversity and consistency</tspan></text>
	<text transform="matrix(1 0 0 1 2806.8542 393.5017)" class="st15" style="font-family:'SenticoSansDT-Regular'; font-size:24px;">9</text>
	<rect x="2824.5" y="378.3" class="st0" width="163.3" height="94"/>
	<text transform="matrix(1 0 0 1 2832.4646 391.0749)"><tspan x="0" y="0" class="st4" style="font-family:'SenticoSansDT-Regular'; font-size:18px;">Spring 2016</tspan><tspan x="0" y="14.4" style="fill:#66666B; font-family:'SenticoSansDT-Regular'; font-size:12px;">after 9 months, remove from </tspan><tspan x="0" y="28.8" style="fill:#66666B; font-family:'SenticoSansDT-Regular'; font-size:12px;">the stove, serve generously, </tspan><tspan x="0" y="43.2" style="fill:#66666B; font-family:'SenticoSansDT-Regular'; font-size:12px;">and share widely</tspan></text>
	<g>
		<rect x="3027.7" y="4.1" class="st13" width="35.4" height="2.6"/>
		<rect x="3027.7" y="-37.4" class="st13" width="35.4" height="2.6"/>
		<g>
			<defs>
				<polygon id="SVGID_1_" points="3042.4,-12.9 3039.7,-8.8 3032.6,2.2 3032.6,4.1 3058.1,4.1 3058.1,2.2 3051.5,-8.4 
					3048.3,-12.9 3048.3,-15.3 3048.3,-17.7 3058.1,-32.8 3058.1,-34.8 3032.6,-34.8 3032.6,-32.8 3042.4,-17.8 3042.4,-15.3 				
					"/>
			</defs>
			<clipPath id="SVGID_2_">
				<use xlink:href="#SVGID_1_"  style="overflow:visible;"/>
			</clipPath>
			<g class="st14">
				<g>
					<rect x="3027.2" y="-34.8" class="st7" width="32.9" height="10.5"/>
				</g>
			</g>
			<g class="st14">
				<g>
					<rect x="3027.2" y="-1.9" class="st7" width="32.9" height="6.1"/>
				</g>
			</g>
			<use xlink:href="#SVGID_1_"  style="overflow:visible;fill:none;stroke:#BFA1CC;stroke-miterlimit:10;"/>
		</g>
		<polygon class="st7" points="3045.3,-11.6 3043.5,-7.6 3043.5,-6.5 3044.4,-5.5 3045.3,-5.5 3046.3,-5.5 3047.1,-6.5 3047.1,-7.6 
					"/>
	</g>
	<g>
		<g>
			<path class="st1" d="M3071.1,295.2l-4.5,1.7c-2.9-1.3-4.5-2-7.3-3.3l-4-10.8c1.3-2.9,2-4.5,3.3-7.3l4.5-1.7
				c2.9,1.3,4.5,2,7.3,3.3l4,10.8C3073.1,290.7,3072.4,292.3,3071.1,295.2z"/>
			<g>
				
					<rect x="3059.9" y="279.2" transform="matrix(0.936 -0.352 0.352 0.936 95.2582 1095.6332)" class="st1" width="1.8" height="13.3"/>
				
					<rect x="3063.6" y="277.8" transform="matrix(0.936 -0.352 0.352 0.936 95.9714 1096.8242)" class="st1" width="1.8" height="13.3"/>
				
					<rect x="3067.2" y="276.4" transform="matrix(0.936 -0.352 0.352 0.936 96.6845 1098.0153)" class="st1" width="1.8" height="13.3"/>
			</g>
		</g>
		
			<rect x="3074" y="294.8" transform="matrix(-0.936 0.352 -0.352 -0.936 6066.2744 -472.2727)" class="st15" width="4.2" height="41"/>
	</g>
	<g>
		<polygon class="st13" points="3031.5,284.8 3031.5,287.3 3029.1,287.3 3029.1,304.4 3042.3,327.5 3040.3,331.4 3023.9,331.4 
			3023.3,331.4 3006.9,331.4 3004.9,327.5 3018.2,304.4 3018.2,287.3 3015.7,287.3 3015.7,284.8 		"/>
		<polygon class="st13" points="3031.9,269.2 3033.2,267.9 3031.9,266.6 3055.2,243.2 3055.2,240.2 3054.4,239.3 3054.2,239.1 
			3052,236.9 3049,236.9 3025.6,260.3 3024.3,259 3023,260.3 		"/>
		<polyline class="st7" points="3033.1,311.4 3042.3,327.5 3040.3,331.4 3023.9,331.4 3023.3,331.4 3006.9,331.4 3004.9,327.5 
			3014.2,311.4 		"/>
		<polygon class="st0" points="3025.3,328.5 3023.7,326.9 3023.7,324.6 3025.3,323 3027.5,323 3029.1,324.6 3029.1,326.9 
			3027.5,328.5 		"/>
		<polygon class="st0" points="3032.5,326.9 3030.9,325.3 3030.9,323 3032.5,321.4 3034.7,321.4 3036.3,323 3036.3,325.3 
			3034.7,326.9 		"/>
		<polygon class="st13" points="3017,280 3015.4,278.4 3015.4,276.1 3017,274.5 3019.3,274.5 3020.9,276.1 3020.9,278.4 3019.3,280 
					"/>
		<polygon class="st13" points="3021.1,272 3020.3,271.2 3020.3,270 3021.1,269.2 3022.3,269.2 3023.1,270 3023.1,271.2 3022.3,272 
					"/>
		<polygon class="st13" points="3025.1,281.4 3024.3,280.5 3024.3,279.4 3025.1,278.5 3026.3,278.5 3027.1,279.4 3027.1,280.5 
			3026.3,281.4 		"/>
		<polygon class="st0" points="3027.1,318.7 3026.3,317.8 3026.3,316.6 3027.1,315.8 3028.3,315.8 3029.1,316.6 3029.1,317.8 
			3028.3,318.7 		"/>
		<line class="st13" x1="3014.2" y1="311.4" x2="3018.2" y2="304.4"/>
		<line class="st13" x1="3029.1" y1="304.4" x2="3032.6" y2="310.6"/>
		<polyline class="st7" points="3034,252 3049,236.9 3052,236.9 3054.2,239.1 3054.4,239.3 3055.2,240.2 3055.2,243.2 3031.9,266.6 
					"/>
	</g>
	<text transform="matrix(1 0 0 1 2644.7119 414.9664)"><tspan x="0" y="0" style="fill:#66666B; font-family:'SenticoSansDT-Regular'; font-size:36px;">96%</tspan><tspan x="-8" y="19.2" class="st15" style="font-family:'SenticoSansDT-Regular'; font-size:16px;">positive feedback</tspan></text>
	<text transform="matrix(1 0 0 1 2344.3152 414.9664)"><tspan x="0" y="0" style="fill:#66666B; font-family:'SenticoSansDT-Regular'; font-size:36px;">96%</tspan><tspan x="-8" y="19.2" class="st15" style="font-family:'SenticoSansDT-Regular'; font-size:16px;">positive feedback</tspan></text>
	<text transform="matrix(1 0 0 1 2496.2373 414.9659)"><tspan x="0" y="0" style="fill:#66666B; font-family:'SenticoSansDT-Regular'; font-size:36px;">96%</tspan><tspan x="-8" y="19.2" class="st15" style="font-family:'SenticoSansDT-Regular'; font-size:16px;">positive feedback</tspan></text>
	<rect x="496.1" y="-250.9" class="st16" width="80" height="80"/>
	<polygon class="st16" points="486,-210.9 536.1,-260.9 586.1,-210.9 536.1,-160.9 	"/>
	<line class="st16" x1="586.1" y1="-261" x2="486" y2="-160.9"/>
	<line class="st16" x1="586.1" y1="-160.9" x2="486" y2="-260.9"/>
	<line class="st16" x1="486" y1="-210.9" x2="586.1" y2="-210.9"/>
	<line class="st16" x1="536.1" y1="-261.1" x2="536.1" y2="-160.9"/>
	<rect x="633.7" y="-250.9" class="st16" width="80" height="80"/>
	<polygon class="st16" points="623.7,-210.9 673.7,-260.9 723.8,-210.9 673.7,-160.9 	"/>
	<line class="st16" x1="723.8" y1="-261" x2="623.7" y2="-160.9"/>
	<line class="st16" x1="723.8" y1="-160.9" x2="623.7" y2="-260.9"/>
	<line class="st16" x1="623.7" y1="-210.9" x2="723.8" y2="-210.9"/>
	<line class="st16" x1="673.7" y1="-261.1" x2="673.7" y2="-160.9"/>
	<rect x="779.2" y="-250.9" class="st16" width="80" height="80"/>
	<polygon class="st16" points="769.1,-210.9 819.2,-260.9 869.2,-210.9 819.1,-160.9 	"/>
	<line class="st16" x1="869.2" y1="-261" x2="769.1" y2="-160.9"/>
	<line class="st16" x1="869.2" y1="-160.9" x2="769.1" y2="-260.9"/>
	<line class="st16" x1="769.1" y1="-210.9" x2="869.2" y2="-210.9"/>
	<line class="st16" x1="819.2" y1="-261.1" x2="819.2" y2="-160.9"/>
	<rect x="779.2" y="-102.8" class="st16" width="80" height="80"/>
	<polygon class="st16" points="769.1,-62.8 819.2,-112.8 869.2,-62.8 819.1,-12.8 	"/>
	<line class="st16" x1="869.2" y1="-112.9" x2="769.1" y2="-12.8"/>
	<line class="st16" x1="869.2" y1="-12.8" x2="769.1" y2="-112.8"/>
	<line class="st16" x1="769.1" y1="-62.8" x2="869.2" y2="-62.8"/>
	<line class="st16" x1="819.2" y1="-113" x2="819.2" y2="-12.8"/>
	<rect x="633.7" y="-102.8" class="st16" width="80" height="80"/>
	<polygon class="st16" points="623.7,-62.8 673.7,-112.8 723.8,-62.8 673.7,-12.8 	"/>
	<line class="st16" x1="723.8" y1="-112.9" x2="623.7" y2="-12.8"/>
	<line class="st16" x1="723.8" y1="-12.8" x2="623.7" y2="-112.8"/>
	<line class="st16" x1="623.7" y1="-62.8" x2="723.8" y2="-62.8"/>
	<line class="st16" x1="673.7" y1="-113" x2="673.7" y2="-12.8"/>
	<rect x="501.3" y="-102.8" class="st16" width="80" height="80"/>
	<polygon class="st16" points="491.2,-62.8 541.3,-112.8 591.3,-62.8 541.3,-12.8 	"/>
	<line class="st16" x1="591.3" y1="-112.9" x2="491.2" y2="-12.8"/>
	<line class="st16" x1="591.3" y1="-12.8" x2="491.2" y2="-112.8"/>
	<line class="st16" x1="491.2" y1="-62.8" x2="591.3" y2="-62.8"/>
	<line class="st16" x1="541.3" y1="-113" x2="541.3" y2="-12.8"/>
	<rect x="501.3" y="35" class="st16" width="80" height="80"/>
	<polygon class="st16" points="491.2,75.1 541.3,25 591.3,75 541.3,125 	"/>
	<line class="st16" x1="591.3" y1="25" x2="491.2" y2="125.1"/>
	<line class="st16" x1="591.3" y1="125.1" x2="491.2" y2="25"/>
	<line class="st16" x1="491.2" y1="75" x2="591.3" y2="75"/>
	<line class="st16" x1="541.3" y1="24.9" x2="541.3" y2="125.1"/>
	<rect x="637" y="35" class="st16" width="80" height="80"/>
	<polygon class="st16" points="627,75.1 677,25 727.1,75 677,125 	"/>
	<line class="st16" x1="727.1" y1="25" x2="627" y2="125.1"/>
	<line class="st16" x1="727.1" y1="125.1" x2="627" y2="25"/>
	<line class="st16" x1="627" y1="75" x2="727.1" y2="75"/>
	<line class="st16" x1="677" y1="24.9" x2="677" y2="125.1"/>
	<rect x="784" y="35" class="st16" width="80" height="80"/>
	<polygon class="st16" points="773.9,75.1 824,25 874,75 823.9,125 	"/>
	<line class="st16" x1="874" y1="25" x2="773.9" y2="125.1"/>
	<line class="st16" x1="874" y1="125.1" x2="773.9" y2="25"/>
	<line class="st16" x1="773.9" y1="75" x2="874" y2="75"/>
	<line class="st16" x1="824" y1="24.9" x2="824" y2="125.1"/>
	<g>
		<defs>
			<rect id="SVGID_3_" x="15.3" y="279.1" width="264.5" height="22.8"/>
		</defs>
		<clipPath id="SVGID_4_">
			<use xlink:href="#SVGID_3_"  style="overflow:visible;"/>
		</clipPath>
		<g class="st17">
			<defs>
				<rect id="SVGID_5_" x="15.3" y="279.1" width="264.5" height="24.7"/>
			</defs>
			<clipPath id="SVGID_6_">
				<use xlink:href="#SVGID_5_"  style="overflow:visible;"/>
			</clipPath>
			<g style="clip-path:url(#SVGID_6_);">
				
					<image style="overflow:visible;" width="332" height="31" xlink:href="F9E41212.jpg"  transform="matrix(0.7966 0 0 0.7966 15.2695 279.0563)">
				</image>
			</g>
		</g>
	</g>
</g>
<g id="lines">
	<rect x="3250.9" y="100.5" class="st15" width="11.3" height="199.5"/>
	<polyline class="st18" points="3287.8,18.1 3287.8,87.4 3256.6,118.6 3225.3,87.4 3225.3,18.1 	"/>
	<line class="st18" x1="3256.6" y1="18.1" x2="3256.6" y2="118.6"/>
</g>
<g id="Layer_1">
	<g>
		<path class="st18" d="M3583.3,296.4l9.1,5.8l-27.2,93.4c-2.9,1.1-4.1,1.6-7,2.7l-4.2-2.6l-43.4-27.4l-4.2-2.6
			c-0.3-3.1-0.4-4.4-0.6-7.5l72.7-64.7l9.1,5.8"/>
		
			<rect x="3481.3" y="369.6" transform="matrix(0.8455 0.5339 -0.5339 0.8455 779.0673 -1793.7687)" class="st15" width="16.6" height="159.9"/>
	</g>
	<rect x="1953.8" y="527.3" class="st4" width="1190.6" height="70.8"/>
</g>
<g id="hIDE">
	<rect x="1995.7" y="-238.3" style="fill:none;" width="311.8" height="74.3"/>
	<text transform="matrix(1.0037 0 0 1 1995.7028 -229.8026)"><tspan x="0" y="0" style="fill:#66666B; font-family:'SenticoSansDT-Regular'; font-size:12px;">Take a man with a brave vision in 1930 to create America’s </tspan><tspan x="0" y="15" style="fill:#66666B; font-family:'SenticoSansDT-Regular'; font-size:12px;">first insurance package for streetcars, when everyone else </tspan><tspan x="0" y="30" style="fill:#66666B; font-family:'SenticoSansDT-Regular'; font-size:12px;">said it couldn’t and wouldn’t be done</tspan></text>
	<rect x="2391.2" y="-238.3" style="fill:none;" width="311.8" height="87.1"/>
	<text transform="matrix(1 0 0 1 2391.1848 -229.8021)"><tspan x="0" y="0" style="fill:#66666B; font-family:'SenticoSansDT-Regular'; font-size:12px;">Take a business that faced scepticism, professional snobbery </tspan><tspan x="0" y="15" style="fill:#66666B; font-family:'SenticoSansDT-Regular'; font-size:12px;">and disbelief but boldly forged ahead in the early 1990’s with </tspan><tspan x="0" y="30" style="fill:#66666B; font-family:'SenticoSansDT-Regular'; font-size:12px;">the UK’s first ever legal advice helpline service – still the most </tspan><tspan x="0" y="45" style="fill:#66666B; font-family:'SenticoSansDT-Regular'; font-size:12px;">successful of them all today*</tspan><tspan x="0" y="66" style="fill:#66666B; font-family:'SenticoSansDT-Regular'; font-size:10px;">*sustained 96%+ customer satisfaction rates</tspan></text>
	<rect x="2788.7" y="-238" style="fill:none;" width="311.8" height="86.7"/>
	<text transform="matrix(1 0 0 1 2788.6787 -229.4897)"><tspan x="0" y="0" style="fill:#66666B; font-family:'SenticoSansDT-Regular'; font-size:12px;">Take an award-winning** breakaway couple of experienced </tspan><tspan x="0" y="15" style="fill:#66666B; font-family:'SenticoSansDT-Regular'; font-size:12px;">legal mavericks who felt they could build something better for </tspan><tspan x="0" y="30" style="fill:#66666B; font-family:'SenticoSansDT-Regular'; font-size:12px;">their clients by breaking away and striking out on their own in </tspan><tspan x="0" y="45" style="fill:#66666B; font-family:'SenticoSansDT-Regular'; font-size:12px;">[DATE]</tspan><tspan x="0" y="66" style="fill:#66666B; font-family:'SenticoSansDT-Regular'; font-size:10px;">** reference last year’s legal awards</tspan></text>
	<line class="st12" x1="1994.1" y1="27.8" x2="2283.3" y2="27.8"/>
	<line class="st12" x1="1994.1" y1="132.7" x2="2283.3" y2="132.7"/>
	<line class="st12" x1="1994.1" y1="237.6" x2="2283.3" y2="237.6"/>
	<line class="st12" x1="1994.1" y1="375.1" x2="2283.3" y2="375.1"/>
	<line class="st12" x1="2806.9" y1="77.8" x2="3096" y2="77.8"/>
</g>
<g id="Layer_3">
</g>
<g id="Layer_5">
	<g>
		<path class="st13" d="M2235.8,56.6l5.1-5 M2240.1,74.8h7.2 M2204.1,51.6l5.1,5 M2222.1,55.2v-7.1 M2196.5,74.8h7.2 M2215.5,99.5
			h13.1 M2215.5,97.8h13.1 M2215.5,96.2h13.1"/>
		<polygon class="st7" points="2234.8,75.1 2228.4,60.9 2215.6,60.9 2209.2,75.1 2215.6,89.3 2215.6,89.3 2215.6,94.5 2228.6,94.5 
			2228.6,88.9 		"/>
		<g>
			<polygon class="st0" points="2219.9,76.6 2218,78.4 2219.9,80.2 2221.8,78.4 2223.7,80.2 2225.6,78.4 2223.7,76.6 2221.8,74.8 
							"/>
		</g>
		<polyline class="st19" points="2222.1,94 2222.1,90.7 2224.3,88.5 2222.1,86.4 2224.5,84 2221.9,81.5 2221.9,77.7 		"/>
	</g>
	<g>
		<g>
			<polyline class="st13" points="2227.1,184.5 2237.4,194.8 2237.4,209.4 2227.1,219.7 2212.5,219.7 2202.2,209.4 2202.2,194.8 
				2212.5,184.5 			"/>
			<line class="st13" x1="2219.8" y1="177.8" x2="2219.8" y2="182.6"/>
			<rect x="2216.1" y="174.3" class="st7" width="7.3" height="4.5"/>
			<g>
				<polyline class="st7" points="2221.1,199.6 2223,201.4 2223,204 2221.1,205.9 2218.5,205.9 2216.6,204 2216.6,201.4 
					2218.5,199.6 				"/>
				<line class="st13" x1="2219.8" y1="203.3" x2="2229.7" y2="193.5"/>
			</g>
			
				<rect x="2229.6" y="187.3" transform="matrix(0.7071 0.7071 -0.7071 0.7071 787.918 -1524.3765)" class="st7" width="9" height="3.3"/>
			
				<rect x="2201.3" y="186.6" transform="matrix(-0.7071 0.7071 -0.7071 -0.7071 3898.7942 -1238.3541)" class="st7" width="9" height="3.3"/>
		</g>
		<path class="st1" d="M2263.1,156.3l-4.6,4.6l-6.2,6.2l-6.8,1.7l-21.4-4.2v-3.7h12.4l-4.5-4.5l-12.4,2.4l-4.1,4.1l-5.1,0.1
			c-0.3-1.1-0.4-1.4-0.7-2.5l6.6-6.6l16-3.8l14,3.6l4.2-0.7l4.6-4.6"/>
	</g>
	<g>
		<path class="st13" d="M535.5-52.4l21.8,5.4l3.1-12.8l-21.8-5.4L535.5-52.4z M557.7-49.1l20.2,5l2.1-8.5l-20.2-5L557.7-49.1z"/>
		<rect x="551" y="-44.9" class="st7" width="12" height="2.3"/>
		<polygon class="st7" points="585.2,-48.3 584.5,-45.5 578.6,-47 579.3,-49.8 		"/>
		<polygon class="st7" points="535.3,-67.7 539,-66.8 535.1,-50.6 531.4,-51.5 		"/>
		<g>
			<path class="st13" d="M557-37l-17,17.1 M557-37l17,17.1 M557-42.4v22.6"/>
		</g>
	</g>
	<g>
		<polygon class="st15" points="524.3,-70.2 523,-68.8 521.6,-70.2 519.6,-70.2 519.6,-72 518.2,-73.4 519.6,-74.8 519.6,-76.7 
			521.6,-76.7 523,-78 524.3,-76.7 526.3,-76.7 526.3,-74.8 527.7,-73.4 526.3,-72 526.3,-70.2 		"/>
		<polygon class="st1" points="507.8,-79.2 506.5,-77.9 505.2,-79.2 503.4,-79.2 503.4,-80.9 502.1,-82.2 503.4,-83.5 503.4,-85.3 
			505.2,-85.3 506.5,-86.6 507.8,-85.3 509.7,-85.3 509.7,-83.5 511,-82.2 509.7,-80.9 509.7,-79.2 		"/>
		<polygon class="st1" points="524.3,-94.5 523,-93.2 521.7,-94.5 519.8,-94.5 519.8,-96.2 518.5,-97.5 519.8,-98.8 519.8,-100.6 
			521.7,-100.6 523,-101.9 524.3,-100.6 526.2,-100.6 526.2,-98.8 527.5,-97.5 526.2,-96.2 526.2,-94.5 		"/>
		<polygon class="st15" points="503.4,-98.9 502,-97.5 500.7,-98.9 498.7,-98.9 498.7,-100.7 497.3,-102.1 498.7,-103.5 
			498.7,-105.4 500.7,-105.4 502,-106.7 503.4,-105.4 505.4,-105.4 505.4,-103.5 506.8,-102.1 505.4,-100.7 505.4,-98.9 		"/>
	</g>
	<g>
		<polygon class="st18" points="3004.6,165.4 3004.6,165.4 2993.8,165.4 2987.8,179.1 2989.6,179.9 2994.9,168 2995.1,168 
			2995.1,180.9 2995.1,181.3 2995.1,193.8 2998.4,193.8 2998.4,181.3 3000.2,181.3 3000.2,193.8 3003.5,193.8 3003.5,181.3 
			3003.5,180.9 3003.5,168 3003.6,168 3008.8,179.9 3010.6,179.1 3004.6,165.4 		"/>
		<polygon class="st18" points="3026.2,165.4 3026.2,165.4 3014.7,165.4 3014.7,165.4 3014.7,165.4 3008.6,179.1 3010.5,179.9 
			3015.7,168 3016.4,168 3013.5,181.3 3016.4,181.3 3016.4,193.8 3019.7,193.8 3019.7,181.3 3020.3,181.3 3020.6,181.3 
			3021.2,181.3 3021.2,193.8 3024.5,193.8 3024.5,181.3 3027.4,181.3 3024.4,168 3025.1,168 3030.4,179.9 3032.2,179.1 
			3026.2,165.4 		"/>
		<polygon class="st18" points="2997.8,157.7 2995.8,159.7 2995.7,162.6 2997.7,164.6 3000.6,164.7 3002.7,162.7 3002.7,159.8 
			3000.7,157.7 		"/>
		<polygon class="st18" points="3047,165.4 3047,165.4 3036.3,165.4 3030.3,179.1 3032.1,179.9 3037.3,168 3037.5,168 3037.5,180.9 
			3037.5,181.3 3037.5,193.8 3040.9,193.8 3040.9,181.3 3042.6,181.3 3042.6,193.8 3046,193.8 3046,181.3 3046,180.9 3046,168 
			3046,168 3051.2,179.9 3053.1,179.1 3047.1,165.4 		"/>
		<polygon class="st18" points="3040.3,157.7 3038.2,159.7 3038.2,162.6 3040.2,164.6 3043.1,164.7 3045.1,162.7 3045.2,159.8 
			3043.2,157.7 		"/>
		<polygon class="st18" points="3019.1,157.7 3017.1,159.7 3017,162.6 3019,164.6 3021.9,164.7 3024,162.7 3024,159.8 3022,157.7 		
			"/>
		<polygon class="st18" points="3068.9,165.4 3068.9,165.4 3057.5,165.4 3057.5,165.4 3057.4,165.4 3051.4,179.1 3053.2,179.9 
			3058.5,168 3059.2,168 3056.3,181.3 3059.1,181.3 3059.1,193.8 3062.5,193.8 3062.5,181.3 3063.1,181.3 3063.3,181.3 
			3063.9,181.3 3063.9,193.8 3067.2,193.8 3067.2,181.3 3070.1,181.3 3067.2,168 3067.9,168 3073.1,179.9 3074.9,179.1 
			3068.9,165.4 		"/>
		<polygon class="st18" points="3061.9,157.7 3059.8,159.7 3059.8,162.6 3061.8,164.6 3064.7,164.7 3066.7,162.7 3066.8,159.8 
			3064.8,157.7 		"/>
	</g>
	<g>
		<g>
			<polygon class="st13" points="3069.5,101.6 3061.6,93.7 3056,93.7 3040,123 3041.9,124.9 3043.5,126.5 3046,128.9 3075.2,112.9 
				3075.2,107.4 3070.8,102.9 			"/>
			<polygon class="st7" points="3050.7,108.2 3044.3,119.9 3045.8,121.4 3047.1,122.7 3049.1,124.6 3072.5,111.9 3072.5,107.4 			
				"/>
			
				<rect x="3033.6" y="126.7" transform="matrix(-0.7071 -0.7071 0.7071 -0.7071 5098.6108 2369.6833)" class="st7" width="13" height="4.3"/>
		</g>
		<polygon class="st13" points="3039.8,132.6 3040.5,131.9 3041.5,131.9 3042.2,132.6 3042.2,133.6 3041.5,134.3 3040.5,134.3 
			3039.8,133.6 		"/>
		<polygon class="st13" points="3035.4,136.4 3036.1,135.7 3037.1,135.7 3037.8,136.4 3037.8,137.4 3037.1,138.1 3036.1,138.1 
			3035.4,137.4 		"/>
		<polygon class="st13" points="3029.5,142.1 3030.2,141.4 3031.2,141.4 3031.9,142.1 3031.9,143.1 3031.2,143.8 3030.2,143.8 
			3029.5,143.1 		"/>
		<polygon class="st13" points="3036.6,143.3 3037.3,142.6 3038.3,142.6 3039,143.3 3039,144.3 3038.3,145 3037.3,145 3036.6,144.3 
					"/>
		<polygon class="st13" points="3025.5,144.5 3026.2,143.8 3027.2,143.8 3027.9,144.5 3027.9,145.5 3027.2,146.2 3026.2,146.2 
			3025.5,145.5 		"/>
		<polygon class="st13" points="3034.2,131.4 3034.9,130.7 3035.9,130.7 3036.6,131.4 3036.6,132.4 3035.9,133.1 3034.9,133.1 
			3034.2,132.4 		"/>
		<polygon class="st13" points="3029,135.7 3029.7,135 3030.7,135 3031.4,135.7 3031.4,136.7 3030.7,137.4 3029.7,137.4 3029,136.7 
					"/>
	</g>
	<g>
		<polyline class="st13" points="3083.6,423.6 3083.6,413.6 3067.4,397.4 3047.4,395 3027.3,397.4 3011.1,413.6 3011.1,423.6 		"/>
		<polygon class="st7" points="3050.5,385.3 3049.5,389.6 3045.2,389.6 3044.2,385.3 		"/>
		<rect x="3002.8" y="423.6" class="st7" width="88.3" height="5.2"/>
		<line class="st13" x1="3047.4" y1="395" x2="3047.4" y2="387.4"/>
	</g>
	<g>
		<g>
			<rect x="3032.6" y="40.3" class="st13" width="29.3" height="17.9"/>
			<rect x="3028.7" y="40.3" class="st7" width="3.7" height="2.8"/>
			<rect x="3061.8" y="40.3" class="st7" width="3.7" height="2.8"/>
			<polyline class="st7" points="3062.3,40.3 3062.3,36.7 3055.7,32.9 3047.2,32.9 3038.7,32.9 3032.1,36.7 3032.1,40.3 			"/>
			<polygon class="st7" points="3049,30.5 3048.5,32.9 3046,32.9 3045.4,30.5 			"/>
		</g>
		<g>
			<polyline class="st13" points="3027.1,61.3 3031.1,65.4 3035.1,61.3 3039.1,65.4 3043.1,61.3 3047.1,65.4 3051.1,61.3 
				3055.1,65.4 3059.1,61.3 3063.1,65.4 3067.1,61.3 			"/>
		</g>
		<polyline class="st13" points="3048.3,19.4 3045.7,22.1 3048.3,24.7 3048.3,28.6 		"/>
		<polyline class="st13" points="3043.9,17.3 3041.3,20 3043.9,22.6 3043.9,26.4 		"/>
	</g>
	<g>
		<path class="st13" d="M695.5-240.8l8-8 M702.3-211.9h11.4 M645.3-248.7l8,8 M673.8-243.1v-11.3 M633.3-211.9h11.4 M663.4-172.8
			h20.7 M663.4-175.5h20.7 M663.4-178.1h20.7"/>
		<polygon class="st7" points="694,-211.5 683.9,-234 663.5,-234 653.3,-211.5 663.5,-188.9 663.5,-188.9 663.5,-180.7 
			684.2,-180.7 684.2,-189.6 		"/>
		<g>
			<polygon class="st0" points="670.3,-209.1 667.3,-206.2 670.3,-203.4 673.3,-206.2 676.3,-203.4 679.3,-206.2 676.3,-209.1 
				673.3,-211.9 			"/>
		</g>
		<polyline class="st19" points="673.8,-181.6 673.8,-186.7 677.3,-190.2 673.9,-193.6 677.6,-197.3 673.5,-201.4 673.5,-207.4 		
			"/>
	</g>
	<g>
		<g>
			<polyline class="st13" points="812.4,-209.9 824.7,-197.6 824.7,-180.2 812.4,-167.9 795,-167.9 782.8,-180.2 782.8,-197.6 
				795,-209.9 			"/>
			<line class="st13" x1="803.7" y1="-217.9" x2="803.7" y2="-212.1"/>
			<rect x="799.4" y="-222.1" class="st7" width="8.7" height="5.4"/>
			<g>
				<polyline class="st7" points="805.3,-191.9 807.5,-189.7 807.5,-186.6 805.3,-184.4 802.2,-184.4 799.9,-186.6 799.9,-189.7 
					802.2,-191.9 				"/>
				<line class="st13" x1="803.7" y1="-187.4" x2="815.5" y2="-199.2"/>
			</g>
			
				<rect x="815.4" y="-206.5" transform="matrix(0.7071 0.7071 -0.7071 0.7071 95.7254 -640.2897)" class="st7" width="10.8" height="3.9"/>
			
				<rect x="781.7" y="-207.4" transform="matrix(-0.7071 0.7071 -0.7071 -0.7071 1198.4154 -907.2036)" class="st7" width="10.8" height="3.9"/>
		</g>
		<path class="st1" d="M855.4-243.5l-5.5,5.5l-7.3,7.3l-8.1,2l-25.5-5v-4.4h14.8l-5.4-5.4l-14.8,2.9l-4.9,4.9l-6.1,0.1
			c-0.4-1.3-0.5-1.6-0.8-3l7.8-7.8l19.1-4.6l16.6,4.3l5-0.9l5.5-5.5"/>
	</g>
	<g>
		<g>
			<rect x="648.5" y="-62.7" class="st13" width="50.9" height="31.1"/>
			<rect x="641.7" y="-62.7" class="st7" width="6.5" height="4.9"/>
			<rect x="699.4" y="-62.7" class="st7" width="6.5" height="4.9"/>
			<polyline class="st7" points="700.2,-62.7 700.2,-68.8 688.7,-75.4 674,-75.4 659.2,-75.4 647.8,-68.8 647.8,-62.7 			"/>
			<polygon class="st7" points="677.1,-79.7 676.1,-75.4 671.8,-75.4 670.8,-79.7 			"/>
		</g>
		<g>
			<polyline class="st13" points="639,-24.5 646,-20.5 652.9,-24.5 659.9,-20.5 666.8,-24.5 673.8,-20.5 680.7,-24.5 687.7,-20.5 
				694.6,-24.5 701.6,-20.5 708.6,-24.5 			"/>
		</g>
		<polyline class="st13" points="675.9,-98.8 671.3,-94.2 675.8,-89.6 675.8,-83 		"/>
		<polyline class="st13" points="668.3,-102.6 663.6,-97.9 668.2,-93.4 668.2,-86.7 		"/>
	</g>
	<g>
		<polygon class="st18" points="797.3,-46.1 797.3,-46.1 788.7,-46.1 783.9,-35.2 785.4,-34.6 789.6,-44.1 789.7,-44.1 789.7,-33.8 
			789.7,-33.5 789.7,-23.5 792.4,-23.5 792.4,-33.5 793.8,-33.5 793.8,-23.5 796.4,-23.5 796.4,-33.5 796.4,-33.8 796.4,-44.1 
			796.5,-44.1 800.6,-34.6 802.1,-35.2 797.3,-46.1 		"/>
		<polygon class="st18" points="814.4,-46.1 814.4,-46.1 805.3,-46.1 805.3,-46.1 805.3,-46.1 800.5,-35.2 802,-34.6 806.1,-44.1 
			806.7,-44.1 804.4,-33.5 806.7,-33.5 806.7,-23.5 809.3,-23.5 809.3,-33.5 809.8,-33.5 810,-33.5 810.5,-33.5 810.5,-23.5 
			813.1,-23.5 813.1,-33.5 815.4,-33.5 813.1,-44.1 813.6,-44.1 817.8,-34.6 819.2,-35.2 814.4,-46.1 		"/>
		<polygon class="st18" points="791.9,-52.3 790.3,-50.7 790.2,-48.4 791.8,-46.8 794.1,-46.7 795.8,-48.3 795.8,-50.6 794.2,-52.3 
					"/>
		<polygon class="st18" points="831.1,-46.1 831.1,-46.1 822.5,-46.1 817.7,-35.2 819.1,-34.6 823.3,-44.1 823.5,-44.1 823.5,-33.8 
			823.5,-33.5 823.5,-23.5 826.1,-23.5 826.1,-33.5 827.5,-33.5 827.5,-23.5 830.2,-23.5 830.2,-33.5 830.2,-33.8 830.2,-44.1 
			830.2,-44.1 834.4,-34.6 835.9,-35.2 831.1,-46.1 		"/>
		<polygon class="st18" points="825.7,-52.3 824,-50.7 824,-48.4 825.6,-46.8 827.9,-46.7 829.5,-48.3 829.6,-50.6 828,-52.3 		"/>
		<polygon class="st18" points="808.9,-52.3 807.2,-50.7 807.2,-48.4 808.8,-46.8 811.1,-46.7 812.7,-48.3 812.7,-50.6 811.1,-52.3 
					"/>
		<polygon class="st18" points="848.4,-46.1 848.4,-46.1 839.3,-46.1 839.3,-46.1 839.3,-46.1 834.5,-35.2 836,-34.6 840.1,-44.1 
			840.7,-44.1 838.4,-33.5 840.7,-33.5 840.7,-23.5 843.3,-23.5 843.3,-33.5 843.8,-33.5 844,-33.5 844.5,-33.5 844.5,-23.5 
			847.1,-23.5 847.1,-33.5 849.4,-33.5 847.1,-44.1 847.6,-44.1 851.8,-34.6 853.2,-35.2 848.5,-46.1 		"/>
		<polygon class="st18" points="842.9,-52.3 841.2,-50.7 841.2,-48.4 842.8,-46.8 845.1,-46.7 846.7,-48.3 846.7,-50.6 845.2,-52.3 
					"/>
	</g>
	<g>
		<g>
			<polygon class="st13" points="848.9,-96.9 842.6,-103.1 838.2,-103.1 825.5,-79.9 827,-78.4 828.2,-77.1 830.2,-75.2 
				853.5,-87.9 853.5,-92.3 849.9,-95.8 			"/>
			<polygon class="st7" points="834,-91.6 828.9,-82.3 830.1,-81.1 831.1,-80.1 832.6,-78.6 851.3,-88.7 851.3,-92.3 			"/>
			
				<rect x="820.3" y="-76.9" transform="matrix(-0.7071 -0.7071 0.7071 -0.7071 1462.4009 455.3755)" class="st7" width="10.4" height="3.4"/>
		</g>
		<polygon class="st13" points="825.3,-72.2 825.9,-72.8 826.7,-72.8 827.2,-72.2 827.2,-71.4 826.7,-70.9 825.9,-70.9 825.3,-71.4 
					"/>
		<polygon class="st13" points="821.7,-69.2 822.3,-69.8 823.1,-69.8 823.7,-69.2 823.7,-68.4 823.1,-67.9 822.3,-67.9 821.7,-68.4 
					"/>
		<polygon class="st13" points="817.1,-64.7 817.6,-65.3 818.4,-65.3 819,-64.7 819,-63.9 818.4,-63.3 817.6,-63.3 817.1,-63.9 		
			"/>
		<polygon class="st13" points="822.7,-63.7 823.3,-64.3 824.1,-64.3 824.6,-63.7 824.6,-62.9 824.1,-62.4 823.3,-62.4 822.7,-62.9 
					"/>
		<polygon class="st13" points="813.9,-62.8 814.5,-63.3 815.3,-63.3 815.9,-62.8 815.9,-62 815.3,-61.4 814.5,-61.4 813.9,-62 		
			"/>
		<polygon class="st13" points="820.8,-73.2 821.4,-73.7 822.1,-73.7 822.7,-73.2 822.7,-72.4 822.1,-71.8 821.4,-71.8 820.8,-72.4 
					"/>
		<polygon class="st13" points="816.7,-69.8 817.2,-70.3 818,-70.3 818.6,-69.8 818.6,-69 818,-68.4 817.2,-68.4 816.7,-69 		"/>
	</g>
	<g>
		<polyline class="st13" points="713.9,90 713.9,79.9 697.7,63.7 677.7,61.3 657.6,63.7 641.4,79.9 641.4,90 		"/>
		<polygon class="st7" points="680.8,51.6 679.9,55.9 675.5,55.9 674.5,51.6 		"/>
		<rect x="633.2" y="90" class="st7" width="88.3" height="5.2"/>
		<line class="st13" x1="677.7" y1="61.3" x2="677.7" y2="53.8"/>
	</g>
	<g>
		<path class="st13" d="M827.4,110.3l25.8-28.9V62.7c0,0-9.9-9.9-13.6-13.6l-15.1,13.6l-15.1-13.6l-13.6,13.6v18.7l25.8,28.9H827.4z
			"/>
	</g>
</g>
<g id="Layer_6">
	<linearGradient id="SVGID_7_" gradientUnits="userSpaceOnUse" x1="2194.8374" y1="-20.8129" x2="2482.6021" y2="-20.8129">
		<stop  offset="0" style="stop-color:#D27A6F"/>
		<stop  offset="8.406200e-002" style="stop-color:#C19176"/>
		<stop  offset="0.186" style="stop-color:#ACA87D"/>
		<stop  offset="0.2648" style="stop-color:#9CB480"/>
		<stop  offset="0.3103" style="stop-color:#95B982"/>
		<stop  offset="0.3266" style="stop-color:#8BB586"/>
		<stop  offset="0.379" style="stop-color:#6CAA92"/>
		<stop  offset="0.4341" style="stop-color:#50A39B"/>
		<stop  offset="0.4924" style="stop-color:#339EA1"/>
		<stop  offset="0.5561" style="stop-color:#159BA5"/>
		<stop  offset="0.6355" style="stop-color:#009AA6"/>
		<stop  offset="0.6555" style="stop-color:#1F96A6"/>
		<stop  offset="1" style="stop-color:#813393"/>
	</linearGradient>
	<polygon class="st20" points="2476.9,153 2332.3,8.4 2332.3,-112.4 2194.8,-112.4 2194.8,-194.6 2202.8,-194.6 2202.8,-120.4 
		2340.3,-120.4 2340.3,5.1 2482.6,147.4 	"/>
	<linearGradient id="SVGID_8_" gradientUnits="userSpaceOnUse" x1="2531.479" y1="-12.6527" x2="2614.3716" y2="-12.6527">
		<stop  offset="9.359606e-002" style="stop-color:#813393"/>
		<stop  offset="0.532" style="stop-color:#95B982"/>
		<stop  offset="0.5445" style="stop-color:#92B783"/>
		<stop  offset="0.6826" style="stop-color:#6AAA93"/>
		<stop  offset="0.8092" style="stop-color:#46A19E"/>
		<stop  offset="0.9191" style="stop-color:#209CA4"/>
		<stop  offset="1" style="stop-color:#009AA6"/>
	</linearGradient>
	<polygon class="st21" points="2539.5,150.2 2531.5,150.2 2531.5,50 2606.4,-24.9 2606.4,-175.5 2614.4,-175.5 2614.4,-21.5 
		2539.5,53.4 	"/>
	<linearGradient id="SVGID_9_" gradientUnits="userSpaceOnUse" x1="2604.4043" y1="-15.1869" x2="2991.8125" y2="-15.1869">
		<stop  offset="0.1823" style="stop-color:#95B982"/>
		<stop  offset="0.2269" style="stop-color:#87B388"/>
		<stop  offset="0.3435" style="stop-color:#63A895"/>
		<stop  offset="0.4538" style="stop-color:#41A09F"/>
		<stop  offset="0.5541" style="stop-color:#1D9CA4"/>
		<stop  offset="0.6355" style="stop-color:#009AA6"/>
		<stop  offset="0.6555" style="stop-color:#1F96A6"/>
		<stop  offset="1" style="stop-color:#813393"/>
	</linearGradient>
	<polygon class="st22" points="2610.1,160 2604.4,154.4 2753.7,5.1 2753.7,-108.4 2983.8,-108.4 2983.8,-190.4 2991.8,-190.4 
		2991.8,-100.4 2761.7,-100.4 2761.7,8.4 	"/>
	<g>
		<g>
			<g>
				<path class="st7" d="M496.3-183.4h12.6c0.1,0,0.1,0,0.2,0.1l9.2,9.2c0.1,0.1,0.4,0,0.4-0.2v-8.9c0-0.1,0.1-0.2,0.2-0.2h5
					c0.1,0,0.2-0.1,0.2-0.2v-27c0-0.1-0.1-0.2-0.2-0.2h-27.6c-0.1,0-0.2,0.1-0.2,0.2v27C496.1-183.5,496.2-183.4,496.3-183.4z"/>
			</g>
			<g>
				<g>
					<path class="st0" d="M509.4-193.4c-0.1,0-0.2-0.1-0.1-0.3c0.3-1.3,0.5-2.1,1.6-3.1c1.2-1,2.1-1.3,2.1-3.4
						c0-1.7-0.4-2.3-2.5-2.3c-0.9,0-1.9,0.2-2.9,0.5c-0.1,0-0.3,0-0.3-0.2l-0.1-1.1c0-0.1,0.1-0.2,0.2-0.2c1-0.2,2.1-0.5,3.2-0.5
						c3.1,0,4.2,1.1,4.2,3.8c0,3.1-1.4,3.4-2.8,4.8c-0.6,0.6-0.9,1.2-1.2,2.3c0,0.1-0.2,0.2-0.3,0.2L509.4-193.4z M510.6-190.9
						c0.5,0.1,0.5,0.4,0.5,1.1c0,0.8-0.7,1.4-1.4,1.2c-0.5-0.1-0.5-0.4-0.5-1.1C509.2-190.4,509.9-191,510.6-190.9z"/>
				</g>
			</g>
		</g>
		<g>
			<polyline class="st1" points="545.8,-242.8 576.1,-226.6 572.1,-216.3 568.2,-205.9 545.5,-211.4 534.8,-213.9 			"/>
			<polyline class="st8" points="550.7,-240.3 552,-243.7 558.1,-244.3 564.5,-241.8 566.6,-237 564.7,-232 			"/>
			<polygon class="st1" points="560.1,-234.9 539.2,-212.9 568.2,-205.9 576.1,-226.6 			"/>
			<line class="st1" x1="544.7" y1="-211.6" x2="546.3" y2="-215.8"/>
			<line class="st1" x1="550.5" y1="-209.6" x2="552.1" y2="-213.8"/>
			<line class="st1" x1="556.6" y1="-208.7" x2="557.7" y2="-211.7"/>
			<line class="st1" x1="562.2" y1="-207" x2="563.2" y2="-209.6"/>
		</g>
		<g>
			<polygon class="st1" points="520.1,-229.5 522.1,-231.7 525.1,-231.9 527.3,-229.8 527.5,-226.8 525.4,-224.6 522.4,-224.5 
				520.2,-226.5 			"/>
			<polygon class="st1" points="530.9,-224.6 531.9,-225.7 533.5,-225.8 534.6,-224.7 534.7,-223.2 533.6,-222 532.1,-222 
				530.9,-223 			"/>
			<polygon class="st1" points="518.7,-218.7 519.7,-219.8 521.3,-219.9 522.4,-218.8 522.5,-217.3 521.4,-216.1 519.9,-216 
				518.7,-217.1 			"/>
		</g>
	</g>
	
		<rect x="3301.2" y="435.5" transform="matrix(0.9583 -0.2859 0.2859 0.9583 14.0364 971.5551)" class="st7" width="67.1" height="4.5"/>
	<g>
		
			<rect x="3198.9" y="397.7" transform="matrix(-0.6144 -0.789 0.789 -0.6144 4899.3696 3195.8982)" class="st15" width="63.6" height="5.9"/>
		<polygon class="st18" points="3243,410.5 3252.3,413 3259,421.6 3259.1,431.2 3252.7,436.3 3243.4,433.8 3236.7,425.2 
			3236.5,415.6 		"/>
	</g>
	<polygon class="st23" points="3304.5,444.7 3304.5,455.6 3286.9,473.1 3261.3,473.1 3258.2,473.1 3235.4,473.1 3217.9,455.6 
		3217.9,444.7 	"/>
	
		<rect x="547.5" y="92.9" transform="matrix(0.9583 -0.2859 0.2859 0.9583 -3.2701 166.0683)" class="st7" width="39.4" height="2.6"/>
	<g>
		
			<rect x="493.4" y="61.4" transform="matrix(-0.6144 -0.789 0.789 -0.6144 783.1066 509.7578)" class="st15" width="45.4" height="4.2"/>
		<polygon class="st18" points="524.9,70.6 531.6,72.3 536.3,78.5 536.4,85.3 531.8,88.9 525.2,87.1 520.4,81 520.3,74.1 		"/>
	</g>
	<polygon class="st23" points="549.4,98.3 549.4,104.7 539.1,115 524.1,115 522.3,115 508.9,115 498.6,104.7 498.6,98.3 	"/>
</g>
</svg>
