<?xml version="1.0" encoding="utf-8"?>
<!-- Generator: Adobe Illustrator 19.1.1, SVG Export Plug-In . SVG Version: 6.00 Build 0)  -->
<svg version="1.1" xmlns="http://www.w3.org/2000/svg" xmlns:xlink="http://www.w3.org/1999/xlink" x="0px" y="0px"
	 viewBox="0 0 149.6 74.8" style="enable-background:new 0 0 149.6 74.8;" xml:space="preserve">
<style type="text/css">
	.st0{display:none;}
	.st1{display:inline;fill:none;stroke:#AC57A1;stroke-width:0.1;stroke-miterlimit:10;stroke-dasharray:1,0.3;}
	.st2{fill:none;stroke:#9C9B9B;stroke-miterlimit:10;}
	.st3{fill:#803193;}
	.st4{fill:#7AB800;}
	.st5{fill:#009AA6;}
	.st6{fill:none;stroke:#66C2CA;stroke-miterlimit:10;}
	.st7{fill:#66C2CA;}
	.st8{fill:none;stroke:#FFFFFF;stroke-width:2;stroke-miterlimit:10;}
	.st9{fill:#FFFFFF;}
	.st10{fill:none;stroke:#AFD466;stroke-miterlimit:10;}
	.st11{fill:#AFD466;}
	.st12{fill:none;stroke:#B383BE;stroke-miterlimit:10;}
	.st13{fill:#B383BE;}
	.st14{fill:#616365;}
	.st15{fill:#B71234;}
	.st16{fill:#F4F4F4;}
	.st17{fill:none;stroke:#FFFFFF;stroke-width:4;}
	.st18{clip-path:url(#SVGID_2_);fill:#FFFFFF;}
	.st19{clip-path:url(#SVGID_4_);fill:#FFFFFF;}
	.st20{clip-path:url(#SVGID_6_);fill:none;stroke:#FFFFFF;}
	.st21{clip-path:url(#SVGID_8_);fill:none;stroke:#FFFFFF;}
	.st22{clip-path:url(#SVGID_10_);fill:none;stroke:#FFFFFF;}
	.st23{clip-path:url(#SVGID_10_);fill:#FFFFFF;}
	.st24{clip-path:url(#SVGID_12_);}
	.st25{fill:none;stroke:#803094;stroke-width:2;stroke-miterlimit:10;}
	.st26{fill:#803094;}
	.st27{fill:none;stroke:#803094;stroke-miterlimit:10;}
	.st28{fill:#66666A;}
	.st29{fill:#BC2036;}
	.st30{fill:#549800;}
</style>
<g id="Layer_2" class="st0">
</g>
<g id="Layer_1">
	<g>
		<path class="st14" d="M26.3,8.3l-2,8.3h-1.6L20.3,6.3h1.3l1.9,8.8l2.1-8.8H27l2.1,8.8l2-8.8h1.3l-2.5,10.3h-1.6L26.3,8.3z"/>
		<path class="st14" d="M38.3,16.6V11c0-0.6-0.3-0.8-0.8-0.8c-0.6,0-1.7,0.4-2.4,0.8v5.6h-1.2V6.2l1.2-0.2v4
			c0.7-0.4,1.8-0.8,2.7-0.8c1.4,0,1.7,0.8,1.7,1.7v5.7H38.3z"/>
		<path class="st14" d="M46.9,16.6h-1.1l-0.1-0.6c-0.7,0.5-1.5,0.8-2.4,0.8c-1,0-2-0.4-2-2.1c0-2.1,1.2-2.3,3.6-2.3
			c0.2,0,0.3,0,0.7,0v-1.1c0-0.7-0.3-1.2-1.4-1.2c-0.8,0-1.6,0.2-2.4,0.4l-0.1-1.1c0.7-0.2,1.8-0.4,2.5-0.4c1.8,0,2.6,0.8,2.6,2.2
			V16.6z M45.7,13.4c-0.4,0-0.6,0-0.9,0c-1.4,0-2.2,0.1-2.2,1.3c0,0.8,0.3,1.1,1,1.1c0.7,0,1.5-0.3,2.1-0.8V13.4z"/>
		<path class="st14" d="M51.1,16.7c-1.4,0-1.7-0.6-1.7-1.9v-4.5h-1.2v-1h1.2V7.4l1.2-0.2v2.1h2l-0.2,1h-1.8v4.5
			c0,0.7,0.1,0.9,0.7,0.9c0.4,0,0.9-0.1,1.3-0.2l0.1,1C52.2,16.7,51.7,16.7,51.1,16.7z"/>
		<path class="st14" d="M58.7,6.4c0.6,0,0.7,0.2,0.7,0.8c0,0.6,0,0.8-0.7,0.8S58,7.9,58,7.2C58,6.6,58.1,6.4,58.7,6.4z M58.1,16.6
			V9.3h1.2v7.3H58.1z"/>
		<path class="st14" d="M64.2,6.9c-0.7,0-1,0.3-1,1.1v1.3h2.1l-0.2,1h-1.9v6.3H62v-6.3h-1.1v-1H62V8c0-1.3,0.6-2,2.3-2
			c0.6,0,1,0.1,1.3,0.1l-0.1,1C65.1,7,64.7,6.9,64.2,6.9z"/>
		<path class="st14" d="M76.1,9.3l-3.8,10.3h-1.2l1.1-2.9l-2.7-7.3h1.3l2,5.6l1.9-5.6H76.1z"/>
		<path class="st14" d="M80.1,16.8c-2.6,0-3.1-1.4-3.1-3.8c0-2.4,0.5-3.8,3.1-3.8s3.1,1.4,3.1,3.8C83.2,15.3,82.7,16.8,80.1,16.8z
			 M80.1,10.2c-1.6,0-1.8,0.6-1.8,2.8c0,2.1,0.2,2.8,1.8,2.8s1.8-0.6,1.8-2.8C82,10.8,81.7,10.2,80.1,10.2z"/>
		<path class="st14" d="M86.3,9.3v5.6c0,0.6,0.3,0.8,0.8,0.8c0.6,0,1.7-0.4,2.4-0.8V9.3h1.2v7.3h-1.1l-0.1-0.7
			c-0.7,0.4-1.8,0.8-2.7,0.8c-1.4,0-1.7-0.8-1.7-1.7V9.3H86.3z"/>
		<path class="st14" d="M99.3,15.7c0.5,0,1.1-0.1,1.7-0.2l0.1,1.1c-0.6,0.1-1.2,0.2-1.9,0.2c-2.6,0-3-1.3-3-3.8c0-2.5,0.5-3.8,3-3.8
			c0.7,0,1.3,0,1.9,0.2l-0.1,1.1c-0.6-0.1-1.3-0.2-1.8-0.2c-1.3,0-1.8,0.3-1.8,2.7C97.5,15.1,97.7,15.7,99.3,15.7z"/>
		<path class="st14" d="M105.8,16.8c-2.6,0-3.1-1.4-3.1-3.8c0-2.4,0.5-3.8,3.1-3.8s3.1,1.4,3.1,3.8
			C108.8,15.3,108.3,16.8,105.8,16.8z M105.8,10.2c-1.6,0-1.8,0.6-1.8,2.8c0,2.1,0.2,2.8,1.8,2.8s1.8-0.6,1.8-2.8
			C107.6,10.8,107.3,10.2,105.8,10.2z"/>
		<path class="st14" d="M111.9,9.3v5.6c0,0.6,0.3,0.8,0.8,0.8c0.6,0,1.7-0.4,2.4-0.8V9.3h1.2v7.3h-1.1l-0.1-0.7
			c-0.7,0.4-1.8,0.8-2.7,0.8c-1.4,0-1.7-0.8-1.7-1.7V9.3H111.9z"/>
		<path class="st14" d="M121.3,16.5c-0.4,0.1-1,0.2-1.5,0.2c-1.3,0-1.3-0.7-1.3-1.9V6.2l1.2-0.2V15c0,0.6,0.2,0.7,0.5,0.7
			c0.3,0,0.5-0.1,0.8-0.1L121.3,16.5z"/>
		<path class="st14" d="M124.8,16.8c-2.1,0-2.4-0.9-2.4-3.8c0-2.8,0.4-3.8,2.8-3.8c0.6,0,1.3,0.1,1.9,0.2V6.2l1.2-0.2v10.6h-1.1
			l-0.1-0.7C126.5,16.4,125.6,16.8,124.8,16.8z M127,10.4c-0.7-0.2-1.4-0.3-2-0.3c-1.3,0-1.4,0.9-1.4,2.8c0,1.9,0.1,2.8,1.3,2.8
			c0.8,0,1.6-0.5,2-0.9V10.4z"/>
		<path class="st14" d="M23.5,34.8c-0.6,0-1.8-0.1-2.7-0.2V24.2l1.2-0.2v3.6c0.5-0.2,1.4-0.5,2.2-0.5c1.9,0,2.3,1.1,2.3,3.8
			C26.6,33.3,26.1,34.8,23.5,34.8z M22,33.6c0.5,0.1,1,0.1,1.5,0.1c1.7,0,1.8-1.3,1.8-2.8c0-1.9-0.1-2.8-1.3-2.8
			c-0.7,0-1.4,0.2-2,0.5V33.6z"/>
		<path class="st14" d="M29.7,27.3v5.6c0,0.6,0.3,0.8,0.8,0.8c0.6,0,1.7-0.4,2.4-0.8v-5.6h1.2v7.3H33l-0.1-0.7
			c-0.7,0.4-1.8,0.8-2.7,0.8c-1.4,0-1.7-0.8-1.7-1.7v-5.7H29.7z"/>
		<path class="st14" d="M41.9,27.3l-3.8,10.3h-1.2l1.1-2.9l-2.7-7.3h1.3l2,5.6l1.9-5.6H41.9z"/>
		<path class="st3" d="M49.5,34.5c-0.4,0.1-1,0.2-1.5,0.2c-1.3,0-1.3-0.7-1.3-1.9v-8.7l1.2-0.2V33c0,0.6,0.2,0.7,0.5,0.7
			c0.3,0,0.5-0.1,0.8-0.1L49.5,34.5z"/>
		<path class="st3" d="M51.7,31.7c0,1.7,0.5,2.1,1.9,2.1c0.6,0,1.7-0.1,2.4-0.4l0.1,1c-0.8,0.2-1.8,0.4-2.6,0.4c-2.6,0-3-1.4-3-4
			c0-2.2,0.5-3.6,3-3.6c2.4,0,2.8,1.4,2.8,3.6v0.6h-4.5V31.7z M51.7,30.4H55v-0.6c0-1.1-0.4-1.6-1.6-1.6c-1.2,0-1.7,0.6-1.7,2V30.4z
			"/>
		<path class="st3" d="M63.7,35.5c0,1.4-0.8,2.2-3,2.2c-0.9,0-1.9-0.1-2.7-0.3l0.1-1c0.8,0.2,1.8,0.4,2.6,0.4c1.4,0,1.8-0.4,1.8-1.1
			v-1.3c-0.5,0.2-1.4,0.4-2.2,0.4c-2.2,0-2.4-1.3-2.4-3.7c0-2.7,0.7-3.8,3.2-3.8c0.7,0,1.7,0.1,2.7,0.2V35.5z M62.4,28.3
			c-0.5-0.1-1-0.2-1.5-0.2c-1.5,0-1.8,0.8-1.8,2.8c0,1.9,0.2,2.7,1.4,2.7c0.7,0,1.3-0.2,2-0.5V28.3z"/>
		<path class="st3" d="M71.1,34.6H70l-0.1-0.6c-0.7,0.5-1.5,0.8-2.4,0.8c-1,0-2-0.4-2-2.1c0-2.1,1.2-2.3,3.6-2.3c0.2,0,0.3,0,0.7,0
			v-1.1c0-0.7-0.3-1.2-1.4-1.2c-0.8,0-1.6,0.2-2.4,0.4L66,27.5c0.7-0.2,1.8-0.4,2.5-0.4c1.8,0,2.6,0.8,2.6,2.2V34.6z M69.9,31.4
			c-0.4,0-0.6,0-0.9,0c-1.4,0-2.2,0.1-2.2,1.3c0,0.8,0.3,1.1,1,1.1c0.7,0,1.5-0.3,2.1-0.8V31.4z"/>
		<path class="st3" d="M76,34.5c-0.4,0.1-1,0.2-1.5,0.2c-1.3,0-1.3-0.7-1.3-1.9v-8.7l1.2-0.2V33c0,0.6,0.2,0.7,0.5,0.7
			c0.3,0,0.5-0.1,0.8-0.1L76,34.5z"/>
		<path class="st3" d="M82.9,34.8c-0.8,0-1.7-0.1-2.3-0.3l0.2-1c0.6,0.2,1.5,0.3,2.2,0.3c1,0,1.4-0.1,1.4-1c0-0.8,0-0.9-1.5-1.3
			c-2.1-0.5-2.3-1-2.3-2.3c0-1.4,0.7-2,2.6-2c0.6,0,1.6,0.1,2.2,0.2l-0.1,1c-0.8-0.1-1.5-0.2-2.2-0.2c-1,0-1.2,0.3-1.2,0.9
			c0,0.7,0.1,0.9,1.2,1.2c2.5,0.6,2.6,1,2.6,2.4C85.6,34.2,84.8,34.8,82.9,34.8z"/>
		<path class="st3" d="M88.4,31.7c0,1.7,0.5,2.1,1.9,2.1c0.6,0,1.7-0.1,2.4-0.4l0.1,1c-0.8,0.2-1.8,0.4-2.6,0.4c-2.6,0-3-1.4-3-4
			c0-2.2,0.5-3.6,3-3.6c2.4,0,2.8,1.4,2.8,3.6v0.6h-4.5V31.7z M88.4,30.4h3.3v-0.6c0-1.1-0.4-1.6-1.6-1.6c-1.2,0-1.7,0.6-1.7,2V30.4
			z"/>
		<path class="st3" d="M98.4,28.3c-0.8,0.1-1.6,0.4-2.4,1v5.3h-1.2v-7.3h1.1l0.1,0.9c0.7-0.6,1.5-0.9,2.4-1.1V28.3z"/>
		<path class="st3" d="M103.1,34.6h-1.4l-2.5-7.3h1.3l1.9,6l2-6h1.3L103.1,34.6z"/>
		<path class="st3" d="M107.6,24.4c0.6,0,0.7,0.2,0.7,0.8c0,0.6,0,0.8-0.7,0.8s-0.7-0.2-0.7-0.8C106.9,24.6,107,24.4,107.6,24.4z
			 M107,34.6v-7.3h1.2v7.3H107z"/>
		<path class="st3" d="M113.2,33.7c0.5,0,1.1-0.1,1.7-0.2l0.1,1.1c-0.6,0.1-1.2,0.2-1.9,0.2c-2.6,0-3-1.3-3-3.8c0-2.5,0.5-3.8,3-3.8
			c0.7,0,1.3,0,1.9,0.2l-0.1,1.1c-0.6-0.1-1.3-0.2-1.8-0.2c-1.3,0-1.8,0.3-1.8,2.7C111.4,33.1,111.6,33.7,113.2,33.7z"/>
		<path class="st3" d="M117.8,31.7c0,1.7,0.5,2.1,1.9,2.1c0.6,0,1.7-0.1,2.4-0.4l0.1,1c-0.8,0.2-1.8,0.4-2.6,0.4c-2.6,0-3-1.4-3-4
			c0-2.2,0.5-3.6,3-3.6c2.4,0,2.8,1.4,2.8,3.6v0.6h-4.5V31.7z M117.8,30.4h3.3v-0.6c0-1.1-0.4-1.6-1.6-1.6c-1.2,0-1.7,0.6-1.7,2
			V30.4z"/>
		<path class="st3" d="M126.2,34.8c-0.8,0-1.7-0.1-2.3-0.3l0.2-1c0.6,0.2,1.5,0.3,2.2,0.3c1,0,1.4-0.1,1.4-1c0-0.8,0-0.9-1.5-1.3
			c-2.1-0.5-2.3-1-2.3-2.3c0-1.4,0.7-2,2.6-2c0.6,0,1.6,0.1,2.2,0.2l-0.1,1c-0.8-0.1-1.5-0.2-2.2-0.2c-1,0-1.2,0.3-1.2,0.9
			c0,0.7,0.1,0.9,1.2,1.2c2.5,0.6,2.6,1,2.6,2.4C128.9,34.2,128.1,34.8,126.2,34.8z"/>
		<path class="st14" d="M20.2,52.5c-0.4,0.1-1,0.2-1.5,0.2c-1.3,0-1.3-0.7-1.3-1.9v-8.7l1.2-0.2V51c0,0.6,0.2,0.7,0.5,0.7
			c0.3,0,0.5-0.1,0.8-0.1L20.2,52.5z"/>
		<path class="st14" d="M22.2,42.4c0.6,0,0.7,0.2,0.7,0.8c0,0.6,0,0.8-0.7,0.8s-0.7-0.2-0.7-0.8C21.5,42.6,21.6,42.4,22.2,42.4z
			 M21.6,52.6v-7.3h1.2v7.3H21.6z"/>
		<path class="st14" d="M25,52.6V42.2l1.2-0.2v6.7l2.9-3.3h1.5l-3.1,3.3l3.3,4h-1.6l-3.2-3.9v3.9H25z"/>
		<path class="st14" d="M33.2,49.7c0,1.7,0.5,2.1,1.9,2.1c0.6,0,1.7-0.1,2.4-0.4l0.1,1c-0.8,0.2-1.8,0.4-2.6,0.4c-2.6,0-3-1.4-3-4
			c0-2.2,0.5-3.6,3-3.6c2.4,0,2.8,1.4,2.8,3.6v0.6h-4.5V49.7z M33.2,48.4h3.3v-0.6c0-1.1-0.4-1.6-1.6-1.6c-1.2,0-1.7,0.6-1.7,2V48.4
			z"/>
		<path class="st14" d="M48.8,45.3L45,55.6h-1.2l1.1-2.9l-2.7-7.3h1.3l2,5.6l1.9-5.6H48.8z"/>
		<path class="st14" d="M52.8,52.8c-2.6,0-3.1-1.4-3.1-3.8c0-2.4,0.5-3.8,3.1-3.8s3.1,1.4,3.1,3.8C55.9,51.3,55.4,52.8,52.8,52.8z
			 M52.8,46.2c-1.6,0-1.8,0.6-1.8,2.8c0,2.1,0.2,2.8,1.8,2.8s1.8-0.6,1.8-2.8C54.6,46.8,54.4,46.2,52.8,46.2z"/>
		<path class="st14" d="M59,45.3v5.6c0,0.6,0.3,0.8,0.8,0.8c0.6,0,1.7-0.4,2.4-0.8v-5.6h1.2v7.3h-1.1l-0.1-0.7
			c-0.7,0.4-1.8,0.8-2.7,0.8c-1.4,0-1.7-0.8-1.7-1.7v-5.7H59z"/>
		<path class="st14" d="M71.9,52.8c-0.6,0-1.8-0.1-2.7-0.2V42.2l1.2-0.2v3.6c0.5-0.2,1.4-0.5,2.2-0.5c1.9,0,2.3,1.1,2.3,3.8
			C75,51.3,74.6,52.8,71.9,52.8z M70.4,51.6c0.5,0.1,1,0.1,1.5,0.1c1.7,0,1.8-1.3,1.8-2.8c0-1.9-0.1-2.8-1.3-2.8
			c-0.7,0-1.4,0.2-2,0.5V51.6z"/>
		<path class="st14" d="M78.1,45.3v5.6c0,0.6,0.3,0.8,0.8,0.8c0.6,0,1.7-0.4,2.4-0.8v-5.6h1.2v7.3h-1.1l-0.1-0.7
			c-0.7,0.4-1.8,0.8-2.7,0.8c-1.4,0-1.7-0.8-1.7-1.7v-5.7H78.1z"/>
		<path class="st14" d="M90.3,45.3l-3.8,10.3h-1.2l1.1-2.9l-2.7-7.3h1.3l2,5.6l1.9-5.6H90.3z"/>
		<path class="st14" d="M97.2,52.7c-1.4,0-1.7-0.6-1.7-1.9v-4.5h-1.2v-1h1.2v-1.8l1.2-0.2v2.1h2l-0.2,1h-1.8v4.5
			c0,0.7,0.1,0.9,0.7,0.9c0.4,0,0.9-0.1,1.3-0.2l0.1,1C98.4,52.7,97.9,52.7,97.2,52.7z"/>
		<path class="st14" d="M105,52.6V47c0-0.6-0.3-0.8-0.8-0.8c-0.6,0-1.7,0.4-2.4,0.8v5.6h-1.2V42.2l1.2-0.2v4
			c0.7-0.4,1.8-0.8,2.7-0.8c1.4,0,1.7,0.8,1.7,1.7v5.7H105z"/>
		<path class="st14" d="M109.1,42.4c0.6,0,0.7,0.2,0.7,0.8c0,0.6,0,0.8-0.7,0.8s-0.7-0.2-0.7-0.8C108.4,42.6,108.4,42.4,109.1,42.4z
			 M108.4,52.6v-7.3h1.2v7.3H108.4z"/>
		<path class="st14" d="M116.3,52.6V47c0-0.6-0.3-0.8-0.8-0.8c-0.6,0-1.7,0.4-2.4,0.8v5.6h-1.2v-7.3h1.1l0.1,0.7
			c0.7-0.4,1.8-0.8,2.7-0.8c1.4,0,1.7,0.8,1.7,1.7v5.7H116.3z"/>
		<path class="st14" d="M125.3,53.5c0,1.4-0.8,2.2-3,2.2c-0.9,0-1.9-0.1-2.7-0.3l0.1-1c0.8,0.2,1.8,0.4,2.6,0.4
			c1.4,0,1.8-0.4,1.8-1.1v-1.3c-0.5,0.2-1.4,0.4-2.2,0.4c-2.2,0-2.4-1.3-2.4-3.7c0-2.7,0.7-3.8,3.2-3.8c0.7,0,1.7,0.1,2.7,0.2V53.5z
			 M124,46.3c-0.5-0.1-1-0.2-1.5-0.2c-1.5,0-1.8,0.8-1.8,2.8c0,1.9,0.2,2.7,1.4,2.7c0.7,0,1.3-0.2,2-0.5V46.3z"/>
		<path class="st14" d="M129.5,52.8c-0.8,0-1.7-0.1-2.3-0.3l0.2-1c0.6,0.2,1.5,0.3,2.2,0.3c1,0,1.4-0.1,1.4-1c0-0.8,0-0.9-1.5-1.3
			c-2.1-0.5-2.3-1-2.3-2.3c0-1.4,0.7-2,2.6-2c0.6,0,1.6,0.1,2.2,0.2l-0.1,1c-0.8-0.1-1.5-0.2-2.2-0.2c-1,0-1.2,0.3-1.2,0.9
			c0,0.7,0.1,0.9,1.2,1.2c2.5,0.6,2.6,1,2.6,2.4C132.2,52.2,131.4,52.8,129.5,52.8z"/>
		<path class="st14" d="M40.5,70.8c-2.6,0-3.1-1.4-3.1-3.8c0-2.4,0.5-3.8,3.1-3.8s3.1,1.4,3.1,3.8C43.6,69.3,43.1,70.8,40.5,70.8z
			 M40.5,64.2c-1.6,0-1.8,0.6-1.8,2.8c0,2.1,0.2,2.8,1.8,2.8s1.8-0.6,1.8-2.8C42.3,64.8,42.1,64.2,40.5,64.2z"/>
		<path class="st14" d="M49.9,70.6V65c0-0.6-0.3-0.8-0.8-0.8c-0.6,0-1.7,0.4-2.4,0.8v5.6h-1.2v-7.3h1.1l0.1,0.7
			c0.7-0.4,1.8-0.8,2.7-0.8c1.4,0,1.7,0.8,1.7,1.7v5.7H49.9z"/>
		<path class="st14" d="M63.3,70.6l-1-2.9h-4l-0.9,2.9h-1.3l3.5-10.3h1.5l3.6,10.3H63.3z M60.3,61.5l-1.7,5.2H62L60.3,61.5z"/>
		<path class="st14" d="M74.4,70.6V65c0-0.6-0.2-0.8-0.7-0.8c-0.5,0-1.5,0.4-2.3,0.9v5.5h-1.2V65c0-0.6-0.2-0.8-0.7-0.8
			c-0.5,0-1.5,0.4-2.3,0.9v5.5h-1.2v-7.3h1.1l0.2,0.7c0.7-0.4,1.7-0.9,2.6-0.9c0.8,0,1.2,0.3,1.4,0.9c0.8-0.5,1.8-0.9,2.7-0.9
			c1.2,0,1.5,0.7,1.5,1.8v5.6H74.4z"/>
		<path class="st14" d="M83,70.6H82l-0.1-0.6c-0.7,0.5-1.5,0.8-2.4,0.8c-1,0-2-0.4-2-2.1c0-2.1,1.2-2.3,3.6-2.3c0.2,0,0.3,0,0.7,0
			v-1.1c0-0.7-0.3-1.2-1.4-1.2c-0.8,0-1.6,0.2-2.4,0.4l-0.1-1.1c0.7-0.2,1.8-0.4,2.5-0.4c1.8,0,2.6,0.8,2.6,2.2V70.6z M81.8,67.4
			c-0.4,0-0.6,0-0.9,0c-1.4,0-2.2,0.1-2.2,1.3c0,0.8,0.3,1.1,1,1.1c0.7,0,1.5-0.3,2.1-0.8V67.4z"/>
		<path class="st14" d="M85,63.3h5v1l-3.8,5.3h3.9v1h-5.3v-0.9l3.8-5.4H85V63.3z"/>
		<path class="st14" d="M94.7,70.8c-2.6,0-3.1-1.4-3.1-3.8c0-2.4,0.5-3.8,3.1-3.8s3.1,1.4,3.1,3.8C97.8,69.3,97.3,70.8,94.7,70.8z
			 M94.7,64.2c-1.6,0-1.8,0.6-1.8,2.8c0,2.1,0.2,2.8,1.8,2.8s1.8-0.6,1.8-2.8C96.5,64.8,96.3,64.2,94.7,64.2z"/>
		<path class="st14" d="M104.1,70.6V65c0-0.6-0.3-0.8-0.8-0.8c-0.6,0-1.7,0.4-2.4,0.8v5.6h-1.2v-7.3h1.1l0.1,0.7
			c0.7-0.4,1.8-0.8,2.7-0.8c1.4,0,1.7,0.8,1.7,1.7v5.7H104.1z"/>
		<path class="st14" d="M108,67.3c0.2-1,0.3-1.6,1.1-2.3c0.8-0.7,1.4-0.9,1.4-2.4c0-1.1-0.3-1.6-1.7-1.6c-0.7,0-1.4,0.1-2.1,0.4
			l-0.1-1.1c0.7-0.2,1.5-0.4,2.3-0.4c2.1,0,2.9,0.8,2.9,2.6c0,2.1-1,2.3-1.9,3.3c-0.5,0.5-0.6,0.9-0.9,1.7L108,67.3z M108.6,69
			c0.6,0,0.7,0.2,0.7,0.8c0,0.6,0,0.8-0.7,0.8s-0.7-0.2-0.7-0.8C108,69.2,108,69,108.6,69z"/>
	</g>
</g>
</svg>
