<?xml version="1.0" encoding="utf-8"?>
<!-- Generator: Adobe Illustrator 19.1.1, SVG Export Plug-In . SVG Version: 6.00 Build 0)  -->
<svg version="1.1" xmlns="http://www.w3.org/2000/svg" xmlns:xlink="http://www.w3.org/1999/xlink" x="0px" y="0px"
	 viewBox="0 0 200 200" style="enable-background:new 0 0 200 200;" xml:space="preserve">
<style type="text/css">
	.st0{display:none;}
	.st1{display:inline;fill:none;stroke:#AC57A1;stroke-width:0.1;stroke-miterlimit:10;stroke-dasharray:1,0.3;}
	.st2{fill:none;stroke:#9C9B9B;stroke-miterlimit:10;}
	.st3{fill:#803193;}
	.st4{fill:#7AB800;}
	.st5{fill:#009AA6;}
	.st6{fill:none;stroke:#66C2CA;stroke-miterlimit:10;}
	.st7{fill:#66C2CA;}
	.st8{fill:none;stroke:#FFFFFF;stroke-width:2;stroke-miterlimit:10;}
	.st9{fill:#FFFFFF;}
	.st10{fill:none;stroke:#AFD466;stroke-miterlimit:10;}
	.st11{fill:#AFD466;}
	.st12{fill:none;stroke:#B383BE;stroke-miterlimit:10;}
	.st13{fill:#B383BE;}
	.st14{fill:#616365;}
	.st15{fill:#B71234;}
	.st16{fill:#F4F4F4;}
	.st17{fill:none;stroke:#FFFFFF;stroke-width:4;}
	.st18{clip-path:url(#SVGID_2_);fill:#FFFFFF;}
	.st19{clip-path:url(#SVGID_4_);fill:#FFFFFF;}
	.st20{clip-path:url(#SVGID_6_);fill:none;stroke:#FFFFFF;}
	.st21{clip-path:url(#SVGID_8_);fill:none;stroke:#FFFFFF;}
	.st22{clip-path:url(#SVGID_10_);fill:none;stroke:#FFFFFF;}
	.st23{clip-path:url(#SVGID_10_);fill:#FFFFFF;}
	.st24{clip-path:url(#SVGID_12_);}
	.st25{fill:none;stroke:#803094;stroke-width:2;stroke-miterlimit:10;}
	.st26{fill:#803094;}
	.st27{fill:none;stroke:#803094;stroke-miterlimit:10;}
	.st28{fill:#66666A;}
	.st29{fill:#BC2036;}
	.st30{fill:#549800;}
</style>
<g id="Layer_2" class="st0">
	<rect x="20.1" y="20.2" class="st1" width="159.7" height="159.7"/>
	<polygon class="st1" points="0,100.1 99.9,0.3 199.8,100 99.9,199.8 	"/>
	<line class="st1" x1="199.8" y1="0.2" x2="0" y2="200"/>
	<line class="st1" x1="199.8" y1="200" x2="0" y2="0.3"/>
	<line class="st1" x1="0" y1="100.1" x2="199.8" y2="100.1"/>
	<line class="st1" x1="99.9" y1="0" x2="99.9" y2="200"/>
</g>
<g id="Layer_1">
	<g>
		<path class="st28" d="M13,107.5h19.6V104c0-6.5-2.4-9.7-9.4-9.7c-7.1,0-10.3,3.3-10.3,12V107.5z M13,115.2
			c0,10.1,2.9,12.3,11.1,12.3c3.8,0,10.2-0.9,14.4-2.2l0.4,6.2c-4.5,1.3-11,2.1-15.7,2.1c-15.5,0-17.7-8-17.7-23.8
			c0-13,3.2-21.6,17.8-21.6c14.4,0,16.7,8.1,16.7,21.4v3.8H13V115.2z"/>
		<path class="st28" d="M70,132.4c-2.2,0.7-5.9,1.3-8.7,1.3c-7.5,0-8-4-8-11.5V70.5l7.3-1.2v53.9c0,3.6,1.4,4.4,3.2,4.4
			c1.5,0,3-0.4,4.5-0.9L70,132.4z"/>
	</g>
	<polygon class="st29" points="96.2,102 103.4,91 110.7,101.7 103.1,112.9 	"/>
	<g>
		<path class="st28" d="M149.4,133.5c-8.3,0-10-3.7-10-11.5V95.2h-6.9v-6.1h6.9v-11l7.3-1.3v12.2h12.1l-1.2,6.1h-11v26.6
			c0,4.2,0.4,5.5,4.4,5.5c2.5,0,5.2-0.5,7.9-1.4l0.5,6.2C156.3,133,153,133.5,149.4,133.5"/>
		<path class="st28" d="M193.5,95.3c-4.8,0.7-9.6,2.6-14.2,5.8v31.5H172V89.1h6.6l0.6,5.3c4.3-3.4,8.8-5.3,14.3-6.3V95.3z"/>
	</g>
	<polygon class="st30" points="100.7,90.2 88.8,71.4 80.5,71.4 96.5,96.8 98.9,93.2 	"/>
	<polygon class="st30" points="106.5,90.2 118.1,71.4 126.4,71.4 110.7,96.8 108.3,93.2 	"/>
	<polygon class="st30" points="80.5,132.5 88.8,132.5 100.7,113.8 98.9,110.7 96.5,107.1 	"/>
	<polygon class="st30" points="108.3,110.7 106.5,113.8 118.1,132.5 126.4,132.5 110.7,107.1 	"/>
</g>
</svg>
