<?xml version="1.0" encoding="utf-8"?>
<!-- Generator: Adobe Illustrator 19.1.1, SVG Export Plug-In . SVG Version: 6.00 Build 0)  -->
<svg version="1.1" xmlns="http://www.w3.org/2000/svg" xmlns:xlink="http://www.w3.org/1999/xlink" x="0px" y="0px"
	 viewBox="0 0 1280 477" style="enable-background:new 0 0 1280 477;" xml:space="preserve">
<style type="text/css">
	.st0{display:none;}
	.st1{display:inline;fill:none;stroke:#AC57A1;stroke-width:0.1;stroke-miterlimit:10;stroke-dasharray:1,0.3;}
	.st2{fill:none;stroke:#9C9B9B;stroke-miterlimit:10;}
	.st3{fill:#803193;}
	.st4{fill:#7AB800;}
	.st5{fill:#009AA6;}
	.st6{fill:none;stroke:#66C2CA;stroke-miterlimit:10;}
	.st7{fill:#66C2CA;}
	.st8{fill:none;stroke:#FFFFFF;stroke-width:2;stroke-miterlimit:10;}
	.st9{fill:#FFFFFF;}
	.st10{fill:none;stroke:#AFD466;stroke-miterlimit:10;}
	.st11{fill:#AFD466;}
	.st12{fill:none;stroke:#B383BE;stroke-miterlimit:10;}
	.st13{fill:#B383BE;}
	.st14{fill:#616365;}
	.st15{fill:#B71234;}
	.st16{fill:#F4F4F4;}
	.st17{fill:none;stroke:#FFFFFF;stroke-width:4;}
	.st18{clip-path:url(#SVGID_2_);fill:#FFFFFF;}
	.st19{clip-path:url(#SVGID_4_);fill:#FFFFFF;}
	.st20{clip-path:url(#SVGID_6_);fill:none;stroke:#FFFFFF;}
	.st21{clip-path:url(#SVGID_8_);fill:none;stroke:#FFFFFF;}
	.st22{clip-path:url(#SVGID_10_);fill:none;stroke:#FFFFFF;}
	.st23{clip-path:url(#SVGID_10_);fill:#FFFFFF;}
	.st24{clip-path:url(#SVGID_12_);}
	.st25{fill:none;stroke:#803094;stroke-width:2;stroke-miterlimit:10;}
	.st26{fill:#803094;}
	.st27{fill:none;stroke:#803094;stroke-miterlimit:10;}
	.st28{fill:#66666A;}
	.st29{fill:#BC2036;}
	.st30{fill:#549800;}
</style>
<g id="Layer_2" class="st0">
</g>
<g id="Layer_1">
	<rect x="162.5" y="0" class="st15" width="1032" height="265"/>
	<rect x="85.5" y="0" class="st15" width="1032" height="265"/>
	<rect x="85.5" y="265" class="st16" width="1109" height="212"/>
	<polyline class="st17" points="123.5,120 104.4,131.8 123.5,143.5 	"/>
	<polyline class="st17" points="1159.6,143.5 1178.7,131.8 1159.6,120 	"/>
	<g>
		<polygon class="st9" points="711,37.3 665.1,55.4 665.1,177.1 711,177.1 		"/>
		<polygon class="st9" points="661.2,177.1 615.4,177.1 615.4,75.1 661.2,57 		"/>
		<polygon class="st9" points="565.6,94.8 565.6,177.1 611.4,177.1 611.4,76.6 		"/>
		<g>
			<defs>
				<rect id="SVGID_1_" x="565.6" y="37.3" width="156.2" height="183"/>
			</defs>
			<clipPath id="SVGID_2_">
				<use xlink:href="#SVGID_1_"  style="overflow:visible;"/>
			</clipPath>
			<path class="st18" d="M586.2,220.3h-7.5l-3.2-20.1l-1.5,20.1h-8.4l2.8-33.4H580l1.9,11.2c0.2,0.9,0.3,1.9,0.4,3
				c0.1,1.1,0.2,2.3,0.3,3.5c0.2-2.1,0.4-4,0.8-5.7l2.2-12.1h11.3l2.2,33.4h-8l-1.2-20.1L586.2,220.3z"/>
			<path class="st18" d="M615,209l-0.6-3.9c0,0,0-0.2-0.1-0.6c0-0.3-0.2-1.6-0.5-3.8c0-0.2-0.1-0.6-0.1-1c0-0.4-0.1-1-0.2-1.6
				l-0.3-3.2c0,0.3-0.1,0.6-0.1,1c-0.1,0.4-0.1,0.8-0.2,1.2c-0.1,0.9-0.2,1.5-0.2,1.9c0,0.3-0.1,0.6-0.1,0.6l-0.6,4l-0.9,5.2H615z
				 M626,220.3h-9.3l-0.7-4.2H610l-0.7,4.2h-9.3l8-33.4h11L626,220.3z"/>
			<path class="st18" d="M635.9,201.9h0.6c1,0,1.9-0.4,2.6-1.2c0.7-0.8,1-1.8,1-3c0-2.5-1.3-3.7-3.9-3.7h-0.3V201.9z M650.6,220.3
				h-9.8l-4.5-11.9c0-0.2-0.1-0.5-0.2-0.8c-0.1-0.3-0.2-0.7-0.4-1.2l0.1,2.2v11.7h-9v-33.4h9.2c4.1,0,7.1,0.8,9.1,2.4
				c2.6,2.1,3.8,5,3.8,8.7c0,4-1.7,6.8-5.2,8.4L650.6,220.3z"/>
		</g>
		<polygon class="st9" points="665,186.9 660.1,201.2 660.3,186.9 651.3,186.9 651.3,220.3 660.3,220.3 660.1,204.9 666.1,220.3 
			675.8,220.3 667.7,203 674.5,186.9 		"/>
		<polygon class="st9" points="676.6,186.9 676.6,220.3 693.1,220.3 693.1,212.6 685.3,212.6 685.3,207.2 692.1,207.2 692.1,199.3 
			685.3,199.3 685.3,194.7 693.1,194.7 693.1,186.9 		"/>
		<polygon class="st9" points="695.1,186.9 695.1,220.3 711,220.3 711,212.6 703.7,212.6 703.7,186.9 		"/>
		<g>
			<defs>
				<rect id="SVGID_3_" x="565.6" y="37.3" width="156.2" height="183"/>
			</defs>
			<clipPath id="SVGID_4_">
				<use xlink:href="#SVGID_3_"  style="overflow:visible;"/>
			</clipPath>
			<path class="st19" d="M712.3,192.8V190h1.9c0.9,0,1.9,0.2,1.9,1.4c0,1.4-1,1.4-2.2,1.4H712.3z M712.3,194h1.6l2.4,3.9h1.5
				l-2.6-3.9c1.3-0.2,2.4-0.9,2.4-2.5c0-1.8-1.1-2.6-3.2-2.6h-3.4v9h1.3V194z M707.6,193.4c0-3.7,2.7-6.5,6.3-6.5
				c3.5,0,6.3,2.8,6.3,6.5c0,3.7-2.8,6.5-6.3,6.5C710.4,199.9,707.6,197.1,707.6,193.4 M706,193.4c0,4.5,3.6,7.8,7.9,7.8
				c4.3,0,7.9-3.3,7.9-7.8c0-4.5-3.6-7.8-7.9-7.8C709.6,185.6,706,188.9,706,193.4"/>
		</g>
	</g>
</g>
</svg>
