<?xml version="1.0" encoding="utf-8"?>
<!-- Generator: Adobe Illustrator 19.1.1, SVG Export Plug-In . SVG Version: 6.00 Build 0)  -->
<svg version="1.1" xmlns="http://www.w3.org/2000/svg" xmlns:xlink="http://www.w3.org/1999/xlink" x="0px" y="0px"
	 viewBox="0 0 200 200" style="enable-background:new 0 0 200 200;" xml:space="preserve">
<style type="text/css">
	.st0{display:none;}
	.st1{display:inline;fill:none;stroke:#AC57A1;stroke-width:0.1;stroke-miterlimit:10;stroke-dasharray:1,0.3;}
	.st2{fill:none;stroke:#9C9B9B;stroke-miterlimit:10;}
	.st3{fill:#803193;}
	.st4{fill:#7AB800;}
	.st5{fill:#009AA6;}
	.st6{fill:none;stroke:#66C2CA;stroke-miterlimit:10;}
	.st7{fill:#66C2CA;}
	.st8{fill:none;stroke:#FFFFFF;stroke-width:2;stroke-miterlimit:10;}
	.st9{fill:#FFFFFF;}
	.st10{fill:none;stroke:#AFD466;stroke-miterlimit:10;}
	.st11{fill:#AFD466;}
	.st12{fill:none;stroke:#B383BE;stroke-miterlimit:10;}
	.st13{fill:#B383BE;}
	.st14{fill:#616365;}
	.st15{fill:#B71234;}
	.st16{fill:#F4F4F4;}
	.st17{fill:none;stroke:#FFFFFF;stroke-width:4;}
	.st18{clip-path:url(#SVGID_2_);fill:#FFFFFF;}
	.st19{clip-path:url(#SVGID_4_);fill:#FFFFFF;}
	.st20{clip-path:url(#SVGID_6_);fill:none;stroke:#FFFFFF;}
	.st21{clip-path:url(#SVGID_8_);fill:none;stroke:#FFFFFF;}
	.st22{clip-path:url(#SVGID_10_);fill:none;stroke:#FFFFFF;}
	.st23{clip-path:url(#SVGID_10_);fill:#FFFFFF;}
	.st24{clip-path:url(#SVGID_12_);}
	.st25{fill:none;stroke:#803094;stroke-width:2;stroke-miterlimit:10;}
	.st26{fill:#803094;}
	.st27{fill:none;stroke:#803094;stroke-miterlimit:10;}
	.st28{fill:#66666A;}
	.st29{fill:#BC2036;}
	.st30{fill:#549800;}
</style>
<g id="Layer_2" class="st0">
	<rect x="20.1" y="20.2" class="st1" width="159.7" height="159.7"/>
	<polygon class="st1" points="0,100.1 99.9,0.3 199.8,100 99.9,199.8 	"/>
	<line class="st1" x1="199.8" y1="0.2" x2="0" y2="200"/>
	<line class="st1" x1="199.8" y1="200" x2="0" y2="0.3"/>
	<line class="st1" x1="0" y1="100.1" x2="199.8" y2="100.1"/>
	<line class="st1" x1="99.9" y1="0" x2="99.9" y2="200"/>
</g>
<g id="Layer_1">
	<g>
		<path class="st25" d="M160.9,36.7l19.4,19.4v27.5L160.9,103h-27.5L114,83.6V56.1l19.4-19.4 M48.2,79.3h55.6 M48.2,103.2h55.6
			 M48.2,127.9h55.6 M48.2,152.6h55.6 M131.6,110.6v59v9.6H20.3V27.1h82.9l6.6,6.6"/>
	</g>
	<rect x="141" y="21.1" class="st26" width="12.9" height="4.3"/>
	<polyline class="st26" points="149.7,65.1 153,68.4 153,73.1 149.7,76.4 145.1,76.4 141.8,73.1 141.8,68.4 145.1,65.1 	"/>
	<line class="st27" x1="147.7" y1="71.7" x2="165.8" y2="53.6"/>
	
		<rect x="114.2" y="42.7" transform="matrix(0.7071 -0.7071 0.7071 0.7071 4.2213 99.362)" class="st26" width="15.8" height="3.8"/>
	
		<rect x="165" y="42.7" transform="matrix(-0.7071 -0.7071 0.7071 -0.7071 263.5361 198.3313)" class="st26" width="15.8" height="3.8"/>
	<g>
		<line class="st25" x1="147.2" y1="22.6" x2="147.2" y2="33.6"/>
	</g>
</g>
</svg>
